<?xml version="1.0" encoding="utf-8"?>
<!-- Generated by IcoMoon.io -->
<!DOCTYPE svg PUBLIC "-//W3C//DTD SVG 1.1//EN" "http://www.w3.org/Graphics/SVG/1.1/DTD/svg11.dtd">
<svg version="1.1" xmlns="http://www.w3.org/2000/svg" xmlns:xlink="http://www.w3.org/1999/xlink" width="32" height="32" viewBox="0 0 32 32">
<path d="M26.133 24.453c1.92-2.293 3.067-5.227 3.067-8.453s-1.147-6.16-3.067-8.453l0.053-0.053c0.48-0.48 0.48-1.227 0-1.707s-1.227-0.48-1.707 0l-0.027 0.080c-2.293-1.92-5.253-3.067-8.453-3.067s-6.16 1.147-8.453 3.067l-0.053-0.053c-0.48-0.48-1.227-0.48-1.707 0s-0.48 1.227 0 1.707l0.053 0.053c-1.893 2.267-3.040 5.227-3.040 8.427s1.147 6.16 3.067 8.453l-0.053 0.053c-0.48 0.48-0.48 1.227 0 1.707 0.24 0.24 0.533 0.347 0.853 0.347s0.613-0.107 0.853-0.347l0.053-0.053c2.293 1.92 5.227 3.067 8.453 3.067s6.16-1.147 8.453-3.067l0.053 0.053c0.24 0.24 0.533 0.347 0.853 0.347s0.613-0.107 0.853-0.347c0.48-0.48 0.48-1.227 0-1.707l-0.107-0.053zM26.8 16c0 2.533-0.88 4.88-2.373 6.747l-2.080-2.080c0.96-1.307 1.52-2.907 1.52-4.64s-0.56-3.333-1.52-4.64l2.080-2.080c1.493 1.813 2.373 4.16 2.373 6.693zM19.147 19.147c-0.4 0.4-0.453 0.987-0.187 1.44-0.853 0.56-1.867 0.88-2.96 0.88s-2.107-0.32-2.96-0.88c0.267-0.453 0.187-1.040-0.187-1.44-0.4-0.4-0.987-0.453-1.44-0.187-0.56-0.853-0.88-1.867-0.88-2.96s0.32-2.107 0.88-2.96c0.187 0.107 0.373 0.16 0.587 0.16 0.32 0 0.613-0.107 0.853-0.347 0.4-0.4 0.453-0.987 0.187-1.44 0.853-0.56 1.867-0.88 2.96-0.88s2.107 0.32 2.96 0.88c-0.267 0.453-0.187 1.040 0.187 1.44 0.24 0.24 0.533 0.347 0.853 0.347 0.213 0 0.4-0.053 0.587-0.16 0.56 0.853 0.88 1.867 0.88 2.96s-0.32 2.107-0.88 2.96c-0.453-0.267-1.040-0.187-1.44 0.187zM16 5.2c2.533 0 4.88 0.88 6.747 2.373l-2.080 2.080c-1.307-0.96-2.907-1.52-4.64-1.52s-3.333 0.56-4.64 1.52l-2.080-2.080c1.813-1.493 4.16-2.373 6.693-2.373zM5.2 16c0-2.533 0.88-4.88 2.373-6.747l2.080 2.080c-0.96 1.307-1.52 2.907-1.52 4.64s0.56 3.333 1.52 4.64l-2.080 2.080c-1.493-1.813-2.373-4.16-2.373-6.693zM16 26.8c-2.533 0-4.88-0.88-6.747-2.373l2.080-2.080c1.307 0.96 2.907 1.52 4.64 1.52s3.333-0.56 4.64-1.52l2.080 2.080c-1.813 1.493-4.16 2.373-6.693 2.373z"></path>
</svg>
