<?xml version="1.0" encoding="utf-8"?>
<!-- Generated by IcoMoon.io -->
<!DOCTYPE svg PUBLIC "-//W3C//DTD SVG 1.1//EN" "http://www.w3.org/Graphics/SVG/1.1/DTD/svg11.dtd">
<svg version="1.1" xmlns="http://www.w3.org/2000/svg" xmlns:xlink="http://www.w3.org/1999/xlink" width="32" height="32" viewBox="0 0 32 32">
<path d="M29.040 15.387l-3.893-6.48c-0.053-0.187-0.187-0.347-0.4-0.507v0c-0.213-0.16-0.453-0.267-0.747-0.267h-16c-0.427 0-0.8 0.213-1.040 0.587l-4 6.667c-0.347 0.56-0.16 1.307 0.4 1.653s1.307 0.16 1.653-0.4l1.76-2.96v14.32c0 0.667 0.533 1.2 1.2 1.2h16c0.667 0 1.2-0.533 1.2-1.2v-14.347l1.76 2.96c0.213 0.373 0.613 0.587 1.040 0.587 0.213 0 0.427-0.053 0.613-0.16 0.587-0.347 0.773-1.093 0.453-1.653zM21.92 10.533c-0.747 1.227-1.76 2.907-2.587 4.267h-6.667l-2.56-4.267h11.813zM17.2 26.8v-6.8c0-0.667-0.533-1.2-1.2-1.2s-1.2 0.533-1.2 1.2v6.8h-5.6v-13.147l1.76 2.96c0.213 0.373 0.613 0.587 1.040 0.587h8c0.427 0 0.8-0.213 1.013-0.587 0 0 0.853-1.387 1.787-2.907v13.093h-5.6z"></path>
</svg>
