<?xml version="1.0" encoding="utf-8"?>
<!-- Generated by IcoMoon.io -->
<!DOCTYPE svg PUBLIC "-//W3C//DTD SVG 1.1//EN" "http://www.w3.org/Graphics/SVG/1.1/DTD/svg11.dtd">
<svg version="1.1" xmlns="http://www.w3.org/2000/svg" xmlns:xlink="http://www.w3.org/1999/xlink" width="32" height="32" viewBox="0 0 32 32">
<path d="M27.12 10.347l-10.667-4.267c-0.32-0.133-0.693-0.107-1.013 0.053l-10.667 5.6c-0.4 0.213-0.64 0.613-0.64 1.067v12c0 0.427 0.24 0.853 0.613 1.040l10.667 5.867c0.187 0.107 0.373 0.16 0.587 0.16 0.24 0 0.48-0.080 0.667-0.213l10.667-7.2c0.32-0.213 0.533-0.587 0.533-0.987v-12c0-0.48-0.293-0.933-0.747-1.12zM15.947 16.747l-2.72-1.36 8.16-4.747 2.667 1.067-8.107 5.040zM16.080 8.507l2.48 0.987-7.92 4.613-2.693-1.333 8.133-4.267zM6.533 14.747l2.987 1.493v1.893c0 0.667 0.533 1.2 1.2 1.2s1.2-0.533 1.2-1.2v-0.693l2.88 1.44v9.76l-8.267-4.56v-9.333zM17.2 28.4v-9.6l8.267-5.173v9.2l-8.267 5.573z"></path>
</svg>
