<?xml version="1.0" encoding="utf-8"?>
<!-- Generated by IcoMoon.io -->
<!DOCTYPE svg PUBLIC "-//W3C//DTD SVG 1.1//EN" "http://www.w3.org/Graphics/SVG/1.1/DTD/svg11.dtd">
<svg version="1.1" xmlns="http://www.w3.org/2000/svg" xmlns:xlink="http://www.w3.org/1999/xlink" width="32" height="32" viewBox="0 0 32 32">
<path d="M6.667 25.2h18.667c2.133 0 3.867-1.733 3.867-3.867v-10.667c0-2.133-1.733-3.867-3.867-3.867h-18.667c-2.133 0-3.867 1.733-3.867 3.867v10.667c0 2.133 1.733 3.867 3.867 3.867zM25.333 22.8h-18.667c-0.8 0-1.467-0.667-1.467-1.467v-5.467h21.6v5.467c0 0.8-0.667 1.467-1.467 1.467zM6.667 9.2h18.667c0.8 0 1.467 0.667 1.467 1.467v1.467h-21.6v-1.467c0-0.8 0.667-1.467 1.467-1.467z"></path>
<path d="M16 18.8h-8c-0.667 0-1.2 0.533-1.2 1.2s0.533 1.2 1.2 1.2h8c0.667 0 1.2-0.533 1.2-1.2s-0.533-1.2-1.2-1.2z"></path>
</svg>
