<?xml version="1.0" encoding="utf-8"?>
<!-- Generated by IcoMoon.io -->
<!DOCTYPE svg PUBLIC "-//W3C//DTD SVG 1.1//EN" "http://www.w3.org/Graphics/SVG/1.1/DTD/svg11.dtd">
<svg version="1.1" xmlns="http://www.w3.org/2000/svg" xmlns:xlink="http://www.w3.org/1999/xlink" width="32" height="32" viewBox="0 0 32 32">
<path d="M26.533 10.667c0-0.318-0.127-0.623-0.351-0.849l-6.666-6.666c-0.225-0.225-0.53-0.351-0.849-0.351h-12c-0.318 0-0.623 0.126-0.849 0.351s-0.351 0.53-0.351 0.849l0.001 23.999c0 0.663 0.537 1.2 1.2 1.2h18.666c0.318 0 0.623-0.126 0.849-0.351s0.351-0.53 0.351-0.849l-0.001-17.333zM19.867 6.898l2.569 2.569h-2.569v-2.569zM7.867 26.8l-0.001-21.599h9.6v5.466c0 0.663 0.537 1.2 1.2 1.2h5.466l0.001 14.933h-16.266z"></path>
</svg>
