<?xml version="1.0" encoding="utf-8"?>
<!-- Generated by IcoMoon.io -->
<!DOCTYPE svg PUBLIC "-//W3C//DTD SVG 1.1//EN" "http://www.w3.org/Graphics/SVG/1.1/DTD/svg11.dtd">
<svg version="1.1" xmlns="http://www.w3.org/2000/svg" xmlns:xlink="http://www.w3.org/1999/xlink" width="32" height="32" viewBox="0 0 32 32">
<path d="M27.624 2.933h-23.248c-0.797 0-1.442 0.646-1.442 1.442v23.249c0 0.797 0.646 1.442 1.442 1.442h12.517v-10.12h-3.406v-3.944h3.406v-2.909c0-3.375 2.061-5.213 5.073-5.213 1.442 0 2.682 0.107 3.043 0.155v3.528l-2.089 0.001c-1.638 0-1.954 0.778-1.954 1.92v2.518h3.906l-0.509 3.944h-3.397v10.12h6.659c0.797 0 1.443-0.646 1.443-1.442v-23.249c0-0.797-0.646-1.442-1.443-1.442z"></path>
</svg>
