<?xml version="1.0" encoding="utf-8"?>
<!-- Generated by IcoMoon.io -->
<!DOCTYPE svg PUBLIC "-//W3C//DTD SVG 1.1//EN" "http://www.w3.org/Graphics/SVG/1.1/DTD/svg11.dtd">
<svg version="1.1" xmlns="http://www.w3.org/2000/svg" xmlns:xlink="http://www.w3.org/1999/xlink" width="32" height="32" viewBox="0 0 32 32">
<path d="M20.64 12.88c0.613 0.88 0.96 1.973 0.96 3.12s-0.347 2.24-0.96 3.12l5.307 5.307c1.947-2.267 3.12-5.2 3.12-8.427s-1.173-6.16-3.12-8.453l-5.307 5.333z"></path>
<path d="M19.12 20.64c-0.88 0.613-1.973 0.96-3.12 0.96s-2.24-0.347-3.12-0.96l-5.333 5.307c2.293 1.947 5.227 3.12 8.453 3.12s6.16-1.173 8.453-3.12l-5.333-5.307z"></path>
<path d="M12.88 11.36c0.88-0.613 1.973-0.96 3.12-0.96s2.24 0.347 3.12 0.96l5.307-5.307c-2.267-1.947-5.2-3.12-8.427-3.12s-6.16 1.173-8.453 3.12l5.333 5.307z"></path>
<path d="M11.36 19.12c-0.613-0.88-0.96-1.973-0.96-3.12s0.347-2.24 0.96-3.12l-5.307-5.333c-1.947 2.293-3.12 5.227-3.12 8.453s1.173 6.16 3.12 8.453l5.307-5.333z"></path>
</svg>
