<?xml version="1.0" encoding="utf-8"?>
<!-- Generated by IcoMoon.io -->
<!DOCTYPE svg PUBLIC "-//W3C//DTD SVG 1.1//EN" "http://www.w3.org/Graphics/SVG/1.1/DTD/svg11.dtd">
<svg version="1.1" xmlns="http://www.w3.org/2000/svg" xmlns:xlink="http://www.w3.org/1999/xlink" width="32" height="32" viewBox="0 0 32 32">
<path d="M28 2.8h-20c-0.663 0-1.2 0.537-1.2 1.2v6.8h-2.8c-0.663 0-1.2 0.537-1.2 1.2v12c0 0.663 0.537 1.2 1.2 1.2h2.8v2.8c0 0.663 0.537 1.2 1.2 1.2h16c0.663 0 1.2-0.537 1.2-1.2v-7.8h2.8c0.663 0 1.2-0.537 1.2-1.2v-15c0-0.663-0.537-1.2-1.2-1.2zM5.2 13.2h1.6v5.8c0 0.663 0.537 1.2 1.2 1.2h10.8v2.6h-13.6v-9.6zM22.8 26.8h-13.6v-1.6h10.8c0.663 0 1.2-0.537 1.2-1.2v-3.8h1.6v6.6zM26.8 17.8h-17.6v-5.797c0-0.001 0-0.002 0-0.003s-0-0.002-0-0.003v-6.797h17.6v12.6z"></path>
</svg>
