<?xml version="1.0" encoding="utf-8"?>
<!-- Generated by IcoMoon.io -->
<!DOCTYPE svg PUBLIC "-//W3C//DTD SVG 1.1//EN" "http://www.w3.org/Graphics/SVG/1.1/DTD/svg11.dtd">
<svg version="1.1" xmlns="http://www.w3.org/2000/svg" xmlns:xlink="http://www.w3.org/1999/xlink" width="32" height="32" viewBox="0 0 32 32">
<path d="M21.577 19.879c1.431-1.799 2.29-4.074 2.29-6.546 0-5.808-4.725-10.533-10.533-10.533s-10.533 4.725-10.533 10.533 4.725 10.533 10.533 10.533c2.473 0 4.747-0.859 6.546-2.29l7.272 7.272c0.234 0.234 0.541 0.351 0.849 0.351s0.614-0.117 0.849-0.351c0.469-0.469 0.469-1.229 0-1.697l-7.272-7.272zM5.2 13.333c0-4.485 3.649-8.133 8.133-8.133s8.133 3.649 8.133 8.133-3.649 8.133-8.133 8.133-8.133-3.649-8.133-8.133z"></path>
</svg>
