<?xml version="1.0" encoding="utf-8"?>
<!-- Generated by IcoMoon.io -->
<!DOCTYPE svg PUBLIC "-//W3C//DTD SVG 1.1//EN" "http://www.w3.org/Graphics/SVG/1.1/DTD/svg11.dtd">
<svg version="1.1" xmlns="http://www.w3.org/2000/svg" xmlns:xlink="http://www.w3.org/1999/xlink" width="32" height="32" viewBox="0 0 32 32">
<path d="M17.2 4c0-0.667-0.533-1.2-1.2-1.2 0 0 0 0 0 0-0.667 0-1.2 0.533-1.2 1.2l-0.027 3.973c-0.027 1.173-0.987 2.107-2.16 2.107-0.56 0-1.093-0.24-1.467-0.613l-2.8-2.8c-0.507-0.427-1.253-0.373-1.68 0.133-0.373 0.453-0.373 1.12 0 1.573l2.8 2.827c0.827 0.853 0.8 2.187-0.053 3.013-0.4 0.373-0.933 0.613-1.493 0.613h-3.92c-0.667 0-1.2 0.533-1.2 1.2s0.533 1.2 1.2 1.2l3.973 0.027c1.173 0.027 2.107 0.987 2.107 2.16 0 0.56-0.24 1.093-0.613 1.467l-2.8 2.747c-0.48 0.48-0.48 1.227 0 1.707s1.227 0.48 1.707 0l2.827-2.8c0.853-0.827 2.187-0.8 3.013 0.053 0.373 0.373 0.587 0.88 0.587 1.387 0 0.027 0 4.053 0 4.053v0c0.027 0.64 0.56 1.147 1.2 1.147 0.613 0 1.12-0.453 1.2-1.040v-24.133z"></path>
</svg>
