<?xml version="1.0" encoding="utf-8"?>
<!-- Generated by IcoMoon.io -->
<!DOCTYPE svg PUBLIC "-//W3C//DTD SVG 1.1//EN" "http://www.w3.org/Graphics/SVG/1.1/DTD/svg11.dtd">
<svg version="1.1" xmlns="http://www.w3.org/2000/svg" xmlns:xlink="http://www.w3.org/1999/xlink" width="32" height="32" viewBox="0 0 32 32">
<path d="M10.667 29.2h10.667c2.132 0 3.867-1.735 3.867-3.867v-12.133h0.229c0.663 0 1.2-0.537 1.2-1.2s-0.537-1.2-1.2-1.2h-1.429c-0.663 0-1.2 0.537-1.2 1.2v13.333c0 0.809-0.658 1.467-1.467 1.467h-10.667c-0.809 0-1.467-0.658-1.467-1.467v-13.333c0-0.663-0.537-1.2-1.2-1.2h-1.429c-0.663 0-1.2 0.537-1.2 1.2s0.537 1.2 1.2 1.2h0.229v12.133c0 2.132 1.735 3.867 3.867 3.867z"></path>
<path d="M12.133 12v12c0 0.663 0.537 1.2 1.2 1.2s1.2-0.537 1.2-1.2v-12c0-0.663-0.537-1.2-1.2-1.2s-1.2 0.537-1.2 1.2z"></path>
<path d="M17.467 12v12c0 0.663 0.537 1.2 1.2 1.2s1.2-0.537 1.2-1.2v-12c0-0.663-0.537-1.2-1.2-1.2s-1.2 0.537-1.2 1.2z"></path>
<path d="M20 2.8h-8c-0.663 0-1.2 0.537-1.2 1.2v2.8h-4.133c-0.663 0-1.2 0.537-1.2 1.2s0.537 1.2 1.2 1.2h18.667c0.663 0 1.2-0.537 1.2-1.2s-0.537-1.2-1.2-1.2h-4.133v-2.8c0-0.663-0.537-1.2-1.2-1.2zM13.2 5.2h5.6v1.6h-5.6v-1.6z"></path>
</svg>
