<?xml version="1.0" encoding="utf-8"?>
<!-- Generated by IcoMoon.io -->
<!DOCTYPE svg PUBLIC "-//W3C//DTD SVG 1.1//EN" "http://www.w3.org/Graphics/SVG/1.1/DTD/svg11.dtd">
<svg version="1.1" xmlns="http://www.w3.org/2000/svg" xmlns:xlink="http://www.w3.org/1999/xlink" width="32" height="32" viewBox="0 0 32 32">
<path d="M30.667 14.8c-0.663 0-1.2 0.537-1.2 1.2 0 1.818-0.356 3.582-1.058 5.242-0.677 1.602-1.649 3.042-2.886 4.28-1.239 1.238-2.68 2.209-4.283 2.887-1.658 0.702-3.421 1.058-5.241 1.058-0.001 0-0.002 0-0.004 0-1.817 0-3.579-0.356-5.238-1.058-1.602-0.678-3.043-1.649-4.281-2.886-1.239-1.239-2.21-2.679-2.886-4.281-0.702-1.66-1.058-3.423-1.058-5.242s0.356-3.582 1.058-5.241c0.678-1.603 1.649-3.043 2.886-4.281 1.238-1.237 2.678-2.208 4.282-2.887 1.658-0.701 3.42-1.057 5.238-1.057 0.004-0 0.009 0 0.013 0 1.814 0 3.574 0.356 5.232 1.058 0.893 0.378 1.734 0.85 2.519 1.405h-1.621c-0.663 0-1.2 0.537-1.2 1.2s0.537 1.2 1.2 1.2h4.609c0.663 0 1.2-0.537 1.2-1.2l0-4.609c0-0.663-0.537-1.2-1.2-1.2s-1.2 0.537-1.2 1.2v1.74c-1.037-0.783-2.164-1.435-3.371-1.946-1.955-0.828-4.030-1.248-6.166-1.248-0.005 0-0.009 0-0.015 0-2.141 0-4.217 0.419-6.172 1.247-1.889 0.8-3.586 1.943-5.043 3.4-1.457 1.458-2.601 3.155-3.4 5.043-0.828 1.957-1.248 4.035-1.247 6.176s0.419 4.22 1.247 6.177c0.798 1.888 1.941 3.585 3.4 5.044 1.459 1.457 3.155 2.601 5.043 3.399 1.955 0.828 4.032 1.247 6.172 1.247 0.001 0 0.003 0 0.004 0 2.142 0 4.22-0.419 6.175-1.247 1.888-0.798 3.585-1.942 5.044-3.4 1.458-1.458 2.601-3.155 3.399-5.043 0.828-1.958 1.248-4.036 1.248-6.177 0-0.663-0.537-1.2-1.2-1.2z"></path>
<path d="M12.697 8.357c-0.366-0.261-0.847-0.295-1.247-0.090s-0.651 0.617-0.651 1.067v13.333c0 0.45 0.251 0.861 0.651 1.067 0.173 0.089 0.362 0.133 0.549 0.133 0.246 0 0.49-0.075 0.697-0.223l9.333-6.667c0.315-0.225 0.503-0.589 0.503-0.977s-0.187-0.751-0.503-0.977l-9.333-6.667zM13.2 20.335v-8.67l6.069 4.335-6.069 4.335z"></path>
</svg>
