<?xml version="1.0" encoding="utf-8"?>
<!-- Generated by IcoMoon.io -->
<!DOCTYPE svg PUBLIC "-//W3C//DTD SVG 1.1//EN" "http://www.w3.org/Graphics/SVG/1.1/DTD/svg11.dtd">
<svg version="1.1" xmlns="http://www.w3.org/2000/svg" xmlns:xlink="http://www.w3.org/1999/xlink" width="32" height="32" viewBox="0 0 32 32">
<path d="M31.813 0.997c-0.012-0.050-0.025-0.091-0.040-0.131-0.019-0.038-0.039-0.075-0.062-0.112-0.013-0.024-0.026-0.056-0.048-0.086-0.090-0.133-0.2-0.244-0.329-0.331-0.034-0.021-0.066-0.037-0.098-0.053-0.031-0.019-0.069-0.038-0.107-0.056-0.038-0.016-0.077-0.029-0.116-0.041-0.043-0.002-0.078-0.026-0.112-0.034-0.068-0.014-0.146-0.021-0.226-0.021-0.003 0-0.006 0-0.009 0h-5.333c-0.663 0-1.2 0.537-1.2 1.2s0.537 1.2 1.2 1.2h2.437l-3.285 3.285c-0.235 0.22-0.382 0.532-0.382 0.878 0 0.663 0.537 1.2 1.2 1.2 0.346 0 0.658-0.147 0.877-0.381l3.286-3.286v2.437c0 0.663 0.537 1.2 1.2 1.2s1.2-0.537 1.2-1.2v-5.333c-0-0.083-0.009-0.164-0.025-0.242-0.007-0.024-0.017-0.061-0.028-0.094z"></path>
<path d="M28 13.085c-0.663 0-1.2 0.537-1.2 1.2v10.285c-0.002 1.231-0.999 2.228-2.229 2.229h-17.141c-1.231-0.002-2.228-0.999-2.229-2.229v-17.141c0.002-1.231 0.999-2.228 2.229-2.229h10.285c0.663 0 1.2-0.537 1.2-1.2s-0.537-1.2-1.2-1.2h-10.285c-2.556 0.003-4.626 2.074-4.629 4.629v17.142c0.003 2.555 2.074 4.626 4.629 4.629h17.142c2.555-0.003 4.626-2.074 4.629-4.629v-10.286c0-0.663-0.537-1.2-1.2-1.2z"></path>
<path d="M9.467 10.667v10.667c0 0.663 0.537 1.2 1.2 1.2h10.667c0.663 0 1.2-0.537 1.2-1.2s-0.537-1.2-1.2-1.2h-9.467v-2.933h8.133c0.663 0 1.2-0.537 1.2-1.2s-0.537-1.2-1.2-1.2h-8.133v-2.933h9.467c0.663 0 1.2-0.537 1.2-1.2s-0.537-1.2-1.2-1.2h-10.667c-0.663 0-1.2 0.537-1.2 1.2z"></path>
</svg>
