<?xml version="1.0" encoding="utf-8"?>
<!-- Generated by IcoMoon.io -->
<!DOCTYPE svg PUBLIC "-//W3C//DTD SVG 1.1//EN" "http://www.w3.org/Graphics/SVG/1.1/DTD/svg11.dtd">
<svg version="1.1" xmlns="http://www.w3.org/2000/svg" xmlns:xlink="http://www.w3.org/1999/xlink" width="32" height="32" viewBox="0 0 32 32">
<path d="M16 29.2c5.299 0 10.067-3.15 12.146-8.026 0.209-0.49 0.070-1.059-0.342-1.398s-0.997-0.364-1.438-0.064c-1.683 1.148-3.654 1.755-5.699 1.755-5.588 0-10.134-4.546-10.134-10.133 0-2.045 0.607-4.016 1.755-5.7 0.3-0.44 0.274-1.026-0.064-1.438s-0.908-0.552-1.398-0.342c-4.876 2.079-8.026 6.847-8.026 12.146 0 7.278 5.922 13.2 13.2 13.2z"></path>
</svg>
