<?xml version="1.0" encoding="utf-8"?>
<!-- Generated by IcoMoon.io -->
<!DOCTYPE svg PUBLIC "-//W3C//DTD SVG 1.1//EN" "http://www.w3.org/Graphics/SVG/1.1/DTD/svg11.dtd">
<svg version="1.1" xmlns="http://www.w3.org/2000/svg" xmlns:xlink="http://www.w3.org/1999/xlink" width="32" height="32" viewBox="0 0 32 32">
<path d="M19.147 7.147l-4 4c-0.48 0.48-0.48 1.227 0 1.707s1.227 0.48 1.707 0l1.947-1.947v13.093c0 0.667 0.533 1.2 1.2 1.2s1.2-0.533 1.2-1.2v-13.093l1.947 1.947c0.24 0.24 0.533 0.347 0.853 0.347s0.613-0.107 0.853-0.347c0.48-0.48 0.48-1.227 0-1.707l-4-4c0 0-0.8-0.8-1.707 0z"></path>
<path d="M12.853 24.853l4-4c0.48-0.48 0.48-1.227 0-1.707s-1.227-0.48-1.707 0l-1.947 1.947v-13.093c0-0.667-0.533-1.2-1.2-1.2s-1.2 0.533-1.2 1.2v13.093l-1.947-1.947c-0.24-0.24-0.533-0.347-0.853-0.347s-0.613 0.107-0.853 0.347c-0.48 0.48-0.48 1.227 0 1.707l4 4c0 0 0.8 0.8 1.707 0z"></path>
</svg>
