<?xml version="1.0" encoding="utf-8"?>
<!-- Generated by IcoMoon.io -->
<!DOCTYPE svg PUBLIC "-//W3C//DTD SVG 1.1//EN" "http://www.w3.org/Graphics/SVG/1.1/DTD/svg11.dtd">
<svg version="1.1" xmlns="http://www.w3.org/2000/svg" xmlns:xlink="http://www.w3.org/1999/xlink" width="32" height="32" viewBox="0 0 32 32">
<path d="M24.631 4.614c-0.354-0.218-0.795-0.239-1.167-0.052-1.159 0.58-2.325 0.873-3.464 0.873s-2.304-0.294-3.463-0.873c-2.419-1.209-4.905-1.439-7.349-0.692-0.066-0.601-0.569-1.070-1.187-1.070-0.663 0-1.2 0.537-1.2 1.2v24c0 0.663 0.537 1.2 1.2 1.2s1.2-0.537 1.2-1.2v-10.89c0.939-0.381 1.878-0.577 2.8-0.577 1.139 0 2.304 0.294 3.463 0.873 1.495 0.748 3.022 1.127 4.537 1.127s3.042-0.379 4.537-1.127c0.406-0.203 0.663-0.619 0.663-1.073v-10.698c0-0.416-0.215-0.802-0.569-1.021zM22.8 15.56c-0.939 0.381-1.878 0.573-2.801 0.573-1.139 0-2.304-0.294-3.463-0.873-1.495-0.748-3.021-1.127-4.536-1.127-0.932 0-1.869 0.143-2.8 0.428v-8.153c0.939-0.381 1.878-0.573 2.8-0.573 1.139 0 2.304 0.294 3.463 0.873 2.415 1.208 4.893 1.447 7.337 0.699v8.153z"></path>
</svg>
