<?xml version="1.0" encoding="utf-8"?>
<!-- Generated by IcoMoon.io -->
<!DOCTYPE svg PUBLIC "-//W3C//DTD SVG 1.1//EN" "http://www.w3.org/Graphics/SVG/1.1/DTD/svg11.dtd">
<svg version="1.1" xmlns="http://www.w3.org/2000/svg" xmlns:xlink="http://www.w3.org/1999/xlink" width="32" height="32" viewBox="0 0 32 32">
<path d="M21.067 23.867h1.6c2.133 0 3.867-1.733 3.867-3.867v-5.333c0-0.667-0.533-1.2-1.2-1.2s-1.2 0.533-1.2 1.2v5.333c0 0.8-0.667 1.467-1.467 1.467h-1.6c-0.533-2.293-2.613-4-5.067-4s-4.507 1.707-5.067 4h-1.6c-0.8 0-1.467-0.667-1.467-1.467v-5.333c0-0.667-0.533-1.2-1.2-1.2s-1.2 0.533-1.2 1.2v5.333c0 2.133 1.733 3.867 3.867 3.867h1.6c0.293 1.2 0.96 2.213 1.92 2.933h-4.187c-0.453 0-0.8-0.347-0.8-0.8 0-0.667-0.533-1.2-1.2-1.2s-1.2 0.533-1.2 1.2c0 1.76 1.44 3.2 3.2 3.2h14.667c1.76 0 3.2-1.44 3.2-3.2 0-0.667-0.533-1.2-1.2-1.2s-1.2 0.533-1.2 1.2c0 0.453-0.347 0.8-0.8 0.8h-4.187c0.933-0.72 1.627-1.733 1.92-2.933zM16 25.467c-1.547 0-2.8-1.253-2.8-2.8s1.253-2.8 2.8-2.8 2.8 1.253 2.8 2.8-1.253 2.8-2.8 2.8z"></path>
<path d="M6.667 11.867c0.667 0 1.2-0.533 1.2-1.2v-0.667c0-0.453 0.347-0.8 0.8-0.8h0.8v5.467c0 0.667 0.533 1.2 1.2 1.2s1.2-0.533 1.2-1.2v-8c0-0.8 0.667-1.467 1.467-1.467s1.467 0.667 1.467 1.467v4c0 0.667 0.533 1.2 1.2 1.2s1.2-0.533 1.2-1.2v-4c0-0.8 0.667-1.467 1.467-1.467s1.467 0.667 1.467 1.467v8c0 0.667 0.533 1.2 1.2 1.2s1.2-0.533 1.2-1.2v-5.467h0.8c0.453 0 0.8 0.347 0.8 0.8v0.667c0 0.667 0.533 1.2 1.2 1.2s1.2-0.533 1.2-1.2v-0.667c0-1.76-1.44-3.2-3.2-3.2h-0.8v-0.133c0-2.133-1.733-3.867-3.867-3.867-1.040 0-1.973 0.4-2.667 1.067-0.693-0.667-1.627-1.067-2.667-1.067-2.133 0-3.867 1.733-3.867 3.867v0.133h-0.8c-1.76 0-3.2 1.44-3.2 3.2v0.667c0 0.667 0.533 1.2 1.2 1.2z"></path>
</svg>
