<?xml version="1.0" encoding="utf-8"?>
<!-- Generated by IcoMoon.io -->
<!DOCTYPE svg PUBLIC "-//W3C//DTD SVG 1.1//EN" "http://www.w3.org/Graphics/SVG/1.1/DTD/svg11.dtd">
<svg version="1.1" xmlns="http://www.w3.org/2000/svg" xmlns:xlink="http://www.w3.org/1999/xlink" width="32" height="32" viewBox="0 0 32 32">
<path d="M19.226 17.861c-0.010-0.038-0.018-0.086-0.018-0.139v-1.624c0-0.061-0.013-0.103-0.056-0.136-0.045-0.035-0.134-0.047-0.242-0.047-0.112 0-0.196 0.012-0.242 0.047-0.044 0.033-0.057 0.075-0.057 0.137v1.357c0 0.201-0.145 0.347-0.391 0.347s-0.33-0.103-0.33-0.31v-1.395c0-0.062-0.012-0.103-0.055-0.137-0.046-0.035-0.134-0.047-0.242-0.047-0.112 0-0.199 0.012-0.246 0.047-0.045 0.033-0.056 0.075-0.056 0.137v1.462c0 0.256 0.077 0.442 0.214 0.571 0.14 0.132 0.335 0.195 0.582 0.195 0.292 0 0.493-0.094 0.605-0.205 0.018 0.043 0.036 0.078 0.055 0.101 0.006 0.007 0.011 0.015 0.017 0.023 0.007 0.010 0.017 0.021 0.029 0.031 0.027 0.023 0.062 0.035 0.11 0.035 0.071 0 0.149-0.036 0.22-0.072 0.043-0.021 0.083-0.043 0.112-0.067 0.027-0.022 0.058-0.055 0.058-0.099 0-0.052-0.018-0.091-0.039-0.131-0.007-0.017-0.019-0.045-0.029-0.082z"></path>
<path d="M16.856 15.922h-1.193c-0.153 0-0.238 0.083-0.238 0.314 0 0.117 0.010 0.327 0.257 0.309l0.277-0.020v1.578c0 0.062 0.013 0.104 0.056 0.137 0.045 0.035 0.133 0.047 0.246 0.047 0.108 0 0.196-0.013 0.242-0.047 0.044-0.033 0.057-0.075 0.057-0.137v-1.621l0.352-0.025c0.207-0.015 0.223-0.145 0.185-0.33-0.034-0.166-0.123-0.204-0.239-0.204z"></path>
<path d="M20.069 15.913c-0.112 0-0.199 0.012-0.245 0.047-0.045 0.033-0.057 0.075-0.057 0.137v2.010c0 0.062 0.013 0.104 0.056 0.137 0.046 0.035 0.134 0.047 0.246 0.047 0.109 0 0.195-0.012 0.241-0.047 0.045-0.033 0.057-0.075 0.057-0.137v-2.010c0-0.061-0.013-0.103-0.056-0.137-0.046-0.035-0.133-0.047-0.242-0.047z"></path>
<path d="M13.171 15.701c-0.211-0.053-0.274 0.023-0.468 0.435-1.166 2.492-3.307 1.739-3.673-0.576l0.497-0.035c0.277-0.020 0.297-0.19 0.247-0.436-0.046-0.221-0.163-0.27-0.319-0.27h-1.585c-0.203 0-0.316 0.109-0.316 0.414 0 0.154 0.013 0.432 0.342 0.408l0.404-0.029c0.664 4.103 4.052 3.795 5.060 0.722 0.136-0.415 0.097-0.562-0.19-0.634z"></path>
<path d="M14.221 13.922c0 0.325-0.263 0.588-0.588 0.588s-0.588-0.263-0.588-0.588c0-0.325 0.263-0.588 0.588-0.588s0.588 0.263 0.588 0.588z"></path>
<path d="M20.915 17.737c-0.161 0-0.295 0.147-0.295 0.302 0 0.162 0.144 0.299 0.295 0.299 0.154 0 0.295-0.137 0.295-0.299 0-0.158-0.144-0.302-0.295-0.302z"></path>
<path d="M22.991 17.845v-0.502c0-0.115-0.019-0.221-0.058-0.318s-0.108-0.172-0.211-0.224c-0.102-0.051-0.234-0.078-0.395-0.078-0.082 0-0.16 0.005-0.236 0.015s-0.143 0.025-0.202 0.045c-0.059 0.020-0.113 0.043-0.162 0.069-0.037 0.021-0.061 0.041-0.074 0.059-0.014 0.018-0.020 0.038-0.020 0.060 0 0.035 0.016 0.080 0.050 0.135s0.072 0.082 0.117 0.082c0.014 0 0.028-0.002 0.045-0.005 0.015-0.005 0.042-0.014 0.079-0.030 0.037-0.016 0.065-0.027 0.083-0.035 0.035-0.013 0.072-0.024 0.111-0.034 0.039-0.011 0.086-0.015 0.144-0.015 0.092 0 0.159 0.015 0.201 0.046s0.063 0.075 0.063 0.136v0.049l-0.349 0.024c-0.075 0.006-0.15 0.017-0.223 0.035s-0.137 0.047-0.194 0.086c-0.058 0.039-0.104 0.090-0.139 0.154s-0.053 0.142-0.053 0.237c0 0.088 0.016 0.163 0.047 0.224s0.071 0.11 0.12 0.147c0.048 0.037 0.103 0.065 0.162 0.081s0.117 0.025 0.173 0.025c0.103 0 0.196-0.015 0.279-0.047 0.082-0.032 0.155-0.082 0.216-0.15 0.011 0.029 0.022 0.055 0.031 0.078s0.021 0.043 0.031 0.058c0.012 0.016 0.024 0.028 0.038 0.038s0.030 0.014 0.049 0.014c0.036 0 0.070-0.005 0.1-0.013 0.031-0.008 0.061-0.019 0.091-0.031 0.044-0.019 0.080-0.038 0.106-0.056s0.040-0.042 0.040-0.070c0-0.016-0.010-0.049-0.030-0.098s-0.030-0.112-0.030-0.188zM22.528 17.681l-0.001 0c0 0.050-0.012 0.096-0.036 0.14s-0.061 0.076-0.111 0.1c-0.050 0.024-0.102 0.036-0.155 0.036-0.035 0-0.067-0.005-0.097-0.014s-0.053-0.026-0.070-0.050c-0.017-0.025-0.025-0.053-0.025-0.086 0-0.047 0.015-0.088 0.045-0.124s0.079-0.056 0.147-0.063l0.303-0.024v0.084z"></path>
<path d="M24.395 17.957c-0.042-0.071-0.079-0.106-0.112-0.106-0.016 0-0.033 0.003-0.051 0.010s-0.036 0.013-0.053 0.019c-0.037 0.011-0.072 0.017-0.106 0.017-0.039 0-0.066-0.009-0.084-0.029-0.023-0.023-0.034-0.055-0.034-0.097v-0.625h0.257c0.035 0 0.064-0.003 0.086-0.009s0.040-0.019 0.053-0.038c0.016-0.028 0.028-0.066 0.035-0.113 0.007-0.046 0.011-0.089 0.011-0.129 0-0.045-0.011-0.075-0.033-0.087-0.015-0.009-0.046-0.014-0.096-0.014h-0.314v-0.369c0-0.063-0.009-0.102-0.028-0.119-0.009-0.007-0.021-0.012-0.037-0.015-0.015-0.003-0.030-0.005-0.046-0.005-0.045 0-0.105 0.007-0.177 0.024-0.092 0.025-0.148 0.045-0.168 0.063-0.025 0.025-0.038 0.072-0.038 0.14v0.282h-0.087c-0.035 0-0.064 0.003-0.086 0.010-0.023 0.007-0.040 0.020-0.053 0.039-0.015 0.028-0.027 0.065-0.035 0.112-0.007 0.046-0.011 0.089-0.011 0.127 0 0.048 0.010 0.077 0.030 0.087 0.014 0.009 0.046 0.014 0.098 0.014h0.146v0.698c0 0.081 0.010 0.151 0.032 0.212s0.057 0.111 0.107 0.151c0.042 0.035 0.093 0.061 0.151 0.078s0.132 0.025 0.218 0.025c0.087 0 0.159-0.009 0.217-0.025s0.099-0.033 0.125-0.047c0.036-0.018 0.067-0.038 0.093-0.061s0.039-0.049 0.039-0.077c0-0.030-0.017-0.077-0.051-0.143z"></path>
</svg>
