<?xml version="1.0" encoding="utf-8"?>
<!-- Generated by IcoMoon.io -->
<!DOCTYPE svg PUBLIC "-//W3C//DTD SVG 1.1//EN" "http://www.w3.org/Graphics/SVG/1.1/DTD/svg11.dtd">
<svg version="1.1" xmlns="http://www.w3.org/2000/svg" xmlns:xlink="http://www.w3.org/1999/xlink" width="32" height="32" viewBox="0 0 32 32">
<path d="M6.048 20.204c-1.13-2.672-1.13-5.736 0-8.407 1.061-2.51 3.102-4.582 5.598-5.683 3.246-1.433 6.993-1.131 9.964 0.665h-0.587c-0.663 0-1.2 0.537-1.2 1.2s0.537 1.2 1.2 1.2h3.725c0.355 0 0.694-0.151 0.93-0.414 0.371-0.414 0.338-0.909 0.317-1.117l0-3.44c0-0.663-0.537-1.2-1.2-1.2s-1.2 0.537-1.2 1.2v1.002c-3.735-2.614-8.676-3.165-12.917-1.292-3.049 1.346-5.542 3.877-6.839 6.944-1.382 3.265-1.382 7.011 0 10.277 0.194 0.458 0.638 0.733 1.106 0.733 0.156 0 0.314-0.030 0.467-0.095 0.611-0.258 0.896-0.962 0.638-1.573z"></path>
<path d="M28.162 10.861c-0.258-0.61-0.962-0.896-1.573-0.638s-0.896 0.962-0.638 1.573c1.13 2.672 1.13 5.736 0 8.407-1.061 2.51-3.102 4.582-5.598 5.683-3.246 1.433-6.993 1.131-9.964-0.665h0.587c0.663 0 1.2-0.537 1.2-1.2s-0.537-1.2-1.2-1.2h-3.725c-0.355 0-0.694 0.151-0.93 0.414-0.371 0.414-0.338 0.909-0.317 1.117l-0 3.44c0 0.663 0.537 1.2 1.2 1.2s1.2-0.537 1.2-1.2v-1.004c2.247 1.573 4.929 2.402 7.635 2.402 1.791 0 3.593-0.362 5.282-1.108 3.049-1.346 5.542-3.877 6.839-6.944 1.381-3.265 1.381-7.010-0-10.277z"></path>
</svg>
