<?xml version="1.0" encoding="utf-8"?>
<!-- Generated by IcoMoon.io -->
<!DOCTYPE svg PUBLIC "-//W3C//DTD SVG 1.1//EN" "http://www.w3.org/Graphics/SVG/1.1/DTD/svg11.dtd">
<svg version="1.1" xmlns="http://www.w3.org/2000/svg" xmlns:xlink="http://www.w3.org/1999/xlink" width="32" height="32" viewBox="0 0 32 32">
<path d="M16.268 12.951c0.669 0 1.212-0.538 1.212-1.202 0-0.662-0.543-1.201-1.212-1.201s-1.212 0.539-1.212 1.201c0 0.664 0.542 1.202 1.212 1.202z"></path>
<path d="M15.345 23.519c-0.46-0.976-1.207-1.734-2.091-2.173-0.539-0.269-1.132-0.42-1.74-0.425-0.158 0-0.319 0.030-0.478 0.051-0.34 0.045-0.679 0.123-1.004 0.279-1.374 0.635-2.104 2.052-2.097 3.494 0 0.661 0.146 1.343 0.452 1.994 0.743 1.575 2.232 2.585 3.829 2.593l1.469-0.32c1.386-0.643 2.117-2.060 2.111-3.503 0-0.261-0.030-0.527-0.078-0.792-0.057-0.325-0.151-0.647-0.281-0.966-0.031-0.077-0.057-0.155-0.093-0.233z"></path>
<path d="M21.499 20.973c-0.161-0.022-0.319-0.052-0.482-0.052-0.607 0.003-1.197 0.153-1.739 0.421-0.882 0.438-1.631 1.199-2.091 2.18-0.035 0.076-0.062 0.154-0.094 0.229-0.131 0.318-0.224 0.642-0.282 0.967-0.047 0.264-0.077 0.53-0.077 0.792-0.005 1.445 0.724 2.858 2.106 3.503l1.472 0.32c1.602-0.007 3.086-1.021 3.831-2.593 0.305-0.65 0.451-1.332 0.451-1.994 0.007-1.447-0.722-2.865-2.105-3.501-0.317-0.148-0.652-0.226-0.991-0.273z"></path>
<path d="M7.491 19.104c0.872-0.429 2.055-0.806 3.431-1.091-0.099 0.409-0.158 0.836-0.158 1.274 0 0.173 0.011 0.341 0.026 0.509 0.242-0.037 0.485-0.062 0.722-0.062h0.009c0.625 0.006 1.223 0.136 1.787 0.35 0.339-1.312 1.53-2.284 2.957-2.284s2.616 0.973 2.956 2.284c0.566-0.214 1.166-0.344 1.793-0.347 0.243 0 0.485 0.026 0.727 0.062 0.017-0.169 0.026-0.339 0.026-0.51 0-0.439-0.058-0.865-0.157-1.274 1.377 0.284 2.559 0.662 3.432 1.090 0.275 0.132 0.564 0.194 0.85 0.194 0.718 0 1.406-0.395 1.743-1.076 0.47-0.955 0.072-2.107-0.89-2.572-1.587-0.763-3.54-1.318-5.727-1.648 0.81-1.020 1.297-2.304 1.297-3.705 0-0.354-0.037-0.699-0.096-1.035 1.202-0.547 2.041-1.743 2.041-3.139 0-1.911-1.562-3.457-3.488-3.458-1.323 0.001-2.46 0.741-3.051 1.817-0.466-0.114-0.951-0.182-1.455-0.182-0.502 0-0.987 0.067-1.456 0.183-0.59-1.078-1.727-1.818-3.050-1.818-1.928 0.002-3.487 1.547-3.489 3.458 0.001 1.395 0.839 2.592 2.042 3.138-0.061 0.337-0.097 0.682-0.097 1.036 0 1.399 0.486 2.684 1.296 3.704-2.185 0.33-4.138 0.885-5.726 1.646-0.961 0.466-1.359 1.618-0.89 2.573 0.471 0.952 1.631 1.346 2.593 0.882zM20.773 4.226c1.059 0.003 1.913 0.85 1.914 1.898-0.002 0.696-0.384 1.296-0.948 1.628-0.543-1.14-1.434-2.088-2.543-2.699 0.343-0.497 0.921-0.824 1.577-0.826zM16.268 9.273c1.724 0 3.121 1.385 3.121 3.094 0 0.509-0.134 0.981-0.354 1.404-0.11 0.214-0.246 0.413-0.402 0.596-0.572 0.666-1.413 1.096-2.366 1.096-0.951 0-1.793-0.431-2.365-1.098-0.157-0.183-0.291-0.381-0.403-0.595-0.218-0.424-0.354-0.895-0.354-1.403 0-1.709 1.398-3.094 3.121-3.094zM10.796 7.753c-0.564-0.33-0.947-0.931-0.949-1.628 0.003-1.049 0.856-1.895 1.915-1.897 0.654 0.001 1.232 0.328 1.576 0.825-1.11 0.611-2 1.558-2.542 2.7z"></path>
</svg>
