<?xml version="1.0" encoding="utf-8"?>
<!-- Generated by IcoMoon.io -->
<!DOCTYPE svg PUBLIC "-//W3C//DTD SVG 1.1//EN" "http://www.w3.org/Graphics/SVG/1.1/DTD/svg11.dtd">
<svg version="1.1" xmlns="http://www.w3.org/2000/svg" xmlns:xlink="http://www.w3.org/1999/xlink" width="32" height="32" viewBox="0 0 32 32">
<path d="M9.333 15.2c1.029 0 1.867-0.838 1.867-1.867s-0.837-1.867-1.867-1.867-1.867 0.838-1.867 1.867 0.837 1.867 1.867 1.867z"></path>
<path d="M16 15.2c1.029 0 1.867-0.838 1.867-1.867s-0.838-1.867-1.867-1.867c-1.029 0-1.867 0.838-1.867 1.867s0.837 1.867 1.867 1.867z"></path>
<path d="M22.667 15.2c1.029 0 1.867-0.838 1.867-1.867s-0.838-1.867-1.867-1.867-1.867 0.838-1.867 1.867 0.838 1.867 1.867 1.867z"></path>
<path d="M6.667 23.867h11.524l4.959 4.98c0.23 0.23 0.538 0.353 0.85 0.353 0.154 0 0.31-0.030 0.458-0.091 0.449-0.185 0.742-0.623 0.742-1.109v-4.133h0.133c2.132 0 3.867-1.735 3.867-3.867v-13.333c0-2.132-1.735-3.867-3.867-3.867h-18.667c-2.132 0-3.867 1.735-3.867 3.867v13.333c0 2.132 1.735 3.867 3.867 3.867zM5.2 6.667c0-0.809 0.658-1.467 1.467-1.467h18.667c0.809 0 1.467 0.658 1.467 1.467v13.333c0 0.809-0.658 1.467-1.467 1.467h-1.333c-0.663 0-1.2 0.537-1.2 1.2v2.428l-3.261-3.275c-0.225-0.226-0.531-0.353-0.85-0.353h-12.022c-0.809 0-1.467-0.658-1.467-1.467v-13.333z"></path>
</svg>
