<?xml version="1.0" encoding="utf-8"?>
<!-- Generated by IcoMoon.io -->
<!DOCTYPE svg PUBLIC "-//W3C//DTD SVG 1.1//EN" "http://www.w3.org/Graphics/SVG/1.1/DTD/svg11.dtd">
<svg version="1.1" xmlns="http://www.w3.org/2000/svg" xmlns:xlink="http://www.w3.org/1999/xlink" width="32" height="32" viewBox="0 0 32 32">
<path d="M29.333 23.467c-0.667 0-1.2 0.533-1.2 1.2 0 1.173-0.96 2.133-2.133 2.133s-2.133-0.96-2.133-2.133v-0.373l5.2-10.427c0.16-0.32 0.16-0.667 0.027-0.987s-0.4-0.56-0.72-0.667l-4.587-1.547h0.080v-5.333c0-0.667-0.533-1.2-1.2-1.2h-2.8v-2.8c0-0.667-0.533-1.2-1.2-1.2h-5.333c-0.667 0-1.2 0.533-1.2 1.2v2.8h-2.8c-0.667 0-1.2 0.533-1.2 1.2v5.333h0.080l-4.587 1.52c-0.32 0.107-0.587 0.347-0.72 0.667s-0.133 0.693 0.027 1.013l5.2 10.427v0.373c0 1.173-0.96 2.133-2.133 2.133s-2.133-0.96-2.133-2.133c0-0.667-0.533-1.2-1.2-1.2s-1.2 0.533-1.2 1.2c0 2.507 2.027 4.533 4.533 4.533 1.307 0 2.507-0.56 3.333-1.467 0.827 0.907 2.027 1.467 3.333 1.467s2.507-0.56 3.333-1.467c0.827 0.907 2.027 1.467 3.333 1.467s2.507-0.56 3.333-1.467c0.827 0.907 2.027 1.467 3.333 1.467 2.507 0 4.533-2.027 4.533-4.533 0-0.667-0.533-1.2-1.2-1.2zM14.533 2.533h2.933v1.6h-2.933v-1.6zM10.533 6.533h10.933v3.36l-5.093-1.707c-0.24-0.080-0.507-0.080-0.747 0l-5.093 1.707v-3.36zM12.667 26.8c-1.173 0-2.133-0.96-2.133-2.133v-0.667c0-0.187-0.053-0.373-0.133-0.533l-4.72-9.44 9.12-3.040v13.653c0 0 0 0 0 0 0 1.2-0.96 2.16-2.133 2.16zM19.333 26.8c-1.173 0-2.133-0.96-2.133-2.133v-13.68l9.12 3.040-4.72 9.44c-0.080 0.16-0.133 0.347-0.133 0.533v0.667c0 1.173-0.96 2.133-2.133 2.133z"></path>
</svg>
