<?xml version="1.0" encoding="utf-8"?>
<!-- Generated by IcoMoon.io -->
<!DOCTYPE svg PUBLIC "-//W3C//DTD SVG 1.1//EN" "http://www.w3.org/Graphics/SVG/1.1/DTD/svg11.dtd">
<svg version="1.1" xmlns="http://www.w3.org/2000/svg" xmlns:xlink="http://www.w3.org/1999/xlink" width="32" height="32" viewBox="0 0 32 32">
<path d="M3.558 3.541c-0.186 0.448-0.083 0.964 0.26 1.307l8.982 8.982v12.17c0 1.765 1.435 3.2 3.2 3.2s3.2-1.435 3.2-3.2v-12.17l8.982-8.982c0.343-0.343 0.446-0.859 0.26-1.307s-0.623-0.741-1.109-0.741h-22.667c-0.485 0-0.923 0.293-1.109 0.741zM24.436 5.2l-7.285 7.285c-0.225 0.225-0.351 0.53-0.351 0.849v12.667c0 0.441-0.359 0.8-0.8 0.8s-0.8-0.359-0.8-0.8v-12.667c0-0.318-0.126-0.623-0.351-0.849l-7.285-7.285h16.873z"></path>
</svg>
