<?xml version="1.0" encoding="utf-8"?>
<!-- Generated by IcoMoon.io -->
<!DOCTYPE svg PUBLIC "-//W3C//DTD SVG 1.1//EN" "http://www.w3.org/Graphics/SVG/1.1/DTD/svg11.dtd">
<svg version="1.1" xmlns="http://www.w3.org/2000/svg" xmlns:xlink="http://www.w3.org/1999/xlink" width="32" height="32" viewBox="0 0 32 32">
<path d="M25.122 3.83c-0.085-0.591-0.591-1.030-1.188-1.030h-15.934c-0.597 0-1.103 0.439-1.188 1.030-0.057 0.402-1.278 9.8 7.988 18.047v4.922h-2.8c-0.663 0-1.2 0.537-1.2 1.2s0.537 1.2 1.2 1.2h8c0.663 0 1.2-0.537 1.2-1.2s-0.537-1.2-1.2-1.2h-2.8v-4.981c9.194-8.233 7.979-17.588 7.922-17.989zM9.127 5.2h13.673c0.010 2.424-0.633 8.715-6.833 14.492-6.253-5.818-6.867-12.069-6.84-14.492z"></path>
</svg>
