<?xml version="1.0" encoding="utf-8"?>
<!-- Generated by IcoMoon.io -->
<!DOCTYPE svg PUBLIC "-//W3C//DTD SVG 1.1//EN" "http://www.w3.org/Graphics/SVG/1.1/DTD/svg11.dtd">
<svg version="1.1" xmlns="http://www.w3.org/2000/svg" xmlns:xlink="http://www.w3.org/1999/xlink" width="32" height="32" viewBox="0 0 32 32">
<path d="M26.027 7.467c-0.427 0-0.853 0.080-1.253 0.24-0.56-0.933-1.573-1.573-2.747-1.573-0.587 0-1.12 0.16-1.6 0.427-0.587-0.667-1.44-1.093-2.4-1.093-0.267 0-0.56 0.027-0.8 0.107v-2.24c0-1.76-1.44-3.2-3.2-3.2s-3.2 1.44-3.2 3.2v9.28c-0.267-0.133-0.533-0.267-0.827-0.373-2.187-0.933-3.947-1.040-5.227-0.347-1.307 0.693-1.947 2.080-1.947 4.107 0 0.507 0.32 0.96 0.8 1.12 8.32 3.013 8.533 6.827 8.533 6.88v2.667c0 0.213 0.053 0.427 0.16 0.613 0.373 0.667 2.427 1.893 7.44 1.893 0.080 0 0.187 0 0.267 0 5.52-0.053 7.2-1.36 7.467-1.6 0.24-0.24 0.373-0.533 0.373-0.88v-5.067l1.2-2.427c0.080-0.16 0.133-0.347 0.133-0.533v-8c0.027-1.76-1.413-3.2-3.173-3.2zM26.827 18.373l-1.2 2.427c-0.080 0.16-0.133 0.347-0.133 0.533v4.64c-0.693 0.293-2.293 0.773-5.467 0.8-3.2 0.027-4.8-0.453-5.467-0.773v-2c0-0.533-0.267-5.28-9.28-8.8 0.080-0.507 0.267-0.987 0.64-1.2 1.12-0.587 3.92 0.64 5.44 1.653 0.373 0.24 0.853 0.267 1.227 0.053 0.4-0.213 0.64-0.613 0.64-1.067v-11.307c0-0.453 0.347-0.8 0.8-0.8s0.8 0.347 0.8 0.8l-0.027 7.333c0 0.667 0.533 1.2 1.2 1.2 0 0 0 0 0 0 0.667 0 1.2-0.533 1.2-1.2l0.027-2c0-0.453 0.347-0.8 0.8-0.8s0.8 0.347 0.8 0.8l-0.027 3.333c0 0.667 0.533 1.2 1.2 1.2 0 0 0 0 0 0 0.667 0 1.2-0.533 1.2-1.2l0.027-2.827c0.080-0.347 0.427-0.64 0.8-0.64 0.453 0 0.8 0.347 0.8 0.8l-0.027 4c0 0.667 0.533 1.2 1.2 1.2 0 0 0 0 0 0 0.667 0 1.2-0.533 1.2-1.2l0.027-2.827c0.080-0.373 0.427-0.64 0.8-0.64 0.453 0 0.8 0.347 0.8 0.8v7.707z"></path>
</svg>
