<?xml version="1.0" encoding="utf-8"?>
<!-- Generated by IcoMoon.io -->
<!DOCTYPE svg PUBLIC "-//W3C//DTD SVG 1.1//EN" "http://www.w3.org/Graphics/SVG/1.1/DTD/svg11.dtd">
<svg version="1.1" xmlns="http://www.w3.org/2000/svg" xmlns:xlink="http://www.w3.org/1999/xlink" width="32" height="32" viewBox="0 0 32 32">
<path d="M16 6.8c-5.073 0-9.2 4.127-9.2 9.2s4.127 9.2 9.2 9.2 9.2-4.127 9.2-9.2-4.127-9.2-9.2-9.2zM16 22.8c-3.75 0-6.8-3.050-6.8-6.8s3.050-6.8 6.8-6.8 6.8 3.050 6.8 6.8-3.050 6.8-6.8 6.8z"></path>
<path d="M16 10.8c-0.663 0-1.2 0.537-1.2 1.2v3.503l-0.982 0.982c-0.469 0.469-0.469 1.229 0 1.697 0.234 0.234 0.542 0.351 0.849 0.351s0.614-0.117 0.849-0.351l1.333-1.333c0.225-0.225 0.351-0.53 0.351-0.849v-4c0-0.663-0.537-1.2-1.2-1.2z"></path>
<path d="M16 26.652c-0.663 0-1.2 0.537-1.2 1.2v1.482c0 0.663 0.537 1.2 1.2 1.2s1.2-0.537 1.2-1.2v-1.482c0-0.663-0.537-1.2-1.2-1.2z"></path>
<path d="M16 5.348c0.663 0 1.2-0.537 1.2-1.2v-1.482c0-0.663-0.537-1.2-1.2-1.2s-1.2 0.537-1.2 1.2v1.482c0 0.663 0.537 1.2 1.2 1.2z"></path>
<path d="M4.148 14.8h-1.482c-0.663 0-1.2 0.537-1.2 1.2s0.537 1.2 1.2 1.2h1.482c0.663 0 1.2-0.537 1.2-1.2s-0.537-1.2-1.2-1.2z"></path>
<path d="M29.333 14.8h-1.482c-0.663 0-1.2 0.537-1.2 1.2s0.537 1.2 1.2 1.2h1.482c0.663 0 1.2-0.537 1.2-1.2s-0.537-1.2-1.2-1.2z"></path>
<path d="M25.229 23.532c-0.468-0.469-1.229-0.469-1.697 0s-0.469 1.229 0 1.697l1.048 1.048c0.234 0.234 0.541 0.351 0.849 0.351s0.614-0.117 0.849-0.351c0.469-0.469 0.469-1.229 0-1.697l-1.048-1.048z"></path>
<path d="M6.771 8.468c0.234 0.234 0.541 0.351 0.849 0.351s0.614-0.117 0.849-0.351c0.469-0.469 0.469-1.229 0-1.697l-1.048-1.048c-0.468-0.469-1.229-0.469-1.697 0s-0.469 1.229 0 1.697l1.047 1.048z"></path>
<path d="M6.771 23.532l-1.048 1.048c-0.469 0.469-0.469 1.229 0 1.697 0.234 0.234 0.541 0.351 0.849 0.351s0.614-0.117 0.849-0.351l1.048-1.048c0.469-0.469 0.469-1.229 0-1.697s-1.229-0.469-1.697 0z"></path>
<path d="M24.58 5.723l-1.048 1.048c-0.469 0.469-0.469 1.229 0 1.697 0.234 0.234 0.541 0.351 0.849 0.351s0.614-0.117 0.849-0.351l1.048-1.048c0.469-0.469 0.469-1.229 0-1.697s-1.229-0.468-1.697 0z"></path>
</svg>
