<?xml version="1.0" encoding="utf-8"?>
<!-- Generated by IcoMoon.io -->
<!DOCTYPE svg PUBLIC "-//W3C//DTD SVG 1.1//EN" "http://www.w3.org/Graphics/SVG/1.1/DTD/svg11.dtd">
<svg version="1.1" xmlns="http://www.w3.org/2000/svg" xmlns:xlink="http://www.w3.org/1999/xlink" width="32" height="32" viewBox="0 0 32 32">
<path d="M22.667 5.467c-0.062 0-0.125 0.001-0.189 0.003-1.718-1.704-4.046-2.67-6.478-2.67s-4.76 0.966-6.478 2.67c-0.064-0.002-0.127-0.003-0.189-0.003-3.603 0-6.533 2.931-6.533 6.533 0 2.587 1.355 4.47 4.039 5.638l2.663 10.653c0.133 0.534 0.614 0.909 1.164 0.909h10.667c0.551 0 1.032-0.376 1.165-0.911l2.667-10.735c0-0.001 0-0.001 0-0.002 3.356-1.528 4.035-3.893 4.035-5.552 0-3.602-2.931-6.533-6.533-6.533zM20.395 26.8h-8.791l-2.081-8.322c1.801 0.391 3.959 0.589 6.477 0.589 2.645 0 4.766-0.237 6.473-0.63l-2.078 8.364zM16 16.667c-2.671 0-10.8 0-10.8-4.667 0-2.279 1.854-4.133 4.133-4.133 0.151 0 0.315 0.012 0.517 0.037 0.393 0.049 0.787-0.099 1.049-0.397 1.292-1.466 3.151-2.307 5.101-2.307s3.809 0.841 5.101 2.306c0.262 0.298 0.656 0.446 1.049 0.397 0.201-0.025 0.365-0.037 0.516-0.037 2.279 0 4.133 1.854 4.133 4.133 0 2.966-3.937 4.667-10.8 4.667z"></path>
<path d="M18.182 8.485c-0.468-0.469-1.229-0.469-1.697 0s-0.469 1.229 0 1.697l1.333 1.333c0.234 0.234 0.541 0.351 0.848 0.351s0.614-0.117 0.849-0.351c0.469-0.469 0.469-1.229 0-1.697l-1.333-1.333z"></path>
<path d="M10.667 10.8h-1.333c-0.663 0-1.2 0.537-1.2 1.2s0.537 1.2 1.2 1.2h1.333c0.663 0 1.2-0.537 1.2-1.2s-0.537-1.2-1.2-1.2z"></path>
<path d="M21.818 11.151l-1.333 1.333c-0.469 0.469-0.469 1.229 0 1.697 0.234 0.234 0.542 0.351 0.849 0.351s0.614-0.117 0.849-0.351l1.333-1.333c0.469-0.469 0.469-1.229 0-1.697s-1.229-0.469-1.697 0z"></path>
</svg>
