<?xml version="1.0" encoding="utf-8"?>
<!-- Generated by IcoMoon.io -->
<!DOCTYPE svg PUBLIC "-//W3C//DTD SVG 1.1//EN" "http://www.w3.org/Graphics/SVG/1.1/DTD/svg11.dtd">
<svg version="1.1" xmlns="http://www.w3.org/2000/svg" xmlns:xlink="http://www.w3.org/1999/xlink" width="32" height="32" viewBox="0 0 32 32">
<path d="M16 0.133c-8.747 0-15.867 7.12-15.867 15.867s7.12 15.867 15.867 15.867 15.867-7.12 15.867-15.867-7.12-15.867-15.867-15.867zM16 29.467c-7.413 0-13.467-6.053-13.467-13.467s6.053-13.467 13.467-13.467 13.467 6.053 13.467 13.467-6.053 13.467-13.467 13.467z"></path>
<path d="M19.707 9.12c-0.427-0.373-0.96-0.667-1.547-0.88-0.613-0.213-1.307-0.32-2.053-0.32-0.373 0-0.693 0.027-0.96 0.053-0.293 0.027-0.533 0.053-0.747 0.107s-0.4 0.080-0.56 0.133c-0.16 0.053-0.32 0.107-0.453 0.16-0.213 0.080-0.373 0.16-0.507 0.24s-0.213 0.133-0.293 0.213c-0.053 0.053-0.107 0.133-0.133 0.187s-0.027 0.133-0.027 0.187 0.027 0.267 0.053 0.4c0.027 0.133 0.107 0.32 0.187 0.507s0.187 0.373 0.293 0.507c0.107 0.133 0.267 0.213 0.427 0.213s0.293-0.027 0.427-0.107c0.133-0.080 0.293-0.133 0.507-0.213 0.187-0.080 0.4-0.133 0.64-0.213s0.587-0.107 1.040-0.107c0.4 0 0.72 0.053 1.013 0.187 0.293 0.107 0.533 0.267 0.72 0.48 0.213 0.187 0.347 0.427 0.453 0.667 0.107 0.267 0.133 0.507 0.133 0.8 0 0.693-0.187 1.227-0.587 1.627s-0.96 0.693-1.707 0.907c-0.16 0.053-0.293 0.080-0.4 0.107s-0.187 0.053-0.267 0.107c-0.107 0.053-0.213 0.080-0.293 0.133s-0.16 0.107-0.213 0.187c-0.053 0.080-0.107 0.16-0.133 0.267-0.027 0.080-0.053 0.213-0.053 0.347v2.507c0 0.16 0.027 0.267 0.053 0.347s0.080 0.16 0.16 0.213c0.053 0.053 0.187 0.107 0.373 0.16s0.427 0.053 0.747 0.053c0.32 0 0.587-0.027 0.747-0.080 0.187-0.053 0.32-0.107 0.4-0.16s0.133-0.133 0.16-0.213c0.027-0.080 0.027-0.187 0.027-0.347v-1.68c0.587-0.213 1.093-0.453 1.547-0.72s0.827-0.587 1.147-0.933c0.32-0.373 0.56-0.8 0.72-1.28s0.24-1.040 0.24-1.68c0-0.613-0.107-1.173-0.347-1.707-0.187-0.533-0.507-0.96-0.933-1.36z"></path>
<path d="M17.787 22.373c0 0.928-0.788 1.68-1.76 1.68s-1.76-0.752-1.76-1.68c0-0.928 0.788-1.68 1.76-1.68s1.76 0.752 1.76 1.68z"></path>
</svg>
