<?xml version="1.0" encoding="utf-8"?>
<!-- Generated by IcoMoon.io -->
<!DOCTYPE svg PUBLIC "-//W3C//DTD SVG 1.1//EN" "http://www.w3.org/Graphics/SVG/1.1/DTD/svg11.dtd">
<svg version="1.1" xmlns="http://www.w3.org/2000/svg" xmlns:xlink="http://www.w3.org/1999/xlink" width="32" height="32" viewBox="0 0 32 32">
<path d="M10.667 12h12c0.733 0 1.333-0.6 1.333-1.333v-4h-14.667v4c0 0.733 0.6 1.333 1.333 1.333z"></path>
<path d="M24 4c0-0.733-0.6-1.333-1.333-1.333h-12c-0.733 0-1.333 0.6-1.333 1.333v1.333h14.667v-1.333z"></path>
<path d="M30.667 13.467h-29.333c-0.663 0-1.2 0.537-1.2 1.2s0.537 1.2 1.2 1.2h4.144c-0.024 0.215 0.006 0.437 0.103 0.643 1.932 4.121 1.959 5.761 1.873 6.29h-3.787c-0.318 0-0.623 0.126-0.849 0.351-1.786 1.786-1.807 5.146-0.061 6.968 0.339 0.414 0.753 0.414 1.354 0.414h6.556c2.002 0 4.943-1.851 8.989-5.659 2.216-2.086 4.107-4.144 4.879-5.003l2.123 0.017c0.324-0.001 0.627-0.123 0.855-0.348s0.355-0.532 0.355-0.852v-2c0-0.284-0.041-0.558-0.111-0.821h2.911c0.663 0 1.2-0.537 1.2-1.2s-0.537-1.2-1.2-1.2zM17.37 15.867l-3.395 2.263-0.754-2.263h4.15zM25.467 17.478l-1.457-0.011c-0.344-0.002-0.682 0.147-0.913 0.41-3.728 4.259-10.049 10.257-12.43 10.257h-2.227c-1.53 0-3.307 0-4.198 0-0.502-0.825-0.502-2.108 0-2.933h3.758c0.082 0 0.164-0.008 0.244-0.025 0.197-0.041 0.873-0.241 1.299-1.093 0.718-1.435 0.273-3.943-1.361-7.65 0.507-0.205 1.152-0.297 1.756-0.227 0.496 0.057 0.834 0.211 0.985 0.358l1.272 3.816c0.118 0.355 0.395 0.634 0.749 0.755 0.353 0.122 0.744 0.071 1.055-0.137l7.694-5.13 2.973 0.019c0.441 0 0.8 0.359 0.8 0.8v0.791z"></path>
</svg>
