<?xml version="1.0" encoding="utf-8"?>
<!-- Generated by IcoMoon.io -->
<!DOCTYPE svg PUBLIC "-//W3C//DTD SVG 1.1//EN" "http://www.w3.org/Graphics/SVG/1.1/DTD/svg11.dtd">
<svg version="1.1" xmlns="http://www.w3.org/2000/svg" xmlns:xlink="http://www.w3.org/1999/xlink" width="32" height="32" viewBox="0 0 32 32">
<path d="M5.733 27.493c0.24 0.24 0.533 0.373 0.88 0.373h5.040l2.4 1.2c0.16 0.080 0.347 0.133 0.533 0.133 0 0 8.027 0 8.027 0s0.027 0 0.027 0c1.76 0 3.2-1.44 3.2-3.2 0-0.453-0.080-0.853-0.24-1.253 0.933-0.56 1.573-1.573 1.573-2.747 0-0.587-0.16-1.12-0.427-1.6 0.667-0.587 1.093-1.44 1.093-2.4s-0.427-1.84-1.12-2.427c0.267-0.453 0.427-0.987 0.427-1.573 0-1.76-1.44-3.2-3.2-3.2h-3.28c0.133-0.267 0.267-0.533 0.373-0.827 0.933-2.187 1.040-3.947 0.347-5.227-0.693-1.307-2.080-1.947-4.107-1.947-0.507 0-0.96 0.32-1.12 0.8-2.533 7.013-5.813 8.533-6.88 8.533h-2.667c-0.213 0-0.427 0.053-0.613 0.16-0.667 0.4-1.92 2.507-1.893 7.707 0.080 5.52 1.387 7.2 1.627 7.493zM7.307 14.533h2c0.533 0 5.28-0.267 8.8-9.28 0.507 0.080 0.987 0.267 1.2 0.64 0.587 1.12-0.64 3.92-1.653 5.44-0.24 0.373-0.267 0.853-0.053 1.227 0.213 0.4 0.613 0.64 1.067 0.64h5.333c0.453 0 0.8 0.347 0.8 0.8s-0.347 0.8-0.8 0.8c-0.667 0-1.2 0.533-1.2 1.2s0.533 1.2 1.2 1.2c0.16 0 0.613 0 0.72 0 0.453 0 0.8 0.347 0.8 0.8s-0.347 0.8-0.8 0.8c-0.080 0-0.533 0-0.667 0-0.667 0-1.2 0.533-1.2 1.2s0.533 1.2 1.2 1.2c0.453 0 0.8 0.347 0.8 0.8s-0.347 0.8-0.8 0.8c-0.187 0-1.040 0-1.333 0-0.667 0-1.2 0.533-1.2 1.2s0.533 1.2 1.2 1.2c0.453 0 0.8 0.347 0.8 0.8s-0.347 0.8-0.8 0.8c0 0-0.027 0-0.027 0s-0.027 0-0.027 0h-7.76l-2.4-1.2c-0.16-0.080-0.347-0.133-0.533-0.133h-4.64c-0.293-0.693-0.773-2.293-0.8-5.467-0.027-3.2 0.48-4.8 0.773-5.467z"></path>
</svg>
