<?xml version="1.0" encoding="utf-8"?>
<!-- Generated by IcoMoon.io -->
<!DOCTYPE svg PUBLIC "-//W3C//DTD SVG 1.1//EN" "http://www.w3.org/Graphics/SVG/1.1/DTD/svg11.dtd">
<svg version="1.1" xmlns="http://www.w3.org/2000/svg" xmlns:xlink="http://www.w3.org/1999/xlink" width="32" height="32" viewBox="0 0 32 32">
<path d="M24.133 12.533c-1.029 0-1.867 0.838-1.867 1.867s0.837 1.867 1.867 1.867 1.867-0.838 1.867-1.867-0.837-1.867-1.867-1.867z"></path>
<path d="M16 12.8c-3.602 0-6.533 2.931-6.533 6.533s2.931 6.533 6.533 6.533 6.533-2.931 6.533-6.533-2.931-6.533-6.533-6.533zM16 23.467c-2.279 0-4.133-1.854-4.133-4.133s1.854-4.133 4.133-4.133 4.133 1.854 4.133 4.133-1.854 4.133-4.133 4.133z"></path>
<path d="M25.333 9.467h-4.133v-1.467c0-1.397-1.137-2.533-2.533-2.533h-5.333c-1.397 0-2.533 1.137-2.533 2.533v1.467h-1.679c-0.23-0.77-0.944-1.333-1.788-1.333-0.909 0-1.667 0.653-1.832 1.514-1.564 0.495-2.701 1.96-2.701 3.686v12c0 2.132 1.735 3.867 3.867 3.867h18.667c2.132 0 3.867-1.735 3.867-3.867v-12c0-2.132-1.735-3.867-3.867-3.867zM26.8 25.333c0 0.809-0.658 1.467-1.467 1.467h-18.667c-0.809 0-1.467-0.658-1.467-1.467v-12c0-0.809 0.658-1.467 1.467-1.467h5.333c0.663 0 1.2-0.537 1.2-1.2v-2.667c0-0.073 0.060-0.133 0.133-0.133h5.333c0.074 0 0.133 0.060 0.133 0.133v2.667c0 0.663 0.537 1.2 1.2 1.2h5.333c0.809 0 1.467 0.658 1.467 1.467v12z"></path>
</svg>
