<?xml version="1.0" encoding="utf-8"?>
<!-- Generated by IcoMoon.io -->
<!DOCTYPE svg PUBLIC "-//W3C//DTD SVG 1.1//EN" "http://www.w3.org/Graphics/SVG/1.1/DTD/svg11.dtd">
<svg version="1.1" xmlns="http://www.w3.org/2000/svg" xmlns:xlink="http://www.w3.org/1999/xlink" width="32" height="32" viewBox="0 0 32 32">
<path d="M28 14.8c-0.663 0-1.2 0.537-1.2 1.2 0 1.458-0.285 2.873-0.849 4.204-0.543 1.285-1.322 2.44-2.314 3.433-0.994 0.993-2.149 1.772-3.434 2.315-1.33 0.563-2.744 0.848-4.203 0.848-0.001 0-0.002 0-0.004 0-1.457 0-2.87-0.285-4.199-0.848-1.285-0.543-2.44-1.322-3.434-2.315s-1.772-2.149-2.315-3.433c-0.563-1.331-0.849-2.746-0.848-4.204s0.285-2.872 0.848-4.203c0.544-1.285 1.323-2.441 2.315-3.434s2.148-1.771 3.434-2.315c1.33-0.562 2.742-0.847 4.201-0.847 0.004 0 0.007 0 0.011 0 1.455 0 2.867 0.285 4.196 0.848 0.494 0.209 0.968 0.453 1.421 0.73h-0.602c-0.663 0-1.2 0.537-1.2 1.2s0.537 1.2 1.2 1.2h3.771c0.663 0 1.2-0.537 1.2-1.2l0-3.771c0-0.663-0.537-1.2-1.2-1.2s-1.2 0.537-1.2 1.2v0.998c-0.765-0.539-1.585-0.998-2.455-1.367-1.627-0.689-3.353-1.038-5.13-1.038-0.004 0-0.008 0-0.013 0-1.78 0-3.508 0.349-5.134 1.037-1.572 0.665-2.983 1.617-4.195 2.829-1.212 1.213-2.164 2.625-2.828 4.195-0.689 1.628-1.038 3.357-1.038 5.138s0.349 3.51 1.038 5.139c0.664 1.571 1.615 2.982 2.829 4.196 1.213 1.212 2.625 2.164 4.195 2.828 1.627 0.689 3.355 1.038 5.134 1.038 0.001 0 0.003 0 0.004 0 1.782 0 3.511-0.349 5.138-1.038 1.571-0.665 2.983-1.616 4.196-2.829s2.164-2.625 2.828-4.195c0.689-1.629 1.038-3.358 1.038-5.139 0-0.662-0.537-1.2-1.2-1.2z"></path>
</svg>
