<?xml version="1.0" encoding="utf-8"?>
<!-- Generated by IcoMoon.io -->
<!DOCTYPE svg PUBLIC "-//W3C//DTD SVG 1.1//EN" "http://www.w3.org/Graphics/SVG/1.1/DTD/svg11.dtd">
<svg version="1.1" xmlns="http://www.w3.org/2000/svg" xmlns:xlink="http://www.w3.org/1999/xlink" width="32" height="32" viewBox="0 0 32 32">
<path fill="#fff" stroke-linejoin="miter" stroke-linecap="round" stroke-miterlimit="10" stroke-width="2.6667" stroke="#000" d="M6.667 9.333c-1.467 0-2.667 1.2-2.667 2.667v12c0 1.467 1.2 2.667 2.667 2.667h18.667c1.467 0 2.667-1.2 2.667-2.667v-12c0-1.467-1.2-2.667-2.667-2.667h-5.333v-2.667c0-0.736-0.597-1.333-1.333-1.333h-5.333c-0.736 0-1.333 0.597-1.333 1.333v2.667h-5.333z"></path>
<path fill="#fff" stroke-linejoin="miter" stroke-linecap="round" stroke-miterlimit="10" stroke-width="2.6667" stroke="#000" d="M24.8 13.067c0 0.368-0.298 0.667-0.667 0.667s-0.667-0.298-0.667-0.667c0-0.368 0.298-0.667 0.667-0.667s0.667 0.298 0.667 0.667z"></path>
<path fill="#fff" stroke-linejoin="miter" stroke-linecap="round" stroke-miterlimit="10" stroke-width="2.6667" stroke="#000" d="M21.333 18c0 2.946-2.388 5.333-5.333 5.333s-5.333-2.388-5.333-5.333c0-2.946 2.388-5.333 5.333-5.333s5.333 2.388 5.333 5.333z"></path>
<path fill="#fff" stroke-linejoin="miter" stroke-linecap="round" stroke-miterlimit="10" stroke-width="2.6667" stroke="#000" d="M8 9.333c0 0 0-0.546 0-0.667 0-0.368-0.298-0.667-0.667-0.667s-0.667 0.298-0.667 0.667c0 0.121 0 0.667 0 0.667h1.333z"></path>
</svg>
