<?xml version="1.0" encoding="utf-8"?>
<!-- Generated by IcoMoon.io -->
<!DOCTYPE svg PUBLIC "-//W3C//DTD SVG 1.1//EN" "http://www.w3.org/Graphics/SVG/1.1/DTD/svg11.dtd">
<svg version="1.1" xmlns="http://www.w3.org/2000/svg" xmlns:xlink="http://www.w3.org/1999/xlink" width="32" height="32" viewBox="0 0 32 32">
<path d="M28.849 13.818c-0.469-0.469-1.228-0.469-1.697 0l-0.030 0.030-1.372-6.172c-0.442-1.986-2.382-3.542-4.417-3.542h-10.667c-2.035 0-3.975 1.556-4.417 3.543l-1.371 6.172-0.030-0.030c-0.469-0.469-1.228-0.469-1.697 0s-0.469 1.228 0 1.697l1.217 1.217c-0.143 1.156-0.235 2.37-0.235 3.267v2.667c0 1.163 0.518 2.205 1.333 2.914v2.419c0 0.663 0.537 1.2 1.2 1.2h1.333c0.663 0 1.2-0.537 1.2-1.2v-1.467h13.6v1.467c0 0.663 0.537 1.2 1.2 1.2h1.333c0.663 0 1.2-0.537 1.2-1.2v-2.419c0.815-0.71 1.333-1.751 1.333-2.914v-2.667c0-0.898-0.093-2.112-0.235-3.267l1.217-1.217c0.469-0.469 0.469-1.229 0-1.697zM25.467 20v2.667c0 0.809-0.658 1.467-1.467 1.467h-16c-0.809 0-1.467-0.658-1.467-1.467v-2.667c0-0.758 0.077-1.796 0.196-2.8h18.542c0.119 1.004 0.196 2.042 0.196 2.8zM8.593 8.197c0.197-0.886 1.166-1.663 2.074-1.663h10.667c0.908 0 1.877 0.777 2.074 1.663l1.467 6.603h-17.749l1.467-6.603z"></path>
<path d="M10 22.533c1.029 0 1.867-0.838 1.867-1.867s-0.837-1.867-1.867-1.867-1.867 0.838-1.867 1.867 0.837 1.867 1.867 1.867z"></path>
<path d="M22 22.533c1.029 0 1.867-0.838 1.867-1.867s-0.837-1.867-1.867-1.867-1.867 0.838-1.867 1.867 0.837 1.867 1.867 1.867z"></path>
</svg>
