<?xml version="1.0" encoding="utf-8"?>
<!-- Generated by IcoMoon.io -->
<!DOCTYPE svg PUBLIC "-//W3C//DTD SVG 1.1//EN" "http://www.w3.org/Graphics/SVG/1.1/DTD/svg11.dtd">
<svg version="1.1" xmlns="http://www.w3.org/2000/svg" xmlns:xlink="http://www.w3.org/1999/xlink" width="32" height="32" viewBox="0 0 32 32">
<path d="M16 22.6c3.639 0 6.6-2.961 6.6-6.6s-2.961-6.6-6.6-6.6-6.6 2.961-6.6 6.6 2.961 6.6 6.6 6.6z"></path>
<path d="M14.8 25.333v2.667c0 0.663 0.537 1.2 1.2 1.2s1.2-0.537 1.2-1.2v-2.667c0-0.663-0.537-1.2-1.2-1.2s-1.2 0.537-1.2 1.2z"></path>
<path d="M16 7.867c0.663 0 1.2-0.537 1.2-1.2v-2.667c0-0.663-0.537-1.2-1.2-1.2s-1.2 0.537-1.2 1.2v2.667c0 0.663 0.537 1.2 1.2 1.2z"></path>
<path d="M4 17.2h2.667c0.663 0 1.2-0.537 1.2-1.2s-0.537-1.2-1.2-1.2h-2.667c-0.663 0-1.2 0.537-1.2 1.2s0.537 1.2 1.2 1.2z"></path>
<path d="M28 14.8h-2.667c-0.663 0-1.2 0.537-1.2 1.2s0.537 1.2 1.2 1.2h2.667c0.663 0 1.2-0.537 1.2-1.2s-0.537-1.2-1.2-1.2z"></path>
<path d="M21.751 21.751c-0.469 0.469-0.469 1.229 0 1.697l1.886 1.886c0.234 0.234 0.541 0.351 0.849 0.351s0.614-0.117 0.849-0.351c0.469-0.469 0.469-1.229 0-1.697l-1.886-1.886c-0.469-0.469-1.228-0.469-1.697 0z"></path>
<path d="M8.552 10.249c0.234 0.234 0.541 0.351 0.849 0.351s0.614-0.117 0.849-0.351c0.469-0.469 0.469-1.228 0-1.697l-1.886-1.886c-0.469-0.469-1.229-0.469-1.697 0s-0.469 1.228 0 1.697l1.886 1.886z"></path>
<path d="M8.552 21.751l-1.886 1.886c-0.469 0.469-0.469 1.229 0 1.697 0.234 0.234 0.541 0.351 0.849 0.351s0.614-0.117 0.849-0.351l1.886-1.886c0.469-0.469 0.469-1.229 0-1.697s-1.228-0.469-1.697 0z"></path>
<path d="M22.599 10.6c0.307 0 0.614-0.117 0.849-0.351l1.886-1.886c0.469-0.469 0.469-1.228 0-1.697s-1.228-0.469-1.697 0l-1.886 1.886c-0.469 0.469-0.469 1.228 0 1.697 0.234 0.234 0.541 0.351 0.849 0.351z"></path>
</svg>
