<?xml version="1.0" encoding="utf-8"?>
<!-- Generated by IcoMoon.io -->
<!DOCTYPE svg PUBLIC "-//W3C//DTD SVG 1.1//EN" "http://www.w3.org/Graphics/SVG/1.1/DTD/svg11.dtd">
<svg version="1.1" xmlns="http://www.w3.org/2000/svg" xmlns:xlink="http://www.w3.org/1999/xlink" width="32" height="32" viewBox="0 0 32 32">
<path d="M4.433 20.975l9.7-4.308v6.487l-3.092 4.117c-0.351 0.467-0.314 1.119 0.087 1.545s1.050 0.499 1.537 0.176l3.336-2.217 3.336 2.217c0.203 0.135 0.434 0.201 0.664 0.201 0.321 0 0.639-0.129 0.873-0.376 0.401-0.425 0.438-1.077 0.087-1.545l-3.093-4.118v-6.492l9.7 4.314c0.141 0.062 0.288 0.092 0.433 0.092 0.365 0 0.717-0.188 0.915-0.518 0.277-0.462 0.166-1.059-0.26-1.39l-10.789-8.397v-6.077c0-0.003 0-0.006 0-0.009s0-0.006 0-0.009c0-1.029-0.837-1.867-1.867-1.867s-1.867 0.837-1.867 1.867c0 0.003 0 0.006 0 0.009s0 0.006 0 0.009v6.089l-10.787 8.385c-0.426 0.331-0.538 0.927-0.261 1.39s0.856 0.646 1.349 0.427z"></path>
</svg>
