<?xml version="1.0" encoding="utf-8"?>
<!-- Generated by IcoMoon.io -->
<!DOCTYPE svg PUBLIC "-//W3C//DTD SVG 1.1//EN" "http://www.w3.org/Graphics/SVG/1.1/DTD/svg11.dtd">
<svg version="1.1" xmlns="http://www.w3.org/2000/svg" xmlns:xlink="http://www.w3.org/1999/xlink" width="32" height="32" viewBox="0 0 32 32">
<path d="M26.139 7.558l2.51-2.51c0.469-0.469 0.469-1.229 0-1.697s-1.229-0.469-1.697 0l-2.51 2.51c-2.29-1.91-5.234-3.061-8.442-3.061-7.278 0-13.2 5.922-13.2 13.2 0 3.208 1.151 6.151 3.061 8.442l-2.621 2.621c-0.469 0.469-0.469 1.229 0 1.697 0.234 0.234 0.541 0.351 0.849 0.351s0.614-0.117 0.849-0.351l2.621-2.621c2.29 1.91 5.234 3.061 8.442 3.061 7.278 0 13.2-5.922 13.2-13.2 0-3.208-1.151-6.152-3.061-8.442zM5.2 16c0-5.955 4.845-10.8 10.8-10.8 2.546 0 4.887 0.888 6.736 2.367l-15.169 15.169c-1.479-1.848-2.367-4.19-2.367-6.736zM16 26.8c-2.546 0-4.888-0.888-6.736-2.367l15.169-15.169c1.479 1.849 2.367 4.19 2.367 6.736 0 5.955-4.845 10.8-10.8 10.8z"></path>
</svg>
