<?xml version="1.0" encoding="utf-8"?>
<!-- Generated by IcoMoon.io -->
<!DOCTYPE svg PUBLIC "-//W3C//DTD SVG 1.1//EN" "http://www.w3.org/Graphics/SVG/1.1/DTD/svg11.dtd">
<svg version="1.1" xmlns="http://www.w3.org/2000/svg" xmlns:xlink="http://www.w3.org/1999/xlink" width="32" height="32" viewBox="0 0 32 32">
<path d="M28 6.8h-2.8v-0.133c0-2.132-1.735-3.867-3.867-3.867h-10.667c-2.132 0-3.867 1.735-3.867 3.867v0.133h-2.8c-0.663 0-1.2 0.537-1.2 1.2v4.533c0 0.663 0.537 1.2 1.2 1.2s1.2-0.537 1.2-1.2v-3.333h1.6v13.467c0 1.163 0.518 2.205 1.333 2.914v2.419c0 0.663 0.537 1.2 1.2 1.2 0.247 0 0.476-0.075 0.667-0.203 0.191 0.128 0.42 0.203 0.667 0.203 0.663 0 1.2-0.537 1.2-1.2v-1.333c0-0.046-0.009-0.089-0.014-0.133h8.294c-0.005 0.044-0.014 0.088-0.014 0.133v1.333c0 0.663 0.537 1.2 1.2 1.2 0.247 0 0.476-0.075 0.667-0.203 0.191 0.128 0.42 0.203 0.667 0.203 0.663 0 1.2-0.537 1.2-1.2v-2.419c0.815-0.71 1.333-1.751 1.333-2.914v-13.467h1.6v3.333c0 0.663 0.537 1.2 1.2 1.2s1.2-0.537 1.2-1.2v-4.533c0-0.663-0.537-1.2-1.2-1.2zM9.2 6.667c0-0.809 0.658-1.467 1.467-1.467h10.667c0.809 0 1.467 0.658 1.467 1.467v0.133h-13.6v-0.133zM9.793 22.024c0-1.13 0.919-2.050 2.050-2.050s2.050 0.919 2.050 2.050-0.919 2.050-2.050 2.050-2.050-0.92-2.050-2.050zM20.583 24.074c-1.13 0-2.050-0.919-2.050-2.050s0.919-2.050 2.050-2.050 2.050 0.919 2.050 2.050-0.92 2.050-2.050 2.050zM22.8 17.467h-13.6v-8.267h13.6v8.267z"></path>
</svg>
