<?xml version="1.0" encoding="utf-8"?>
<!-- Generated by IcoMoon.io -->
<!DOCTYPE svg PUBLIC "-//W3C//DTD SVG 1.1//EN" "http://www.w3.org/Graphics/SVG/1.1/DTD/svg11.dtd">
<svg version="1.1" xmlns="http://www.w3.org/2000/svg" xmlns:xlink="http://www.w3.org/1999/xlink" width="32" height="32" viewBox="0 0 32 32">
<path d="M15.993 10.533c-1.029 0-1.867-0.837-1.867-1.867s0.838-1.867 1.867-1.867 1.867 0.837 1.867 1.867-0.838 1.867-1.867 1.867z"></path>
<path d="M16 29.2c-3.526 0-6.841-1.373-9.334-3.866s-3.866-5.808-3.866-9.334 1.373-6.841 3.866-9.334c2.493-2.493 5.808-3.866 9.334-3.866s6.841 1.373 9.334 3.866c0.469 0.469 0.469 1.228 0 1.697l-7.637 7.637 7.637 7.637c0.469 0.469 0.469 1.228-0 1.697-2.493 2.493-5.808 3.866-9.334 3.866zM16 5.2c-2.885 0-5.597 1.123-7.637 3.163s-3.163 4.752-3.163 7.637 1.123 5.597 3.163 7.637 4.752 3.163 7.637 3.163c2.481 0 4.834-0.831 6.742-2.361l-7.59-7.59c-0.225-0.225-0.351-0.53-0.351-0.849s0.126-0.623 0.351-0.849l7.59-7.59c-1.908-1.53-4.261-2.361-6.742-2.361z"></path>
</svg>
