<?xml version="1.0" encoding="utf-8"?>
<!-- Generated by IcoMoon.io -->
<!DOCTYPE svg PUBLIC "-//W3C//DTD SVG 1.1//EN" "http://www.w3.org/Graphics/SVG/1.1/DTD/svg11.dtd">
<svg version="1.1" xmlns="http://www.w3.org/2000/svg" xmlns:xlink="http://www.w3.org/1999/xlink" width="32" height="32" viewBox="0 0 32 32">
<path d="M12.849 3.151c-0.225-0.225-0.53-0.351-0.849-0.351h-8c-0.663 0-1.2 0.537-1.2 1.2v8c0 0.318 0.126 0.623 0.351 0.849l16 16c0.234 0.234 0.541 0.351 0.849 0.351s0.614-0.117 0.849-0.351l8-8c0.469-0.469 0.469-1.228 0-1.697l-16-16zM20 26.303l-14.8-14.8v-6.303h6.303l14.8 14.8-6.303 6.303z"></path>
<path d="M8.667 6.8c-1.029 0-1.867 0.838-1.867 1.867s0.837 1.867 1.867 1.867 1.867-0.838 1.867-1.867-0.837-1.867-1.867-1.867z"></path>
</svg>
