<?xml version="1.0" encoding="utf-8"?>
<!-- Generated by IcoMoon.io -->
<!DOCTYPE svg PUBLIC "-//W3C//DTD SVG 1.1//EN" "http://www.w3.org/Graphics/SVG/1.1/DTD/svg11.dtd">
<svg version="1.1" xmlns="http://www.w3.org/2000/svg" xmlns:xlink="http://www.w3.org/1999/xlink" width="32" height="32" viewBox="0 0 32 32">
<path d="M28.594 22.957l-12.21-6.957 12.21-6.957c0.576-0.328 0.777-1.061 0.449-1.637s-1.061-0.777-1.637-0.449l-13.446 7.662-2.95-1.681 1.465-2.291c0.010-0.015 0.019-0.031 0.028-0.047 1.433-2.483 0.58-5.67-1.903-7.103s-5.67-0.579-7.104 1.903c-1.433 2.483-0.579 5.67 1.91 7.107l6.13 3.493-6.135 3.496c-2.483 1.433-3.337 4.62-1.904 7.103 0.962 1.666 2.714 2.599 4.512 2.599 0.882 0 1.775-0.224 2.591-0.696 2.483-1.434 3.337-4.62 1.903-7.103-0.009-0.016-0.018-0.031-0.028-0.047l-1.465-2.291 2.95-1.681 13.446 7.662c0.187 0.107 0.391 0.158 0.593 0.158 0.417 0 0.822-0.218 1.044-0.606 0.328-0.576 0.127-1.308-0.449-1.637zM10.438 9.379l-1.515 2.369-2.322-1.323c-1.337-0.772-1.797-2.488-1.025-3.825 0.518-0.897 1.461-1.399 2.43-1.399 0.475 0 0.955 0.121 1.395 0.374 1.33 0.768 1.792 2.47 1.038 3.803zM9.401 26.424c-1.337 0.772-3.053 0.312-3.825-1.025s-0.312-3.053 1.019-3.822l2.328-1.326 1.515 2.369c0.755 1.334 0.293 3.035-1.037 3.803z"></path>
</svg>
