<?xml version="1.0" encoding="utf-8"?>
<!-- Generated by IcoMoon.io -->
<!DOCTYPE svg PUBLIC "-//W3C//DTD SVG 1.1//EN" "http://www.w3.org/Graphics/SVG/1.1/DTD/svg11.dtd">
<svg version="1.1" xmlns="http://www.w3.org/2000/svg" xmlns:xlink="http://www.w3.org/1999/xlink" width="32" height="32" viewBox="0 0 32 32">
<path d="M16 19.867c3.602 0 6.533-2.931 6.533-6.533s-2.931-6.533-6.533-6.533-6.533 2.931-6.533 6.533 2.931 6.533 6.533 6.533zM16 9.2c2.279 0 4.133 1.854 4.133 4.133s-1.854 4.133-4.133 4.133-4.133-1.854-4.133-4.133 1.854-4.133 4.133-4.133z"></path>
<path d="M30.182 23.151l-4.881-4.881c0.786-1.474 1.233-3.154 1.233-4.937 0-5.808-4.725-10.533-10.533-10.533s-10.533 4.725-10.533 10.533c0 1.783 0.447 3.463 1.233 4.937l-4.881 4.881c-0.343 0.343-0.446 0.859-0.26 1.308s0.623 0.741 1.109 0.741h4.133v4.133c0 0.485 0.292 0.923 0.741 1.109s0.965 0.083 1.308-0.26l6.315-6.315h1.673l6.315 6.315c0.23 0.23 0.537 0.351 0.849 0.351 0.155 0 0.311-0.030 0.459-0.091 0.449-0.186 0.741-0.623 0.741-1.109v-4.133h4.133c0.485 0 0.923-0.292 1.109-0.741s0.083-0.965-0.26-1.308zM16 5.2c4.485 0 8.133 3.649 8.133 8.133s-3.649 8.133-8.133 8.133-8.133-3.649-8.133-8.133 3.649-8.133 8.133-8.133zM9.2 26.436v-2.436c0-0.663-0.537-1.2-1.2-1.2h-2.436l2.525-2.524c1.157 1.318 2.636 2.346 4.315 2.958l-3.203 3.203zM24 22.8c-0.663 0-1.2 0.537-1.2 1.2v2.436l-3.203-3.203c1.678-0.612 3.157-1.64 4.315-2.958l2.525 2.524h-2.437z"></path>
</svg>
