<?xml version="1.0" encoding="utf-8"?>
<!-- Generated by IcoMoon.io -->
<!DOCTYPE svg PUBLIC "-//W3C//DTD SVG 1.1//EN" "http://www.w3.org/Graphics/SVG/1.1/DTD/svg11.dtd">
<svg version="1.1" xmlns="http://www.w3.org/2000/svg" xmlns:xlink="http://www.w3.org/1999/xlink" width="32" height="32" viewBox="0 0 32 32">
<path fill="#fff" d="M18.897 14.8h3.795c-0.176-0.983-0.563-1.893-1.114-2.682l-2.682 2.682z"></path>
<path fill="#fff" d="M14.8 18.897l-2.682 2.682c0.789 0.55 1.699 0.937 2.682 1.113v-3.795z"></path>
<path fill="#fff" d="M18.897 17.2l2.682 2.682c0.551-0.789 0.938-1.699 1.114-2.682h-3.795z"></path>
<path fill="#fff" d="M17.2 18.897v3.795c0.983-0.176 1.893-0.563 2.682-1.113l-2.682-2.682z"></path>
<path fill="#fff" d="M13.103 17.2h-3.795c0.176 0.983 0.563 1.893 1.114 2.682l2.682-2.682z"></path>
<path fill="#fff" d="M13.103 14.8l-2.682-2.682c-0.551 0.789-0.938 1.699-1.114 2.682h3.795z"></path>
<path fill="#fff" d="M14.8 13.103v-3.795c-0.983 0.176-1.893 0.563-2.682 1.113l2.682 2.682z"></path>
<path fill="#fff" d="M17.2 13.103l2.682-2.682c-0.789-0.55-1.699-0.937-2.682-1.113v3.795z"></path>
<path fill="#000" d="M28 14.8h-2.88c-0.215-1.64-0.862-3.146-1.826-4.397l2.039-2.039c0.469-0.469 0.469-1.228 0-1.697s-1.229-0.469-1.697 0l-2.039 2.039c-1.252-0.963-2.757-1.61-4.397-1.825v-2.881c0-0.663-0.537-1.2-1.2-1.2s-1.2 0.537-1.2 1.2v2.881c-1.64 0.215-3.145 0.862-4.397 1.825l-2.039-2.039c-0.469-0.469-1.228-0.469-1.697 0s-0.469 1.228 0 1.697l2.039 2.039c-0.963 1.252-1.611 2.757-1.825 4.397h-2.88c-0.663 0-1.2 0.537-1.2 1.2s0.537 1.2 1.2 1.2h2.88c0.215 1.64 0.862 3.146 1.825 4.397l-2.039 2.039c-0.469 0.469-0.469 1.228 0 1.697 0.234 0.234 0.541 0.351 0.849 0.351s0.614-0.117 0.849-0.351l2.039-2.039c1.252 0.963 2.757 1.61 4.397 1.825v2.881c0 0.663 0.537 1.2 1.2 1.2s1.2-0.537 1.2-1.2v-2.881c1.64-0.215 3.145-0.862 4.397-1.825l2.039 2.039c0.234 0.234 0.541 0.351 0.849 0.351s0.614-0.117 0.849-0.351c0.469-0.469 0.469-1.228 0-1.697l-2.039-2.039c0.963-1.252 1.611-2.757 1.826-4.397h2.88c0.663 0 1.2-0.537 1.2-1.2s-0.537-1.2-1.2-1.2zM17.2 13.103v-3.795c0.983 0.176 1.893 0.563 2.682 1.113l-2.682 2.682zM14.8 13.103l-2.682-2.682c0.789-0.55 1.699-0.937 2.682-1.113v3.795zM13.103 14.8h-3.795c0.176-0.983 0.563-1.893 1.114-2.682l2.682 2.682zM13.103 17.2l-2.682 2.682c-0.551-0.789-0.938-1.699-1.114-2.682h3.795zM14.8 18.897v3.795c-0.983-0.176-1.893-0.563-2.682-1.113l2.682-2.682zM17.2 18.897l2.682 2.682c-0.789 0.55-1.699 0.937-2.682 1.113v-3.795zM18.897 17.2h3.795c-0.176 0.983-0.563 1.893-1.114 2.682l-2.682-2.682zM18.897 14.8l2.682-2.682c0.551 0.789 0.938 1.699 1.114 2.682h-3.795z"></path>
</svg>
