<?xml version="1.0" encoding="utf-8"?>
<!-- Generated by IcoMoon.io -->
<!DOCTYPE svg PUBLIC "-//W3C//DTD SVG 1.1//EN" "http://www.w3.org/Graphics/SVG/1.1/DTD/svg11.dtd">
<svg version="1.1" xmlns="http://www.w3.org/2000/svg" xmlns:xlink="http://www.w3.org/1999/xlink" width="32" height="32" viewBox="0 0 32 32">
<path d="M17.2 21.387c0-0.667-0.533-1.2-1.2-1.2-0.507 0-0.987-0.080-1.467-0.267-0.080-0.053-0.187-0.080-0.267-0.107-0.907-0.4-1.627-1.12-2.053-2-0.053-0.133-0.107-0.293-0.187-0.427-0.72-2.027 0.24-4.293 2.187-5.2 0.107-0.053 0.213-0.080 0.347-0.133 0.453-0.16 0.933-0.24 1.44-0.24 0.667 0 1.2-0.533 1.2-1.2v-6.613c0-0.667-0.533-1.2-1.2-1.2v0c-0.667 0-1.2 0.533-1.2 1.2l-0.027 3.973c-0.027 0.8-0.48 1.52-1.2 1.867l-0.267 0.107c-0.773 0.267-1.627 0.053-2.187-0.507l-2.773-2.773c-0.507-0.427-1.253-0.373-1.68 0.133-0.373 0.453-0.373 1.12 0 1.573l2.8 2.827c0.827 0.853 0.8 2.187-0.053 3.013-0.4 0.373-0.933 0.613-1.493 0.613h-3.92c-0.667 0-1.2 0.533-1.2 1.2s0.533 1.2 1.2 1.2l3.973 0.027c0.773 0 1.493 0.453 1.867 1.12 0.053 0.133 0.107 0.24 0.16 0.373 0.24 0.747 0.027 1.573-0.533 2.133l-2.8 2.747c-0.48 0.48-0.48 1.227 0 1.707s1.227 0.48 1.707 0v0l2.827-2.8c0.587-0.56 1.413-0.747 2.187-0.48l0.24 0.107c0.693 0.32 1.147 1.013 1.2 1.76v4.080c0 0.667 0.533 1.2 1.2 1.2 0 0 0 0 0 0v0c0.667 0 1.2-0.533 1.2-1.2v0-6.613z"></path>
</svg>
