<?xml version="1.0" encoding="utf-8"?>
<!-- Generated by IcoMoon.io -->
<!DOCTYPE svg PUBLIC "-//W3C//DTD SVG 1.1//EN" "http://www.w3.org/Graphics/SVG/1.1/DTD/svg11.dtd">
<svg version="1.1" xmlns="http://www.w3.org/2000/svg" xmlns:xlink="http://www.w3.org/1999/xlink" width="32" height="32" viewBox="0 0 32 32">
<path d="M6.667 29.2c-0.286 0-0.571-0.102-0.798-0.304-0.437-0.389-0.53-1.036-0.22-1.532l5.519-8.831h-5.835c-0.432 0-0.831-0.233-1.044-0.609s-0.207-0.838 0.015-1.209l8-13.333c0.341-0.568 1.079-0.752 1.646-0.411s0.753 1.078 0.411 1.646l-6.91 11.516h5.881c0.436 0 0.838 0.237 1.050 0.618s0.199 0.848-0.032 1.218l-2.933 4.693 11.828-9.462h-5.913c-0.442 0-0.849-0.244-1.058-0.634s-0.186-0.864 0.060-1.232l5.333-8c0.368-0.551 1.113-0.7 1.664-0.333s0.701 1.113 0.333 1.664l-4.090 6.134h7.091c0.51 0 0.963 0.322 1.132 0.803s0.015 1.016-0.383 1.334l-20 16c-0.22 0.176-0.485 0.263-0.75 0.263z"></path>
</svg>
