<?xml version="1.0" encoding="utf-8"?>
<!-- Generated by IcoMoon.io -->
<!DOCTYPE svg PUBLIC "-//W3C//DTD SVG 1.1//EN" "http://www.w3.org/Graphics/SVG/1.1/DTD/svg11.dtd">
<svg version="1.1" xmlns="http://www.w3.org/2000/svg" xmlns:xlink="http://www.w3.org/1999/xlink" width="32" height="32" viewBox="0 0 32 32">
<path d="M28.162 10.862c-0.101-0.239-0.212-0.474-0.327-0.707-0.002-0.003-0.003-0.007-0.005-0.010-0.261-0.526-0.556-1.038-0.885-1.525-0.472-0.698-1.014-1.355-1.611-1.953s-1.254-1.139-1.952-1.61c-0.705-0.477-1.459-0.886-2.243-1.218-0.796-0.337-1.63-0.596-2.479-0.77-0.855-0.175-1.735-0.263-2.615-0.266-0.015-0-0.029-0.002-0.044-0.002-0.005 0-0.009 0.001-0.014 0.001-0.89 0.001-1.781 0.090-2.645 0.267-0.849 0.174-1.683 0.433-2.479 0.77-0.669 0.283-1.315 0.626-1.929 1.016v-0.854c0-0.663-0.537-1.2-1.2-1.2s-1.2 0.537-1.2 1.2v4c0 0.663 0.537 1.2 1.2 1.2h4c0.663 0 1.2-0.537 1.2-1.2s-0.537-1.2-1.2-1.2h-1.39c0.465-0.286 0.951-0.539 1.454-0.752 0.651-0.275 1.333-0.487 2.026-0.629 0.721-0.147 1.464-0.22 2.207-0.218 0.509 0.008 1.024 0.228 1.531 0.658 0.581 0.492 1.138 1.25 1.609 2.192 0.382 0.765 0.703 1.63 0.959 2.581-0.949 0.078-1.929 0.129-2.928 0.152v-2.785c0-0.663-0.537-1.2-1.2-1.2s-1.2 0.537-1.2 1.2v2.785c-3.525-0.081-6.839-0.516-9.234-1.222-0.001 0-0.002-0.001-0.002-0s-0.001-0-0.001-0.001c-0.312-0.091-0.631-0.050-0.898 0.091-0.072 0.038-0.141 0.084-0.204 0.136-0.141 0.116-0.256 0.265-0.333 0.439l-0.276 0.6c-0.005 0.011-0.010 0.023-0.015 0.034-0.337 0.797-0.596 1.631-0.77 2.479-0.178 0.869-0.268 1.763-0.268 2.658 0 0 0 0 0 0s0 0 0 0 0 0 0 0 0 0 0 0c0 0.895 0.090 1.789 0.268 2.658 0.174 0.849 0.433 1.683 0.77 2.479 0.101 0.238 0.211 0.473 0.326 0.705 0.002 0.005 0.005 0.010 0.007 0.014 0.261 0.526 0.555 1.037 0.884 1.524 0.472 0.698 1.014 1.355 1.611 1.953s1.255 1.139 1.952 1.61c0.705 0.477 1.46 0.886 2.243 1.218 0.796 0.337 1.63 0.596 2.479 0.77 0.869 0.178 1.764 0.268 2.659 0.268s1.79-0.090 2.659-0.268c0.849-0.174 1.683-0.433 2.479-0.77 0.669-0.283 1.315-0.626 1.929-1.016v0.854c0 0.663 0.537 1.2 1.2 1.2s1.2-0.537 1.2-1.2v-4c0-0.663-0.537-1.2-1.2-1.2h-4c-0.663 0-1.2 0.537-1.2 1.2s0.537 1.2 1.2 1.2h1.39c-0.465 0.286-0.951 0.539-1.454 0.752-0.651 0.275-1.333 0.487-2.026 0.629-0.722 0.148-1.466 0.22-2.21 0.218-0.508-0.009-1.022-0.229-1.528-0.657-0.581-0.492-1.138-1.25-1.609-2.192-0.382-0.765-0.703-1.63-0.959-2.581 0.948-0.078 1.929-0.129 2.927-0.152v2.807c0 0.663 0.537 1.2 1.2 1.2s1.2-0.537 1.2-1.2v-2.807c3.525 0.081 6.839 0.516 9.234 1.222 0.019 0.006 0.038 0.008 0.057 0.013s0.039 0.009 0.059 0.013c0.073 0.014 0.147 0.023 0.219 0.023 0.001 0 0.002 0 0.003 0s0.001 0 0.001 0 0.001 0 0.001 0c0.003 0 0.006-0.001 0.009-0.001 0.057-0.001 0.114-0.005 0.17-0.014 0.022-0.003 0.043-0.009 0.065-0.014 0.037-0.008 0.074-0.016 0.111-0.027 0.023-0.007 0.046-0.017 0.069-0.025 0.034-0.013 0.067-0.026 0.099-0.042 0.022-0.011 0.043-0.022 0.065-0.034 0.031-0.018 0.062-0.037 0.092-0.057 0.020-0.014 0.039-0.028 0.059-0.043 0.029-0.022 0.055-0.046 0.082-0.071 0.018-0.017 0.036-0.034 0.053-0.052 0.025-0.026 0.047-0.054 0.069-0.082 0.016-0.021 0.033-0.040 0.047-0.062 0.021-0.030 0.038-0.062 0.056-0.094 0.013-0.023 0.026-0.044 0.038-0.068 0.002-0.004 0.005-0.007 0.006-0.012l0.283-0.616c0.005-0.011 0.010-0.023 0.015-0.034 0.337-0.797 0.596-1.631 0.77-2.479 0.178-0.869 0.268-1.764 0.268-2.659s-0.090-1.79-0.268-2.659c-0.174-0.848-0.433-1.682-0.77-2.479zM22.984 19.269c0.142-1.063 0.216-2.158 0.216-3.269 0-1.115-0.073-2.209-0.215-3.269 1.108-0.159 2.149-0.357 3.102-0.591 0.209 0.546 0.377 1.11 0.494 1.683 0.146 0.711 0.219 1.444 0.219 2.177s-0.074 1.467-0.219 2.178c-0.117 0.573-0.285 1.136-0.494 1.683-0.954-0.235-1.995-0.432-3.102-0.591zM21.316 6.978c-0.092-0.185-0.188-0.362-0.285-0.535 0.346 0.183 0.683 0.382 1.007 0.601 0.572 0.386 1.11 0.83 1.599 1.319 0.483 0.483 0.922 1.014 1.304 1.578-0.747 0.164-1.554 0.307-2.404 0.426-0.31-1.246-0.719-2.384-1.221-3.389zM5.419 13.822c0.117-0.572 0.282-1.137 0.491-1.683 0.954 0.235 1.997 0.432 3.106 0.591-0.142 1.063-0.216 2.158-0.216 3.269 0 1.115 0.073 2.209 0.215 3.269-1.108 0.159-2.149 0.357-3.102 0.591-0.209-0.546-0.377-1.11-0.494-1.683-0.146-0.711-0.219-1.444-0.219-2.178s0.074-1.466 0.219-2.178zM10.684 25.022c0.092 0.185 0.188 0.361 0.285 0.535-0.346-0.183-0.683-0.382-1.007-0.601-0.572-0.386-1.11-0.83-1.599-1.319-0.483-0.483-0.922-1.014-1.304-1.578 0.747-0.164 1.554-0.307 2.404-0.426 0.31 1.246 0.719 2.384 1.221 3.389zM11.405 18.994c-0.132-0.969-0.205-1.97-0.205-2.994 0-1.021 0.069-2.025 0.201-2.996 1.094 0.095 2.231 0.157 3.398 0.182l-0 5.629c-1.165 0.025-2.302 0.085-3.394 0.18zM17.2 13.185c1.165-0.025 2.303-0.085 3.395-0.18 0.132 0.969 0.205 1.97 0.205 2.994 0 1.021-0.069 2.024-0.201 2.995-1.093-0.095-2.232-0.155-3.399-0.18l0-5.629z"></path>
</svg>
