<?xml version="1.0" encoding="utf-8"?>
<!-- Generated by IcoMoon.io -->
<!DOCTYPE svg PUBLIC "-//W3C//DTD SVG 1.1//EN" "http://www.w3.org/Graphics/SVG/1.1/DTD/svg11.dtd">
<svg version="1.1" xmlns="http://www.w3.org/2000/svg" xmlns:xlink="http://www.w3.org/1999/xlink" width="32" height="32" viewBox="0 0 32 32">
<path d="M27.999 5.467h-5.466v-1.467c0-0.663-0.537-1.2-1.2-1.2s-1.2 0.537-1.2 1.2v1.467h-8.267v-1.467c0-0.663-0.537-1.2-1.2-1.2s-1.2 0.537-1.2 1.2v1.467h-5.467c-0.318 0-0.623 0.126-0.849 0.351s-0.351 0.53-0.351 0.849l0.001 21.333c0 0.663 0.537 1.2 1.2 1.2h23.999c0.318 0 0.623-0.126 0.849-0.351s0.351-0.53 0.351-0.849l-0.001-21.333c0-0.663-0.537-1.2-1.2-1.2zM5.2 7.867h4.267v0.133c0 0.663 0.537 1.2 1.2 1.2s1.2-0.537 1.2-1.2v-0.133h8.267v0.133c0 0.663 0.537 1.2 1.2 1.2s1.2-0.537 1.2-1.2v-0.133h4.266v2.947c-0.044-0.005-0.087-0.013-0.132-0.013h-21.467v-2.933zM5.201 26.8l-0.001-13.6h21.467c0.045 0 0.089-0.009 0.133-0.013l0.001 13.613h-21.599z"></path>
<path d="M18.667 14.8h-5.333c-0.663 0-1.2 0.537-1.2 1.2s0.537 1.2 1.2 1.2h3.669l-2.141 6.421c-0.209 0.629 0.13 1.308 0.759 1.518 0.126 0.042 0.254 0.062 0.38 0.062 0.502 0 0.971-0.318 1.138-0.821l2.667-8c0.122-0.366 0.061-0.768-0.165-1.081s-0.588-0.498-0.974-0.498z"></path>
</svg>
