<?xml version="1.0" encoding="utf-8"?>
<!-- Generated by IcoMoon.io -->
<!DOCTYPE svg PUBLIC "-//W3C//DTD SVG 1.1//EN" "http://www.w3.org/Graphics/SVG/1.1/DTD/svg11.dtd">
<svg version="1.1" xmlns="http://www.w3.org/2000/svg" xmlns:xlink="http://www.w3.org/1999/xlink" width="32" height="32" viewBox="0 0 32 32">
<path d="M27.219 4.781c-2.997-2.997-6.981-4.647-11.219-4.647-0 0 0 0-0 0-4.238 0-8.223 1.651-11.219 4.647s-4.647 6.981-4.647 11.219 1.65 8.222 4.647 11.219c2.997 2.997 6.981 4.647 11.219 4.647 0 0 0 0 0 0 4.238 0 8.223-1.651 11.219-4.647s4.647-6.981 4.647-11.219-1.65-8.222-4.647-11.219zM24.849 19.515c-0.234 0.234-0.542 0.351-0.849 0.351s-0.614-0.117-0.849-0.351l-7.151-7.151-7.151 7.151c-0.468 0.469-1.229 0.469-1.697 0s-0.469-1.229 0-1.697l8-8c0.468-0.469 1.229-0.469 1.697 0l8 8c0.469 0.469 0.469 1.229 0 1.697z"></path>
</svg>
