<?xml version="1.0" encoding="utf-8"?>
<!-- Generated by IcoMoon.io -->
<!DOCTYPE svg PUBLIC "-//W3C//DTD SVG 1.1//EN" "http://www.w3.org/Graphics/SVG/1.1/DTD/svg11.dtd">
<svg version="1.1" xmlns="http://www.w3.org/2000/svg" xmlns:xlink="http://www.w3.org/1999/xlink" width="32" height="32" viewBox="0 0 32 32">
<path d="M25.333 20.133c-1.155 0-2.191 0.512-2.9 1.318l-11.917-5.107c0.010-0.114 0.017-0.228 0.017-0.344s-0.007-0.23-0.017-0.344l11.917-5.107c0.709 0.806 1.745 1.318 2.9 1.318 2.132 0 3.867-1.735 3.867-3.867s-1.735-3.867-3.867-3.867-3.867 1.735-3.867 3.867c0 0.116 0.007 0.231 0.017 0.344l-11.917 5.107c-0.709-0.806-1.745-1.318-2.901-1.318-2.132 0-3.867 1.735-3.867 3.867s1.735 3.867 3.867 3.867c1.155 0 2.191-0.512 2.901-1.318l11.917 5.107c-0.010 0.114-0.017 0.228-0.017 0.344 0 2.132 1.735 3.867 3.867 3.867s3.867-1.735 3.867-3.867-1.735-3.867-3.867-3.867z"></path>
</svg>
