<?xml version="1.0" encoding="utf-8"?>
<!-- Generated by IcoMoon.io -->
<!DOCTYPE svg PUBLIC "-//W3C//DTD SVG 1.1//EN" "http://www.w3.org/Graphics/SVG/1.1/DTD/svg11.dtd">
<svg version="1.1" xmlns="http://www.w3.org/2000/svg" xmlns:xlink="http://www.w3.org/1999/xlink" width="32" height="32" viewBox="0 0 32 32">
<path d="M16 0.133c-4.24 0-8.213 1.653-11.227 4.64-2.987 3.013-4.64 6.987-4.64 11.227s1.653 8.213 4.64 11.227c2.987 2.987 6.987 4.64 11.227 4.64s8.213-1.653 11.227-4.64c2.987-2.987 4.64-6.987 4.64-11.227s-1.653-8.213-4.64-11.227c-3.013-2.987-6.987-4.64-11.227-4.64zM25.52 25.52c-2.533 2.533-5.92 3.947-9.52 3.947s-6.987-1.413-9.52-3.947c-2.533-2.533-3.947-5.92-3.947-9.52s1.413-6.987 3.947-9.52 5.92-3.947 9.52-3.947 6.987 1.413 9.52 3.947 3.947 5.92 3.947 9.52-1.413 6.987-3.947 9.52z"></path>
<path d="M7.147 15.147c-0.8 0.907 0 1.707 0 1.707l8 8c0.48 0.48 1.227 0.48 1.707 0s0.48-1.227 0-1.707l-5.947-5.947h13.093c0.667 0 1.2-0.533 1.2-1.2s-0.533-1.2-1.2-1.2h-13.093l5.947-5.947c0.24-0.24 0.347-0.533 0.347-0.853s-0.107-0.613-0.347-0.853c-0.48-0.48-1.227-0.48-1.707 0l-8 8z"></path>
</svg>
