<?xml version="1.0" encoding="utf-8"?>
<!-- Generated by IcoMoon.io -->
<!DOCTYPE svg PUBLIC "-//W3C//DTD SVG 1.1//EN" "http://www.w3.org/Graphics/SVG/1.1/DTD/svg11.dtd">
<svg version="1.1" xmlns="http://www.w3.org/2000/svg" xmlns:xlink="http://www.w3.org/1999/xlink" width="32" height="32" viewBox="0 0 32 32">
<path d="M10.133 13.259c0 2.386 3.841 6.412 5.018 7.589 0.234 0.235 0.542 0.352 0.849 0.352s0.615-0.117 0.849-0.351c1.178-1.177 5.018-5.204 5.018-7.589 0-2.091-1.702-3.793-3.793-3.793-0.741 0-1.463 0.222-2.073 0.62-0.611-0.398-1.332-0.62-2.074-0.62-2.091 0-3.793 1.701-3.793 3.793zM12.533 13.259c0-0.768 0.625-1.393 1.393-1.393 0.442 0 0.849 0.203 1.115 0.558 0.227 0.302 0.582 0.479 0.96 0.479s0.733-0.178 0.96-0.479c0.266-0.354 0.672-0.558 1.114-0.558 0.768 0 1.393 0.625 1.393 1.393 0 0.675-1.361 2.753-3.466 5.013-2.106-2.261-3.467-4.339-3.468-5.013z"></path>
<path d="M2.8 27.429c0 0.508 0.321 0.962 0.8 1.131 1.201 0.425 2.457 0.64 3.733 0.64 2.707 0 5.286-0.965 7.322-2.729 0.45 0.041 0.9 0.062 1.344 0.062 7.278 0 13.2-5.323 13.2-11.867s-5.922-11.867-13.2-11.867-13.2 5.323-13.2 11.867c0 3.472 1.697 6.755 4.596 8.998-1.008 1.194-2.324 2.112-3.796 2.633-0.479 0.169-0.8 0.623-0.8 1.131zM7.592 26.796c0.978-0.772 1.831-1.706 2.509-2.763 0.173-0.27 0.231-0.597 0.161-0.91s-0.262-0.584-0.533-0.754c-2.835-1.779-4.529-4.658-4.529-7.702 0-5.22 4.845-9.467 10.8-9.467s10.8 4.247 10.8 9.467-4.845 9.467-10.8 9.467c-0.526 0-1.063-0.035-1.597-0.104-0.051-0.007-0.103-0.010-0.155-0.010-0.307 0-0.605 0.118-0.83 0.334-1.585 1.518-3.645 2.381-5.826 2.444z"></path>
</svg>
