<svg xmlns="http://www.w3.org/2000/svg" width="32" height="32"><path fill="#092a5e" d="M28 14.8h-3.92a2.107 2.107 0 0 1-2.107-2.16c0-.533.213-1.04.587-1.44l2.773-2.853a1.189 1.189 0 0 0-.16-1.68c-.453-.373-1.093-.373-1.52 0l-2.8 2.773a2.158 2.158 0 0 1-2.267.48l-.08-.027a2.093 2.093 0 0 1-1.28-1.92c0-.08 0-.16-.027-.24L17.226 4c0-.667-.533-1.2-1.2-1.2-.667 0-1.2.533-1.2 1.2l-.027 3.973a2.148 2.148 0 0 1-1.253 1.893.374.374 0 0 1-.16.053c-.773.293-1.653.08-2.24-.507l-2.8-2.747a1.187 1.187 0 0 0-1.68.133 1.245 1.245 0 0 0 0 1.573l2.8 2.827c.827.853.8 2.187-.053 3.013-.4.4-.933.613-1.493.613H4c-.667 0-1.2.533-1.2 1.2s.533 1.2 1.2 1.2l3.973.027a2.158 2.158 0 0 1 2.107 2.16c0 .56-.24 1.093-.613 1.467l-2.8 2.747c-.48.48-.48 1.227 0 1.707s1.227.48 1.707 0l2.827-2.8a2.175 2.175 0 0 1 2.213-.48l.133.053c.72.32 1.227 1.013 1.253 1.813v4.08c0 .667.533 1.173 1.2 1.2.667 0 1.2-.533 1.2-1.2v-4.053c.053-.8.56-1.52 1.307-1.84l.08-.027c.773-.293 1.627-.107 2.24.453l2.827 2.8c.48.453 1.253.4 1.707-.08.4-.453.4-1.147 0-1.6l-2.8-2.8a2.178 2.178 0 0 1-.507-2.24c.027-.053.053-.133.08-.187a2.078 2.078 0 0 1 1.893-1.227L28 17.17c.667 0 1.2-.533 1.2-1.2a1.19 1.19 0 0 0-1.2-1.173zm-12 5.387c-2.32 0-4.213-1.893-4.213-4.213S13.68 11.787 16 11.787 20.213 13.68 20.213 16 18.32 20.187 16 20.187z"/></svg>