<?xml version="1.0" encoding="utf-8"?>
<!-- Generated by IcoMoon.io -->
<!DOCTYPE svg PUBLIC "-//W3C//DTD SVG 1.1//EN" "http://www.w3.org/Graphics/SVG/1.1/DTD/svg11.dtd">
<svg version="1.1" xmlns="http://www.w3.org/2000/svg" xmlns:xlink="http://www.w3.org/1999/xlink" width="32" height="32" viewBox="0 0 32 32">
<path d="M28 9.653h-8.133v-4.24c0-2.107-1.707-3.787-3.867-3.787h-12c-2.133 0-3.867 1.733-3.867 3.867v8c0 2.133 1.733 3.867 3.867 3.867h0.133v4.24c0 0.48 0.293 0.933 0.747 1.12 0.16 0.053 0.293 0.080 0.453 0.080 0.32 0 0.64-0.133 0.853-0.373l4.96-5.067h0.987v4.053c0 2.133 1.76 3.947 3.867 3.947h4.853l4.96 5.067c0.24 0.24 0.533 0.373 0.853 0.373 0.16 0 0.293-0.027 0.453-0.080 0.453-0.187 0.747-0.613 0.747-1.12v-4.213h0.133c2.133 0 3.867-1.733 3.867-3.867v-8c0-2.133-1.733-3.867-3.867-3.867zM10.64 14.987c-0.32 0-0.64 0.133-0.853 0.373l-3.253 3.307v-2.48c0-0.667-0.533-1.2-1.2-1.2h-1.333c-0.8 0-1.467-0.667-1.467-1.467v-8c0-0.8 0.667-1.467 1.467-1.467h12c0.827 0 1.467 0.613 1.467 1.387v4.213h-1.467c-2.16 0-3.867 1.653-3.867 3.787v1.547h-1.493zM17.467 12.053v1.387c0 0.827-0.693 1.547-1.467 1.547h-1.467v-1.547c0-0.773 0.64-1.387 1.467-1.387h1.467zM29.467 21.52c0 0.8-0.667 1.467-1.467 1.467h-1.333c-0.667 0-1.2 0.533-1.2 1.2v2.48l-3.253-3.333c-0.213-0.24-0.533-0.373-0.853-0.373h-5.36c-0.773 0-1.467-0.72-1.467-1.547v-4.027h1.467c2.107 0 3.867-1.813 3.867-3.947v-1.387h8.133c0.8 0 1.467 0.667 1.467 1.467v8z"></path>
</svg>
