<?xml version="1.0" encoding="utf-8"?>
<!-- Generated by IcoMoon.io -->
<!DOCTYPE svg PUBLIC "-//W3C//DTD SVG 1.1//EN" "http://www.w3.org/Graphics/SVG/1.1/DTD/svg11.dtd">
<svg version="1.1" xmlns="http://www.w3.org/2000/svg" xmlns:xlink="http://www.w3.org/1999/xlink" width="32" height="32" viewBox="0 0 32 32">
<path d="M8 18.8h-1.333c-0.8 0-1.467-0.667-1.467-1.467v-5.467h22.8c0.667 0 1.2-0.533 1.2-1.2v-4c0-2.133-1.733-3.867-3.867-3.867h-18.667c-2.133 0-3.867 1.733-3.867 3.867v10.667c0 2.133 1.733 3.867 3.867 3.867h1.333c0.667 0 1.2-0.533 1.2-1.2s-0.533-1.2-1.2-1.2zM6.667 5.2h18.667c0.8 0 1.467 0.667 1.467 1.467v1.467h-21.6v-1.467c0-0.8 0.667-1.467 1.467-1.467z"></path>
<path d="M28.8 21.653c-0.64-0.16-0.827 0.080-1.413 1.333-3.547 7.573-10.053 5.28-11.173-1.76l1.52-0.107c0.827-0.053 0.907-0.587 0.747-1.333-0.133-0.667-0.507-0.827-0.96-0.827h-4.827c-0.613 0-0.96 0.32-0.96 1.253 0 0.48 0.027 1.307 1.040 1.253l1.227-0.080c2.027 12.48 12.32 11.547 15.387 2.187 0.4-1.253 0.293-1.707-0.587-1.92z"></path>
<path d="M32 16.24c0 0.987-0.8 1.787-1.787 1.787s-1.787-0.8-1.787-1.787c0-0.987 0.8-1.787 1.787-1.787s1.787 0.8 1.787 1.787z"></path>
</svg>
