<?xml version="1.0" encoding="utf-8"?>
<!-- Generated by IcoMoon.io -->
<!DOCTYPE svg PUBLIC "-//W3C//DTD SVG 1.1//EN" "http://www.w3.org/Graphics/SVG/1.1/DTD/svg11.dtd">
<svg version="1.1" xmlns="http://www.w3.org/2000/svg" xmlns:xlink="http://www.w3.org/1999/xlink" width="32" height="32" viewBox="0 0 32 32">
<path fill="#737373" d="M16 4.133c-6.543 0-11.867 5.323-11.867 11.867s5.323 11.867 11.867 11.867 11.867-5.323 11.867-11.867-5.323-11.867-11.867-11.867zM16 25.467c-5.22 0-9.467-4.247-9.467-9.467s4.247-9.467 9.467-9.467 9.467 4.247 9.467 9.467-4.247 9.467-9.467 9.467z"></path>
<path fill="#737373" d="M16 8.133c-0.663 0-1.2 0.537-1.2 1.2v6.17l-2.315 2.315c-0.469 0.469-0.469 1.229 0 1.697 0.234 0.234 0.541 0.351 0.849 0.351s0.614-0.117 0.849-0.351l2.667-2.667c0.225-0.225 0.351-0.53 0.351-0.849v-6.667c0-0.663-0.537-1.2-1.2-1.2z"></path>
</svg>
