<?xml version="1.0" encoding="utf-8"?>
<!-- Generated by IcoMoon.io -->
<!DOCTYPE svg PUBLIC "-//W3C//DTD SVG 1.1//EN" "http://www.w3.org/Graphics/SVG/1.1/DTD/svg11.dtd">
<svg version="1.1" xmlns="http://www.w3.org/2000/svg" xmlns:xlink="http://www.w3.org/1999/xlink" width="32" height="32" viewBox="0 0 32 32">
<path d="M25.253 15.467c-0.187-0.107-1.040-0.8-2.56-2.053 1.467-2.267 1.813-5.493 0.773-7.2-0.773-1.253-2.133-2.027-3.653-2.027s-2.88 0.747-3.627 2c-1.013 1.653-0.107 5.893 1.2 7.2-0.053 0.187-0.64 0.427-1.333 0.693-1.2 0.453-2 0.827-2.4 1.253-0.080 0.080-0.16 0.213-0.213 0.32 0.933 0.827 1.973 2.213 1.973 4.133v8.213h11.52c0.587 0 1.067-0.48 1.067-1.067v-8.080c0-0.080 0-0.187-0.027-0.267-0.32-1.253-1.12-2.16-2.72-3.12z"></path>
<path d="M14.347 19.813c0-2.427-2.24-3.893-2.587-4.027-0.267-0.107-0.4-0.427-0.293-0.693 0.053-0.107 0.107-0.187 0.187-0.24 0.853-1.573 1.067-3.76 0.427-4.827-0.533-0.853-1.467-1.387-2.507-1.387s-1.973 0.507-2.507 1.387c-0.32 0.507-0.347 1.493-0.080 2.613 0.187 0.853 0.64 1.973 1.253 2.56-0.080 0.293-2.133 1.040-2.4 1.2-0.933 0.56-1.573 1.387-1.84 2.373-0.027 0.080-0.027 0.187-0.027 0.267v7.893c0 0.587 0.48 1.067 1.067 1.067h9.28v-8.187z"></path>
</svg>
