<?xml version="1.0" encoding="utf-8"?>
<!-- Generated by IcoMoon.io -->
<!DOCTYPE svg PUBLIC "-//W3C//DTD SVG 1.1//EN" "http://www.w3.org/Graphics/SVG/1.1/DTD/svg11.dtd">
<svg version="1.1" xmlns="http://www.w3.org/2000/svg" xmlns:xlink="http://www.w3.org/1999/xlink" width="32" height="32" viewBox="0 0 32 32">
<path d="M4.671 17.863c0.006 0 0.012 0 0.018 0h6.089l8.384 10.787c0.209 0.269 0.523 0.412 0.843 0.412 0.187 0 0.376-0.049 0.547-0.151 0.462-0.277 0.646-0.855 0.427-1.348l-4.308-9.7h6.487l4.117 3.092c0.215 0.161 0.468 0.241 0.721 0.241 0.298 0 0.594-0.11 0.824-0.327 0.425-0.401 0.499-1.050 0.176-1.537l-2.217-3.336 2.217-3.336c0.323-0.487 0.249-1.136-0.176-1.537s-1.077-0.438-1.545-0.087l-4.118 3.093h-6.493l4.315-9.7c0.219-0.493 0.036-1.071-0.426-1.349s-1.059-0.166-1.39 0.26l-8.397 10.789h-6.077c-0.006 0-0.012 0-0.018 0-1.029 0-1.867 0.837-1.867 1.867s0.837 1.867 1.867 1.867z"></path>
</svg>
