<?xml version="1.0" encoding="utf-8"?>
<!-- Generated by IcoMoon.io -->
<!DOCTYPE svg PUBLIC "-//W3C//DTD SVG 1.1//EN" "http://www.w3.org/Graphics/SVG/1.1/DTD/svg11.dtd">
<svg version="1.1" xmlns="http://www.w3.org/2000/svg" xmlns:xlink="http://www.w3.org/1999/xlink" width="32" height="32" viewBox="0 0 32 32">
<path d="M28 2.933h-24c-0.589 0-1.067 0.478-1.067 1.067v24c0 0.589 0.478 1.067 1.067 1.067h24c0.589 0 1.067-0.478 1.067-1.067v-24c0-0.589-0.478-1.067-1.067-1.067zM14.508 21.064c-2.8 0-5.064-2.264-5.064-5.064s2.264-5.064 5.064-5.064c1.368 0 2.51 0.499 3.393 1.324l-1.374 1.324c-0.377-0.362-1.035-0.781-2.018-0.781-1.729 0-3.14 1.433-3.14 3.198s1.41 3.198 3.14 3.198c2.004 0 2.757-1.44 2.873-2.184h-2.873v-1.737h4.782c0.044 0.253 0.081 0.506 0.081 0.839 0 2.893-1.939 4.948-4.862 4.948zM25.36 16.723h-1.447v1.447h-1.447v-1.447h-1.447v-1.447h1.447v-1.447h1.447v1.447h1.447v1.447z"></path>
</svg>
