<?xml version="1.0" encoding="utf-8"?>
<!-- Generated by IcoMoon.io -->
<!DOCTYPE svg PUBLIC "-//W3C//DTD SVG 1.1//EN" "http://www.w3.org/Graphics/SVG/1.1/DTD/svg11.dtd">
<svg version="1.1" xmlns="http://www.w3.org/2000/svg" xmlns:xlink="http://www.w3.org/1999/xlink" width="32" height="32" viewBox="0 0 32 32">
<path d="M3.18 20.869c0.23 0.217 0.526 0.327 0.824 0.327 0.253 0 0.506-0.079 0.721-0.241l4.118-3.093h6.493l-4.314 9.7c-0.219 0.493-0.036 1.071 0.426 1.349 0.171 0.102 0.36 0.152 0.548 0.152 0.319 0 0.634-0.143 0.842-0.411l8.397-10.789h6.077c0.006 0 0.012 0 0.018 0 1.029 0 1.867-0.837 1.867-1.867s-0.838-1.867-1.867-1.867c-0.006 0-0.011 0-0.018 0h-6.090l-8.384-10.787c-0.331-0.426-0.928-0.538-1.39-0.261s-0.646 0.855-0.427 1.348l4.308 9.7h-6.487l-4.117-3.093c-0.467-0.351-1.119-0.314-1.545 0.087s-0.499 1.050-0.176 1.537l2.217 3.336-2.217 3.336c-0.323 0.487-0.249 1.136 0.176 1.537z"></path>
</svg>
