<?xml version="1.0" encoding="utf-8"?>
<!-- Generated by IcoMoon.io -->
<!DOCTYPE svg PUBLIC "-//W3C//DTD SVG 1.1//EN" "http://www.w3.org/Graphics/SVG/1.1/DTD/svg11.dtd">
<svg version="1.1" xmlns="http://www.w3.org/2000/svg" xmlns:xlink="http://www.w3.org/1999/xlink" width="32" height="32" viewBox="0 0 32 32">
<path d="M24.259 18.169c-0.043-0.043-0.090-0.083-0.139-0.119-0.549-0.403-1.19-0.625-1.806-0.625-0.665 0-1.282 0.247-1.783 0.713-0 0-0 0-0.001 0-0.064 0.059-0.829 0.755-1.362 1.242-0.625-0.285-1.852-1.023-3.725-2.902-1.84-1.845-2.557-3.039-2.835-3.662 0.497-0.53 1.209-1.288 1.261-1.343 0.005-0.005 0.009-0.009 0.013-0.014 0.919-0.997 0.96-2.399 0.104-3.573-0.036-0.050-0.076-0.096-0.119-0.139-1.837-1.846-4.048-4.066-4.149-4.16-0.547-0.508-1.251-0.788-1.981-0.788-0.819 0-1.617 0.357-2.192 0.979-0.132 0.13-0.441 0.439-1.225 1.223-0.025 0.025-0.048 0.050-0.070 0.077-3.181 3.788-1.184 9.183 6.106 16.494 5.117 5.132 9.229 7.627 12.572 7.627 0.001 0 0.001 0 0.001 0 1.481 0 2.807-0.486 3.941-1.444 0.012-0.010 0.024-0.021 0.035-0.031l1.316-1.203c1.226-1.134 1.31-2.972 0.197-4.177-0.097-0.106-2.316-2.329-4.161-4.175zM26.599 24.754c-0.003 0.002-1.135 1.038-1.294 1.183-0.694 0.581-1.472 0.863-2.375 0.863-0 0-0.001 0-0.001 0-2.636-0-6.294-2.329-10.873-6.922-6.13-6.147-8.148-10.594-6-13.218 0.204-0.204 1.133-1.133 1.207-1.206 0.015-0.015 0.030-0.030 0.044-0.045 0.225-0.245 0.556-0.267 0.768-0.070 0.15 0.145 2.455 2.459 4.015 4.027 0.188 0.293 0.076 0.414 0.027 0.467l0 0.001c-0.115 0.121-0.477 0.507-1.742 1.854-0.255 0.272-0.368 0.659-0.307 1.027 0.23 1.391 1.5 3.279 3.674 5.458 2.937 2.948 4.717 3.614 5.515 3.749 0.364 0.061 0.735-0.048 1.008-0.296 1.329-1.21 1.747-1.592 1.896-1.731l0.002 0.002c0.077-0.072 0.121-0.072 0.15-0.072 0.071 0 0.189 0.031 0.323 0.117 1.566 1.567 3.875 3.88 4.013 4.025 0.217 0.235 0.193 0.561-0.051 0.787z"></path>
</svg>
