<?xml version="1.0" encoding="utf-8"?>
<!-- Generated by IcoMoon.io -->
<!DOCTYPE svg PUBLIC "-//W3C//DTD SVG 1.1//EN" "http://www.w3.org/Graphics/SVG/1.1/DTD/svg11.dtd">
<svg version="1.1" xmlns="http://www.w3.org/2000/svg" xmlns:xlink="http://www.w3.org/1999/xlink" width="32" height="32" viewBox="0 0 32 32">
<path d="M25.866 14.301c-0.168-0.11-0.891-0.69-1.661-1.322 1.255-2.548 1.406-5.703 0.274-7.576-0.986-1.63-2.74-2.602-4.692-2.602-2.211 0-4.083 1.087-4.768 2.771-0.122 0.3-0.253 0.752-0.378 1.252-0.905-1.020-2.214-1.609-3.642-1.609-1.725 0-3.276 0.862-4.148 2.306-0.969 1.599-0.403 4.726 0.747 6.736-0.047 0.017-0.092 0.033-0.131 0.046-0.181 0.064-0.354 0.125-0.508 0.186-0.39 0.154-0.832 0.328-1.227 0.566-1.504 0.911-2.53 2.296-2.888 3.899-0.019 0.086-0.029 0.174-0.029 0.262v6.001c-0.048 0.303 0.021 0.617 0.2 0.874 0.225 0.322 0.592 0.514 0.985 0.514h4.637l-0.006 1.461c-0.001 0.319 0.125 0.626 0.35 0.852s0.531 0.353 0.85 0.353h10.17c0.663 0 1.2-0.537 1.2-1.2v-1.477l6.81-0.059c0.659-0.006 1.19-0.541 1.19-1.2v-6.718c0-0.088-0.010-0.175-0.029-0.261-0.466-2.087-1.937-3.223-3.305-4.053zM8.695 19.568c-0.019 0.084-0.028 0.169-0.029 0.255l-0.019 4.38h-3.433v-4.846c0.239-0.909 0.86-1.705 1.758-2.249 0.22-0.133 0.548-0.262 0.865-0.386 0.129-0.051 0.275-0.102 0.427-0.155 0.902-0.318 1.924-0.679 2.214-1.613 0.134-0.431 0.015-0.901-0.309-1.216-1.083-1.055-1.758-4.164-1.267-4.975 0.434-0.719 1.217-1.148 2.095-1.148 0.872 0 1.65 0.421 2.088 1.126l0.304 0.562c-0.659 0.325-1.22 0.831-1.613 1.482-0.75 1.241-0.413 3.506 0.402 5.115-0.062 0.023-0.121 0.045-0.175 0.066-0.307 0.119-0.655 0.255-0.979 0.451-1.215 0.734-2.043 1.854-2.331 3.151zM18.8 26.87h-7.765l0.031-6.893c0.168-0.605 0.591-1.137 1.202-1.506 0.147-0.089 0.391-0.184 0.615-0.271 0.097-0.039 0.207-0.077 0.321-0.117 0.709-0.251 1.592-0.564 1.855-1.41 0.134-0.431 0.015-0.902-0.309-1.217-0.747-0.727-1.189-2.939-0.917-3.43 0.278-0.46 0.781-0.735 1.348-0.735 0.568 0 1.073 0.275 1.353 0.738 0.333 0.549 0.241 2.322-0.553 3.585-0.143 0.201-0.225 0.446-0.225 0.703 0 0.329 0.135 0.632 0.358 0.851 0.229 0.263 0.735 0.781 1.377 1.036 0.026 0.010 0.060 0.022 0.101 0.037 0.597 0.212 1.208 0.565 1.208 1.575v7.055zM26.8 24.144l-5.6 0.049v-4.378c0-1.049-0.356-2.927-2.723-3.806 0.791-1.801 0.87-3.97 0.109-5.224-0.468-0.775-1.174-1.344-2.001-1.647 0.213-1.053 0.478-2.222 0.657-2.662 0.359-0.881 1.537-1.275 2.545-1.275 1.105 0 2.091 0.54 2.638 1.444 0.708 1.172 0.569 3.91-0.765 5.967-0.331 0.51-0.228 1.186 0.239 1.575 0.854 0.71 2.341 1.936 2.713 2.161 1.337 0.811 1.945 1.475 2.188 2.41v5.387z"></path>
</svg>
