<?xml version="1.0" encoding="utf-8"?>
<!-- Generated by IcoMoon.io -->
<!DOCTYPE svg PUBLIC "-//W3C//DTD SVG 1.1//EN" "http://www.w3.org/Graphics/SVG/1.1/DTD/svg11.dtd">
<svg version="1.1" xmlns="http://www.w3.org/2000/svg" xmlns:xlink="http://www.w3.org/1999/xlink" width="32" height="32" viewBox="0 0 32 32">
<path d="M26.4 26.133l-2.667-5.333c-0.213-0.4-0.613-0.667-1.067-0.667h-5.867l-1.84-4.267h5.040c0.667 0 1.2-0.533 1.2-1.2s-0.533-1.2-1.2-1.2h-6.053l-0.827-1.947c-0.267-0.613-0.96-0.88-1.573-0.64-0.613 0.267-0.88 0.96-0.64 1.573l4 9.333c0.187 0.453 0.613 0.72 1.093 0.72h5.92l2.347 4.693c0.213 0.427 0.64 0.667 1.067 0.667 0.187 0 0.373-0.053 0.533-0.133 0.587-0.293 0.827-1.013 0.533-1.6z"></path>
<path d="M13.2 7.333c0 1.031-0.836 1.867-1.867 1.867s-1.867-0.836-1.867-1.867c0-1.031 0.836-1.867 1.867-1.867s1.867 0.836 1.867 1.867z"></path>
<path d="M21.973 24.48c-0.48-0.347-1.147-0.267-1.52 0.213-1.067 1.413-2.693 2.24-4.48 2.24-3.067 0-5.573-2.507-5.573-5.573 0-1.227 0.373-2.373 1.12-3.36 0.347-0.48 0.267-1.147-0.213-1.52-0.48-0.347-1.147-0.267-1.52 0.213-1.013 1.36-1.547 2.96-1.547 4.64 0 4.267 3.467 7.76 7.76 7.76 2.453 0 4.72-1.12 6.213-3.093 0.347-0.507 0.24-1.173-0.24-1.52z"></path>
</svg>
