<?xml version="1.0" encoding="utf-8"?>
<!-- Generated by IcoMoon.io -->
<!DOCTYPE svg PUBLIC "-//W3C//DTD SVG 1.1//EN" "http://www.w3.org/Graphics/SVG/1.1/DTD/svg11.dtd">
<svg version="1.1" xmlns="http://www.w3.org/2000/svg" xmlns:xlink="http://www.w3.org/1999/xlink" width="32" height="32" viewBox="0 0 32 32">
<path d="M27.219 4.781c-2.997-2.997-6.981-4.647-11.219-4.647s-8.222 1.65-11.219 4.647c-2.997 2.997-4.647 6.981-4.647 11.219s1.65 8.223 4.647 11.219 6.981 4.647 11.219 4.647 8.222-1.65 11.219-4.647c2.997-2.997 4.647-6.981 4.647-11.219s-1.65-8.223-4.647-11.219zM24 17.2h-16c-0.663 0-1.2-0.537-1.2-1.2s0.537-1.2 1.2-1.2h16c0.663 0 1.2 0.537 1.2 1.2s-0.537 1.2-1.2 1.2z"></path>
</svg>
