<?xml version="1.0" encoding="utf-8"?>
<!-- Generated by IcoMoon.io -->
<!DOCTYPE svg PUBLIC "-//W3C//DTD SVG 1.1//EN" "http://www.w3.org/Graphics/SVG/1.1/DTD/svg11.dtd">
<svg version="1.1" xmlns="http://www.w3.org/2000/svg" xmlns:xlink="http://www.w3.org/1999/xlink" width="32" height="32" viewBox="0 0 32 32">
<path d="M28.001 19.963v-13.297c0-2.867-2.333-5.2-5.2-5.2s-5.2 2.333-5.2 5.2v3.581c-1.689 0.397-3.353 0.17-5.064-0.686-3.010-1.506-6.062-1.505-9.073 0-0.593 0.296-0.833 1.017-0.537 1.61s1.017 0.833 1.61 0.537c2.33-1.165 4.596-1.165 6.926 0 1.502 0.751 3.019 1.127 4.537 1.127 0.534 0 1.068-0.047 1.601-0.14v2.916c-1.689 0.397-3.352 0.171-5.064-0.685-3.010-1.506-6.062-1.505-9.073 0-0.593 0.296-0.833 1.017-0.537 1.61s1.017 0.834 1.61 0.537c2.33-1.165 4.596-1.165 6.926 0 1.502 0.751 3.018 1.127 4.537 1.127 0.534 0 1.068-0.047 1.601-0.14v1.732c-0.325 0.401-0.594 0.837-0.815 1.294-1.413 0.165-2.81-0.106-4.25-0.826-3.010-1.506-6.062-1.505-9.073 0-0.593 0.296-0.833 1.017-0.537 1.61s1.017 0.833 1.61 0.537c2.33-1.165 4.596-1.165 6.926 0 1.499 0.75 3.019 1.126 4.539 1.126 0.050 0 0.099-0.003 0.149-0.004-0.008 0.134-0.017 0.269-0.017 0.404 0 3.639 2.961 6.6 6.6 6.6s6.6-2.961 6.6-6.6c-0.001-1.435-0.471-2.828-1.334-3.97zM22.734 28.133c-2.316 0-4.2-1.884-4.2-4.2 0-1.067 0.406-2.087 1.142-2.871l0.325-0.346v-14.049c0-1.544 1.256-2.8 2.8-2.8s2.8 1.256 2.8 2.8v14.171l0.296 0.339c0.669 0.767 1.038 1.745 1.038 2.756 0 2.316-1.884 4.201-4.2 4.201z"></path>
<path d="M24.001 21.665v-8.331c0-0.663-0.537-1.2-1.2-1.2s-1.2 0.537-1.2 1.2v8.263c-0.867 0.422-1.467 1.31-1.467 2.337 0 1.434 1.166 2.6 2.6 2.6s2.6-1.167 2.6-2.6c0-0.974-0.539-1.823-1.333-2.269z"></path>
</svg>
