<?xml version="1.0" encoding="utf-8"?>
<!-- Generated by IcoMoon.io -->
<!DOCTYPE svg PUBLIC "-//W3C//DTD SVG 1.1//EN" "http://www.w3.org/Graphics/SVG/1.1/DTD/svg11.dtd">
<svg version="1.1" xmlns="http://www.w3.org/2000/svg" xmlns:xlink="http://www.w3.org/1999/xlink" width="32" height="32" viewBox="0 0 32 32">
<path d="M16 0.133c-0 0 0 0 0 0-4.238 0-8.223 1.65-11.219 4.647s-4.647 6.981-4.647 11.219c0 4.238 1.65 8.223 4.647 11.219s6.981 4.647 11.219 4.647c0 0 0 0 0 0 4.238 0 8.223-1.65 11.219-4.647s4.647-6.981 4.647-11.219c0-4.238-1.65-8.223-4.647-11.219s-6.981-4.647-11.219-4.647zM25.522 25.522c-2.543 2.543-5.925 3.944-9.522 3.944s-6.979-1.401-9.522-3.944-3.945-5.925-3.945-9.522 1.401-6.979 3.945-9.522c2.543-2.543 5.925-3.944 9.522-3.944s6.979 1.401 9.522 3.944 3.944 5.925 3.944 9.522-1.401 6.979-3.944 9.522z"></path>
<path d="M23.151 12.485l-7.151 7.151-7.151-7.151c-0.469-0.469-1.228-0.469-1.697 0s-0.469 1.228 0 1.697l8 8c0.234 0.235 0.541 0.352 0.849 0.352s0.614-0.117 0.849-0.351l8-8c0.469-0.469 0.469-1.228 0-1.697s-1.229-0.469-1.697-0z"></path>
</svg>
