<?xml version="1.0" encoding="utf-8"?>
<!-- Generated by IcoMoon.io -->
<!DOCTYPE svg PUBLIC "-//W3C//DTD SVG 1.1//EN" "http://www.w3.org/Graphics/SVG/1.1/DTD/svg11.dtd">
<svg version="1.1" xmlns="http://www.w3.org/2000/svg" xmlns:xlink="http://www.w3.org/1999/xlink" width="32" height="32" viewBox="0 0 32 32">
<path d="M4.535 22.433c0.472 1.016 1.077 1.957 1.815 2.822s1.61 1.618 2.617 2.259c1.007 0.641 2.163 1.146 3.466 1.517s2.755 0.55 4.354 0.539c1.679 0 3.195-0.171 4.551-0.513s2.56-0.756 3.613-1.242c0.375-0.166 0.709-0.326 1.001-0.482s0.511-0.29 0.657-0.404c0.156-0.114 0.253-0.218 0.289-0.31 0.037-0.094 0.055-0.182 0.055-0.264 0-0.095-0.023-0.211-0.070-0.348s-0.138-0.311-0.274-0.522c-0.177-0.296-0.329-0.475-0.454-0.539s-0.239-0.095-0.344-0.095c-0.073 0-0.151 0.010-0.235 0.032s-0.193 0.068-0.328 0.142c-0.208 0.116-0.463 0.256-0.766 0.42s-0.698 0.33-1.187 0.498c-1.313 0.475-2.484 0.813-3.515 1.013s-2.026 0.301-2.984 0.301c-1.771 0.010-3.346-0.261-4.726-0.815s-2.549-1.33-3.507-2.328c-0.958-0.998-1.69-2.193-2.195-3.583s-0.758-2.917-0.758-4.578c0-1.363 0.221-2.711 0.663-4.044s1.114-2.529 2.014-3.591c0.9-1.062 2.039-1.923 3.418-2.584s2.994-0.991 4.847-0.991c1.533 0 2.912 0.216 4.137 0.648s2.265 1.041 3.12 1.827 1.512 1.723 1.971 2.811 0.688 2.283 0.688 3.584c0 1.040-0.125 2.015-0.375 2.925s-0.579 1.703-0.985 2.379-0.873 1.206-1.4 1.591c-0.527 0.385-1.072 0.577-1.635 0.577-0.115 0-0.245-0.013-0.391-0.039s-0.284-0.075-0.415-0.148c-0.13-0.072-0.242-0.183-0.336-0.334s-0.141-0.355-0.141-0.614c0-0.062 0-0.119 0-0.171 0-0.062 0.014-0.142 0.042-0.241s0.054-0.209 0.079-0.331c0.025-0.123 0.054-0.271 0.090-0.444l1.612-8.012c0.062-0.266 0.068-0.466 0.015-0.599s-0.146-0.246-0.282-0.338c-0.094-0.071-0.274-0.174-0.54-0.307s-0.611-0.264-1.034-0.392-0.922-0.241-1.496-0.338c-0.574-0.097-1.217-0.146-1.927-0.146-0.935 0-1.792 0.122-2.571 0.366s-1.48 0.57-2.103 0.98c-0.623 0.41-1.166 0.882-1.628 1.415s-0.834 1.081-1.114 1.641c-0.218 0.425-0.405 0.837-0.561 1.237s-0.283 0.798-0.382 1.198c-0.099 0.399-0.169 0.801-0.21 1.206s-0.062 0.83-0.062 1.275c0 0.72 0.101 1.404 0.303 2.051s0.502 1.214 0.901 1.699c0.398 0.485 0.89 0.871 1.475 1.159s1.271 0.43 2.058 0.43c0.553 0 1.056-0.047 1.509-0.142s0.881-0.239 1.283-0.433 0.777-0.427 1.126-0.7c0.35-0.273 0.696-0.582 1.040-0.929 0.021 0.262 0.075 0.525 0.164 0.787s0.242 0.501 0.461 0.716c0.219 0.215 0.521 0.386 0.907 0.512s0.886 0.189 1.502 0.189c0.511 0 1.047-0.078 1.61-0.234s1.108-0.399 1.634-0.727c0.526-0.328 1.024-0.735 1.493-1.219s0.875-1.055 1.22-1.711c0.49-0.969 0.852-1.905 1.087-2.806s0.352-1.894 0.352-2.978c0-1.537-0.274-2.985-0.821-4.346s-1.348-2.544-2.4-3.551c-1.053-1.007-2.343-1.807-3.87-2.399s-3.261-0.888-5.2-0.888c-1.361 0-2.638 0.174-3.832 0.522s-2.287 0.828-3.279 1.441c-0.992 0.613-1.877 1.337-2.656 2.173s-1.438 1.758-1.978 2.765c-0.54 1.007-0.95 2.072-1.231 3.194s-0.42 2.264-0.42 3.427c0 1.105 0.111 2.207 0.335 3.307s0.571 2.158 1.044 3.174zM19.438 15.086c-0.157 0.738-0.39 1.462-0.699 2.174s-0.681 1.343-1.116 1.894c-0.435 0.551-0.922 0.998-1.462 1.34s-1.118 0.514-1.737 0.514-1.129-0.094-1.532-0.281c-0.403-0.187-0.723-0.439-0.959-0.757-0.236-0.317-0.398-0.671-0.487-1.061s-0.134-0.783-0.134-1.178c0-0.239 0.018-0.523 0.055-0.85s0.094-0.665 0.173-1.014c0.078-0.349 0.178-0.694 0.298-1.038s0.259-0.655 0.416-0.936c0.22-0.437 0.481-0.84 0.785-1.209s0.643-0.691 1.020-0.967c0.376-0.275 0.803-0.491 1.279-0.647s1.002-0.234 1.578-0.234c0.418 0 0.782 0.018 1.091 0.055s0.591 0.086 0.847 0.148c0.257 0.062 0.487 0.14 0.691 0.234s0.406 0.197 0.604 0.312l-0.711 3.502z"></path>
</svg>
