<?xml version="1.0" encoding="utf-8"?>
<!-- Generated by IcoMoon.io -->
<!DOCTYPE svg PUBLIC "-//W3C//DTD SVG 1.1//EN" "http://www.w3.org/Graphics/SVG/1.1/DTD/svg11.dtd">
<svg version="1.1" xmlns="http://www.w3.org/2000/svg" xmlns:xlink="http://www.w3.org/1999/xlink" width="32" height="32" viewBox="0 0 32 32">
<path d="M14.933 15.68v-9.013c0-2.053-1.68-3.733-3.733-3.733s-3.733 1.68-3.733 3.733c0 0.56 0.133 1.12 0.373 1.6h-3.84c-0.587 0-1.067 0.48-1.067 1.067v5.333c0 0.48 0.347 0.907 0.8 1.013h11.2zM9.6 6.667c0-0.88 0.72-1.6 1.6-1.6s1.6 0.72 1.6 1.6v1.6h-1.6c-0.88 0-1.6-0.72-1.6-1.6z"></path>
<path d="M14.933 17.813h-9.333v10.187c0 0.587 0.48 1.067 1.067 1.067h8.267v-11.253z"></path>
<path d="M17.067 17.813v11.253h8.267c0.587 0 1.067-0.48 1.067-1.067v-10.187h-9.333z"></path>
<path d="M28.267 15.68c0.453-0.133 0.8-0.533 0.8-1.013v-5.333c0-0.587-0.48-1.067-1.067-1.067h-3.813c0.24-0.48 0.373-1.040 0.373-1.6 0-2.053-1.68-3.733-3.733-3.733s-3.733 1.68-3.733 3.733v9.013h11.173zM20.8 8.267h-1.6v-1.6c0-0.88 0.72-1.6 1.6-1.6s1.6 0.72 1.6 1.6-0.72 1.6-1.6 1.6z"></path>
</svg>
