<?xml version="1.0" encoding="utf-8"?>
<!-- Generated by IcoMoon.io -->
<!DOCTYPE svg PUBLIC "-//W3C//DTD SVG 1.1//EN" "http://www.w3.org/Graphics/SVG/1.1/DTD/svg11.dtd">
<svg version="1.1" xmlns="http://www.w3.org/2000/svg" xmlns:xlink="http://www.w3.org/1999/xlink" width="32" height="32" viewBox="0 0 32 32">
<path d="M26.572 17.489l-3.109-2.119c0.37-0.419 0.359-1.057-0.042-1.457-0.416-0.417-1.092-0.417-1.508 0l-0.239 0.239-0.673-0.459c0.135-0.376 0.054-0.812-0.247-1.113-0.399-0.399-1.034-0.412-1.453-0.045l-3.952-2.693-1.262-1.262c-0.416-0.417-1.092-0.417-1.508 0s-0.417 1.092 0 1.508l1.021 1.021v2.962c-0.843 0.46-2.042 0.863-2.971 0.863-2.398 0-5.165-1.227-5.191-1.239-0.521-0.235-1.136-0.017-1.392 0.495-1.485 2.971-1.485 5.983 0 8.954 0.181 0.361 0.55 0.59 0.954 0.59h21c1.691 0 3.067-1.376 3.067-3.067 0-1.564-1.867-2.805-2.495-3.178z"></path>
</svg>
