<?xml version="1.0" encoding="utf-8"?>
<!-- Generated by IcoMoon.io -->
<!DOCTYPE svg PUBLIC "-//W3C//DTD SVG 1.1//EN" "http://www.w3.org/Graphics/SVG/1.1/DTD/svg11.dtd">
<svg version="1.1" xmlns="http://www.w3.org/2000/svg" xmlns:xlink="http://www.w3.org/1999/xlink" width="32" height="32" viewBox="0 0 32 32">
<path d="M28.001 19.963v-13.297c0-2.867-2.333-5.2-5.2-5.2s-5.2 2.333-5.2 5.2v2.936c-0.522-0.132-1.059-0.203-1.601-0.203-3.639 0-6.6 2.961-6.6 6.6s2.961 6.6 6.6 6.6c0.093 0 0.185-0.004 0.277-0.007-0.091 0.438-0.143 0.885-0.143 1.34 0 3.639 2.961 6.6 6.6 6.6s6.6-2.961 6.6-6.6c0-1.435-0.471-2.827-1.333-3.97zM17.507 19.916c-0.485 0.189-0.99 0.284-1.507 0.284-2.316 0-4.2-1.884-4.2-4.2s1.884-4.2 4.2-4.2c0.549 0 1.093 0.11 1.601 0.321v7.671c-0.022 0.027-0.041 0.057-0.062 0.084-0.010 0.014-0.021 0.026-0.031 0.040zM22.734 28.133c-2.316 0-4.2-1.884-4.2-4.2 0-0.847 0.259-1.662 0.733-2.355 0.003-0.003 0.006-0.006 0.008-0.010 0.065-0.095 0.129-0.181 0.193-0.262s0.131-0.161 0.203-0.237c0.002-0.002 0.004-0.005 0.006-0.007v0l0.325-0.346v-14.049c0-1.544 1.256-2.8 2.8-2.8s2.8 1.256 2.8 2.8v14.171l0.296 0.339c0.669 0.767 1.038 1.745 1.038 2.756 0 2.316-1.884 4.201-4.2 4.201z"></path>
<path d="M24.001 21.665v-8.331c0-0.663-0.537-1.2-1.2-1.2s-1.2 0.537-1.2 1.2v8.263c-0.867 0.422-1.467 1.31-1.467 2.337 0 1.434 1.166 2.6 2.6 2.6s2.6-1.167 2.6-2.6c0-0.974-0.539-1.823-1.333-2.269z"></path>
<path d="M4.454 12.517l2.463 1.021c0.15 0.062 0.306 0.092 0.459 0.092 0.471 0 0.918-0.279 1.109-0.741 0.254-0.612-0.037-1.314-0.649-1.568l-2.463-1.021c-0.612-0.254-1.314 0.037-1.568 0.649s0.037 1.314 0.649 1.568z"></path>
<path d="M12.887 23.514c-0.612-0.254-1.314 0.037-1.568 0.65l-1.020 2.463c-0.254 0.612 0.037 1.314 0.65 1.568 0.15 0.062 0.306 0.091 0.459 0.091 0.471 0 0.918-0.279 1.109-0.741l1.020-2.463c0.254-0.612-0.037-1.314-0.65-1.568z"></path>
<path d="M6.918 18.463l-2.464 1.021c-0.612 0.254-0.903 0.955-0.649 1.568 0.191 0.462 0.638 0.741 1.109 0.741 0.153 0 0.309-0.029 0.459-0.092l2.464-1.021c0.612-0.254 0.903-0.955 0.649-1.568s-0.955-0.903-1.568-0.649z"></path>
<path d="M11.32 7.837c0.191 0.462 0.638 0.741 1.109 0.741 0.153 0 0.309-0.029 0.459-0.091 0.613-0.254 0.903-0.955 0.65-1.568l-1.021-2.464c-0.253-0.612-0.956-0.903-1.568-0.649s-0.903 0.955-0.65 1.568l1.021 2.464z"></path>
</svg>
