<?xml version="1.0" encoding="utf-8"?>
<!-- Generated by IcoMoon.io -->
<!DOCTYPE svg PUBLIC "-//W3C//DTD SVG 1.1//EN" "http://www.w3.org/Graphics/SVG/1.1/DTD/svg11.dtd">
<svg version="1.1" xmlns="http://www.w3.org/2000/svg" xmlns:xlink="http://www.w3.org/1999/xlink" width="32" height="32" viewBox="0 0 32 32">
<path fill="#737373" d="M30.533 12c0-0.003-0.001-0.006-0.001-0.008l-0-5.325c0-0.663-0.537-1.2-1.2-1.2h-2.799v-1.467c0-0.663-0.537-1.2-1.2-1.2s-1.2 0.537-1.2 1.2v1.467h-16.267v-1.467c0-0.663-0.537-1.2-1.2-1.2s-1.2 0.537-1.2 1.2v1.467h-2.8c-0.318 0-0.623 0.126-0.849 0.351s-0.351 0.53-0.351 0.849l0 9.333c0 0 0 0.001 0 0.001s0 0.001 0 0.001l0 3.997c0 0.001-0 0.001-0 0.002s0 0.001 0 0.002l0 3.994c0 0.001-0.001 0.002-0.001 0.004s0.001 0.002 0.001 0.004v3.996c0 0.663 0.537 1.2 1.2 1.2h6.665c0.001 0 0.001 0 0.001 0s0.001 0 0.001 0h6.664c0.001 0 0.001 0 0.001 0s0.001 0 0.001 0h6.664c0.001 0 0.001 0 0.001 0s0.001 0 0.001 0h6.665c0.318 0 0.623-0.126 0.849-0.351s0.351-0.53 0.351-0.849l-0-3.996c0-0.001 0.001-0.003 0.001-0.004s-0.001-0.003-0.001-0.004v-3.99c0-0.002 0.001-0.004 0.001-0.006s-0.001-0.004-0.001-0.006l-0-3.988c0-0.002 0.001-0.005 0.001-0.007s-0.001-0.005-0.001-0.007v-3.985c0-0.003 0.001-0.005 0.001-0.008zM28.133 18.8h-4.266v-1.6h4.266v1.6zM28.133 14.8h-4.266v-1.6h4.266v1.6zM23.867 21.2h4.266v1.6h-4.266v-1.6zM5.467 7.867v0.133c0 0.663 0.537 1.2 1.2 1.2s1.2-0.537 1.2-1.2v-0.133h16.267v0.133c0 0.663 0.537 1.2 1.2 1.2s1.2-0.537 1.2-1.2v-0.133h1.599v2.933h-24.266l-0-2.933h1.6zM17.2 14.8v-1.6h4.267v1.6h-4.267zM21.467 17.2v1.6h-4.267v-1.6h4.267zM17.2 21.2h4.267v1.6h-4.267v-1.6zM10.533 14.8v-1.6h4.267v1.6h-4.267zM14.8 17.2v1.6h-4.267v-1.6h4.267zM10.533 21.2h4.267v1.6h-4.267v-1.6zM3.867 17.2h4.267v1.6h-4.266l-0-1.6zM3.867 14.8v-1.6h4.267v1.6h-4.267zM3.867 21.2h4.266v1.6h-4.266v-1.6zM3.867 25.2h4.266v1.6h-4.266v-1.6zM10.533 25.2h4.267v1.6h-4.267v-1.6zM17.2 25.2h4.267v1.6h-4.267v-1.6zM28.133 26.8h-4.266v-1.6h4.266v1.6z"></path>
</svg>
