<?xml version="1.0" encoding="utf-8"?>
<!-- Generated by IcoMoon.io -->
<!DOCTYPE svg PUBLIC "-//W3C//DTD SVG 1.1//EN" "http://www.w3.org/Graphics/SVG/1.1/DTD/svg11.dtd">
<svg version="1.1" xmlns="http://www.w3.org/2000/svg" xmlns:xlink="http://www.w3.org/1999/xlink" width="32" height="32" viewBox="0 0 32 32">
<path d="M24.667 10.8c-0.771 0-1.497 0.194-2.133 0.535v-5.815c0-0.457-0.26-0.875-0.67-1.077l-0.386-0.191c-1.766-0.875-2.933-1.453-5.477-1.453-2.639 0-3.759 0.422-5.863 1.457-0.41 0.202-0.67 0.619-0.67 1.077v6.002c-0.637-0.341-1.362-0.535-2.133-0.535-2.5 0-4.533 2.034-4.533 4.533 0 1.804 1.077 3.41 2.667 4.131v5.869c0 0.663 0.537 1.2 1.2 1.2h2.814c-0.005 0.045-0.014 0.088-0.014 0.133v1.333c0 0.663 0.537 1.2 1.2 1.2s1.2-0.537 1.2-1.2v-1.333c0-0.046-0.008-0.089-0.014-0.133h8.294c-0.005 0.045-0.014 0.088-0.014 0.133v1.333c0 0.663 0.537 1.2 1.2 1.2s1.2-0.537 1.2-1.2v-1.333c0-0.046-0.008-0.089-0.014-0.133h2.814c0.663 0 1.2-0.537 1.2-1.2v-5.869c1.59-0.721 2.667-2.328 2.667-4.131 0-2.5-2.034-4.533-4.533-4.533zM11.867 19.867h8.267v4.267h-8.267v-4.267zM11.867 6.086c1.379-0.651 2.196-0.886 4.133-0.886 1.869 0 2.652 0.335 4.133 1.065v11.201h-8.267v-11.381zM8 24.133h-0.133v-5.533c0-0.571-0.402-1.062-0.961-1.176-0.989-0.201-1.706-1.080-1.706-2.091 0-1.176 0.957-2.133 2.133-2.133s2.133 0.957 2.133 2.133v8.8h-1.467zM25.094 17.424c-0.559 0.114-0.961 0.605-0.961 1.176v5.534h-1.6v-8.8c0-1.176 0.957-2.133 2.133-2.133s2.133 0.957 2.133 2.133c0 1.011-0.717 1.89-1.706 2.090z"></path>
</svg>
