<?xml version="1.0" encoding="utf-8"?>
<!-- Generated by IcoMoon.io -->
<!DOCTYPE svg PUBLIC "-//W3C//DTD SVG 1.1//EN" "http://www.w3.org/Graphics/SVG/1.1/DTD/svg11.dtd">
<svg version="1.1" xmlns="http://www.w3.org/2000/svg" xmlns:xlink="http://www.w3.org/1999/xlink" width="32" height="32" viewBox="0 0 32 32">
<path d="M15.2 8.667c0-0.663-0.537-1.2-1.2-1.2h-5.333c-0.663 0-1.2 0.537-1.2 1.2v5.333c0 0.663 0.537 1.2 1.2 1.2h5.333c0.663 0 1.2-0.537 1.2-1.2v-5.333zM12.8 12.8h-2.933v-2.933h2.933v2.933z"></path>
<path d="M14 16.8h-5.333c-0.663 0-1.2 0.537-1.2 1.2v5.333c0 0.663 0.537 1.2 1.2 1.2h5.333c0.663 0 1.2-0.537 1.2-1.2v-5.333c0-0.663-0.537-1.2-1.2-1.2zM12.8 22.133h-2.933v-2.933h2.933v2.933z"></path>
<path d="M24.533 8.667c0-0.663-0.537-1.2-1.2-1.2h-5.333c-0.663 0-1.2 0.537-1.2 1.2v5.333c0 0.663 0.537 1.2 1.2 1.2h5.333c0.663 0 1.2-0.537 1.2-1.2v-5.333zM22.133 12.8h-2.933v-2.933h2.933v2.933z"></path>
<path d="M23.333 16.8h-5.333c-0.663 0-1.2 0.537-1.2 1.2v5.333c0 0.663 0.537 1.2 1.2 1.2h5.333c0.663 0 1.2-0.537 1.2-1.2v-5.333c0-0.663-0.537-1.2-1.2-1.2zM22.133 22.133h-2.933v-2.933h2.933v2.933z"></path>
</svg>
