<?xml version="1.0" encoding="utf-8"?>
<!-- Generated by IcoMoon.io -->
<!DOCTYPE svg PUBLIC "-//W3C//DTD SVG 1.1//EN" "http://www.w3.org/Graphics/SVG/1.1/DTD/svg11.dtd">
<svg version="1.1" xmlns="http://www.w3.org/2000/svg" xmlns:xlink="http://www.w3.org/1999/xlink" width="32" height="32" viewBox="0 0 32 32">
<path d="M25.333 12.133h-2.8v-5.467c0-2.132-1.735-3.867-3.867-3.867h-5.333c-2.132 0-3.867 1.735-3.867 3.867v5.467h-2.8c-0.663 0-1.2 0.537-1.2 1.2v12c0 2.132 1.735 3.867 3.867 3.867h13.333c2.132 0 3.867-1.735 3.867-3.867v-12c0-0.663-0.537-1.2-1.2-1.2zM11.867 6.667c0-0.809 0.658-1.467 1.467-1.467h5.333c0.809 0 1.467 0.658 1.467 1.467v5.467h-8.267v-5.467zM24.133 25.333c0 0.809-0.658 1.467-1.467 1.467h-13.333c-0.809 0-1.467-0.658-1.467-1.467v-10.8h2.799c0.001 0 0.001 0 0.001 0s0.001 0 0.001 0h13.465v10.8z"></path>
<path d="M16 16c-1.397 0-2.533 1.137-2.533 2.533 0 0.963 0.54 1.802 1.333 2.23v3.237c0 0.663 0.537 1.2 1.2 1.2s1.2-0.537 1.2-1.2v-3.237c0.793-0.428 1.333-1.267 1.333-2.23 0-1.397-1.137-2.533-2.533-2.533z"></path>
</svg>
