<?xml version="1.0" encoding="utf-8"?>
<!-- Generated by IcoMoon.io -->
<!DOCTYPE svg PUBLIC "-//W3C//DTD SVG 1.1//EN" "http://www.w3.org/Graphics/SVG/1.1/DTD/svg11.dtd">
<svg version="1.1" xmlns="http://www.w3.org/2000/svg" xmlns:xlink="http://www.w3.org/1999/xlink" width="32" height="32" viewBox="0 0 32 32">
<path d="M27.878 12.925c-0.172-0.475-0.623-0.792-1.129-0.792h-5.587c-0.157-2.835-0.972-9.333-5.163-9.333s-5.006 6.498-5.163 9.333h-5.587c-0.506 0-0.957 0.317-1.129 0.792-0.877 2.426-1.322 5.031-1.322 7.741s0.445 5.315 1.322 7.741c0.172 0.475 0.623 0.792 1.129 0.792h21.499c0.506 0 0.957-0.317 1.129-0.792 0.877-2.426 1.322-5.031 1.322-7.741s-0.445-5.315-1.321-7.741zM18.8 14.533v12.267h-5.6v-12.267h5.6zM13.673 8.918c0.298-1.389 0.995-3.718 2.327-3.718 1.683 0 2.575 3.789 2.762 6.933h-5.514c0.055-0.846 0.172-2.033 0.425-3.215zM5.2 20.667c0-2.138 0.306-4.197 0.912-6.133h4.688v12.267h-4.688c-0.606-1.937-0.912-3.996-0.912-6.133zM25.888 26.8h-4.688v-12.267h4.688c0.606 1.937 0.912 3.996 0.912 6.133s-0.306 4.197-0.912 6.133z"></path>
</svg>
