<?xml version="1.0" encoding="utf-8"?>
<!-- Generated by IcoMoon.io -->
<!DOCTYPE svg PUBLIC "-//W3C//DTD SVG 1.1//EN" "http://www.w3.org/Graphics/SVG/1.1/DTD/svg11.dtd">
<svg version="1.1" xmlns="http://www.w3.org/2000/svg" xmlns:xlink="http://www.w3.org/1999/xlink" width="32" height="32" viewBox="0 0 32 32">
<path d="M10.757 22.415c0.025 0.069 0.067 0.129 0.127 0.182s0.164 0.094 0.314 0.124c0.149 0.030 0.363 0.045 0.639 0.045 0.282 0 0.5-0.018 0.652-0.054s0.266-0.081 0.339-0.136c0.062-0.055 0.105-0.114 0.127-0.177s0.034-0.164 0.034-0.301v-11.109c0-0.308-0.063-0.531-0.19-0.668-0.132-0.143-0.347-0.215-0.644-0.215-0.171 0-0.355 0.044-0.553 0.132s-0.421 0.237-0.669 0.446l-2.624 2.211c-0.204 0.171-0.372 0.33-0.504 0.479s-0.198 0.283-0.198 0.405c0 0.132 0.032 0.261 0.097 0.388s0.149 0.247 0.251 0.363c0.092 0.127 0.193 0.231 0.304 0.314s0.239 0.124 0.385 0.124c0.135 0 0.252-0.029 0.352-0.087s0.195-0.133 0.288-0.227l1.434-1.321v8.781c0 0.132 0.013 0.233 0.039 0.301z"></path>
<path d="M15.366 17.289c-0.318 0.535-0.478 1.147-0.478 1.837 0 0.562 0.109 1.073 0.326 1.53s0.521 0.854 0.909 1.187c0.388 0.334 0.852 0.591 1.392 0.774s1.129 0.273 1.768 0.273c0.64 0 1.23-0.091 1.771-0.273s1.006-0.44 1.395-0.774c0.389-0.333 0.695-0.729 0.918-1.187s0.335-0.968 0.335-1.53c0-0.695-0.159-1.308-0.477-1.84s-0.78-0.953-1.388-1.262c0.478-0.248 0.848-0.6 1.109-1.055s0.393-0.97 0.393-1.544c0-0.513-0.101-0.973-0.302-1.383s-0.483-0.759-0.844-1.049c-0.361-0.29-0.79-0.513-1.285-0.669s-1.037-0.234-1.625-0.234c-0.589 0-1.129 0.079-1.62 0.238s-0.917 0.383-1.279 0.673c-0.362 0.29-0.644 0.639-0.846 1.049s-0.303 0.868-0.303 1.375c0 0.574 0.133 1.086 0.398 1.535s0.638 0.804 1.118 1.063c-0.604 0.309-1.066 0.731-1.385 1.266zM17.953 12.474c0.299-0.302 0.742-0.454 1.33-0.454 0.291 0 0.549 0.041 0.774 0.122s0.413 0.194 0.564 0.34c0.151 0.146 0.263 0.318 0.338 0.517s0.111 0.413 0.111 0.643c0 0.459-0.15 0.839-0.449 1.139s-0.746 0.45-1.338 0.45c-0.291 0-0.546-0.039-0.766-0.118s-0.404-0.189-0.552-0.332c-0.148-0.143-0.262-0.309-0.342-0.5s-0.119-0.403-0.119-0.639c0-0.477 0.15-0.866 0.449-1.169zM17.334 18.217c0.090-0.238 0.222-0.445 0.395-0.621s0.39-0.311 0.651-0.407c0.261-0.096 0.561-0.144 0.902-0.144 0.335 0 0.633 0.049 0.894 0.148s0.482 0.236 0.663 0.411c0.181 0.175 0.319 0.382 0.412 0.621s0.14 0.5 0.14 0.785c0 0.285-0.047 0.546-0.14 0.785s-0.231 0.444-0.412 0.616c-0.181 0.173-0.402 0.307-0.663 0.403s-0.559 0.144-0.894 0.144c-0.33 0-0.622-0.049-0.877-0.148s-0.473-0.235-0.655-0.411-0.318-0.382-0.412-0.62c-0.093-0.238-0.14-0.5-0.14-0.785-0-0.279 0.045-0.538 0.136-0.777z"></path>
<path d="M30.667 14.8h-1.467v-1.467c0-0.663-0.537-1.2-1.2-1.2s-1.2 0.537-1.2 1.2v1.467h-1.467c-0.663 0-1.2 0.537-1.2 1.2s0.537 1.2 1.2 1.2h1.467v1.467c0 0.663 0.537 1.2 1.2 1.2s1.2-0.537 1.2-1.2v-1.467h1.467c0.663 0 1.2-0.537 1.2-1.2s-0.537-1.2-1.2-1.2z"></path>
<path d="M28 21.467c-0.663 0-1.2 0.537-1.2 1.2v4.133h-21.6v-21.6h21.6v4.133c0 0.663 0.537 1.2 1.2 1.2s1.2-0.537 1.2-1.2v-5.333c0-0.663-0.537-1.2-1.2-1.2h-24c-0.663 0-1.2 0.537-1.2 1.2v24c0 0.663 0.537 1.2 1.2 1.2h24c0.663 0 1.2-0.537 1.2-1.2v-5.333c0-0.663-0.537-1.2-1.2-1.2z"></path>
</svg>
