<?xml version="1.0" encoding="utf-8"?>
<!-- Generated by IcoMoon.io -->
<!DOCTYPE svg PUBLIC "-//W3C//DTD SVG 1.1//EN" "http://www.w3.org/Graphics/SVG/1.1/DTD/svg11.dtd">
<svg version="1.1" xmlns="http://www.w3.org/2000/svg" xmlns:xlink="http://www.w3.org/1999/xlink" width="32" height="32" viewBox="0 0 32 32">
<path d="M8.75 29.049c0.185 0.103 0.385 0.151 0.582 0.151 0.422 0 0.831-0.223 1.050-0.617l13.333-24c0.322-0.579 0.113-1.31-0.466-1.632s-1.31-0.114-1.632 0.466l-13.333 24c-0.322 0.579-0.113 1.31 0.466 1.632z"></path>
<path d="M8.667 14.533c3.235 0 5.867-2.632 5.867-5.867s-2.632-5.867-5.867-5.867-5.867 2.632-5.867 5.867 2.632 5.867 5.867 5.867zM8.667 5.2c1.911 0 3.467 1.555 3.467 3.467s-1.555 3.467-3.467 3.467-3.467-1.555-3.467-3.467 1.555-3.467 3.467-3.467z"></path>
<path d="M17.467 23.333c0 3.235 2.632 5.867 5.867 5.867s5.867-2.632 5.867-5.867-2.632-5.867-5.867-5.867-5.867 2.632-5.867 5.867zM26.8 23.333c0 1.911-1.555 3.467-3.467 3.467s-3.467-1.555-3.467-3.467 1.555-3.467 3.467-3.467 3.467 1.555 3.467 3.467z"></path>
</svg>
