<?xml version="1.0" encoding="utf-8"?>
<!-- Generated by IcoMoon.io -->
<!DOCTYPE svg PUBLIC "-//W3C//DTD SVG 1.1//EN" "http://www.w3.org/Graphics/SVG/1.1/DTD/svg11.dtd">
<svg version="1.1" xmlns="http://www.w3.org/2000/svg" xmlns:xlink="http://www.w3.org/1999/xlink" width="32" height="32" viewBox="0 0 32 32">
<path d="M9.333 29.2h-5.333c-0.663 0-1.2-0.537-1.2-1.2v-10.667c0-0.663 0.537-1.2 1.2-1.2h5.333c0.663 0 1.2 0.537 1.2 1.2v10.667c0 0.663-0.537 1.2-1.2 1.2zM5.2 26.8h2.933v-8.267h-2.933v8.267z"></path>
<path d="M18.667 29.2h-5.333c-0.663 0-1.2-0.537-1.2-1.2v-24c0-0.663 0.537-1.2 1.2-1.2h5.333c0.663 0 1.2 0.537 1.2 1.2v24c0 0.663-0.537 1.2-1.2 1.2zM14.533 26.8h2.933v-21.6h-2.933v21.6z"></path>
<path d="M28 29.2h-5.333c-0.663 0-1.2-0.537-1.2-1.2v-18.667c0-0.663 0.537-1.2 1.2-1.2h5.333c0.663 0 1.2 0.537 1.2 1.2v18.667c0 0.663-0.537 1.2-1.2 1.2zM23.867 26.8h2.933v-16.267h-2.933v16.267z"></path>
</svg>
