<?xml version="1.0" encoding="utf-8"?>
<!-- Generated by IcoMoon.io -->
<!DOCTYPE svg PUBLIC "-//W3C//DTD SVG 1.1//EN" "http://www.w3.org/Graphics/SVG/1.1/DTD/svg11.dtd">
<svg version="1.1" xmlns="http://www.w3.org/2000/svg" xmlns:xlink="http://www.w3.org/1999/xlink" width="32" height="32" viewBox="0 0 32 32">
<path d="M17.966 18.172c-0.029 0.024-0.069 0.046-0.112 0.067-0.072 0.036-0.149 0.072-0.22 0.072-0.048 0-0.083-0.013-0.11-0.035-0.012-0.010-0.021-0.022-0.029-0.030-0.006-0.008-0.011-0.017-0.017-0.024-0.018-0.024-0.037-0.059-0.054-0.101-0.112 0.11-0.313 0.205-0.606 0.205-0.247 0-0.442-0.063-0.582-0.195-0.136-0.129-0.214-0.314-0.214-0.571v-1.462c0-0.062 0.013-0.104 0.057-0.137 0.046-0.035 0.133-0.047 0.245-0.047 0.11 0 0.197 0.012 0.242 0.047 0.043 0.033 0.055 0.075 0.055 0.137v1.395c0 0.207 0.086 0.31 0.33 0.31 0.246 0 0.391-0.146 0.391-0.347v-1.358c0-0.062 0.013-0.104 0.057-0.137 0.045-0.035 0.129-0.047 0.241-0.047 0.109 0 0.197 0.013 0.242 0.048 0.044 0.033 0.056 0.075 0.056 0.137v1.624c0 0.053 0.007 0.101 0.018 0.139s0.021 0.066 0.028 0.082c0.019 0.040 0.038 0.079 0.038 0.132 0.001 0.043-0.030 0.076-0.057 0.098v0z"></path>
<path d="M15.29 16.481v1.621c0 0.062-0.012 0.104-0.057 0.137-0.045 0.035-0.133 0.047-0.241 0.047-0.112 0-0.2-0.012-0.246-0.048-0.044-0.033-0.057-0.075-0.057-0.137v-1.578l-0.276 0.019c-0.248 0.017-0.258-0.191-0.258-0.308 0-0.231 0.086-0.315 0.238-0.315h1.193c0.117 0 0.205 0.038 0.239 0.204 0.039 0.185 0.023 0.315-0.185 0.33l-0.351 0.027z"></path>
<path d="M19.042 18.245c-0.046 0.035-0.133 0.047-0.242 0.047-0.111 0-0.2-0.012-0.246-0.047-0.044-0.033-0.056-0.075-0.056-0.137v-2.010c0-0.062 0.012-0.104 0.056-0.137 0.046-0.035 0.134-0.047 0.245-0.047 0.109 0 0.197 0.012 0.242 0.047 0.044 0.033 0.056 0.075 0.056 0.137v2.010c0 0.062-0.013 0.104-0.057 0.137v0z"></path>
<path d="M6.602 14.819h1.585c0.155 0 0.272 0.050 0.318 0.27 0.051 0.246 0.030 0.416-0.246 0.436l-0.498 0.035c0.366 2.314 2.507 3.068 3.673 0.576 0.193-0.413 0.256-0.488 0.467-0.435 0.287 0.071 0.326 0.218 0.189 0.634-1.008 3.072-4.396 3.381-5.060-0.723l-0.405 0.029c-0.328 0.023-0.341-0.254-0.341-0.408 0.001-0.306 0.114-0.415 0.317-0.415v0z"></path>
<path d="M12.364 13.333c0.325 0 0.589 0.263 0.589 0.588s-0.263 0.588-0.589 0.588c-0.325 0-0.588-0.263-0.588-0.588s0.264-0.588 0.588-0.588v0z"></path>
<path d="M19.646 18.337c-0.151 0-0.295-0.137-0.295-0.299 0-0.154 0.133-0.302 0.295-0.302 0.151 0 0.295 0.144 0.295 0.302 0 0.161-0.141 0.299-0.295 0.299z"></path>
<path d="M21.349 18.186c-0.092 0.071-0.288 0.151-0.48 0.151-0.415 0-0.773-0.271-0.773-0.801 0-0.457 0.318-0.8 0.766-0.8 0.228 0 0.354 0.052 0.46 0.105 0.084 0.042 0.102 0.077 0.102 0.119 0 0.046-0.015 0.091-0.050 0.161-0.035 0.077-0.076 0.126-0.133 0.126s-0.074-0.024-0.133-0.049c-0.067-0.025-0.126-0.046-0.207-0.046-0.166 0-0.298 0.144-0.298 0.383 0 0.242 0.137 0.369 0.288 0.369 0.063 0 0.137-0.017 0.194-0.045 0.055-0.025 0.080-0.053 0.141-0.053 0.052 0 0.094 0.035 0.14 0.105 0.039 0.060 0.067 0.116 0.067 0.161-0.002 0.039-0.023 0.071-0.082 0.113z"></path>
<path d="M22.38 18.337c-0.474 0-0.811-0.323-0.811-0.801 0-0.474 0.337-0.8 0.811-0.8 0.469 0 0.807 0.326 0.807 0.8 0.001 0.478-0.337 0.801-0.807 0.801zM22.38 17.139c-0.197 0-0.307 0.155-0.307 0.397 0 0.239 0.11 0.397 0.307 0.397s0.301-0.155 0.301-0.397c0-0.238-0.105-0.397-0.301-0.397z"></path>
<path d="M25.677 18.277c-0.029 0.025-0.098 0.039-0.21 0.039-0.116 0-0.183-0.014-0.211-0.039-0.029-0.021-0.039-0.046-0.039-0.102v-0.828c0-0.133-0.061-0.19-0.177-0.19s-0.235 0.112-0.235 0.242v0.776c0 0.056-0.011 0.081-0.039 0.102-0.028 0.025-0.098 0.039-0.211 0.039-0.116 0-0.182-0.014-0.211-0.039-0.029-0.021-0.039-0.046-0.039-0.102v-0.828c0-0.133-0.056-0.19-0.171-0.19s-0.239 0.112-0.239 0.242v0.776c0 0.056-0.010 0.081-0.039 0.102-0.029 0.025-0.098 0.039-0.211 0.039-0.116 0-0.183-0.014-0.211-0.039-0.029-0.021-0.039-0.046-0.039-0.102v-1.197c0-0.071 0.007-0.109 0.039-0.141 0.029-0.028 0.098-0.049 0.161-0.063 0.053-0.010 0.133-0.024 0.176-0.024 0.031 0 0.066 0.007 0.084 0.021 0.029 0.025 0.029 0.046 0.029 0.12v0.074c0.063-0.116 0.225-0.228 0.443-0.228 0.179 0 0.33 0.071 0.414 0.222 0.095-0.116 0.271-0.222 0.474-0.222 0.271 0 0.499 0.156 0.499 0.503v0.938c0.002 0.055-0.008 0.080-0.037 0.101z"></path>
</svg>
