<?xml version="1.0" encoding="utf-8"?>
<!-- Generated by IcoMoon.io -->
<!DOCTYPE svg PUBLIC "-//W3C//DTD SVG 1.1//EN" "http://www.w3.org/Graphics/SVG/1.1/DTD/svg11.dtd">
<svg version="1.1" xmlns="http://www.w3.org/2000/svg" xmlns:xlink="http://www.w3.org/1999/xlink" width="32" height="32" viewBox="0 0 32 32">
<path d="M28.994 20.172c0.026-0.021 0.044-0.045 0.056-0.072s0.017-0.066 0.017-0.119v-3.895c0-0.053-0.006-0.093-0.017-0.121s-0.030-0.051-0.056-0.070c-0.059-0.047-0.196-0.070-0.41-0.070-0.218 0-0.358 0.023-0.417 0.070-0.026 0.019-0.044 0.042-0.056 0.070s-0.017 0.068-0.017 0.121v3.895c0 0.087 0.025 0.151 0.073 0.191 0.059 0.047 0.198 0.070 0.417 0.070 0.214-0 0.351-0.024 0.41-0.070zM26.088 20.194c0.223-0.076 0.406-0.183 0.549-0.318s0.248-0.297 0.315-0.482 0.1-0.388 0.1-0.606v-2.702c0-0.091-0.023-0.155-0.070-0.191-0.063-0.047-0.201-0.070-0.41-0.070-0.218 0-0.358 0.023-0.417 0.070-0.028 0.019-0.047 0.042-0.057 0.070s-0.016 0.068-0.016 0.121v2.689c0 0.106-0.018 0.215-0.056 0.326s-0.118 0.204-0.243 0.277c-0.125 0.073-0.291 0.11-0.497 0.11-0.142 0-0.263-0.017-0.364-0.051s-0.183-0.082-0.247-0.145c-0.063-0.062-0.11-0.138-0.14-0.226s-0.045-0.185-0.045-0.291v-2.689c0-0.091-0.023-0.155-0.070-0.191-0.064-0.047-0.201-0.070-0.411-0.070-0.218 0-0.357 0.023-0.417 0.070-0.028 0.019-0.047 0.042-0.057 0.070s-0.016 0.068-0.016 0.121v2.702c0 0.218 0.033 0.421 0.1 0.606s0.172 0.346 0.315 0.482c0.143 0.136 0.326 0.242 0.549 0.318s0.49 0.115 0.802 0.115c0.311 0 0.579-0.038 0.802-0.114zM21.328 20.172c0.026-0.021 0.043-0.045 0.054-0.072s0.016-0.066 0.016-0.119v-3.322h0.971c0.072 0 0.13-0.007 0.175-0.021s0.079-0.044 0.105-0.091c0.030-0.057 0.053-0.137 0.068-0.239s0.024-0.183 0.024-0.245c0-0.051-0.004-0.090-0.013-0.116s-0.025-0.048-0.051-0.065c-0.017-0.011-0.040-0.018-0.070-0.024s-0.072-0.008-0.127-0.008h-3.023c-0.072 0-0.13 0.007-0.175 0.021s-0.080 0.044-0.105 0.091c-0.030 0.053-0.053 0.123-0.069 0.21s-0.024 0.177-0.024 0.27c0 0.053 0.005 0.093 0.013 0.119s0.027 0.048 0.054 0.065c0.034 0.021 0.099 0.032 0.194 0.032h1.082v3.322c0 0.091 0.025 0.155 0.073 0.191 0.059 0.047 0.198 0.070 0.417 0.070 0.21 0 0.347-0.023 0.41-0.070z"></path>
<path d="M3.613 13.466h3.401c0.333 0 0.585 0.106 0.684 0.579 0.11 0.526 0.065 0.893-0.528 0.935l-1.067 0.076c0.786 4.966 5.38 6.584 7.882 1.236 0.414-0.885 0.55-1.046 1.003-0.934 0.615 0.153 0.699 0.469 0.406 1.361-2.163 6.593-9.433 7.254-10.859-1.551l-0.867 0.063c-0.706 0.051-0.734-0.545-0.734-0.876 0-0.655 0.243-0.889 0.68-0.89z"></path>
<path d="M17.24 11.539c0 0.697-0.565 1.262-1.262 1.262s-1.262-0.565-1.262-1.262c0-0.697 0.565-1.262 1.262-1.262s1.262 0.565 1.262 1.262z"></path>
</svg>
