<?xml version="1.0" encoding="utf-8"?>
<!-- Generated by IcoMoon.io -->
<!DOCTYPE svg PUBLIC "-//W3C//DTD SVG 1.1//EN" "http://www.w3.org/Graphics/SVG/1.1/DTD/svg11.dtd">
<svg version="1.1" xmlns="http://www.w3.org/2000/svg" xmlns:xlink="http://www.w3.org/1999/xlink" width="32" height="32" viewBox="0 0 32 32">
<path fill="#737373" d="M27.967 18.516c-0.321-1.258-1.112-2.172-2.733-3.156-0.183-0.112-1.047-0.792-2.567-2.057 1.473-2.272 1.825-5.52 0.785-7.241-0.766-1.267-2.137-2.023-3.665-2.023-1.524 0-2.891 0.756-3.656 2.022-1.005 1.661-0.12 5.919 1.203 7.241-0.151 0.484-1.835 1.989-2.729 2.341-0.487-0.191-0.985-0.668-1.265-1.018 1.289-1.996 1.657-5.007 0.787-6.445-0.654-1.082-1.824-1.728-3.129-1.728-1.302 0-2.469 0.646-3.121 1.726-0.89 1.47 0.123 5.159 1.456 6.457-0.112 0.359-0.863 0.625-1.467 0.837-0.167 0.059-0.327 0.115-0.468 0.171-0.345 0.136-0.737 0.289-1.048 0.477-1.171 0.71-1.989 1.772-2.303 2.993l-0.034 0.131v8.726h23.985v-9.325l-0.033-0.13z"></path>
</svg>
