<?xml version="1.0" encoding="utf-8"?>
<!-- Generated by IcoMoon.io -->
<!DOCTYPE svg PUBLIC "-//W3C//DTD SVG 1.1//EN" "http://www.w3.org/Graphics/SVG/1.1/DTD/svg11.dtd">
<svg version="1.1" xmlns="http://www.w3.org/2000/svg" xmlns:xlink="http://www.w3.org/1999/xlink" width="32" height="32" viewBox="0 0 32 32">
<path d="M26.022 20.514l-6.016-2.579c2.527-1.742 2.527-4.531 2.527-5.935v-2.666c0-1.182-0.219-3.383-1.685-4.849-1.465-1.466-3.667-1.685-4.849-1.685s-3.383 0.219-4.849 1.685c-1.466 1.466-1.685 3.667-1.685 4.849v2.666c0 1.405 0 4.195 2.531 5.937-0.552 0.233-1.364 0.581-2.579 1.101l-3.441 1.475c-1.782 0.764-3.178 2.881-3.178 4.82v2.666c0 0.663 0.537 1.2 1.2 1.2h24c0.663 0 1.2-0.537 1.2-1.2v-2.666c0-1.939-1.396-4.056-3.178-4.82zM26.8 26.8h-21.6v-1.466c0-0.982 0.822-2.227 1.724-2.614 0 0 6.414-2.749 6.855-2.938 0.442-0.177 0.754-0.609 0.754-1.114v-1.333c0-0.455-0.257-0.87-0.663-1.073-1.85-0.925-2.003-2.543-2.003-4.26v-2.666c0-1.379 0.358-2.528 0.982-3.152s1.772-0.982 3.151-0.982 2.528 0.358 3.151 0.982c0.624 0.624 0.982 1.772 0.982 3.151v2.666c0 1.717-0.153 3.335-2.003 4.26-0.406 0.203-0.663 0.619-0.663 1.073v1.333c0 0.48 0.286 0.914 0.727 1.103l6.882 2.95c0.902 0.387 1.724 1.633 1.724 2.614v1.467z"></path>
</svg>
