<?xml version="1.0" encoding="utf-8"?>
<!-- Generated by IcoMoon.io -->
<!DOCTYPE svg PUBLIC "-//W3C//DTD SVG 1.1//EN" "http://www.w3.org/Graphics/SVG/1.1/DTD/svg11.dtd">
<svg version="1.1" xmlns="http://www.w3.org/2000/svg" xmlns:xlink="http://www.w3.org/1999/xlink" width="32" height="32" viewBox="0 0 32 32">
<path d="M28 13.093c-0.667 0-1.2 0.533-1.2 1.2v10.293c0 1.227-0.987 2.24-2.24 2.24h-17.12c-1.227 0-2.24-0.987-2.24-2.24v-17.147c0-1.227 0.987-2.24 2.24-2.24h10.293c0.667 0 1.2-0.533 1.2-1.2s-0.533-1.2-1.2-1.2h-10.293c-2.56 0-4.64 2.080-4.64 4.64v17.147c0 2.56 2.080 4.64 4.64 4.64h17.147c2.56 0 4.64-2.080 4.64-4.64v-10.293c-0.027-0.667-0.56-1.2-1.227-1.2z"></path>
<path d="M30.667 0.133h-5.333c-0.667 0-1.2 0.533-1.2 1.2s0.533 1.2 1.2 1.2h2.427l-12.613 12.613c-0.48 0.48-0.48 1.227 0 1.707 0.24 0.24 0.533 0.347 0.853 0.347s0.613-0.107 0.853-0.347l12.613-12.613v2.427c0 0.667 0.533 1.2 1.2 1.2s1.2-0.533 1.2-1.2v-5.333c-0.027-1.2-1.2-1.2-1.2-1.2z"></path>
</svg>
