<?xml version="1.0" encoding="utf-8"?>
<!-- Generated by IcoMoon.io -->
<!DOCTYPE svg PUBLIC "-//W3C//DTD SVG 1.1//EN" "http://www.w3.org/Graphics/SVG/1.1/DTD/svg11.dtd">
<svg version="1.1" xmlns="http://www.w3.org/2000/svg" xmlns:xlink="http://www.w3.org/1999/xlink" width="32" height="32" viewBox="0 0 32 32">
<path d="M21.333 20.133h-10.667c-0.663 0-1.2 0.537-1.2 1.2s0.537 1.2 1.2 1.2h10.667c0.663 0 1.2-0.537 1.2-1.2s-0.537-1.2-1.2-1.2z"></path>
<path d="M21.6 14.8h-10.667c-0.663 0-1.2 0.537-1.2 1.2s0.537 1.2 1.2 1.2h10.667c0.663 0 1.2-0.537 1.2-1.2s-0.537-1.2-1.2-1.2z"></path>
<path d="M28 2.8h-2.8v-1.467c0-0.663-0.537-1.2-1.2-1.2s-1.2 0.537-1.2 1.2v1.467h-1.6v-1.467c0-0.663-0.537-1.2-1.2-1.2s-1.2 0.537-1.2 1.2v1.467h-1.6v-1.467c0-0.663-0.537-1.2-1.2-1.2s-1.2 0.537-1.2 1.2v1.467h-1.6v-1.467c0-0.663-0.537-1.2-1.2-1.2s-1.2 0.537-1.2 1.2v1.467h-1.6v-1.467c0-0.663-0.537-1.2-1.2-1.2s-1.2 0.537-1.2 1.2v1.467h-2.8c-0.663 0-1.2 0.537-1.2 1.2v24c0 0.663 0.537 1.2 1.2 1.2h24c0.663 0 1.2-0.537 1.2-1.2v-24c0-0.663-0.537-1.2-1.2-1.2zM26.8 26.8h-21.6v-21.6h1.6v1.467c0 0.663 0.537 1.2 1.2 1.2s1.2-0.537 1.2-1.2v-1.467h1.6v1.467c0 0.663 0.537 1.2 1.2 1.2s1.2-0.537 1.2-1.2v-1.467h1.6v1.467c0 0.663 0.537 1.2 1.2 1.2s1.2-0.537 1.2-1.2v-1.467h1.6v1.467c0 0.663 0.537 1.2 1.2 1.2s1.2-0.537 1.2-1.2v-1.467h1.6v1.467c0 0.663 0.537 1.2 1.2 1.2s1.2-0.537 1.2-1.2v-1.467h1.6v21.6z"></path>
</svg>
