<?xml version="1.0" encoding="utf-8"?>
<!-- Generated by IcoMoon.io -->
<!DOCTYPE svg PUBLIC "-//W3C//DTD SVG 1.1//EN" "http://www.w3.org/Graphics/SVG/1.1/DTD/svg11.dtd">
<svg version="1.1" xmlns="http://www.w3.org/2000/svg" xmlns:xlink="http://www.w3.org/1999/xlink" width="32" height="32" viewBox="0 0 32 32">
<path d="M28 8.133h-4.133v-4.133c0-0.663-0.537-1.2-1.2-1.2h-18.667c-0.663 0-1.2 0.537-1.2 1.2v18.667c0 0.663 0.537 1.2 1.2 1.2h4.133v4.133c0 0.663 0.537 1.2 1.2 1.2h18.667c0.663 0 1.2-0.537 1.2-1.2v-18.667c0-0.663-0.537-1.2-1.2-1.2zM5.2 21.467v-16.267h16.267v2.933h-12.133c-0.663 0-1.2 0.537-1.2 1.2v12.133h-2.933zM26.8 26.8h-16.267v-16.267h16.267v16.267z"></path>
</svg>
