<?xml version="1.0" encoding="utf-8"?>
<!-- Generated by IcoMoon.io -->
<!DOCTYPE svg PUBLIC "-//W3C//DTD SVG 1.1//EN" "http://www.w3.org/Graphics/SVG/1.1/DTD/svg11.dtd">
<svg version="1.1" xmlns="http://www.w3.org/2000/svg" xmlns:xlink="http://www.w3.org/1999/xlink" width="32" height="32" viewBox="0 0 32 32">
<path d="M21.333 11.867c0.663 0 1.2-0.537 1.2-1.2s-0.537-1.2-1.2-1.2h-10.667c-0.663 0-1.2 0.537-1.2 1.2v10.667c0 0.663 0.537 1.2 1.2 1.2h10.667c0.663 0 1.2-0.537 1.2-1.2s-0.537-1.2-1.2-1.2h-9.467v-2.933h8.133c0.663 0 1.2-0.537 1.2-1.2s-0.537-1.2-1.2-1.2h-8.133v-2.933h9.467z"></path>
<path d="M24.571 2.8h-17.141c-2.556 0.003-4.626 2.074-4.629 4.629v17.142c0.003 2.555 2.074 4.626 4.629 4.629h17.142c2.555-0.003 4.626-2.074 4.629-4.629v-17.142c-0.003-2.556-2.074-4.626-4.629-4.629zM26.8 24.571c-0.002 1.231-0.999 2.228-2.229 2.229h-17.141c-1.231-0.002-2.228-0.999-2.229-2.229v-17.141c0.002-1.231 0.999-2.228 2.229-2.229h17.141c1.231 0.002 2.228 0.999 2.229 2.229v17.141z"></path>
</svg>
