<?xml version="1.0" encoding="utf-8"?>
<!-- Generated by IcoMoon.io -->
<!DOCTYPE svg PUBLIC "-//W3C//DTD SVG 1.1//EN" "http://www.w3.org/Graphics/SVG/1.1/DTD/svg11.dtd">
<svg version="1.1" xmlns="http://www.w3.org/2000/svg" xmlns:xlink="http://www.w3.org/1999/xlink" width="32" height="32" viewBox="0 0 32 32">
<path d="M25.333 6.8h-4.133v-2.8c0-0.663-0.537-1.2-1.2-1.2h-8c-0.663 0-1.2 0.537-1.2 1.2v2.8h-4.167c-2.132 0-3.867 1.735-3.867 3.867v12.667c0 2.132 1.735 3.867 3.867 3.867h0.167v0.8c0 0.663 0.537 1.2 1.2 1.2s1.2-0.537 1.2-1.2v-0.8h13.6v0.8c0 0.663 0.537 1.2 1.2 1.2s1.2-0.537 1.2-1.2v-0.8h0.133c2.132 0 3.867-1.735 3.867-3.867v-12.667c0-2.132-1.735-3.867-3.867-3.867zM13.2 5.2h5.6v1.6h-5.6v-1.6zM6.633 24.8c-0.809 0-1.467-0.658-1.467-1.467v-12.667c0-0.809 0.658-1.467 1.467-1.467h0.167v15.6h-0.167zM9.2 24.8v-15.6h13.6v15.6h-13.6zM26.8 23.333c0 0.809-0.658 1.467-1.467 1.467h-0.133v-15.6h0.133c0.809 0 1.467 0.658 1.467 1.467v12.667z"></path>
</svg>
