<?xml version="1.0" encoding="utf-8"?>
<!-- Generated by IcoMoon.io -->
<!DOCTYPE svg PUBLIC "-//W3C//DTD SVG 1.1//EN" "http://www.w3.org/Graphics/SVG/1.1/DTD/svg11.dtd">
<svg version="1.1" xmlns="http://www.w3.org/2000/svg" xmlns:xlink="http://www.w3.org/1999/xlink" width="32" height="32" viewBox="0 0 32 32">
<path d="M10.667 14.533h10.667c0.663 0 1.2-0.537 1.2-1.2s-0.537-1.2-1.2-1.2h-10.667c-0.663 0-1.2 0.537-1.2 1.2s0.537 1.2 1.2 1.2z"></path>
<path d="M10.667 18.533h10.667c0.663 0 1.2-0.537 1.2-1.2s-0.537-1.2-1.2-1.2h-10.667c-0.663 0-1.2 0.537-1.2 1.2s0.537 1.2 1.2 1.2z"></path>
<path d="M10.667 10.533h8c0.663 0 1.2-0.537 1.2-1.2s-0.537-1.2-1.2-1.2h-8c-0.663 0-1.2 0.537-1.2 1.2s0.537 1.2 1.2 1.2z"></path>
<path d="M6.667 29.2h18.666c0.002 0 0.003-0 0.005 0 0.663 0 1.2-0.537 1.2-1.2 0-0.038-0.002-0.077-0.005-0.114l-0.001-18.553c0-0.318-0.126-0.623-0.351-0.849l-5.333-5.333c-0.225-0.225-0.53-0.351-0.849-0.351h-13.333c-0.318 0-0.623 0.126-0.849 0.351s-0.351 0.53-0.351 0.849l0.001 23.999c0 0.663 0.537 1.2 1.2 1.2zM19.502 5.201l4.63 4.63 0.001 16.97h-16.266l-0.001-21.599h11.636z"></path>
</svg>
