<?xml version="1.0" encoding="utf-8"?>
<!-- Generated by IcoMoon.io -->
<!DOCTYPE svg PUBLIC "-//W3C//DTD SVG 1.1//EN" "http://www.w3.org/Graphics/SVG/1.1/DTD/svg11.dtd">
<svg version="1.1" xmlns="http://www.w3.org/2000/svg" xmlns:xlink="http://www.w3.org/1999/xlink" width="32" height="32" viewBox="0 0 32 32">
<path d="M13.2 20.335l6.069-4.335-6.069-4.335z"></path>
<path d="M16 0.133c-8.749 0-15.867 7.118-15.867 15.867s7.118 15.867 15.867 15.867 15.867-7.118 15.867-15.867-7.118-15.867-15.867-15.867zM22.031 16.977l-9.333 6.667c-0.207 0.148-0.452 0.223-0.697 0.223-0.188 0-0.376-0.044-0.549-0.133-0.4-0.206-0.651-0.617-0.651-1.067v-13.333c0-0.45 0.251-0.861 0.651-1.067s0.881-0.171 1.247 0.090l9.333 6.667c0.315 0.225 0.502 0.589 0.502 0.977s-0.187 0.751-0.503 0.977z"></path>
</svg>
