<?xml version="1.0" encoding="utf-8"?>
<!-- Generated by IcoMoon.io -->
<!DOCTYPE svg PUBLIC "-//W3C//DTD SVG 1.1//EN" "http://www.w3.org/Graphics/SVG/1.1/DTD/svg11.dtd">
<svg version="1.1" xmlns="http://www.w3.org/2000/svg" xmlns:xlink="http://www.w3.org/1999/xlink" width="32" height="32" viewBox="0 0 32 32">
<path d="M28 12.133h-2.201c-0.043-0.11-0.089-0.22-0.136-0.328l1.556-1.556c0.225-0.225 0.351-0.53 0.351-0.849s-0.127-0.623-0.351-0.849l-3.771-3.771c-0.469-0.469-1.229-0.469-1.697 0l-1.557 1.556c-0.108-0.047-0.218-0.092-0.328-0.135v-2.202c0-0.663-0.537-1.2-1.2-1.2h-5.334c-0.663 0-1.2 0.537-1.2 1.2v2.202c-0.11 0.043-0.219 0.089-0.328 0.135l-1.557-1.556c-0.468-0.469-1.229-0.469-1.697 0l-3.771 3.771c-0.225 0.225-0.351 0.53-0.351 0.849s0.127 0.623 0.351 0.849l1.556 1.556c-0.047 0.109-0.092 0.218-0.135 0.328h-2.201c-0.663 0-1.2 0.537-1.2 1.2v5.333c0 0.663 0.537 1.2 1.2 1.2h2.201c0.043 0.11 0.089 0.22 0.135 0.328l-1.556 1.556c-0.469 0.469-0.469 1.228 0 1.697l3.771 3.771c0.225 0.225 0.53 0.351 0.849 0.351s0.623-0.127 0.849-0.351l1.555-1.556c0.109 0.047 0.218 0.093 0.329 0.136v2.201c0 0.663 0.537 1.2 1.2 1.2h5.333c0.663 0 1.2-0.537 1.2-1.2v-2.201c0.11-0.043 0.22-0.089 0.329-0.136l1.555 1.556c0.225 0.225 0.53 0.351 0.849 0.351s0.623-0.127 0.849-0.351l3.771-3.771c0.469-0.469 0.469-1.228 0-1.697l-1.556-1.556c0.047-0.109 0.092-0.218 0.135-0.328h2.201c0.663 0 1.2-0.537 1.2-1.2v-5.333c0-0.663-0.537-1.2-1.2-1.2zM26.8 17.467h-1.855c-0.531 0-0.998 0.349-1.15 0.857-0.161 0.54-0.376 1.060-0.638 1.544-0.253 0.467-0.169 1.045 0.206 1.42l1.311 1.311-2.074 2.074-1.31-1.311c-0.376-0.376-0.953-0.46-1.42-0.206-0.486 0.263-1.006 0.478-1.545 0.638-0.509 0.151-0.858 0.619-0.858 1.15v1.855h-2.933v-1.855c0-0.531-0.349-0.999-0.858-1.15-0.539-0.161-1.059-0.375-1.544-0.638-0.467-0.253-1.045-0.17-1.421 0.206l-1.31 1.311-2.074-2.074 1.311-1.311c0.376-0.375 0.46-0.953 0.206-1.42-0.262-0.484-0.477-1.004-0.638-1.544-0.151-0.509-0.619-0.857-1.15-0.857h-1.855v-2.933h1.856c0.531 0 0.999-0.349 1.15-0.858 0.16-0.539 0.375-1.058 0.638-1.543 0.253-0.467 0.169-1.045-0.206-1.421l-1.311-1.311 2.074-2.074 1.311 1.311c0.375 0.376 0.954 0.46 1.42 0.206 0.485-0.263 1.004-0.477 1.543-0.638 0.509-0.151 0.858-0.619 0.858-1.15v-1.856h2.933v1.856c0 0.531 0.349 0.999 0.858 1.15 0.539 0.161 1.059 0.375 1.543 0.638 0.467 0.253 1.045 0.17 1.42-0.206l1.311-1.311 2.074 2.074-1.311 1.311c-0.376 0.376-0.46 0.954-0.206 1.421 0.263 0.485 0.478 1.004 0.638 1.544 0.151 0.509 0.619 0.858 1.15 0.858h1.856v2.933z"></path>
<path d="M16 10.050c-3.281 0-5.95 2.669-5.95 5.95s2.669 5.95 5.95 5.95 5.95-2.669 5.95-5.95-2.669-5.95-5.95-5.95zM16 19.55c-1.958 0-3.55-1.593-3.55-3.55s1.592-3.55 3.55-3.55 3.55 1.593 3.55 3.55-1.592 3.55-3.55 3.55z"></path>
</svg>
