<?xml version="1.0" encoding="utf-8"?>
<!-- Generated by IcoMoon.io -->
<!DOCTYPE svg PUBLIC "-//W3C//DTD SVG 1.1//EN" "http://www.w3.org/Graphics/SVG/1.1/DTD/svg11.dtd">
<svg version="1.1" xmlns="http://www.w3.org/2000/svg" xmlns:xlink="http://www.w3.org/1999/xlink" width="32" height="32" viewBox="0 0 32 32">
<path d="M28 8.133h-5.757c0.186-0.453 0.291-0.947 0.291-1.467 0-2.132-1.735-3.867-3.867-3.867-1.034 0-1.972 0.41-2.667 1.074-0.694-0.663-1.633-1.074-2.667-1.074-2.132 0-3.867 1.735-3.867 3.867 0 0.519 0.105 1.014 0.291 1.467h-5.757c-0.663 0-1.2 0.537-1.2 1.2v5.333c0 0.663 0.537 1.2 1.2 1.2h1.467v12.133c0 0.663 0.537 1.2 1.2 1.2h18.667c0.663 0 1.2-0.537 1.2-1.2v-12.133h1.467c0.663 0 1.2-0.537 1.2-1.2v-5.333c0-0.663-0.537-1.2-1.2-1.2zM18.667 5.2c0.809 0 1.467 0.658 1.467 1.467s-0.658 1.467-1.467 1.467h-1.467v-1.467c0-0.809 0.658-1.467 1.467-1.467zM11.867 6.667c0-0.809 0.658-1.467 1.467-1.467s1.467 0.658 1.467 1.467v1.467h-1.467c-0.809 0-1.467-0.658-1.467-1.467zM5.2 10.533h9.6v2.933h-9.6v-2.933zM7.867 15.867h6.933v10.933h-6.933v-10.933zM24.133 26.8h-6.933v-10.933h6.933v10.933zM26.8 13.467h-9.6v-2.933h9.6v2.933z"></path>
</svg>
