<?xml version="1.0" encoding="utf-8"?>
<!-- Generated by IcoMoon.io -->
<!DOCTYPE svg PUBLIC "-//W3C//DTD SVG 1.1//EN" "http://www.w3.org/Graphics/SVG/1.1/DTD/svg11.dtd">
<svg version="1.1" xmlns="http://www.w3.org/2000/svg" xmlns:xlink="http://www.w3.org/1999/xlink" width="32" height="32" viewBox="0 0 32 32">
<path d="M7.031 27.628c-0.161 0.494 0.014 1.036 0.434 1.342 0.211 0.154 0.459 0.23 0.707 0.23 0.247 0 0.494-0.076 0.704-0.228l7.828-5.666c0.312-0.226 0.496-0.587 0.496-0.972v-18.334c0-0.59-0.429-1.093-1.012-1.185-0.582-0.092-1.146 0.252-1.329 0.813l-2.72 8.339h-8.806c-0.52 0-0.981 0.335-1.142 0.83s0.017 1.037 0.438 1.342l7.12 5.153-2.719 8.336z"></path>
</svg>
