<?xml version="1.0" encoding="utf-8"?>
<!-- Generated by IcoMoon.io -->
<!DOCTYPE svg PUBLIC "-//W3C//DTD SVG 1.1//EN" "http://www.w3.org/Graphics/SVG/1.1/DTD/svg11.dtd">
<svg version="1.1" xmlns="http://www.w3.org/2000/svg" xmlns:xlink="http://www.w3.org/1999/xlink" width="32" height="32" viewBox="0 0 32 32">
<path d="M26.16 7.573c0.24-0.24 0.453-0.48 0.64-0.64 0.587-0.587 0.987-1.013 0.693-1.76-0.080-0.16-0.16-0.32-0.293-0.427-3.013-2.987-6.987-4.613-11.2-4.613-0.667 0-1.2 0.533-1.2 1.2v1.52c-3.067 0.267-5.92 1.6-8.133 3.813-2.48 2.48-3.867 5.813-3.867 9.333s1.36 6.853 3.867 9.333 5.813 3.867 9.333 3.867 6.853-1.36 9.333-3.867c2.48-2.48 3.867-5.813 3.867-9.333 0-3.12-1.067-6.053-3.040-8.427zM17.2 2.587c2.747 0.24 5.333 1.307 7.467 3.093-0.24 0.24-0.507 0.507-0.8 0.827-0.080 0.053-0.16 0.107-0.213 0.16-0.32 0.32-4.027 4.027-6.427 6.427v-10.507zM15.547 17.12c0.8 0.32 1.307-0.267 1.307-0.267 0.187-0.187 2.693-2.667 5.173-5.147 0.827-0.827 1.68-1.653 2.427-2.4 1.52 1.893 2.347 4.24 2.347 6.72 0 2.88-1.12 5.6-3.173 7.627-2.027 2.027-4.747 3.147-7.627 3.147s-5.6-1.12-7.627-3.173c-2.053-2.027-3.173-4.747-3.173-7.627s1.12-5.6 3.173-7.627c1.76-1.76 4-2.827 6.427-3.093v10.72c0 0.133-0.027 0.8 0.747 1.12z"></path>
</svg>
