<?xml version="1.0" encoding="utf-8"?>
<!-- Generated by IcoMoon.io -->
<!DOCTYPE svg PUBLIC "-//W3C//DTD SVG 1.1//EN" "http://www.w3.org/Graphics/SVG/1.1/DTD/svg11.dtd">
<svg version="1.1" xmlns="http://www.w3.org/2000/svg" xmlns:xlink="http://www.w3.org/1999/xlink" width="32" height="32" viewBox="0 0 32 32">
<path d="M8 29.2h16c0.667 0 1.2-0.533 1.2-1.2s-0.533-1.2-1.2-1.2h-16c-0.667 0-1.2 0.533-1.2 1.2s0.533 1.2 1.2 1.2z"></path>
<path d="M16.853 24.853l8-8c0.48-0.48 0.48-1.227 0-1.707s-1.227-0.48-1.707 0l-5.947 5.947v-13.093c0-0.667-0.533-1.2-1.2-1.2s-1.2 0.533-1.2 1.2v13.093l-5.947-5.947c-0.48-0.48-1.227-0.48-1.707 0s-0.48 1.227 0 1.707l8 8c0 0 0.8 0.8 1.707 0z"></path>
</svg>
