<?xml version="1.0" encoding="utf-8"?>
<!-- Generated by IcoMoon.io -->
<!DOCTYPE svg PUBLIC "-//W3C//DTD SVG 1.1//EN" "http://www.w3.org/Graphics/SVG/1.1/DTD/svg11.dtd">
<svg version="1.1" xmlns="http://www.w3.org/2000/svg" xmlns:xlink="http://www.w3.org/1999/xlink" width="32" height="32" viewBox="0 0 32 32">
<path fill="#737373" d="M28.061 26.8h-24.061c-0.663 0-1.2 0.537-1.2 1.2s0.537 1.2 1.2 1.2h24.061c0.663 0 1.2-0.537 1.2-1.2s-0.537-1.2-1.2-1.2z"></path>
<path fill="#737373" d="M5.258 17.081c-0.527-0.253-1.159-0.090-1.498 0.387s-0.285 1.127 0.128 1.541l3.387 3.405c0.227 0.229 0.534 0.354 0.851 0.354 0.078 0 0.156-0.007 0.234-0.023l18.985-3.777c0.008-0.001 0.015-0.003 0.023-0.005 0.487-0.098 0.906-0.38 1.182-0.793 0.277-0.415 0.376-0.912 0.279-1.402-0.173-0.87-0.943-1.502-1.83-1.502-0.116 0-0.233 0.011-0.357 0.035-0.008 0.001-0.017 0.003-0.025 0.005l-5.49 1.092-10.973-9.497c-0.393-0.34-0.974-0.347-1.375-0.018s-0.507 0.901-0.25 1.353l5.462 9.581-5.090 1.013-3.643-1.749z"></path>
</svg>
