<?xml version="1.0" encoding="utf-8"?>
<!-- Generated by IcoMoon.io -->
<!DOCTYPE svg PUBLIC "-//W3C//DTD SVG 1.1//EN" "http://www.w3.org/Graphics/SVG/1.1/DTD/svg11.dtd">
<svg version="1.1" xmlns="http://www.w3.org/2000/svg" xmlns:xlink="http://www.w3.org/1999/xlink" width="32" height="32" viewBox="0 0 32 32">
<path d="M16 2.8c-5.813 0-10.533 4.72-10.533 10.533 0 3.92 2.133 7.36 5.333 9.173v8.16c0 0.453 0.24 0.853 0.64 1.067s0.853 0.187 1.227-0.053l3.333-2.213 3.333 2.213c0.213 0.133 0.427 0.213 0.667 0.213 0.187 0 0.4-0.053 0.56-0.133 0.4-0.213 0.64-0.613 0.64-1.067v-8.187c3.2-1.813 5.333-5.253 5.333-9.173 0-5.813-4.72-10.533-10.533-10.533zM19.707 11.333l-2.64 5.333c-0.16 0.347-0.507 0.587-0.88 0.64-0.053 0.027-0.133 0.027-0.187 0.027-0.32 0-0.613-0.107-0.853-0.347l-2.693-2.667c-0.48-0.48-0.48-1.227 0-1.707s1.227-0.48 1.707 0l1.493 1.493 1.92-3.84c0.293-0.587 1.013-0.827 1.6-0.533s0.827 1.013 0.533 1.6z"></path>
</svg>
