<?xml version="1.0" encoding="utf-8"?>
<!-- Generated by IcoMoon.io -->
<!DOCTYPE svg PUBLIC "-//W3C//DTD SVG 1.1//EN" "http://www.w3.org/Graphics/SVG/1.1/DTD/svg11.dtd">
<svg version="1.1" xmlns="http://www.w3.org/2000/svg" xmlns:xlink="http://www.w3.org/1999/xlink" width="32" height="32" viewBox="0 0 32 32">
<path d="M15.52 1.573l-9.333 4c-0.453 0.187-0.72 0.613-0.72 1.093v21.333c0 0.667 0.533 1.2 1.2 1.2h5.333c0.667 0 1.2-0.533 1.2-1.2 0-1.547 1.253-2.8 2.8-2.8s2.8 1.253 2.8 2.8c0 0.667 0.533 1.2 1.2 1.2h5.333c0.667 0 1.2-0.533 1.2-1.2v-21.333c0-0.48-0.293-0.907-0.72-1.093l-9.333-4c-0.507-0.24-0.96 0-0.96 0zM24.133 26.8h-3.067c-0.533-2.293-2.613-4-5.067-4s-4.507 1.707-5.067 4h-3.067v-19.333l8.133-3.493 8.133 3.493v19.333z"></path>
<path d="M14.533 9.333c0-0.667-0.533-1.2-1.2-1.2s-1.2 0.533-1.2 1.2v10.667c0 0.667 0.533 1.2 1.2 1.2s1.2-0.533 1.2-1.2v-4.133h2.933v4.133c0 0.667 0.533 1.2 1.2 1.2s1.2-0.533 1.2-1.2v-10.667c0-0.667-0.533-1.2-1.2-1.2s-1.2 0.533-1.2 1.2v4.133h-2.933v-4.133z"></path>
</svg>
