<?xml version="1.0" encoding="utf-8"?>
<!-- Generated by IcoMoon.io -->
<!DOCTYPE svg PUBLIC "-//W3C//DTD SVG 1.1//EN" "http://www.w3.org/Graphics/SVG/1.1/DTD/svg11.dtd">
<svg version="1.1" xmlns="http://www.w3.org/2000/svg" xmlns:xlink="http://www.w3.org/1999/xlink" width="32" height="32" viewBox="0 0 32 32">
<path d="M18.050 23.421c-0.065-0.090-0.146-0.159-0.242-0.209s-0.208-0.075-0.332-0.075c-0.125 0-0.235 0.025-0.332 0.075s-0.179 0.119-0.246 0.209-0.118 0.195-0.153 0.317c-0.035 0.122-0.052 0.255-0.052 0.399s0.017 0.278 0.052 0.399c0.035 0.122 0.086 0.228 0.153 0.317s0.149 0.159 0.246 0.209 0.208 0.074 0.332 0.074c0.124 0 0.234-0.025 0.328-0.074s0.175-0.119 0.243-0.209 0.118-0.194 0.153-0.314c0.035-0.119 0.052-0.254 0.052-0.403 0-0.144-0.018-0.277-0.052-0.399s-0.085-0.227-0.149-0.317z"></path>
<path d="M12.319 23.697c-0.077-0.070-0.183-0.123-0.317-0.161s-0.306-0.056-0.515-0.056h-0.859v1.561h0.941c0.169 0 0.315-0.021 0.437-0.063s0.222-0.099 0.299-0.172c0.077-0.072 0.133-0.157 0.168-0.254s0.052-0.198 0.052-0.303c0-0.109-0.015-0.211-0.045-0.306s-0.083-0.177-0.16-0.246z"></path>
<path d="M20.364 26.206c0 0.075 0.021 0.141 0.063 0.198s0.101 0.106 0.175 0.146 0.164 0.070 0.269 0.090c0.105 0.020 0.219 0.030 0.343 0.030 0.249 0 0.442-0.034 0.579-0.101s0.206-0.166 0.206-0.295c0-0.194-0.152-0.314-0.455-0.358l-0.665-0.105c-0.010-0.005-0.024-0.009-0.041-0.011s-0.037-0.005-0.060-0.007-0.044-0.005-0.063-0.007c-0.020-0.002-0.035-0.006-0.045-0.011-0.085 0.045-0.157 0.103-0.217 0.175s-0.090 0.158-0.090 0.258z"></path>
<path d="M11.875 22.7c0.114-0.037 0.203-0.088 0.265-0.153s0.102-0.137 0.119-0.217 0.026-0.162 0.026-0.247c0-0.090-0.014-0.172-0.041-0.246s-0.073-0.138-0.138-0.19c-0.065-0.052-0.148-0.092-0.25-0.119s-0.225-0.041-0.37-0.041h-0.859v1.269h0.792c0.189 0 0.341-0.019 0.456-0.056z"></path>
<path d="M21.134 23.040c-0.214 0-0.377 0.051-0.489 0.153s-0.168 0.245-0.168 0.429 0.056 0.326 0.168 0.426c0.112 0.1 0.275 0.15 0.489 0.15 0.094 0 0.18-0.014 0.258-0.041s0.143-0.067 0.198-0.119c0.055-0.052 0.097-0.113 0.127-0.183s0.045-0.147 0.045-0.231c0-0.184-0.055-0.327-0.164-0.429s-0.264-0.153-0.463-0.153z"></path>
<path d="M28 2.933h-24c-0.589 0-1.067 0.478-1.067 1.067v24c0 0.589 0.478 1.067 1.067 1.067h24c0.589 0 1.067-0.478 1.067-1.067v-24c0-0.589-0.478-1.067-1.067-1.067zM13.331 24.899c-0.080 0.179-0.195 0.334-0.347 0.463s-0.337 0.229-0.556 0.299c-0.219 0.070-0.468 0.105-0.747 0.105h-1.501c-0.11 0-0.192-0.006-0.246-0.019s-0.092-0.029-0.112-0.049c-0.020-0.020-0.036-0.045-0.049-0.075s-0.018-0.072-0.018-0.127v-4.465c0-0.055 0.006-0.097 0.018-0.127s0.029-0.055 0.049-0.074c0.020-0.020 0.057-0.036 0.112-0.049s0.137-0.018 0.246-0.018h1.478c0.234 0 0.446 0.027 0.635 0.082s0.35 0.133 0.482 0.235c0.132 0.102 0.234 0.228 0.306 0.377s0.108 0.316 0.108 0.5c0 0.154-0.016 0.291-0.049 0.411s-0.077 0.223-0.135 0.31c-0.057 0.087-0.123 0.162-0.198 0.224s-0.152 0.113-0.231 0.153c0.109 0.040 0.217 0.092 0.321 0.157s0.197 0.147 0.276 0.246c0.079 0.1 0.146 0.219 0.198 0.358s0.078 0.301 0.078 0.485c0 0.219-0.039 0.418-0.119 0.597zM11.319 10.967l-0.814 0.058c-0.662 0.048-0.688-0.511-0.688-0.822 0-0.615 0.228-0.834 0.638-0.834h3.191c0.313 0 0.549 0.099 0.642 0.543 0.103 0.494 0.060 0.838-0.495 0.878l-1.002 0.071c0.737 4.659 5.049 6.178 7.397 1.159 0.388-0.83 0.515-0.982 0.941-0.876 0.577 0.143 0.656 0.44 0.381 1.277-2.030 6.187-8.852 6.807-10.19-1.455zM15.093 25.541c0 0.050-0.005 0.086-0.015 0.108s-0.027 0.046-0.052 0.071-0.066 0.043-0.123 0.056c-0.057 0.012-0.138 0.018-0.243 0.018-0.099 0-0.178-0.006-0.235-0.018s-0.096-0.029-0.116-0.049c-0.025-0.020-0.042-0.042-0.052-0.067s-0.015-0.062-0.015-0.112v-4.42c0-0.124 0.020-0.204 0.060-0.239 0.025-0.025 0.063-0.046 0.116-0.063s0.111-0.034 0.175-0.049c0.060-0.015 0.117-0.026 0.172-0.034s0.099-0.011 0.134-0.011c0.030 0 0.058 0.003 0.086 0.007s0.051 0.018 0.071 0.038c0.020 0.020 0.031 0.042 0.034 0.067s0.004 0.065 0.004 0.119v4.577zM18.994 24.832c-0.082 0.209-0.197 0.388-0.343 0.538s-0.321 0.265-0.523 0.347c-0.202 0.082-0.419 0.123-0.653 0.123s-0.452-0.041-0.653-0.123c-0.202-0.082-0.376-0.198-0.523-0.347s-0.261-0.328-0.343-0.538-0.123-0.441-0.123-0.694 0.041-0.485 0.123-0.694 0.195-0.388 0.34-0.538c0.144-0.149 0.317-0.265 0.519-0.347s0.422-0.123 0.661-0.123c0.234 0 0.451 0.041 0.653 0.123s0.376 0.197 0.523 0.343c0.147 0.147 0.261 0.326 0.343 0.538s0.123 0.444 0.123 0.698-0.041 0.486-0.123 0.695zM22.87 22.719c-0.027 0.030-0.063 0.055-0.108 0.074-0.010 0.005-0.031 0.017-0.063 0.034s-0.069 0.036-0.108 0.056c-0.040 0.020-0.080 0.040-0.119 0.060s-0.070 0.037-0.090 0.052c0.055 0.085 0.097 0.181 0.127 0.287s0.045 0.22 0.045 0.34c0 0.174-0.034 0.331-0.101 0.47s-0.163 0.259-0.287 0.358c-0.125 0.1-0.271 0.175-0.44 0.228s-0.354 0.078-0.553 0.078c-0.070 0-0.136-0.005-0.198-0.015s-0.121-0.020-0.175-0.030c-0.040 0.025-0.072 0.055-0.097 0.090s-0.038 0.072-0.038 0.112c0 0.030 0.006 0.055 0.019 0.075s0.035 0.041 0.067 0.063c0.032 0.022 0.076 0.041 0.131 0.056s0.122 0.027 0.202 0.037l0.515 0.067c0.199 0.025 0.377 0.060 0.534 0.105s0.287 0.105 0.392 0.179c0.105 0.074 0.184 0.169 0.239 0.283s0.082 0.254 0.082 0.418c0 0.179-0.041 0.333-0.123 0.463s-0.197 0.238-0.343 0.325c-0.147 0.087-0.323 0.151-0.53 0.194s-0.432 0.063-0.676 0.063c-0.249 0-0.472-0.022-0.668-0.067s-0.362-0.11-0.497-0.194-0.238-0.185-0.31-0.302-0.108-0.248-0.108-0.392c0-0.11 0.016-0.206 0.049-0.287s0.076-0.154 0.131-0.217c0.055-0.062 0.116-0.114 0.183-0.157s0.141-0.078 0.22-0.108c-0.085-0.060-0.15-0.131-0.198-0.213s-0.071-0.165-0.071-0.25c0-0.105 0.030-0.202 0.090-0.291s0.142-0.157 0.246-0.202c-0.174-0.1-0.31-0.228-0.407-0.385s-0.146-0.342-0.146-0.556c0-0.164 0.032-0.316 0.097-0.455s0.158-0.261 0.28-0.366 0.273-0.187 0.452-0.246c0.179-0.060 0.383-0.090 0.612-0.090 0.159 0 0.304 0.014 0.433 0.041s0.241 0.063 0.336 0.108c0.085-0.075 0.163-0.142 0.235-0.202s0.143-0.109 0.213-0.149c0.040-0.025 0.077-0.044 0.112-0.056s0.070-0.019 0.105-0.019c0.050 0 0.093 0.015 0.131 0.045s0.076 0.072 0.116 0.127c0.035 0.050 0.061 0.095 0.078 0.134s0.026 0.080 0.026 0.119-0.016 0.075-0.043 0.105zM22.057 8.746c-0.654 0-1.184-0.53-1.184-1.185s0.53-1.185 1.184-1.185c0.654 0 1.185 0.53 1.185 1.185s-0.53 1.185-1.185 1.185z"></path>
</svg>
