<?xml version="1.0" encoding="utf-8"?>
<!-- Generated by IcoMoon.io -->
<!DOCTYPE svg PUBLIC "-//W3C//DTD SVG 1.1//EN" "http://www.w3.org/Graphics/SVG/1.1/DTD/svg11.dtd">
<svg version="1.1" xmlns="http://www.w3.org/2000/svg" xmlns:xlink="http://www.w3.org/1999/xlink" width="32" height="32" viewBox="0 0 32 32">
<path d="M16 25.2c-10.082 0-13.109-8.732-13.139-8.821-0.082-0.246-0.082-0.513 0-0.759 0.030-0.088 3.057-8.821 13.139-8.821s13.109 8.732 13.139 8.821c0.082 0.246 0.082 0.513 0 0.759-0.030 0.088-3.057 8.821-13.139 8.821zM5.289 16.005c0.642 1.503 3.421 6.795 10.711 6.795 3.52 0 6.419-1.215 8.615-3.611 1.174-1.281 1.825-2.576 2.095-3.194-0.642-1.503-3.421-6.795-10.711-6.795-3.52 0-6.419 1.215-8.615 3.611-1.174 1.281-1.825 2.576-2.095 3.194z"></path>
<path d="M16 21.2c-2.867 0-5.2-2.333-5.2-5.2 0-0.663 0.537-1.2 1.2-1.2s1.2 0.537 1.2 1.2c0 1.544 1.256 2.8 2.8 2.8s2.8-1.256 2.8-2.8-1.256-2.8-2.8-2.8c-0.663 0-1.2-0.537-1.2-1.2s0.537-1.2 1.2-1.2c2.867 0 5.2 2.333 5.2 5.2s-2.333 5.2-5.2 5.2z"></path>
</svg>
