<?xml version="1.0" encoding="utf-8"?>
<!-- Generated by IcoMoon.io -->
<!DOCTYPE svg PUBLIC "-//W3C//DTD SVG 1.1//EN" "http://www.w3.org/Graphics/SVG/1.1/DTD/svg11.dtd">
<svg version="1.1" xmlns="http://www.w3.org/2000/svg" xmlns:xlink="http://www.w3.org/1999/xlink" width="32" height="32" viewBox="0 0 32 32">
<path d="M16 29.2c0.307 0 0.614-0.117 0.849-0.351 1.264-1.264 12.351-12.515 12.351-18.182 0-4.338-3.529-7.867-7.867-7.867-2.013 0-3.893 0.745-5.333 2.080-1.44-1.335-3.321-2.080-5.333-2.080-4.338 0-7.867 3.529-7.867 7.867 0 5.667 11.087 16.918 12.351 18.182 0.234 0.234 0.542 0.351 0.849 0.351zM10.667 5.2c1.735 0 3.33 0.797 4.374 2.187 0.227 0.302 0.582 0.479 0.959 0.479s0.733-0.178 0.959-0.479c1.044-1.39 2.638-2.187 4.374-2.187 3.014 0 5.467 2.452 5.467 5.467 0 3.655-7.146 11.827-10.801 15.62-4.497-4.651-10.799-12.311-10.799-15.62 0-3.014 2.452-5.467 5.467-5.467z"></path>
</svg>
