<?xml version="1.0" encoding="utf-8"?>
<!-- Generated by IcoMoon.io -->
<!DOCTYPE svg PUBLIC "-//W3C//DTD SVG 1.1//EN" "http://www.w3.org/Graphics/SVG/1.1/DTD/svg11.dtd">
<svg version="1.1" xmlns="http://www.w3.org/2000/svg" xmlns:xlink="http://www.w3.org/1999/xlink" width="32" height="32" viewBox="0 0 32 32">
<path d="M15.977 2.8c-7.29 0-13.2 5.91-13.2 13.2 0 5.592 3.479 10.369 8.39 12.292-0.115-1.045-0.219-2.646 0.046-3.786 0.24-1.030 1.548-6.561 1.548-6.561s-0.395-0.791-0.395-1.96c0-1.835 1.064-3.206 2.389-3.206 1.126 0 1.67 0.846 1.67 1.859 0 1.133-0.721 2.826-1.093 4.395-0.311 1.314 0.659 2.385 1.955 2.385 2.346 0 4.15-2.474 4.15-6.045 0-3.161-2.271-5.37-5.514-5.37-3.756 0-5.96 2.817-5.96 5.729 0 1.134 0.437 2.351 0.982 3.012 0.108 0.131 0.124 0.245 0.091 0.379-0.1 0.417-0.323 1.314-0.367 1.497-0.058 0.242-0.191 0.293-0.441 0.177-1.649-0.768-2.679-3.178-2.679-5.114 0-4.164 3.025-7.988 8.722-7.988 4.579 0 8.138 3.263 8.138 7.624 0 4.549-2.869 8.21-6.85 8.21-1.338 0-2.595-0.695-3.025-1.516 0 0-0.662 2.52-0.822 3.138-0.298 1.147-1.102 2.584-1.641 3.461 1.235 0.382 2.547 0.589 3.908 0.589 7.29 0 13.2-5.91 13.2-13.2s-5.91-13.2-13.2-13.2z"></path>
</svg>
