<?xml version="1.0" encoding="utf-8"?>
<!-- Generated by IcoMoon.io -->
<!DOCTYPE svg PUBLIC "-//W3C//DTD SVG 1.1//EN" "http://www.w3.org/Graphics/SVG/1.1/DTD/svg11.dtd">
<svg version="1.1" xmlns="http://www.w3.org/2000/svg" xmlns:xlink="http://www.w3.org/1999/xlink" width="32" height="32" viewBox="0 0 32 32">
<path d="M28 14.8c0 0 0 0 0 0h-3.92c-1.173 0-2.133-0.96-2.133-2.133 0-0.56 0.213-1.093 0.587-1.467l2.8-2.853c0.453-0.48 0.453-1.227 0-1.707-0.48-0.48-1.227-0.48-1.707 0l-2.773 2.8c-0.613 0.613-1.52 0.773-2.267 0.48-0.027 0-0.053-0.027-0.080-0.027-0.24-0.107-0.48-0.24-0.667-0.453-0.4-0.4-0.613-0.907-0.613-1.467 0-0.080 0-0.16-0.027-0.24l0.027-3.733c0-0.667-0.533-1.2-1.2-1.2 0 0 0 0 0 0-0.667 0-1.2 0.533-1.2 1.2l-0.027 3.973c0 0.56-0.24 1.093-0.613 1.467-0.187 0.187-0.4 0.32-0.613 0.427-0.053 0.027-0.107 0.053-0.16 0.080-0.24 0.080-0.48 0.133-0.72 0.133-0.56 0-1.093-0.213-1.52-0.613l-2.827-2.8c-0.48-0.48-1.227-0.453-1.707 0-0.48 0.48-0.48 1.227 0 1.707l2.8 2.827c0.4 0.4 0.613 0.933 0.613 1.493 0 1.173-0.96 2.133-2.133 2.133h-3.92c0 0 0 0 0 0-0.667 0-1.2 0.533-1.2 1.2s0.533 1.2 1.2 1.2l3.973 0.027c0.56 0 1.093 0.24 1.467 0.613 0.16 0.16 0.293 0.32 0.373 0.507 0.053 0.107 0.080 0.24 0.133 0.347 0.053 0.213 0.107 0.427 0.107 0.64 0 0.56-0.213 1.093-0.613 1.52l-2.773 2.747c-0.48 0.48-0.48 1.227 0 1.707s1.227 0.48 1.707 0l2.827-2.8c0.4-0.4 0.933-0.613 1.493-0.613 0.267 0 0.507 0.053 0.747 0.133 0.053 0.027 0.080 0.027 0.133 0.053 0.72 0.32 1.227 1.013 1.253 1.813 0 0.053 0 0.080 0 0.133v3.92c0 0.667 0.533 1.2 1.2 1.2 0 0 0 0 0 0 0.667 0 1.2-0.533 1.2-1.2v-3.893c0-0.053 0-0.080 0-0.133 0.053-0.827 0.56-1.52 1.307-1.84 0.027 0 0.053-0.027 0.080-0.027 0.24-0.080 0.48-0.133 0.773-0.133 0.56 0 1.093 0.213 1.467 0.587l2.8 2.8c0.48 0.453 1.227 0.453 1.707 0 0.48-0.48 0.48-1.227 0-1.707l-2.8-2.773c-0.613-0.613-0.773-1.467-0.507-2.24 0.027-0.053 0.053-0.107 0.080-0.187 0.107-0.213 0.24-0.427 0.427-0.613 0.4-0.4 0.907-0.613 1.467-0.613l3.973-0.027c0.667 0 1.2-0.533 1.2-1.2 0-0.64-0.533-1.173-1.2-1.173z"></path>
</svg>
