<?xml version="1.0" encoding="utf-8"?>
<!-- Generated by IcoMoon.io -->
<!DOCTYPE svg PUBLIC "-//W3C//DTD SVG 1.1//EN" "http://www.w3.org/Graphics/SVG/1.1/DTD/svg11.dtd">
<svg version="1.1" xmlns="http://www.w3.org/2000/svg" xmlns:xlink="http://www.w3.org/1999/xlink" width="32" height="32" viewBox="0 0 32 32">
<path d="M29.107 21.744c0.162-0.394 0.109-0.854-0.166-1.201-1.345-1.696-3.753-3.732-6.343-4.797 0.143-0.61-0.205-1.23-0.806-1.419-1.821-0.571-3.753-0.861-5.742-0.861s-3.922 0.289-5.742 0.86c-0.589 0.185-0.933 0.784-0.813 1.382-2.625 1.054-5.074 3.118-6.435 4.835-0.275 0.347-0.328 0.807-0.166 1.201-0.347 0.578-1.427 2.517-1.427 4.275 0 0.247 0.077 0.489 0.219 0.691l1.333 1.892c0.227 0.322 0.594 0.509 0.981 0.509 0.053 0 0.106-0.003 0.159-0.011 0.102-0.014 2.207-0.302 4.114-1.005 0.124 0.042 0.251 0.070 0.382 0.070 0.172 0 0.346-0.037 0.51-0.114 1.069-0.502 2.229-0.876 3.457-1.12 0.213 0.181 0.484 0.288 0.774 0.288 0.055 0 0.111-0.004 0.168-0.012 1.607-0.226 3.264-0.226 4.871 0 0.352 0.050 0.689-0.061 0.942-0.276 1.228 0.244 2.388 0.618 3.457 1.12 0.163 0.077 0.338 0.114 0.51 0.114 0.131 0 0.259-0.028 0.382-0.070 1.908 0.703 4.012 0.991 4.115 1.005 0.053 0.007 0.106 0.011 0.159 0.011 0.387 0 0.754-0.187 0.981-0.509l1.333-1.892c0.142-0.202 0.219-0.444 0.219-0.691 0-1.758-1.080-3.697-1.427-4.275zM26.43 21.311l-3.431 4.183c-0.006 0.002-0.012 0.003-0.018 0.005-0.881-0.353-1.807-0.635-2.769-0.846l1.762-6.566c1.712 0.765 3.343 2.046 4.456 3.224zM10.096 18.057l1.707 6.593c-0.967 0.212-1.898 0.494-2.784 0.849-0.006-0.002-0.012-0.003-0.018-0.005l-3.431-4.183c1.129-1.194 2.789-2.493 4.526-3.254zM3.891 25.673c0.081-0.61 0.352-1.305 0.621-1.868l1.936 2.361c-0.719 0.204-1.411 0.349-1.901 0.439l-0.656-0.931zM14.298 24.71l-2.174-8.395c1.261-0.298 2.576-0.449 3.925-0.449 1.345 0 2.657 0.15 3.915 0.446l-2.253 8.398c-0.57-0.049-1.142-0.074-1.711-0.074-0.566 0-1.135 0.024-1.702 0.073zM27.453 26.605c-0.49-0.090-1.182-0.235-1.901-0.439l1.935-2.36c0.267 0.562 0.539 1.259 0.621 1.867l-0.656 0.931z"></path>
</svg>
