<?xml version="1.0" encoding="utf-8"?>
<!-- Generated by IcoMoon.io -->
<!DOCTYPE svg PUBLIC "-//W3C//DTD SVG 1.1//EN" "http://www.w3.org/Graphics/SVG/1.1/DTD/svg11.dtd">
<svg version="1.1" xmlns="http://www.w3.org/2000/svg" xmlns:xlink="http://www.w3.org/1999/xlink" width="32" height="32" viewBox="0 0 32 32">
<path d="M16 0.133c-4.338 0-7.867 3.529-7.867 7.867 0 0.663 0.537 1.2 1.2 1.2h4c0.663 0 1.2-0.537 1.2-1.2 0-0.809 0.658-1.467 1.467-1.467s1.467 0.658 1.467 1.467v1.333c0 0.809-0.658 1.467-1.467 1.467h-6.667c-0.663 0-1.2 0.537-1.2 1.2v13.333c0 2.132 1.735 3.867 3.867 3.867h8c2.132 0 3.867-1.735 3.867-3.867v-17.333c0-4.338-3.529-7.867-7.867-7.867zM21.467 25.333c0 0.809-0.658 1.467-1.467 1.467h-8c-0.809 0-1.467-0.658-1.467-1.467v-12.133h5.467c2.132 0 3.867-1.735 3.867-3.867v-1.333c0-2.132-1.735-3.867-3.867-3.867-1.713 0-3.17 1.12-3.676 2.667h-1.658c0.548-2.439 2.731-4.267 5.334-4.267 3.014 0 5.467 2.452 5.467 5.467v17.333z"></path>
<path d="M18.667 22.8h-5.333c-0.663 0-1.2 0.537-1.2 1.2s0.537 1.2 1.2 1.2h5.333c0.663 0 1.2-0.537 1.2-1.2s-0.537-1.2-1.2-1.2z"></path>
</svg>
