<?xml version="1.0" encoding="utf-8"?>
<!-- Generated by IcoMoon.io -->
<!DOCTYPE svg PUBLIC "-//W3C//DTD SVG 1.1//EN" "http://www.w3.org/Graphics/SVG/1.1/DTD/svg11.dtd">
<svg version="1.1" xmlns="http://www.w3.org/2000/svg" xmlns:xlink="http://www.w3.org/1999/xlink" width="32" height="32" viewBox="0 0 32 32">
<path d="M16 0.133c0 0 0 0 0 0-4.24 0-8.213 1.653-11.227 4.64-2.987 3.013-4.64 6.987-4.64 11.227s1.653 8.213 4.64 11.227c2.987 2.987 6.987 4.64 11.227 4.64 0 0 0 0 0 0 4.24 0 8.213-1.653 11.227-4.64 2.987-2.987 4.64-6.987 4.64-11.227s-1.653-8.213-4.64-11.227c-3.013-2.987-6.987-4.64-11.227-4.64zM25.52 25.52c-2.533 2.533-5.92 3.947-9.52 3.947s-6.987-1.413-9.52-3.947-3.947-5.92-3.947-9.52 1.413-6.987 3.947-9.52c2.533-2.533 5.92-3.947 9.52-3.947s6.987 1.413 9.52 3.947 3.947 5.92 3.947 9.52-1.413 6.987-3.947 9.52z"></path>
<path d="M15.147 24.853c0.907 0.8 1.707 0 1.707 0l8-8c0.48-0.48 0.48-1.227 0-1.707s-1.227-0.48-1.707 0l-5.947 5.947v-13.093c0-0.667-0.533-1.2-1.2-1.2s-1.2 0.533-1.2 1.2v13.093l-5.947-5.947c-0.24-0.24-0.533-0.347-0.853-0.347s-0.613 0.107-0.853 0.347c-0.48 0.48-0.48 1.227 0 1.707l8 8z"></path>
</svg>
