<?xml version="1.0" encoding="utf-8"?>
<!-- Generated by IcoMoon.io -->
<!DOCTYPE svg PUBLIC "-//W3C//DTD SVG 1.1//EN" "http://www.w3.org/Graphics/SVG/1.1/DTD/svg11.dtd">
<svg version="1.1" xmlns="http://www.w3.org/2000/svg" xmlns:xlink="http://www.w3.org/1999/xlink" width="32" height="32" viewBox="0 0 32 32">
<path d="M24.631 4.614c-0.354-0.219-0.796-0.238-1.167-0.053-1.159 0.58-2.325 0.874-3.464 0.874s-2.305-0.294-3.463-0.874c-2.419-1.21-4.905-1.44-7.349-0.692-0.066-0.601-0.569-1.070-1.187-1.070-0.663 0-1.2 0.537-1.2 1.2v24c0 0.663 0.537 1.2 1.2 1.2s1.2-0.537 1.2-1.2v-9.557c0.939-0.381 1.878-0.577 2.8-0.577 1.139 0 2.304 0.294 3.463 0.873 1.495 0.748 3.022 1.127 4.537 1.127s3.042-0.379 4.537-1.127c0.406-0.203 0.663-0.619 0.663-1.073v-12.031c0-0.416-0.215-0.802-0.569-1.021zM9.2 10.442c2.099-0.854 4.155-0.757 6.262 0.297 1.506 0.753 3.021 1.13 4.537 1.129 0.934 0 1.869-0.144 2.801-0.43v1.452c-2.099 0.854-4.155 0.757-6.264-0.298-2.433-1.217-4.893-1.449-7.336-0.699v-1.452zM9.2 6.408c0.939-0.381 1.878-0.573 2.8-0.573 1.139 0 2.304 0.294 3.462 0.873 2.415 1.208 4.893 1.446 7.338 0.699v1.483c-2.099 0.854-4.155 0.757-6.264-0.298-2.433-1.217-4.893-1.449-7.336-0.699v-1.486zM22.8 16.893c-0.939 0.381-1.878 0.573-2.801 0.573-1.139 0-2.304-0.294-3.463-0.873-1.495-0.748-3.021-1.127-4.536-1.127-0.932 0-1.869 0.144-2.8 0.428v-1.452c2.099-0.854 4.154-0.757 6.263 0.297 1.505 0.753 3.021 1.129 4.537 1.129 0.934 0 1.869-0.144 2.801-0.43v1.455z"></path>
</svg>
