<?xml version="1.0" encoding="utf-8"?>
<!-- Generated by IcoMoon.io -->
<!DOCTYPE svg PUBLIC "-//W3C//DTD SVG 1.1//EN" "http://www.w3.org/Graphics/SVG/1.1/DTD/svg11.dtd">
<svg version="1.1" xmlns="http://www.w3.org/2000/svg" xmlns:xlink="http://www.w3.org/1999/xlink" width="32" height="32" viewBox="0 0 32 32">
<path d="M24 9.467c-0.614 0-1.216 0.109-1.782 0.317-0.956-3.283-3.978-5.65-7.551-5.65-2.885 0-5.516 1.576-6.89 4.070-2.844 0.424-4.976 2.841-4.976 5.796 0 3.235 2.632 5.867 5.867 5.867h15.333c2.867 0 5.2-2.333 5.2-5.2s-2.333-5.2-5.2-5.2zM24 17.467h-15.333c-1.911 0-3.467-1.555-3.467-3.467 0-1.895 1.486-3.416 3.382-3.461 0.467-0.011 0.885-0.292 1.071-0.72 0.87-1.996 2.838-3.285 5.013-3.285 2.931 0 5.33 2.292 5.461 5.218 0.021 0.464 0.307 0.874 0.735 1.054s0.922 0.095 1.267-0.216c0.517-0.466 1.181-0.723 1.871-0.723 1.544 0 2.8 1.256 2.8 2.8s-1.256 2.8-2.8 2.8z"></path>
<path d="M21.2 22.667c0-0.663-0.537-1.2-1.2-1.2h-13.333c-0.663 0-1.2 0.537-1.2 1.2s0.537 1.2 1.2 1.2h13.333c0.663 0 1.2-0.537 1.2-1.2z"></path>
<path d="M24 25.467h-13.333c-0.663 0-1.2 0.537-1.2 1.2s0.537 1.2 1.2 1.2h13.333c0.663 0 1.2-0.537 1.2-1.2s-0.537-1.2-1.2-1.2z"></path>
</svg>
