<?xml version="1.0" encoding="utf-8"?>
<!-- Generated by IcoMoon.io -->
<!DOCTYPE svg PUBLIC "-//W3C//DTD SVG 1.1//EN" "http://www.w3.org/Graphics/SVG/1.1/DTD/svg11.dtd">
<svg version="1.1" xmlns="http://www.w3.org/2000/svg" xmlns:xlink="http://www.w3.org/1999/xlink" width="32" height="32" viewBox="0 0 32 32">
<path d="M16 2.933c-7.2 0-13.067 5.867-13.067 13.067s5.867 13.067 13.067 13.067 13.067-5.867 13.067-13.067-5.867-13.067-13.067-13.067zM17.52 4.88c2.16 0.32 4.080 1.2 5.733 2.613 0 0.107 0.027 0.933 0.027 0.987-0.293 0.080-2.453 0.667-3.2 0.88-0.987-0.667-3.68-2.080-3.733-2.107-0.027-0.293-0.16-1.493-0.187-1.787 0.213-0.107 1.36-0.56 1.36-0.587zM7.867 8.267c1.253-1.28 2.64-2.187 4.24-2.773 0.32 0.027 1.573 0.16 1.893 0.187 0.027 0.24 0.133 1.28 0.16 1.547-0.933 0.507-3.547 2.907-3.68 3.067-0.987 0.027-1.947 0.027-2.933 0.027 0-0.427 0-0.853-0.027-1.28-0.027-0.24 0.027-0.453 0.347-0.773zM7.947 20.213c-1.067-1.253-1.893-2.693-2.427-4.293 0.373-1.28 0.853-2.4 1.44-3.413 0.267 0 3.307-0.053 3.52-0.053 0.32 1.013 1.44 3.307 1.573 3.493 0.027 0.027 0.053 0.080 0.080 0.133-0.693 1.413-1.387 2.827-2.053 4.16-0.693-0.027-1.413-0.027-2.133-0.027zM16.027 27.093c-0.773 0-1.573-0.080-2.4-0.267 0.347-0.267 0.693-0.533 1.067-0.8 0.747 0.107 1.44 0.16 2.133 0.16 0.8 0 1.6-0.080 2.347-0.213 0.267-0.053 1.013-0.24 1.147-0.267 0.16 0.080 0.32 0.187 0.48 0.293-1.547 0.72-3.147 1.093-4.773 1.093zM19.387 23.76c-0.827 0.24-3.387 0.32-3.387 0.32-0.453-0.053-1.093-0.133-1.733-0.213-0.453-0.533-1.947-2.347-2.24-2.693 0.72-1.44 1.413-2.88 2.133-4.347 1.253 0.053 2.587-0.053 4.107-0.32 0.987 1.227 1.947 2.453 2.933 3.68-0.213 0.48-1.44 2.853-1.813 3.573zM26.24 13.627c0 0.107-0.16 1.387-0.293 1.893-0.133 0.613-0.693 2.4-0.773 2.64-0.773 0.24-1.52 0.48-2.293 0.72-0.373-0.48-2.293-2.88-2.88-3.6 0.427-1.36 0.747-2.64 0.933-3.893 0.907-0.24 1.84-0.507 2.853-0.773 0.773 0.933 2.4 2.96 2.453 3.013z"></path>
</svg>
