<?xml version="1.0" encoding="utf-8"?>
<!-- Generated by IcoMoon.io -->
<!DOCTYPE svg PUBLIC "-//W3C//DTD SVG 1.1//EN" "http://www.w3.org/Graphics/SVG/1.1/DTD/svg11.dtd">
<svg version="1.1" xmlns="http://www.w3.org/2000/svg" xmlns:xlink="http://www.w3.org/1999/xlink" width="32" height="32" viewBox="0 0 32 32">
<path d="M14 2.987c-0.56 0.373-0.533 1.013-0.533 1.013v20c0 0.667 0.533 1.2 1.2 1.2s1.2-0.533 1.2-1.2v-8.533l12.587-5.040c0.453-0.187 0.747-0.613 0.747-1.12s-0.293-0.933-0.747-1.12l-13.307-5.333c-0.107 0-0.613-0.213-1.147 0.133zM15.867 12.907v-7.147l8.907 3.573-8.907 3.573z"></path>
<path d="M17.333 25.467c-0.587 0-1.093 0.427-1.173 0.987-0.187 0.133-0.693 0.347-1.493 0.347s-1.307-0.213-1.493-0.347c-0.107-0.56-0.587-0.987-1.173-0.987-0.667 0-1.2 0.533-1.2 1.2 0 1.467 1.627 2.533 3.867 2.533s3.867-1.067 3.867-2.533c0-0.667-0.533-1.2-1.2-1.2z"></path>
</svg>
