<?xml version="1.0" encoding="utf-8"?>
<!-- Generated by IcoMoon.io -->
<!DOCTYPE svg PUBLIC "-//W3C//DTD SVG 1.1//EN" "http://www.w3.org/Graphics/SVG/1.1/DTD/svg11.dtd">
<svg version="1.1" xmlns="http://www.w3.org/2000/svg" xmlns:xlink="http://www.w3.org/1999/xlink" width="32" height="32" viewBox="0 0 32 32">
<path d="M12.498 22.175c0.234 0.234 0.541 0.351 0.849 0.351s0.614-0.117 0.849-0.351l4.478-4.478 4.478 4.478c0.234 0.234 0.541 0.351 0.849 0.351s0.614-0.117 0.849-0.351c0.469-0.469 0.469-1.229 0-1.697l-4.478-4.478 4.478-4.478c0.469-0.469 0.469-1.229 0-1.697s-1.229-0.469-1.697 0l-4.479 4.478-4.478-4.478c-0.468-0.469-1.229-0.469-1.697 0s-0.469 1.229 0 1.697l4.478 4.478-4.478 4.478c-0.469 0.469-0.469 1.229 0 1.697z"></path>
<path d="M28 5.2h-17.067c-0.318 0-0.623 0.126-0.849 0.351l-9.6 9.6c-0.225 0.225-0.351 0.53-0.351 0.849s0.126 0.623 0.351 0.849l9.6 9.6c0.225 0.225 0.53 0.351 0.849 0.351h17.067c0.663 0 1.2-0.537 1.2-1.2v-19.2c0-0.663-0.537-1.2-1.2-1.2zM26.8 24.4h-15.37l-8.4-8.4 8.4-8.4h15.37v16.8z"></path>
</svg>
