<?xml version="1.0" encoding="utf-8"?>
<!-- Generated by IcoMoon.io -->
<!DOCTYPE svg PUBLIC "-//W3C//DTD SVG 1.1//EN" "http://www.w3.org/Graphics/SVG/1.1/DTD/svg11.dtd">
<svg version="1.1" xmlns="http://www.w3.org/2000/svg" xmlns:xlink="http://www.w3.org/1999/xlink" width="32" height="32" viewBox="0 0 32 32">
<path d="M28.853 7.147l-4-4c-0.213-0.213-0.533-0.347-0.853-0.347h-16c-0.32 0-0.613 0.133-0.853 0.347l-4 4c-0.4 0.4-0.48 1.040-0.16 1.52l6.64 9.973c-0.533 1.013-0.853 2.16-0.853 3.387 0 3.973 3.227 7.2 7.2 7.2s7.2-3.227 7.2-7.2c0-1.227-0.293-2.373-0.853-3.387l6.64-9.973c0.347-0.48 0.293-1.12-0.107-1.52zM19.813 8.133h-7.627l-1.947-2.933h11.52l-1.947 2.933zM18.213 10.533l-2.213 3.307-2.213-3.307h4.427zM7.813 5.893l6.133 9.227c-1.040 0.32-1.973 0.827-2.747 1.547l-5.653-8.507 2.267-2.267zM16 26.8c-2.64 0-4.8-2.16-4.8-4.8s2.16-4.8 4.8-4.8 4.8 2.16 4.8 4.8-2.16 4.8-4.8 4.8zM20.8 16.64c-0.773-0.693-1.733-1.227-2.747-1.547l6.133-9.227 2.267 2.267-5.653 8.507z"></path>
<path d="M18 20.8c-0.667 0-1.2 0.533-1.2 1.2 0 0.453-0.347 0.8-0.8 0.8-0.667 0-1.2 0.533-1.2 1.2s0.533 1.2 1.2 1.2c1.76 0 3.2-1.44 3.2-3.2 0-0.667-0.533-1.2-1.2-1.2z"></path>
</svg>
