<?xml version="1.0" encoding="utf-8"?>
<!-- Generated by IcoMoon.io -->
<!DOCTYPE svg PUBLIC "-//W3C//DTD SVG 1.1//EN" "http://www.w3.org/Graphics/SVG/1.1/DTD/svg11.dtd">
<svg version="1.1" xmlns="http://www.w3.org/2000/svg" xmlns:xlink="http://www.w3.org/1999/xlink" width="32" height="32" viewBox="0 0 32 32">
<path d="M2.8 27.429c0 0.508 0.321 0.962 0.8 1.131 1.201 0.425 2.457 0.64 3.733 0.64 2.707 0 5.286-0.965 7.322-2.729 0.45 0.041 0.9 0.062 1.345 0.062 7.278 0 13.2-5.323 13.2-11.867s-5.922-11.867-13.2-11.867-13.2 5.323-13.2 11.867c0 3.472 1.697 6.755 4.596 8.998-1.008 1.194-2.324 2.112-3.796 2.633-0.479 0.169-0.8 0.623-0.8 1.131zM6.622 27.022c1.422-0.578 2.801-1.931 3.479-2.99 0.173-0.27 0.231-0.597 0.161-0.91s-0.262-0.584-0.533-0.754c-2.835-1.779-4.529-4.658-4.529-7.702 0-5.22 4.845-9.467 10.8-9.467s10.8 4.247 10.8 9.467-4.845 9.467-10.8 9.467c-0.527 0-1.064-0.035-1.597-0.104-0.051-0.007-0.103-0.010-0.155-0.010-0.307 0-0.605 0.118-0.83 0.334-1.585 1.518-4.615 2.606-6.797 2.67z"></path>
<path d="M19.467 15c0 1.029 0.838 1.867 1.867 1.867s1.867-0.837 1.867-1.867-0.838-1.867-1.867-1.867-1.867 0.837-1.867 1.867z"></path>
<path d="M14.133 15c0 1.029 0.838 1.867 1.867 1.867s1.867-0.837 1.867-1.867-0.838-1.867-1.867-1.867-1.867 0.837-1.867 1.867z"></path>
<path d="M10.667 16.867c1.029 0 1.867-0.837 1.867-1.867s-0.838-1.867-1.867-1.867-1.867 0.837-1.867 1.867 0.838 1.867 1.867 1.867z"></path>
</svg>
