<?xml version="1.0" encoding="utf-8"?>
<!-- Generated by IcoMoon.io -->
<!DOCTYPE svg PUBLIC "-//W3C//DTD SVG 1.1//EN" "http://www.w3.org/Graphics/SVG/1.1/DTD/svg11.dtd">
<svg version="1.1" xmlns="http://www.w3.org/2000/svg" xmlns:xlink="http://www.w3.org/1999/xlink" width="32" height="32" viewBox="0 0 32 32">
<path d="M9.467 14.533c1.029 0 1.867-0.838 1.867-1.867s-0.837-1.867-1.867-1.867-1.867 0.838-1.867 1.867 0.837 1.867 1.867 1.867z"></path>
<path d="M29.2 19.997v-12.663c0-0.663-0.537-1.2-1.2-1.2h-24c-0.663 0-1.2 0.537-1.2 1.2v17.333c0 0.663 0.537 1.2 1.2 1.2h24c0.663 0 1.2-0.537 1.2-1.2v-4.663c0-0.002 0-0.004 0-0.006zM26.8 8.533v8.57l-4.618-4.618c-0.469-0.469-1.228-0.469-1.697 0l-5.818 5.818-1.818-1.818c-0.469-0.469-1.228-0.469-1.697 0l-5.951 5.951v-13.903h21.6zM7.564 23.467l4.436-4.436 0.97 0.97-0.485 0.485c-0.469 0.469-0.469 1.228 0 1.697 0.234 0.235 0.541 0.352 0.849 0.352s0.614-0.117 0.849-0.351l7.151-7.151 5.467 5.466v2.97h-19.236z"></path>
</svg>
