<?xml version="1.0" encoding="utf-8"?>
<!-- Generated by IcoMoon.io -->
<!DOCTYPE svg PUBLIC "-//W3C//DTD SVG 1.1//EN" "http://www.w3.org/Graphics/SVG/1.1/DTD/svg11.dtd">
<svg version="1.1" xmlns="http://www.w3.org/2000/svg" xmlns:xlink="http://www.w3.org/1999/xlink" width="32" height="32" viewBox="0 0 32 32">
<path d="M28 6.133h-24c-0.663 0-1.2 0.537-1.2 1.2v17.333c0 0.663 0.537 1.2 1.2 1.2h24c0.663 0 1.2-0.537 1.2-1.2v-4.663c0-0.002 0-0.004 0-0.006v-12.664c0-0.663-0.537-1.2-1.2-1.2zM9.467 10.8c1.029 0 1.867 0.838 1.867 1.867s-0.838 1.867-1.867 1.867-1.867-0.838-1.867-1.867 0.838-1.867 1.867-1.867zM26.8 23.467h-19.237l4.437-4.436 2.933 2.436 6.4-6.436 5.467 5.466v2.97z"></path>
</svg>
