<?xml version="1.0" encoding="utf-8"?>
<!-- Generated by IcoMoon.io -->
<!DOCTYPE svg PUBLIC "-//W3C//DTD SVG 1.1//EN" "http://www.w3.org/Graphics/SVG/1.1/DTD/svg11.dtd">
<svg version="1.1" xmlns="http://www.w3.org/2000/svg" xmlns:xlink="http://www.w3.org/1999/xlink" width="32" height="32" viewBox="0 0 32 32">
<path d="M16 29.2c-0.044 0-0.089-0.002-0.133-0.007-0.132-0.015-3.276-0.38-6.45-2.144-4.329-2.405-6.617-6.226-6.617-11.049v-11.75c0-0.481 0.287-0.915 0.73-1.104s0.955-0.094 1.302 0.238c1.398 1.343 3.234 2.082 5.169 2.082s3.771-0.739 5.169-2.082c0.464-0.446 1.198-0.446 1.662 0 1.398 1.343 3.234 2.082 5.169 2.082s3.771-0.739 5.169-2.082c0.347-0.333 0.859-0.427 1.302-0.238s0.73 0.623 0.73 1.104v11.75c0 4.823-2.288 8.644-6.617 11.049-3.174 1.763-6.318 2.129-6.45 2.144-0.044 0.005-0.089 0.007-0.133 0.007zM5.2 6.622v9.378c0 3.955 1.811 6.967 5.383 8.951 2.412 1.34 4.829 1.754 5.416 1.838 0.592-0.087 3.064-0.514 5.48-1.873 3.531-1.985 5.321-4.985 5.321-8.917v-9.378c-1.454 0.812-3.098 1.245-4.8 1.245-2.19 0-4.283-0.716-6-2.036-1.717 1.319-3.81 2.036-6 2.036-1.702 0-3.346-0.433-4.8-1.245z"></path>
</svg>
