<?xml version="1.0" encoding="utf-8"?>
<!-- Generated by IcoMoon.io -->
<!DOCTYPE svg PUBLIC "-//W3C//DTD SVG 1.1//EN" "http://www.w3.org/Graphics/SVG/1.1/DTD/svg11.dtd">
<svg version="1.1" xmlns="http://www.w3.org/2000/svg" xmlns:xlink="http://www.w3.org/1999/xlink" width="32" height="32" viewBox="0 0 32 32">
<path d="M24 9.467c-0.614 0-1.216 0.109-1.782 0.317-0.956-3.283-3.979-5.65-7.551-5.65-2.885 0-5.516 1.576-6.89 4.070-2.844 0.424-4.976 2.841-4.976 5.796 0 3.235 2.632 5.867 5.867 5.867h15.333c2.867 0 5.2-2.333 5.2-5.2s-2.333-5.2-5.2-5.2z"></path>
<path d="M15.333 21.467c-1.029 0-1.867 0.838-1.867 1.867s0.837 1.867 1.867 1.867 1.867-0.838 1.867-1.867-0.837-1.867-1.867-1.867z"></path>
<path d="M7.333 21.467c-1.029 0-1.867 0.838-1.867 1.867s0.837 1.867 1.867 1.867 1.867-0.838 1.867-1.867-0.837-1.867-1.867-1.867z"></path>
<path d="M19.333 24.133c-1.029 0-1.867 0.838-1.867 1.867s0.837 1.867 1.867 1.867 1.867-0.838 1.867-1.867-0.837-1.867-1.867-1.867z"></path>
<path d="M23.333 21.467c-1.029 0-1.867 0.838-1.867 1.867s0.837 1.867 1.867 1.867 1.867-0.838 1.867-1.867-0.837-1.867-1.867-1.867z"></path>
<path d="M11.333 24.133c-1.029 0-1.867 0.838-1.867 1.867s0.837 1.867 1.867 1.867 1.867-0.838 1.867-1.867-0.837-1.867-1.867-1.867z"></path>
</svg>
