<?xml version="1.0" encoding="utf-8"?>
<!-- Generated by IcoMoon.io -->
<!DOCTYPE svg PUBLIC "-//W3C//DTD SVG 1.1//EN" "http://www.w3.org/Graphics/SVG/1.1/DTD/svg11.dtd">
<svg version="1.1" xmlns="http://www.w3.org/2000/svg" xmlns:xlink="http://www.w3.org/1999/xlink" width="32" height="32" viewBox="0 0 32 32">
<path d="M14.8 12.373c0-0.667 0.533-1.2 1.2-1.2v0c0.667 0 1.2 0.533 1.2 1.2v0c0 0.667-0.533 1.2-1.2 1.2v0c-0.667 0-1.2-0.56-1.2-1.2z"></path>
<path d="M10.4 12.933c0-0.667 0.533-1.2 1.2-1.2v0c0.667 0 1.2 0.533 1.2 1.2v0c0 0.667-0.533 1.2-1.2 1.2v0c-0.667 0-1.2-0.533-1.2-1.2z"></path>
<path d="M19.2 12.933c0-0.667 0.533-1.2 1.2-1.2v0c0.667 0 1.2 0.533 1.2 1.2v0c0 0.667-0.533 1.2-1.2 1.2v0c-0.667 0-1.2-0.533-1.2-1.2z"></path>
<path d="M23.28 14.64c0-0.667 0.533-1.2 1.2-1.2v0c0.667 0 1.2 0.533 1.2 1.2v0c0 0.667-0.533 1.2-1.2 1.2v0c-0.667 0-1.2-0.533-1.2-1.2z"></path>
<path d="M6.32 14.64c0-0.667 0.533-1.2 1.2-1.2v0c0.667 0 1.2 0.533 1.2 1.2v0c0 0.667-0.533 1.2-1.2 1.2v0c-0.667 0-1.2-0.533-1.2-1.2z"></path>
<path d="M2.8 17.333c0-0.667 0.533-1.2 1.2-1.2v0c0.667 0 1.2 0.533 1.2 1.2v0c0 0.667-0.533 1.2-1.2 1.2v0c-0.667 0-1.2-0.533-1.2-1.2z"></path>
<path d="M26.8 17.333c0-0.667 0.533-1.2 1.2-1.2v0c0.667 0 1.2 0.533 1.2 1.2v0c0 0.667-0.533 1.2-1.2 1.2v0c-0.667 0-1.2-0.533-1.2-1.2z"></path>
</svg>
