<?xml version="1.0" encoding="utf-8"?>
<!-- Generated by IcoMoon.io -->
<!DOCTYPE svg PUBLIC "-//W3C//DTD SVG 1.1//EN" "http://www.w3.org/Graphics/SVG/1.1/DTD/svg11.dtd">
<svg version="1.1" xmlns="http://www.w3.org/2000/svg" xmlns:xlink="http://www.w3.org/1999/xlink" width="32" height="32" viewBox="0 0 32 32">
<path d="M21.333 18c0 2.946-2.388 5.333-5.333 5.333s-5.333-2.388-5.333-5.333c0-2.946 2.388-5.333 5.333-5.333s5.333 2.388 5.333 5.333z"></path>
<path d="M26.667 8h-5.333v-2.667c0-0.8-0.533-1.333-1.333-1.333h-8c-0.8 0-1.333 0.533-1.333 1.333v2.667h-1.333c0-0.8-0.533-1.333-1.333-1.333h-1.333c-0.8 0-1.333 0.533-1.333 1.333-1.467 0-2.667 1.2-2.667 2.667v14.667c0 1.467 1.2 2.667 2.667 2.667h21.333c1.467 0 2.667-1.2 2.667-2.667v-14.667c0-1.467-1.2-2.667-2.667-2.667zM16 25.333c-4 0-7.333-3.333-7.333-7.333s3.333-7.333 7.333-7.333 7.333 3.333 7.333 7.333-3.333 7.333-7.333 7.333zM25.333 13.333c-0.667 0-1.333-0.533-1.333-1.333s0.533-1.333 1.333-1.333 1.333 0.533 1.333 1.333-0.533 1.333-1.333 1.333z"></path>
</svg>
