<?xml version="1.0" encoding="utf-8"?>
<!-- Generated by IcoMoon.io -->
<!DOCTYPE svg PUBLIC "-//W3C//DTD SVG 1.1//EN" "http://www.w3.org/Graphics/SVG/1.1/DTD/svg11.dtd">
<svg version="1.1" xmlns="http://www.w3.org/2000/svg" xmlns:xlink="http://www.w3.org/1999/xlink" width="32" height="32" viewBox="0 0 32 32">
<path d="M22.11 3.395c-0.215-0.369-0.61-0.595-1.037-0.595h-10.406c-0.427 0-0.821 0.227-1.037 0.595-0.21 0.36-5.106 8.871-2.119 14.071 1.283 2.233 3.734 3.471 7.289 3.693v5.64h-4.133c-0.663 0-1.2 0.537-1.2 1.2s0.537 1.2 1.2 1.2h10.667c0.663 0 1.2-0.537 1.2-1.2s-0.537-1.2-1.2-1.2h-4.133v-5.655c3.415-0.266 5.777-1.499 7.028-3.678 2.987-5.2-1.909-13.711-2.119-14.071zM22.146 16.274c-0.951 1.654-3.064 2.502-6.276 2.524-3.212-0.023-5.325-0.87-6.276-2.524-1.753-3.047 0.454-8.554 1.781-11.074h8.99c1.327 2.521 3.534 8.027 1.781 11.074z"></path>
</svg>
