<?xml version="1.0" encoding="utf-8"?>
<!-- Generated by IcoMoon.io -->
<!DOCTYPE svg PUBLIC "-//W3C//DTD SVG 1.1//EN" "http://www.w3.org/Graphics/SVG/1.1/DTD/svg11.dtd">
<svg version="1.1" xmlns="http://www.w3.org/2000/svg" xmlns:xlink="http://www.w3.org/1999/xlink" width="32" height="32" viewBox="0 0 32 32">
<path d="M28.613 10.8h-5.387c0.107-0.88 0-1.813-0.187-2.427-0.427-1.36-1.227-1.573-1.68-1.573h-6.667c-3.067 0-5.36 2.453-6.907 4.080-0.427 0.453-1.013 1.067-1.28 1.253h-1.227c-0.213 0-0.427 0.053-0.613 0.16-0.667 0.4-1.92 2.507-1.893 7.707 0.053 5.52 1.36 7.2 1.6 7.467 0.24 0.24 0.533 0.373 0.88 0.373h3.76l2.4 1.2c0.16 0.080 0.347 0.133 0.533 0.133h8c1.76 0 3.2-1.44 3.2-3.2 0-0.427-0.080-0.853-0.24-1.253 0.933-0.56 1.573-1.573 1.573-2.747 0-0.587-0.16-1.12-0.427-1.6 0.667-0.587 1.093-1.44 1.093-2.4 0-0.293-0.027-0.56-0.107-0.8h3.52c1.76 0 3.2-1.44 3.2-3.2s-1.36-3.173-3.147-3.173zM28.64 14.8l-7.2-0.027c-0.667-0.027-1.227 0.507-1.253 1.147-0.027 0.667 0.507 1.227 1.147 1.253 0 0 0.64 0.027 0.667 0.027 0.453 0 0.8 0.347 0.8 0.8s-0.347 0.8-0.773 0.8l-1.973-0.027c-0.667 0-1.2 0.533-1.2 1.2s0.533 1.2 1.173 1.2l1.467 0.027c0.373 0.080 0.64 0.427 0.64 0.8 0 0.453-0.347 0.8-0.8 0.8l-2.64-0.027c-0.667 0-1.2 0.533-1.2 1.2s0.533 1.2 1.2 1.2h1.44c0.373 0.053 0.667 0.4 0.667 0.8 0 0.453-0.347 0.8-0.8 0.8h-7.707l-2.427-1.173c-0.16-0.080-0.347-0.133-0.533-0.133h-3.333c-0.293-0.693-0.773-2.293-0.8-5.467-0.027-3.2 0.453-4.8 0.773-5.467h0.693c1.013 0 1.787-0.827 2.88-2 1.333-1.413 3.147-3.333 5.147-3.333h6.107c0.107 0.48 0.107 1.227 0 1.6h-4.8c-0.667 0-1.2 0.533-1.2 1.2s0.533 1.2 1.2 1.2h12.613c0.453 0 0.8 0.347 0.8 0.8s-0.347 0.8-0.773 0.8z"></path>
</svg>
