<?xml version="1.0" encoding="utf-8"?>
<!-- Generated by IcoMoon.io -->
<!DOCTYPE svg PUBLIC "-//W3C//DTD SVG 1.1//EN" "http://www.w3.org/Graphics/SVG/1.1/DTD/svg11.dtd">
<svg version="1.1" xmlns="http://www.w3.org/2000/svg" xmlns:xlink="http://www.w3.org/1999/xlink" width="32" height="32" viewBox="0 0 32 32">
<path d="M16 5.288c3.489 0 3.902 0.013 5.28 0.076 1.274 0.058 1.966 0.271 2.426 0.45 0.61 0.237 1.045 0.52 1.502 0.977s0.741 0.893 0.977 1.502c0.179 0.461 0.392 1.152 0.45 2.426 0.063 1.378 0.076 1.791 0.076 5.28s-0.013 3.902-0.076 5.28c-0.058 1.274-0.271 1.966-0.45 2.426-0.237 0.61-0.52 1.045-0.977 1.502s-0.893 0.741-1.502 0.977c-0.461 0.179-1.152 0.392-2.426 0.45-1.378 0.063-1.791 0.076-5.28 0.076s-3.902-0.013-5.28-0.076c-1.274-0.058-1.966-0.271-2.426-0.45-0.61-0.237-1.045-0.52-1.502-0.977s-0.741-0.893-0.977-1.502c-0.179-0.461-0.392-1.152-0.45-2.426-0.063-1.378-0.076-1.791-0.076-5.28s0.013-3.902 0.076-5.28c0.058-1.274 0.271-1.966 0.45-2.426 0.237-0.61 0.52-1.045 0.977-1.502s0.893-0.741 1.502-0.977c0.461-0.179 1.152-0.392 2.426-0.45 1.378-0.063 1.791-0.076 5.28-0.076zM16 2.933c-3.549 0-3.994 0.015-5.387 0.079-1.391 0.063-2.341 0.284-3.172 0.607-0.859 0.334-1.588 0.781-2.314 1.507s-1.173 1.455-1.507 2.314c-0.323 0.831-0.544 1.781-0.607 3.172-0.063 1.394-0.078 1.838-0.078 5.387s0.015 3.994 0.079 5.387c0.063 1.391 0.284 2.341 0.607 3.172 0.334 0.859 0.781 1.588 1.507 2.314s1.455 1.173 2.314 1.507c0.831 0.323 1.781 0.544 3.172 0.607 1.394 0.063 1.838 0.078 5.387 0.078s3.994-0.015 5.387-0.079c1.391-0.063 2.341-0.284 3.172-0.607 0.859-0.334 1.588-0.781 2.314-1.507s1.173-1.455 1.507-2.314c0.323-0.831 0.544-1.781 0.607-3.172 0.063-1.394 0.078-1.838 0.078-5.387s-0.015-3.994-0.079-5.387c-0.063-1.391-0.284-2.341-0.607-3.172-0.334-0.859-0.781-1.588-1.507-2.314s-1.455-1.173-2.314-1.507c-0.831-0.323-1.781-0.544-3.172-0.607-1.394-0.063-1.838-0.078-5.387-0.078v0z"></path>
<path d="M16 9.29c-3.706 0-6.71 3.004-6.71 6.71s3.004 6.71 6.71 6.71 6.71-3.004 6.71-6.71-3.004-6.71-6.71-6.71zM16 20.355c-2.406 0-4.355-1.95-4.355-4.355s1.95-4.355 4.355-4.355 4.355 1.95 4.355 4.355c0 2.406-1.95 4.355-4.355 4.355z"></path>
<path d="M24.543 9.025c0 0.866-0.702 1.568-1.568 1.568s-1.568-0.702-1.568-1.568c0-0.866 0.702-1.568 1.568-1.568s1.568 0.702 1.568 1.568z"></path>
</svg>
