<?xml version="1.0" encoding="utf-8"?>
<!-- Generated by IcoMoon.io -->
<!DOCTYPE svg PUBLIC "-//W3C//DTD SVG 1.1//EN" "http://www.w3.org/Graphics/SVG/1.1/DTD/svg11.dtd">
<svg version="1.1" xmlns="http://www.w3.org/2000/svg" xmlns:xlink="http://www.w3.org/1999/xlink" width="32" height="32" viewBox="0 0 32 32">
<path d="M22.667 10.533h5.333c0.663 0 1.2-0.537 1.2-1.2v-5.333c0-0.663-0.537-1.2-1.2-1.2h-5.333c-0.663 0-1.2 0.537-1.2 1.2v2.814c-0.044-0.005-0.088-0.014-0.133-0.014h-5.333c-0.663 0-1.2 0.537-1.2 1.2v6.8h-4.267v-1.467c0-0.663-0.537-1.2-1.2-1.2h-5.333c-0.663 0-1.2 0.537-1.2 1.2v5.333c0 0.663 0.537 1.2 1.2 1.2h5.333c0.663 0 1.2-0.537 1.2-1.2v-1.467h4.267v8.133c0 0.663 0.537 1.2 1.2 1.2h5.467v1.467c0 0.663 0.537 1.2 1.2 1.2h5.333c0.663 0 1.2-0.537 1.2-1.2v-5.333c0-0.663-0.537-1.2-1.2-1.2h-5.333c-0.663 0-1.2 0.537-1.2 1.2v1.467h-4.267v-6.933h4.133c0.046 0 0.089-0.009 0.133-0.014v1.48c0 0.663 0.537 1.2 1.2 1.2h5.333c0.663 0 1.2-0.537 1.2-1.2v-5.333c0-0.663-0.537-1.2-1.2-1.2h-5.333c-0.663 0-1.2 0.537-1.2 1.2v1.48c-0.044-0.005-0.088-0.014-0.133-0.014h-4.133v-5.6h4.133c0.046 0 0.089-0.009 0.133-0.014v0.147c0 0.663 0.537 1.2 1.2 1.2zM23.867 5.2h2.933v2.933h-2.933v-2.933zM8.133 17.467h-2.933v-2.933h2.933v2.933zM23.867 23.867h2.933v2.933h-2.933v-2.933zM23.867 14.533h2.933v2.933h-2.933v-2.933z"></path>
</svg>
