<?xml version="1.0" encoding="utf-8"?>
<!-- Generated by IcoMoon.io -->
<!DOCTYPE svg PUBLIC "-//W3C//DTD SVG 1.1//EN" "http://www.w3.org/Graphics/SVG/1.1/DTD/svg11.dtd">
<svg version="1.1" xmlns="http://www.w3.org/2000/svg" xmlns:xlink="http://www.w3.org/1999/xlink" width="32" height="32" viewBox="0 0 32 32">
<path d="M22.667 6.8h-13.333c-2.133 0-3.867 1.733-3.867 3.867v15.333c0 1.76 1.44 3.2 3.2 3.2h14.667c1.76 0 3.2-1.44 3.2-3.2v-15.333c0-2.133-1.733-3.867-3.867-3.867zM9.467 17.12v8.853c0 0.453-0.347 0.8-0.8 0.8s-0.8-0.347-0.8-0.8v-10.64c0-0.453 0.347-0.8 0.8-0.8s0.8 0.347 0.8 0.8v1.787zM20.133 26.8h-8.267v-1.467c0-0.8 0.667-1.467 1.467-1.467h5.333c0.8 0 1.467 0.667 1.467 1.467v1.467zM24.133 16v10c0 0.453-0.347 0.8-0.8 0.8s-0.8-0.347-0.8-0.8v-10.64c0-0.453 0.347-0.8 0.8-0.8s0.8 0.347 0.8 0.8v0.64zM24.133 12.24c-0.267-0.053-0.533-0.107-0.8-0.107-1.76 0-3.2 1.44-3.2 3.2v6.427c-0.453-0.187-0.96-0.293-1.467-0.293h-5.333c-0.507 0-1.013 0.107-1.467 0.293v-6.427c0-1.76-1.44-3.2-3.2-3.2-0.267 0-0.533 0.027-0.8 0.107v-1.573c0-0.8 0.667-1.467 1.467-1.467h13.333c0.8 0 1.467 0.667 1.467 1.467v1.573z"></path>
</svg>
