<?xml version="1.0" encoding="utf-8"?>
<!-- Generated by IcoMoon.io -->
<!DOCTYPE svg PUBLIC "-//W3C//DTD SVG 1.1//EN" "http://www.w3.org/Graphics/SVG/1.1/DTD/svg11.dtd">
<svg version="1.1" xmlns="http://www.w3.org/2000/svg" xmlns:xlink="http://www.w3.org/1999/xlink" width="32" height="32" viewBox="0 0 32 32">
<path d="M24.571 29.2h-17.143c-2.552 0-4.629-2.077-4.629-4.629v-17.143c0-2.552 2.076-4.629 4.629-4.629h10.286c0.663 0 1.2 0.537 1.2 1.2s-0.537 1.2-1.2 1.2h-10.286c-1.229 0-2.229 1-2.229 2.229v17.143c0 1.229 1 2.229 2.229 2.229h17.143c1.229 0 2.229-1 2.229-2.229v-10.286c0-0.663 0.537-1.2 1.2-1.2s1.2 0.537 1.2 1.2v10.286c0 2.552-2.076 4.629-4.628 4.629z"></path>
<path d="M14.667 22.533c-0.32 0-0.628-0.128-0.854-0.358l-4-4.057c-0.465-0.472-0.46-1.232 0.012-1.697s1.232-0.46 1.697 0.012l3.022 3.065 11.164-14.885c0.398-0.53 1.15-0.638 1.68-0.24s0.638 1.15 0.24 1.68l-12 16c-0.21 0.279-0.53 0.454-0.879 0.477-0.027 0.002-0.054 0.003-0.081 0.003z"></path>
</svg>
