<?xml version="1.0" encoding="utf-8"?>
<!-- Generated by IcoMoon.io -->
<!DOCTYPE svg PUBLIC "-//W3C//DTD SVG 1.1//EN" "http://www.w3.org/Graphics/SVG/1.1/DTD/svg11.dtd">
<svg version="1.1" xmlns="http://www.w3.org/2000/svg" xmlns:xlink="http://www.w3.org/1999/xlink" width="32" height="32" viewBox="0 0 32 32">
<path d="M24 14.8h-12c-0.663 0-1.2 0.537-1.2 1.2s0.537 1.2 1.2 1.2h12c0.663 0 1.2-0.537 1.2-1.2s-0.537-1.2-1.2-1.2z"></path>
<path d="M24 20.133h-12c-0.663 0-1.2 0.537-1.2 1.2s0.537 1.2 1.2 1.2h12c0.663 0 1.2-0.537 1.2-1.2s-0.537-1.2-1.2-1.2z"></path>
<path d="M24 9.467h-12c-0.663 0-1.2 0.537-1.2 1.2s0.537 1.2 1.2 1.2h12c0.663 0 1.2-0.537 1.2-1.2s-0.537-1.2-1.2-1.2z"></path>
<path d="M8 12.533c1.029 0 1.867-0.837 1.867-1.867s-0.838-1.867-1.867-1.867-1.867 0.837-1.867 1.867 0.838 1.867 1.867 1.867z"></path>
<path d="M8 17.867c1.029 0 1.867-0.837 1.867-1.867s-0.838-1.867-1.867-1.867-1.867 0.837-1.867 1.867 0.838 1.867 1.867 1.867z"></path>
<path d="M8 23.2c1.029 0 1.867-0.837 1.867-1.867s-0.838-1.867-1.867-1.867-1.867 0.837-1.867 1.867 0.838 1.867 1.867 1.867z"></path>
</svg>
