<?xml version="1.0" encoding="utf-8"?>
<!-- Generated by IcoMoon.io -->
<!DOCTYPE svg PUBLIC "-//W3C//DTD SVG 1.1//EN" "http://www.w3.org/Graphics/SVG/1.1/DTD/svg11.dtd">
<svg version="1.1" xmlns="http://www.w3.org/2000/svg" xmlns:xlink="http://www.w3.org/1999/xlink" width="32" height="32" viewBox="0 0 32 32">
<path d="M16 29.2c7.278 0 13.2-5.922 13.2-13.2s-5.922-13.2-13.2-13.2-13.2 5.922-13.2 13.2c0 7.278 5.922 13.2 13.2 13.2zM26.8 16c0 2.546-0.888 4.887-2.367 6.736l-15.169-15.169c1.849-1.479 4.19-2.367 6.736-2.367 5.955 0 10.8 4.845 10.8 10.8zM7.567 9.264l15.169 15.169c-1.849 1.479-4.19 2.367-6.736 2.367-5.955 0-10.8-4.845-10.8-10.8 0-2.546 0.888-4.887 2.367-6.736z"></path>
</svg>
