<?xml version="1.0" encoding="utf-8"?>
<!-- Generated by IcoMoon.io -->
<!DOCTYPE svg PUBLIC "-//W3C//DTD SVG 1.1//EN" "http://www.w3.org/Graphics/SVG/1.1/DTD/svg11.dtd">
<svg version="1.1" xmlns="http://www.w3.org/2000/svg" xmlns:xlink="http://www.w3.org/1999/xlink" width="32" height="32" viewBox="0 0 32 32">
<path d="M22.031 15.023l-9.333-6.667c-0.366-0.261-0.847-0.296-1.247-0.090s-0.651 0.617-0.651 1.067v13.333c0 0.45 0.251 0.861 0.651 1.067 0.173 0.089 0.361 0.133 0.549 0.133 0.246 0 0.49-0.075 0.698-0.223l9.333-6.667c0.315-0.225 0.502-0.589 0.502-0.977s-0.187-0.751-0.503-0.977zM13.2 20.335v-8.67l6.069 4.335-6.069 4.335z"></path>
<path d="M16 0.133c-8.749 0-15.867 7.118-15.867 15.867s7.118 15.867 15.867 15.867 15.867-7.118 15.867-15.867-7.118-15.867-15.867-15.867zM16 29.467c-7.426 0-13.467-6.041-13.467-13.467s6.041-13.467 13.467-13.467 13.467 6.041 13.467 13.467-6.041 13.467-13.467 13.467z"></path>
</svg>
