<?xml version="1.0" encoding="utf-8"?>
<!-- Generated by IcoMoon.io -->
<!DOCTYPE svg PUBLIC "-//W3C//DTD SVG 1.1//EN" "http://www.w3.org/Graphics/SVG/1.1/DTD/svg11.dtd">
<svg version="1.1" xmlns="http://www.w3.org/2000/svg" xmlns:xlink="http://www.w3.org/1999/xlink" width="32" height="32" viewBox="0 0 32 32">
<path d="M4 14.4h9.499c-0.019 0.086-0.032 0.175-0.032 0.267v13.333c0 0.663 0.537 1.2 1.2 1.2s1.2-0.537 1.2-1.2v-13.333c0-0.092-0.013-0.181-0.032-0.267h8.165c0.283 0 0.554-0.112 0.754-0.312l4-4c0.417-0.417 0.417-1.092 0-1.509l-4-4c-0.2-0.2-0.471-0.313-0.754-0.313h-8.133v-0.267c0-0.663-0.537-1.2-1.2-1.2s-1.2 0.537-1.2 1.2v0.267h-9.467c-0.589 0-1.067 0.478-1.067 1.067v8c0 0.589 0.478 1.067 1.067 1.067zM23.558 6.4l2.933 2.933-2.933 2.933h-18.491v-5.867h18.491z"></path>
</svg>
