<?xml version="1.0" encoding="utf-8"?>
<!-- Generated by IcoMoon.io -->
<!DOCTYPE svg PUBLIC "-//W3C//DTD SVG 1.1//EN" "http://www.w3.org/Graphics/SVG/1.1/DTD/svg11.dtd">
<svg version="1.1" xmlns="http://www.w3.org/2000/svg" xmlns:xlink="http://www.w3.org/1999/xlink" width="32" height="32" viewBox="0 0 32 32">
<path d="M27.52 15.147l-5.333-5.333c-0.48-0.48-1.227-0.48-1.707 0s-0.48 1.227 0 1.707l3.28 3.28h-15.52l3.28-3.28c0.48-0.48 0.48-1.227 0-1.707s-1.227-0.48-1.707 0l-5.333 5.333c0 0-0.8 0.8 0 1.707l5.333 5.333c0.24 0.24 0.533 0.347 0.853 0.347s0.613-0.107 0.853-0.347c0.48-0.48 0.48-1.227 0-1.707l-3.28-3.28h15.547l-3.307 3.28c-0.48 0.48-0.48 1.227 0 1.707 0.24 0.24 0.533 0.347 0.853 0.347s0.613-0.107 0.853-0.347l5.333-5.333c0.8-0.933 0-1.707 0-1.707z"></path>
</svg>
