<?xml version="1.0" encoding="utf-8"?>
<!-- Generated by IcoMoon.io -->
<!DOCTYPE svg PUBLIC "-//W3C//DTD SVG 1.1//EN" "http://www.w3.org/Graphics/SVG/1.1/DTD/svg11.dtd">
<svg version="1.1" xmlns="http://www.w3.org/2000/svg" xmlns:xlink="http://www.w3.org/1999/xlink" width="32" height="32" viewBox="0 0 32 32">
<path d="M19.867 21.66v-20.326c0-0.663-0.537-1.2-1.2-1.2s-1.2 0.537-1.2 1.2v10.8h-1.6v-5.467c0-0.663-0.537-1.2-1.2-1.2h-1.333c-0.663 0-1.2 0.537-1.2 1.2s0.537 1.2 1.2 1.2h0.133v4.267h-1.6v-2.8c0-0.663-0.537-1.2-1.2-1.2h-1.333c-0.663 0-1.2 0.537-1.2 1.2s0.537 1.2 1.2 1.2h0.133v1.6h-0.133c-0.663 0-1.2 0.537-1.2 1.2v10.667c0 2.132 1.735 3.867 3.867 3.867h3.753c0.709 0.815 1.751 1.333 2.914 1.333 2.132 0 3.867-1.735 3.867-3.867 0-1.713-1.121-3.167-2.667-3.674zM12 25.467c-0.809 0-1.467-0.658-1.467-1.467v-9.467h6.933v7.126c-1.546 0.506-2.667 1.961-2.667 3.674 0 0.045 0.005 0.089 0.007 0.133h-2.807zM18.667 26.8c-0.809 0-1.467-0.658-1.467-1.467s0.658-1.467 1.467-1.467 1.467 0.658 1.467 1.467-0.658 1.467-1.467 1.467z"></path>
</svg>
