<?xml version="1.0" encoding="utf-8"?>
<!-- Generated by IcoMoon.io -->
<!DOCTYPE svg PUBLIC "-//W3C//DTD SVG 1.1//EN" "http://www.w3.org/Graphics/SVG/1.1/DTD/svg11.dtd">
<svg version="1.1" xmlns="http://www.w3.org/2000/svg" xmlns:xlink="http://www.w3.org/1999/xlink" width="32" height="32" viewBox="0 0 32 32">
<path d="M12.667 28.987l7.333-4.88 7.333 4.88c0.213 0.133 0.427 0.213 0.667 0.213 0.187 0 0.4-0.053 0.56-0.133 0.4-0.213 0.64-0.613 0.64-1.067v-18.667c0-0.4-0.213-0.773-0.533-0.987l-8-5.333c-0.72-0.453-1.333 0-1.333 0l-7.333 4.88-7.333-4.88c-0.373-0.24-0.853-0.267-1.227-0.053-0.4 0.213-0.64 0.613-0.64 1.067v18.667c0 0.4 0.213 0.773 0.533 0.987l8 5.333c0.72 0.453 1.333-0.027 1.333-0.027zM5.2 6.24l5.6 3.733v15.787l-5.6-3.733v-15.787zM18.8 22.027l-5.6 3.733v-15.787l5.6-3.733v15.787zM26.8 25.76l-5.6-3.733v-15.787l5.6 3.733v15.787z"></path>
</svg>
