<?xml version="1.0" encoding="utf-8"?>
<!-- Generated by IcoMoon.io -->
<!DOCTYPE svg PUBLIC "-//W3C//DTD SVG 1.1//EN" "http://www.w3.org/Graphics/SVG/1.1/DTD/svg11.dtd">
<svg version="1.1" xmlns="http://www.w3.org/2000/svg" xmlns:xlink="http://www.w3.org/1999/xlink" width="32" height="32" viewBox="0 0 32 32">
<path fill="#737373" d="M25.866 14.341c-0.168-0.11-0.891-0.69-1.661-1.322 1.255-2.548 1.406-5.703 0.274-7.576-0.986-1.629-2.74-2.602-4.692-2.602-1.948 0-3.698 0.973-4.683 2.602-0.235 0.389-0.391 0.868-0.486 1.397-0.903-1.005-2.202-1.585-3.619-1.585-1.725 0-3.277 0.862-4.149 2.306-0.969 1.6-0.403 4.726 0.748 6.736-0.047 0.017-0.092 0.033-0.131 0.046-0.181 0.064-0.354 0.125-0.508 0.186-0.39 0.154-0.832 0.328-1.227 0.566-1.504 0.911-2.53 2.296-2.888 3.899-0.019 0.086-0.029 0.174-0.029 0.262v8.569c-0.006 0.049-0.015 0.097-0.015 0.147 0 0.175 0.040 0.341 0.107 0.491 0.181 0.433 0.608 0.738 1.107 0.738 0.089 0 0.175-0.011 0.259-0.030h12.967c0.031 0.002 0.061 0.009 0.093 0.009s0.062-0.007 0.093-0.009h10.573c0.663 0 1.2-0.537 1.2-1.2v-9.316c0-0.088-0.010-0.175-0.029-0.261-0.466-2.087-1.937-3.223-3.305-4.053zM17.158 6.684c0.546-0.904 1.529-1.444 2.629-1.444 1.105 0 2.091 0.54 2.638 1.444 0.708 1.172 0.569 3.91-0.765 5.967-0.331 0.51-0.228 1.186 0.239 1.575 0.854 0.71 2.341 1.936 2.713 2.161 1.337 0.811 1.945 1.475 2.188 2.41v7.974h-8.267v-7.536c0-0.969-0.253-2.522-1.645-3.689 0.74-0.617 1.421-1.338 1.591-1.884 0.133-0.426 0.018-0.89-0.297-1.206-1.026-1.026-1.677-4.693-1.024-5.771zM6.973 17.148c0.22-0.133 0.548-0.262 0.865-0.386 0.129-0.051 0.275-0.102 0.427-0.155 0.902-0.318 1.924-0.679 2.214-1.613 0.134-0.431 0.015-0.901-0.309-1.216-1.083-1.054-1.758-4.164-1.267-4.975 0.434-0.719 1.217-1.148 2.095-1.148 0.881 0 1.667 0.429 2.102 1.149 0.555 0.917 0.322 3.439-0.734 5.119-0.148 0.204-0.233 0.453-0.233 0.715 0 0.346 0.148 0.666 0.393 0.888 0.27 0.311 0.855 0.909 1.585 1.212 0.009 0.004 0.018 0.008 0.027 0.012s0.016 0.008 0.024 0.011c0.034 0.014 0.080 0.030 0.136 0.050 0.855 0.308 1.836 0.862 1.836 2.423v7.537h-10.919v-7.373c0.239-0.909 0.86-1.705 1.758-2.249z"></path>
</svg>
