<?xml version="1.0" encoding="utf-8"?>
<!-- Generated by IcoMoon.io -->
<!DOCTYPE svg PUBLIC "-//W3C//DTD SVG 1.1//EN" "http://www.w3.org/Graphics/SVG/1.1/DTD/svg11.dtd">
<svg version="1.1" xmlns="http://www.w3.org/2000/svg" xmlns:xlink="http://www.w3.org/1999/xlink" width="32" height="32" viewBox="0 0 32 32">
<path d="M25.234 15.32c-0.183-0.112-1.047-0.792-2.567-2.057 1.473-2.272 1.825-5.52 0.785-7.241-0.766-1.267-2.137-2.023-3.665-2.023-1.37 0-3.049 0.531-3.656 2.023-0.328 0.805-0.775 3.123-0.91 3.848 1.073 0.021 2.034 0.561 2.578 1.461 0.649 1.069 0.475 3.171-0.345 4.703 0.125 0.115 0.276 0.233 0.419 0.289l0.047 0.017c1.814 0.645 2.195 1.979 2.195 2.985v6.076l6.827-0.059c0.586-0.005 1.057-0.481 1.057-1.067v-5.537c0-0.089-0.011-0.177-0.033-0.263-0.321-1.258-1.112-2.172-2.733-3.156z"></path>
<path d="M9.749 19.337c0-0.038 0.005-0.076 0.013-0.114 0.23-1.038 0.898-1.937 1.878-2.529 0.254-0.154 0.55-0.269 0.81-0.371 0.103-0.041 0.224-0.083 0.349-0.128 0.118-0.042 0.29-0.103 0.439-0.165-0.875-1.277-1.376-3.606-0.716-4.698 0.537-0.89 1.483-1.428 2.541-1.459l-0.923-1.707c-0.010-0.018-0.020-0.036-0.031-0.053-0.657-1.064-1.82-1.699-3.111-1.699-1.301 0-2.468 0.646-3.121 1.727-0.89 1.47 0.123 5.159 1.456 6.457-0.111 0.359-0.863 0.624-1.471 0.839-0.165 0.058-0.324 0.114-0.463 0.169-0.345 0.136-0.737 0.289-1.048 0.477-1.171 0.71-1.989 1.773-2.303 2.993-0.022 0.087-0.034 0.176-0.034 0.266v4.997c0 0.589 0.478 1.067 1.067 1.067h4.644l0.023-6.067z"></path>
<path d="M19.049 19.326c0-1.301-0.848-1.753-1.486-1.98l-0.079-0.029c-0.482-0.191-0.881-0.61-1.043-0.797-0.115-0.099-0.186-0.245-0.186-0.405 0-0.119 0.040-0.234 0.109-0.326 0.821-1.294 0.959-3.185 0.522-3.904-0.36-0.595-1.006-0.951-1.728-0.951-0.72 0-1.365 0.355-1.723 0.95-0.439 0.727 0.127 3.065 0.933 3.849 0.144 0.14 0.197 0.349 0.137 0.541-0.157 0.505-0.764 0.719-1.351 0.927-0.111 0.039-0.219 0.077-0.314 0.115-0.234 0.091-0.473 0.185-0.649 0.291-0.712 0.43-1.199 1.066-1.377 1.794l-0.033 8.657c0.040 0.005 0.079 0.012 0.12 0.012h8.032c0.039 0 0.077-0.007 0.115-0.012v-8.732z"></path>
</svg>
