<?xml version="1.0" encoding="utf-8"?>
<!-- Generated by IcoMoon.io -->
<!DOCTYPE svg PUBLIC "-//W3C//DTD SVG 1.1//EN" "http://www.w3.org/Graphics/SVG/1.1/DTD/svg11.dtd">
<svg version="1.1" xmlns="http://www.w3.org/2000/svg" xmlns:xlink="http://www.w3.org/1999/xlink" width="32" height="32" viewBox="0 0 32 32">
<path d="M4.4 27.547c0.027 0 0.027 0.027 0.053 0.027 1.44 0.853 3.36 1.627 5.52 1.627 2.4 0 4.507-0.987 6-1.947 1.493 0.933 3.6 1.947 6 1.947 2.133 0 4.080-0.8 5.52-1.627 0.027 0 0.027-0.027 0.053-0.027 0.693-0.427 1.28-0.853 1.733-1.2 0.027-0.027 0.053-0.027 0.053-0.053 0.48-0.4 0.773-0.667 0.827-0.72 0.453-0.453 0.48-1.227 0.027-1.68-0.053-0.053-0.347-0.347-0.827-0.747-0.027-0.027-0.053-0.027-0.053-0.053-0.533-0.427-1.253-0.96-2.133-1.467 2.293-3.573 2.027-8.133 2.027-8.347-0.027-0.347-0.187-0.64-0.453-0.853s-0.587-0.293-0.933-0.267c-0.133 0.027-2.613 0.4-5.307 1.867-0.080-1.307-0.373-2.533-0.8-3.68 0-0.027-0.027-0.053-0.027-0.080-1.573-4.133-4.8-7.013-4.96-7.173-0.453-0.4-1.147-0.4-1.6 0-0.187 0.16-3.28 3.013-4.8 7.147 0 0.027-0.027 0.053-0.027 0.080-0.427 1.147-0.72 2.373-0.8 3.68-2.693-1.467-5.173-1.84-5.307-1.84-0.347-0.053-0.667 0.053-0.933 0.267s-0.427 0.533-0.427 0.88c0 0.213-0.187 4.693 2.133 8.267-0.933 0.507-1.707 1.067-2.24 1.52-0.027 0.027-0.053 0.027-0.053 0.053-0.507 0.4-0.8 0.72-0.827 0.747-0.507 0.48-0.507 1.227-0.027 1.707 0.053 0.053 0.32 0.32 0.827 0.72 0.027 0.027 0.053 0.027 0.053 0.053 0.427 0.347 1.013 0.773 1.707 1.173zM27.467 24.72c-1.147 0.853-3.2 2.107-5.493 2.107 0 0 0 0 0 0-0.933 0-1.813-0.213-2.64-0.507 1.947-0.32 4.347-1.093 6.24-2.8 0.773 0.4 1.413 0.827 1.893 1.2zM22.267 16.987c1.6-1.12 3.307-1.76 4.453-2.107-0.133 1.76-0.64 4.72-2.56 6.667-1.52 1.52-3.653 2.16-5.36 2.427 1.333-1.68 2.907-4.107 3.467-6.987zM15.92 5.733c1.413 1.52 4.213 4.987 4.213 8.96-0.027 3.947-2.8 7.44-4.213 8.96-1.387-1.52-4.080-5.013-4.080-8.96s2.693-7.44 4.080-8.96zM9.68 16.987c0.56 2.827 2.053 5.253 3.307 6.907-1.653-0.32-3.653-0.987-5.12-2.453-1.92-1.92-2.48-4.827-2.64-6.56 1.173 0.347 2.88 0.987 4.453 2.107zM6.507 23.467c1.893 1.707 4.293 2.48 6.213 2.827-0.827 0.32-1.76 0.533-2.72 0.533 0 0 0 0 0 0-2.267 0-4.32-1.227-5.493-2.107 0.507-0.4 1.2-0.853 2-1.253z"></path>
</svg>
