<?xml version="1.0" encoding="utf-8"?>
<!-- Generated by IcoMoon.io -->
<!DOCTYPE svg PUBLIC "-//W3C//DTD SVG 1.1//EN" "http://www.w3.org/Graphics/SVG/1.1/DTD/svg11.dtd">
<svg version="1.1" xmlns="http://www.w3.org/2000/svg" xmlns:xlink="http://www.w3.org/1999/xlink" width="32" height="32" viewBox="0 0 32 32">
<path d="M6.667 29.067h18.666c0.002 0 0.004 0 0.005 0 0.589 0 1.067-0.478 1.067-1.067 0-0.036-0.002-0.072-0.005-0.107l-0.001-18.559c0-0.283-0.113-0.554-0.313-0.754l-5.333-5.333c-0.2-0.2-0.471-0.312-0.754-0.312h-13.333c-0.283 0-0.554 0.112-0.754 0.312s-0.313 0.471-0.313 0.754l0.001 23.999c0 0.589 0.478 1.067 1.067 1.067zM9.6 17.333c0-0.589 0.478-1.067 1.067-1.067h10.667c0.589 0 1.067 0.478 1.067 1.067s-0.478 1.067-1.067 1.067h-10.667c-0.589 0-1.067-0.478-1.067-1.067zM21.333 14.4h-10.667c-0.589 0-1.067-0.478-1.067-1.067s0.478-1.067 1.067-1.067h10.667c0.589 0 1.067 0.478 1.067 1.067s-0.478 1.067-1.067 1.067zM18.667 10.4h-8c-0.589 0-1.067-0.478-1.067-1.067s0.478-1.067 1.067-1.067h8c0.589 0 1.067 0.478 1.067 1.067s-0.478 1.067-1.067 1.067z"></path>
</svg>
