<?xml version="1.0" encoding="utf-8"?>
<!-- Generated by IcoMoon.io -->
<!DOCTYPE svg PUBLIC "-//W3C//DTD SVG 1.1//EN" "http://www.w3.org/Graphics/SVG/1.1/DTD/svg11.dtd">
<svg version="1.1" xmlns="http://www.w3.org/2000/svg" xmlns:xlink="http://www.w3.org/1999/xlink" width="32" height="32" viewBox="0 0 32 32">
<path d="M10.667 23.867c0.663 0 1.2-0.537 1.2-1.2v-1.467h8.267v2.8c0 0.663 0.537 1.2 1.2 1.2s1.2-0.537 1.2-1.2v-3.997c0-0.001 0-0.002 0-0.003s-0-0.002-0-0.003v-5.328c0-0.001 0-0.002 0-0.003s-0-0.002-0-0.003v-10.664c0-0.663-0.537-1.2-1.2-1.2s-1.2 0.537-1.2 1.2v9.467h-8.267v-9.467c0-0.663-0.537-1.2-1.2-1.2s-1.2 0.537-1.2 1.2v18.667c0 0.663 0.537 1.2 1.2 1.2zM11.867 15.867h8.267v2.933h-8.267v-2.933z"></path>
<path d="M25.073 26.463c-0.297-0.593-1.017-0.833-1.61-0.537-2.331 1.165-4.597 1.165-6.927 0-3.010-1.505-6.062-1.505-9.073 0-0.593 0.296-0.833 1.017-0.537 1.61s1.017 0.833 1.61 0.537c2.33-1.165 4.596-1.165 6.926 0 1.505 0.753 3.021 1.129 4.537 1.129s3.032-0.377 4.537-1.129c0.593-0.296 0.833-1.017 0.537-1.61z"></path>
</svg>
