<?xml version="1.0" encoding="utf-8"?>
<!-- Generated by IcoMoon.io -->
<!DOCTYPE svg PUBLIC "-//W3C//DTD SVG 1.1//EN" "http://www.w3.org/Graphics/SVG/1.1/DTD/svg11.dtd">
<svg version="1.1" xmlns="http://www.w3.org/2000/svg" xmlns:xlink="http://www.w3.org/1999/xlink" width="32" height="32" viewBox="0 0 32 32">
<path fill="#000" d="M19.994 5.966c0.562 0.223 1.105 0.497 1.622 0.811h-0.594c-0.663 0-1.2 0.537-1.2 1.2s0.537 1.2 1.2 1.2h3.725c0.355 0 0.694-0.151 0.93-0.414 0.371-0.414 0.338-0.908 0.317-1.117l0-3.44c0-0.663-0.537-1.2-1.2-1.2s-1.2 0.537-1.2 1.2v1.002c-0.844-0.593-1.755-1.091-2.712-1.472-0.615-0.245-1.314 0.055-1.559 0.671s0.055 1.313 0.671 1.558z"></path>
<path fill="#000" d="M12.021 26.040c-0.567-0.225-1.115-0.5-1.637-0.818h0.594c0.663 0 1.2-0.537 1.2-1.2s-0.537-1.2-1.2-1.2h-3.725c-0.355 0-0.694 0.151-0.93 0.414-0.371 0.414-0.338 0.908-0.317 1.117l-0 3.44c0 0.663 0.537 1.2 1.2 1.2s1.2-0.537 1.2-1.2v-1.002c0.849 0.596 1.767 1.098 2.73 1.48 0.145 0.058 0.294 0.085 0.442 0.085 0.478 0 0.929-0.287 1.116-0.758 0.245-0.616-0.057-1.313-0.673-1.558z"></path>
<path fill="#000" d="M20.277 25.917l-0.017 0.008c-1.455 0.625-3.002 0.921-4.566 0.874-0.667-0.022-1.215 0.502-1.235 1.164s0.502 1.215 1.164 1.235c0.127 0.004 0.255 0.006 0.383 0.006 1.792 0 3.542-0.361 5.221-1.082l0.012-0.005c0.607-0.266 0.884-0.973 0.618-1.581s-0.974-0.884-1.581-0.618z"></path>
<path fill="#000" d="M27.595 19.315c-0.615-0.244-1.313 0.056-1.558 0.672-0.579 1.459-1.486 2.797-2.621 3.869-0.482 0.455-0.504 1.214-0.049 1.696 0.236 0.25 0.554 0.376 0.873 0.376 0.295 0 0.592-0.109 0.824-0.328 1.388-1.311 2.496-2.946 3.204-4.728 0.245-0.616-0.056-1.313-0.672-1.558z"></path>
<path fill="#000" d="M11.259 6.177c0.159 0 0.32-0.031 0.474-0.098 0.002-0.001 0.003-0.002 0.005-0.002 1.46-0.627 3.012-0.926 4.582-0.874 0.013 0 0.026 0.001 0.039 0.001 0.645 0 1.178-0.512 1.199-1.161 0.021-0.662-0.498-1.217-1.161-1.238-1.923-0.059-3.821 0.301-5.606 1.068-0.008 0.003-0.015 0.006-0.021 0.009-0.606 0.269-0.878 0.978-0.609 1.583 0.199 0.447 0.637 0.713 1.097 0.713z"></path>
<path fill="#000" d="M6.090 20.294l-0.015-0.034c-0.583-1.358-0.879-2.789-0.879-4.254 0-0.113 0.002-0.225 0.006-0.337 0.021-0.662-0.499-1.216-1.162-1.237-0.661-0.009-1.216 0.499-1.237 1.162-0.004 0.137-0.006 0.274-0.006 0.412 0 1.792 0.361 3.542 1.074 5.203l0.013 0.030c0.195 0.455 0.638 0.728 1.103 0.728 0.158 0 0.318-0.031 0.472-0.097 0.609-0.261 0.891-0.966 0.63-1.575z"></path>
<path fill="#000" d="M28.129 10.793v0c-0.006-0.013-0.011-0.026-0.015-0.035-0.272-0.604-0.982-0.872-1.585-0.601-0.601 0.27-0.871 0.974-0.607 1.577 0.001 0.002 0.002 0.004 0.003 0.006 0.583 1.359 0.879 2.79 0.879 4.255 0 0.107-0.002 0.215-0.005 0.322-0.019 0.662 0.503 1.215 1.165 1.234 0.012 0 0.023 0.001 0.035 0.001 0.647 0 1.181-0.515 1.199-1.166 0.004-0.13 0.006-0.26 0.006-0.391 0-1.792-0.361-3.542-1.074-5.202z"></path>
<path fill="#000" d="M4.41 12.668c0.146 0.058 0.296 0.086 0.444 0.086 0.477 0 0.927-0.286 1.115-0.756 0.582-1.458 1.49-2.795 2.627-3.865 0.483-0.454 0.506-1.214 0.051-1.696s-1.214-0.506-1.696-0.051c-1.39 1.309-2.501 2.942-3.211 4.723-0.246 0.615 0.054 1.313 0.67 1.559z"></path>
<path fill="#000" d="M16 22.533c0.37 0 0.718-0.17 0.946-0.462 0.040-0.051 0.986-1.266 1.946-2.761 1.395-2.172 2.073-3.768 2.073-4.879 0-2.738-2.227-4.965-4.965-4.965s-4.965 2.227-4.965 4.965c0 1.111 0.678 2.707 2.073 4.879 0.96 1.495 1.906 2.71 1.946 2.761 0.227 0.291 0.576 0.462 0.946 0.462zM16 12.667c1.105 0 2 0.895 2 2s-0.895 2-2 2-2-0.895-2-2 0.895-2 2-2z"></path>
<path fill="#fff" d="M18 14.667c0 1.105-0.895 2-2 2s-2-0.895-2-2c0-1.105 0.895-2 2-2s2 0.895 2 2z"></path>
</svg>
