<?xml version="1.0" encoding="utf-8"?>
<!-- Generated by IcoMoon.io -->
<!DOCTYPE svg PUBLIC "-//W3C//DTD SVG 1.1//EN" "http://www.w3.org/Graphics/SVG/1.1/DTD/svg11.dtd">
<svg version="1.1" xmlns="http://www.w3.org/2000/svg" xmlns:xlink="http://www.w3.org/1999/xlink" width="32" height="32" viewBox="0 0 32 32">
<path d="M16 23.067c0.956 0 1.733-0.778 1.733-1.733s-0.778-1.733-1.733-1.733-1.733 0.778-1.733 1.733 0.778 1.733 1.733 1.733z"></path>
<path d="M19.866 17.468c0.234 0.234 0.541 0.351 0.849 0.351s0.614-0.117 0.849-0.351c0.469-0.469 0.469-1.228 0-1.697-1.486-1.486-3.461-2.304-5.563-2.304s-4.077 0.818-5.563 2.304c-0.469 0.469-0.469 1.229 0 1.697s1.229 0.469 1.697 0c1.032-1.033 2.405-1.601 3.866-1.601s2.833 0.569 3.866 1.601z"></path>
<path d="M8.363 13.696c2.039-2.040 4.752-3.163 7.637-3.163s5.597 1.123 7.637 3.163c0.234 0.234 0.541 0.351 0.849 0.351s0.614-0.117 0.849-0.351c0.469-0.469 0.469-1.228 0-1.697-2.493-2.493-5.807-3.866-9.334-3.866s-6.841 1.373-9.334 3.866c-0.469 0.469-0.469 1.228 0 1.697s1.228 0.469 1.697-0z"></path>
</svg>
