<?xml version="1.0" encoding="utf-8"?>
<!-- Generated by IcoMoon.io -->
<!DOCTYPE svg PUBLIC "-//W3C//DTD SVG 1.1//EN" "http://www.w3.org/Graphics/SVG/1.1/DTD/svg11.dtd">
<svg version="1.1" xmlns="http://www.w3.org/2000/svg" xmlns:xlink="http://www.w3.org/1999/xlink" width="32" height="32" viewBox="0 0 32 32">
<path d="M27.227 4.773c-3.013-2.987-6.987-4.64-11.227-4.64 0 0 0 0 0 0-4.24 0-8.213 1.653-11.227 4.64-2.987 3.013-4.64 6.987-4.64 11.227s1.653 8.213 4.64 11.227c2.987 2.987 6.987 4.64 11.227 4.64 0 0 0 0 0 0 4.24 0 8.213-1.653 11.227-4.64 2.987-2.987 4.64-6.987 4.64-11.227s-1.653-8.213-4.64-11.227zM24.853 16.827l-8 8c0 0-0.8 0.8-1.707 0v0l-8-8c-0.48-0.48-0.48-1.227 0-1.707 0.24-0.24 0.533-0.347 0.853-0.347s0.613 0.107 0.853 0.347l5.947 5.947v-13.067c0-0.667 0.533-1.2 1.2-1.2s1.2 0.533 1.2 1.2v13.093l5.947-5.947c0.48-0.48 1.227-0.48 1.707 0 0.453 0.453 0.453 1.227 0 1.68z"></path>
</svg>
