<?xml version="1.0" encoding="utf-8"?>
<!-- Generated by IcoMoon.io -->
<!DOCTYPE svg PUBLIC "-//W3C//DTD SVG 1.1//EN" "http://www.w3.org/Graphics/SVG/1.1/DTD/svg11.dtd">
<svg version="1.1" xmlns="http://www.w3.org/2000/svg" xmlns:xlink="http://www.w3.org/1999/xlink" width="32" height="32" viewBox="0 0 32 32">
<path d="M26.533 13.333c0-5.813-4.72-10.533-10.533-10.533s-10.533 4.72-10.533 10.533c0 3.92 2.133 7.36 5.333 9.173v8.16c0 0.453 0.24 0.853 0.64 1.067s0.853 0.187 1.227-0.053l3.333-2.213 3.333 2.213c0.213 0.133 0.427 0.213 0.667 0.213 0.187 0 0.4-0.053 0.56-0.133 0.4-0.213 0.64-0.613 0.64-1.067v-8.187c3.2-1.813 5.333-5.253 5.333-9.173zM18.8 28.427l-2.133-1.413c-0.4-0.267-0.933-0.267-1.333 0l-2.133 1.413v-4.933c0.88 0.24 1.84 0.373 2.8 0.373s1.92-0.133 2.8-0.373v4.933zM16 21.467c-4.48 0-8.133-3.653-8.133-8.133s3.653-8.133 8.133-8.133 8.133 3.653 8.133 8.133-3.653 8.133-8.133 8.133z"></path>
<path d="M18.667 16.133h-1.467v-6.8c0-0.48-0.293-0.933-0.747-1.12s-0.96-0.080-1.307 0.267l-2.667 2.667c-0.48 0.48-0.48 1.227 0 1.707s1.227 0.48 1.707 0l0.613-0.613v3.893h-1.467c-0.667 0-1.2 0.533-1.2 1.2s0.533 1.2 1.2 1.2h5.333c0.667 0 1.2-0.533 1.2-1.2s-0.533-1.2-1.2-1.2z"></path>
</svg>
