<?xml version="1.0" encoding="utf-8"?>
<!-- Generated by IcoMoon.io -->
<!DOCTYPE svg PUBLIC "-//W3C//DTD SVG 1.1//EN" "http://www.w3.org/Graphics/SVG/1.1/DTD/svg11.dtd">
<svg version="1.1" xmlns="http://www.w3.org/2000/svg" xmlns:xlink="http://www.w3.org/1999/xlink" width="32" height="32" viewBox="0 0 32 32">
<path d="M22.667 2.8c-1.812 0-3.516 0.748-4.74 2.039-0.994-0.452-2.097-0.706-3.26-0.706-2.885 0-5.516 1.576-6.89 4.070-2.844 0.424-4.976 2.841-4.976 5.796 0 3.235 2.632 5.867 5.867 5.867h15.333c2.867 0 5.2-2.333 5.2-5.2 0-0.908-0.235-1.762-0.646-2.506 0.423-0.878 0.646-1.841 0.646-2.828 0-3.603-2.931-6.533-6.533-6.533zM22.667 5.2c2.279 0 4.133 1.854 4.133 4.133 0 0.305-0.034 0.606-0.099 0.898-0.789-0.482-1.711-0.765-2.701-0.765-0.614 0-1.216 0.109-1.782 0.317-0.408-1.402-1.195-2.634-2.238-3.588 0.74-0.634 1.688-0.995 2.687-0.995zM24 17.467h-15.333c-1.911 0-3.467-1.555-3.467-3.467 0-1.895 1.486-3.416 3.382-3.461 0.467-0.011 0.885-0.292 1.071-0.72 0.87-1.996 2.838-3.285 5.013-3.285 1.063 0 2.054 0.305 2.894 0.829 0.001 0.001 0.002 0.002 0.004 0.003 0.006 0.004 0.011 0.006 0.017 0.009 1.465 0.923 2.462 2.521 2.545 4.378 0.021 0.464 0.307 0.874 0.735 1.054s0.922 0.095 1.267-0.216c0.517-0.466 1.181-0.723 1.871-0.723 1.544 0 2.8 1.256 2.8 2.8s-1.256 2.8-2.8 2.8z"></path>
</svg>
