<?xml version="1.0" encoding="utf-8"?>
<!-- Generated by IcoMoon.io -->
<!DOCTYPE svg PUBLIC "-//W3C//DTD SVG 1.1//EN" "http://www.w3.org/Graphics/SVG/1.1/DTD/svg11.dtd">
<svg version="1.1" xmlns="http://www.w3.org/2000/svg" xmlns:xlink="http://www.w3.org/1999/xlink" width="32" height="32" viewBox="0 0 32 32">
<path d="M8.008 22.8h-0.003c-0.662 0-1.198 0.537-1.198 1.2s0.539 1.2 1.201 1.2 1.2-0.537 1.2-1.2-0.537-1.2-1.2-1.2z"></path>
<path d="M12.008 22.8h-0.003c-0.662 0-1.198 0.537-1.198 1.2s0.539 1.2 1.201 1.2 1.2-0.537 1.2-1.2-0.537-1.2-1.2-1.2z"></path>
<path d="M16.008 22.8h-0.003c-0.662 0-1.198 0.537-1.198 1.2s0.539 1.2 1.201 1.2 1.2-0.537 1.2-1.2-0.537-1.2-1.2-1.2z"></path>
<path d="M20.008 22.8h-0.003c-0.662 0-1.198 0.537-1.198 1.2s0.539 1.2 1.201 1.2 1.2-0.537 1.2-1.2-0.537-1.2-1.2-1.2z"></path>
<path d="M24.008 22.8h-0.003c-0.662 0-1.198 0.537-1.198 1.2s0.539 1.2 1.201 1.2 1.2-0.537 1.2-1.2-0.537-1.2-1.2-1.2z"></path>
<path d="M20 21.2c0.663 0 1.2-0.537 1.2-1.2v-10.667c0-0.663-0.537-1.2-1.2-1.2s-1.2 0.537-1.2 1.2v4.147c-0.044-0.005-0.088-0.013-0.133-0.013h-5.333c-0.046 0-0.089 0.009-0.133 0.013v-4.147c0-0.663-0.537-1.2-1.2-1.2s-1.2 0.537-1.2 1.2v10.667c0 0.663 0.537 1.2 1.2 1.2s1.2-0.537 1.2-1.2v-4.147c0.044 0.005 0.088 0.013 0.133 0.013h5.333c0.046 0 0.089-0.009 0.133-0.013v4.147c0 0.663 0.537 1.2 1.2 1.2z"></path>
<path d="M25.333 2.8h-18.667c-2.132 0-3.867 1.735-3.867 3.867v18.667c0 2.132 1.735 3.867 3.867 3.867h18.667c2.132 0 3.867-1.735 3.867-3.867v-18.667c0-2.132-1.735-3.867-3.867-3.867zM26.8 25.333c0 0.809-0.658 1.467-1.467 1.467h-18.667c-0.809 0-1.467-0.658-1.467-1.467v-18.667c0-0.809 0.658-1.467 1.467-1.467h18.667c0.809 0 1.467 0.658 1.467 1.467v18.667z"></path>
</svg>
