<?xml version="1.0" encoding="utf-8"?>
<!-- Generated by IcoMoon.io -->
<!DOCTYPE svg PUBLIC "-//W3C//DTD SVG 1.1//EN" "http://www.w3.org/Graphics/SVG/1.1/DTD/svg11.dtd">
<svg version="1.1" xmlns="http://www.w3.org/2000/svg" xmlns:xlink="http://www.w3.org/1999/xlink" width="32" height="32" viewBox="0 0 32 32">
<path d="M11.429 5.2h12.571c0.663 0 1.2-0.537 1.2-1.2s-0.537-1.2-1.2-1.2h-12.571c-2.556 0.003-4.626 2.074-4.629 4.629v17.142c0.003 2.555 2.074 4.626 4.629 4.629h12.571c0.663 0 1.2-0.537 1.2-1.2s-0.537-1.2-1.2-1.2h-12.571c-1.231-0.002-2.228-0.999-2.229-2.229v-7.371h13.467c0.663 0 1.2-0.537 1.2-1.2s-0.537-1.2-1.2-1.2h-13.467v-7.371c0.002-1.231 0.999-2.228 2.229-2.229z"></path>
</svg>
