<?xml version="1.0" encoding="utf-8"?>
<!-- Generated by IcoMoon.io -->
<!DOCTYPE svg PUBLIC "-//W3C//DTD SVG 1.1//EN" "http://www.w3.org/Graphics/SVG/1.1/DTD/svg11.dtd">
<svg version="1.1" xmlns="http://www.w3.org/2000/svg" xmlns:xlink="http://www.w3.org/1999/xlink" width="32" height="32" viewBox="0 0 32 32">
<path d="M24.379 12.195l-3.179-1.060v-5.305l2.315-2.315c0.343-0.343 0.446-0.859 0.26-1.308s-0.623-0.741-1.109-0.741h-13.333c-0.485 0-0.923 0.292-1.109 0.741s-0.083 0.965 0.26 1.308l2.315 2.315v5.305l-3.179 1.060c-0.49 0.163-0.821 0.622-0.821 1.138v4c0 0.663 0.537 1.2 1.2 1.2h6.8v8.133l1.2 2.533 1.2-2.533v-8.133h6.8c0.663 0 1.2-0.537 1.2-1.2v-4c0-0.517-0.33-0.975-0.821-1.138zM22.8 16.133h-13.6v-1.935l3.179-1.060c0.49-0.163 0.821-0.622 0.821-1.138v-6.667c0-0.318-0.126-0.623-0.351-0.849l-0.618-0.618h7.539l-0.618 0.618c-0.225 0.225-0.351 0.53-0.351 0.849v6.667c0 0.517 0.33 0.975 0.821 1.138l3.179 1.060v1.935z"></path>
</svg>
