<?xml version="1.0" encoding="utf-8"?>
<!-- Generated by IcoMoon.io -->
<!DOCTYPE svg PUBLIC "-//W3C//DTD SVG 1.1//EN" "http://www.w3.org/Graphics/SVG/1.1/DTD/svg11.dtd">
<svg version="1.1" xmlns="http://www.w3.org/2000/svg" xmlns:xlink="http://www.w3.org/1999/xlink" width="32" height="32" viewBox="0 0 32 32">
<path d="M24 17.867c1.029 0 1.867-0.838 1.867-1.867s-0.838-1.867-1.867-1.867-1.867 0.838-1.867 1.867 0.838 1.867 1.867 1.867z"></path>
<path d="M28 10.8h-5.467v-5.467c0-0.318-0.126-0.623-0.351-0.849l-1.333-1.333c-0.225-0.225-0.53-0.351-0.849-0.351h-9.333c-0.663 0-1.2 0.537-1.2 1.2v6.8h-5.467c-0.663 0-1.2 0.537-1.2 1.2v12c0 0.663 0.537 1.2 1.2 1.2h5.333c0.046 0 0.089-0.009 0.134-0.014v2.814c0 0.663 0.537 1.2 1.2 1.2h10.667c0.663 0 1.2-0.537 1.2-1.2v-2.813c0.044 0.005 0.087 0.013 0.132 0.013h5.334c0.663 0 1.2-0.537 1.2-1.2v-12c0-0.663-0.537-1.2-1.2-1.2zM11.867 5.2h7.636l0.63 0.63v4.97h-8.267v-5.6zM20.133 26.8h-8.267v-5.6h8.267v5.6zM26.8 22.8h-4.134c-0.045 0-0.088 0.008-0.132 0.013v-2.813c0-0.663-0.537-1.2-1.2-1.2h-10.667c-0.663 0-1.2 0.537-1.2 1.2v2.814c-0.045-0.005-0.088-0.014-0.134-0.014h-4.133v-9.6h21.6v9.6z"></path>
</svg>
