<?xml version="1.0" encoding="utf-8"?>
<!-- Generated by IcoMoon.io -->
<!DOCTYPE svg PUBLIC "-//W3C//DTD SVG 1.1//EN" "http://www.w3.org/Graphics/SVG/1.1/DTD/svg11.dtd">
<svg version="1.1" xmlns="http://www.w3.org/2000/svg" xmlns:xlink="http://www.w3.org/1999/xlink" width="32" height="32" viewBox="0 0 32 32">
<path d="M16 0.133c-8.747 0-15.867 7.12-15.867 15.867s7.12 15.867 15.867 15.867 15.867-7.12 15.867-15.867-7.12-15.867-15.867-15.867zM16.027 24.053c-0.96 0-1.76-0.747-1.76-1.68s0.8-1.68 1.76-1.68c0.96 0 1.76 0.747 1.76 1.68s-0.773 1.68-1.76 1.68zM20.8 13.867c-0.16 0.48-0.4 0.907-0.72 1.28s-0.693 0.693-1.147 0.933c-0.453 0.267-0.96 0.507-1.547 0.72v1.707c0 0.16 0 0.267-0.027 0.347s-0.080 0.133-0.16 0.213c-0.080 0.053-0.213 0.133-0.4 0.16-0.187 0.053-0.427 0.080-0.747 0.080s-0.56-0.027-0.747-0.053c-0.187-0.053-0.293-0.107-0.373-0.16s-0.133-0.133-0.16-0.213c-0.080-0.107-0.107-0.213-0.107-0.373v-2.507c0-0.16 0.027-0.267 0.053-0.373s0.080-0.187 0.133-0.267c0.053-0.080 0.133-0.133 0.213-0.187s0.187-0.107 0.293-0.133c0.080-0.027 0.187-0.080 0.267-0.107 0.107-0.027 0.24-0.053 0.4-0.107 0.747-0.213 1.333-0.507 1.707-0.907s0.587-0.933 0.587-1.627c0-0.267-0.053-0.533-0.133-0.8-0.107-0.267-0.24-0.48-0.453-0.667s-0.453-0.347-0.72-0.48c-0.293-0.107-0.613-0.187-1.013-0.187-0.427 0-0.773 0.027-1.040 0.107-0.24 0.080-0.453 0.133-0.64 0.213s-0.373 0.133-0.507 0.213c-0.133 0.080-0.293 0.107-0.427 0.107-0.16 0-0.32-0.080-0.427-0.213s-0.213-0.32-0.293-0.507c-0.080-0.213-0.16-0.373-0.187-0.507s-0.053-0.267-0.053-0.4c0-0.053 0-0.107 0.027-0.187 0.027-0.053 0.053-0.133 0.133-0.187 0.053-0.053 0.16-0.133 0.293-0.213s0.293-0.16 0.507-0.24c0.133-0.053 0.293-0.107 0.453-0.16s0.347-0.107 0.56-0.133c0.213-0.053 0.453-0.080 0.747-0.107s0.613-0.053 0.96-0.053c0.773 0 1.44 0.107 2.053 0.32s1.12 0.507 1.547 0.88c0.427 0.373 0.747 0.827 0.987 1.333s0.347 1.093 0.347 1.707c0 0.667-0.080 1.253-0.24 1.733z"></path>
</svg>
