<?xml version="1.0" encoding="utf-8"?>
<!-- Generated by IcoMoon.io -->
<!DOCTYPE svg PUBLIC "-//W3C//DTD SVG 1.1//EN" "http://www.w3.org/Graphics/SVG/1.1/DTD/svg11.dtd">
<svg version="1.1" xmlns="http://www.w3.org/2000/svg" xmlns:xlink="http://www.w3.org/1999/xlink" width="32" height="32" viewBox="0 0 32 32">
<path d="M8.011 29.2c-1.458 0-2.909-0.184-4.311-0.546-0.53-0.137-0.9-0.615-0.9-1.162s0.37-1.025 0.899-1.162c6.148-1.592 10.552-6.884 11.053-13.1l-2.766-0.030c-0.483-0.005-0.916-0.299-1.098-0.747s-0.079-0.96 0.263-1.302l8-8c0.468-0.469 1.229-0.469 1.697 0l8 8c0.343 0.343 0.446 0.859 0.26 1.308s-0.623 0.741-1.109 0.741h-2.841c-0.618 8.926-8.073 16-17.148 16zM14.866 10.831l1.148 0.013c0.658 0.007 1.187 0.542 1.187 1.2 0 6.153-3.29 11.697-8.398 14.735 7.789-0.413 13.998-6.884 13.998-14.779 0-0.663 0.537-1.2 1.2-1.2h1.103l-5.103-5.103-5.134 5.134z"></path>
</svg>
