<?xml version="1.0" encoding="utf-8"?>
<!-- Generated by IcoMoon.io -->
<!DOCTYPE svg PUBLIC "-//W3C//DTD SVG 1.1//EN" "http://www.w3.org/Graphics/SVG/1.1/DTD/svg11.dtd">
<svg version="1.1" xmlns="http://www.w3.org/2000/svg" xmlns:xlink="http://www.w3.org/1999/xlink" width="32" height="32" viewBox="0 0 32 32">
<path d="M4 13.333v5.333h3.055c0.185 0.62 0.43 1.215 0.733 1.773l-2.159 2.159 3.771 3.771 2.159-2.159c0.559 0.303 1.153 0.549 1.774 0.734v3.055h5.333v-3.055c0.621-0.185 1.215-0.43 1.774-0.734l2.159 2.159 3.771-3.771-2.159-2.159c0.303-0.559 0.549-1.153 0.733-1.773h3.055v-5.333h-3.056c-0.185-0.62-0.43-1.214-0.733-1.773l2.16-2.16-3.771-3.771-2.16 2.16c-0.559-0.303-1.153-0.549-1.773-0.733v-3.056h-5.333v3.056c-0.62 0.185-1.214 0.43-1.773 0.733l-2.16-2.16-3.771 3.771 2.16 2.16c-0.303 0.559-0.549 1.153-0.733 1.773h-3.056zM16 11.25c2.624 0 4.75 2.127 4.75 4.75s-2.126 4.75-4.75 4.75-4.75-2.126-4.75-4.75 2.126-4.75 4.75-4.75z"></path>
</svg>
