<?xml version="1.0" encoding="utf-8"?>
<!-- Generated by IcoMoon.io -->
<!DOCTYPE svg PUBLIC "-//W3C//DTD SVG 1.1//EN" "http://www.w3.org/Graphics/SVG/1.1/DTD/svg11.dtd">
<svg version="1.1" xmlns="http://www.w3.org/2000/svg" xmlns:xlink="http://www.w3.org/1999/xlink" width="32" height="32" viewBox="0 0 32 32">
<path d="M28.667 11.967h-8.806l-2.72-8.339c-0.161-0.494-0.622-0.828-1.141-0.828s-0.98 0.334-1.141 0.828l-2.72 8.339h-8.806c-0.52 0-0.981 0.335-1.142 0.83s0.017 1.037 0.438 1.342l7.12 5.153-2.719 8.336c-0.161 0.494 0.014 1.036 0.434 1.342s0.989 0.307 1.41 0.002l7.125-5.156 7.125 5.157c0.21 0.152 0.457 0.228 0.704 0.228 0.248 0 0.496-0.077 0.707-0.23 0.42-0.306 0.595-0.848 0.434-1.342l-2.719-8.336 7.12-5.153c0.421-0.305 0.598-0.847 0.438-1.342s-0.621-0.83-1.142-0.83z"></path>
</svg>
