<?xml version="1.0" encoding="utf-8"?>
<!-- Generated by IcoMoon.io -->
<!DOCTYPE svg PUBLIC "-//W3C//DTD SVG 1.1//EN" "http://www.w3.org/Graphics/SVG/1.1/DTD/svg11.dtd">
<svg version="1.1" xmlns="http://www.w3.org/2000/svg" xmlns:xlink="http://www.w3.org/1999/xlink" width="32" height="32" viewBox="0 0 32 32">
<path d="M25.549 21.617l-6.882-2.95c0 0 0-1.333 0-1.333 2.667-1.333 2.667-3.861 2.667-5.334v-2.666c0-1.473-0.368-3.035-1.333-4-0.965-0.965-2.527-1.333-4-1.333s-3.035 0.368-4 1.333c-0.966 0.965-1.333 2.528-1.333 4v2.666c0 1.473 0 4.001 2.667 5.334v1.333c0-0-6.882 2.95-6.882 2.95-1.348 0.578-2.451 2.251-2.451 3.717s0 2.666 0 2.666h24c0 0 0-1.2 0-2.666s-1.103-3.139-2.451-3.717z"></path>
</svg>
