<?xml version="1.0" encoding="utf-8"?>
<!-- Generated by IcoMoon.io -->
<!DOCTYPE svg PUBLIC "-//W3C//DTD SVG 1.1//EN" "http://www.w3.org/Graphics/SVG/1.1/DTD/svg11.dtd">
<svg version="1.1" xmlns="http://www.w3.org/2000/svg" xmlns:xlink="http://www.w3.org/1999/xlink" width="32" height="32" viewBox="0 0 32 32">
<path d="M25.88 14.437c-0.167-0.109-0.884-0.685-1.65-1.313 1.248-2.538 1.397-5.678 0.27-7.542-0.982-1.623-2.73-2.593-4.675-2.593-1.941 0-3.685 0.969-4.666 2.592-1.050 1.735-0.597 5.226 0.491 7.389-0.011 0.005-0.022 0.009-0.033 0.013-0.785 0.306-1.667 0.651-2.348 1.131 0.552-1.71 0.537-3.612-0.143-4.737-0.743-1.229-2.064-1.963-3.533-1.963-1.466 0-2.785 0.734-3.527 1.962-0.686 1.133-0.51 3.591 0.44 5.394-0.083 0.030-0.163 0.059-0.237 0.088-0.321 0.126-0.684 0.269-1.018 0.471-1.261 0.763-2.122 1.927-2.423 3.275-0.019 0.086-0.029 0.173-0.029 0.261v9.134c0 0.663 0.537 1.2 1.2 1.2h24c0.663 0 1.2-0.537 1.2-1.2l0-9.265c0-0.088-0.010-0.175-0.029-0.261-0.464-2.080-1.93-3.211-3.292-4.037zM13.467 26.8h-8.267v-7.789c0.181-0.656 0.637-1.231 1.293-1.628 0.16-0.096 0.412-0.195 0.656-0.292 0.101-0.040 0.216-0.080 0.335-0.122 0.737-0.26 1.653-0.583 1.921-1.445 0.134-0.431 0.015-0.902-0.309-1.217-0.82-0.798-1.285-3.172-0.977-3.69 0.305-0.504 0.855-0.805 1.473-0.805 0.621 0 1.174 0.301 1.479 0.805 0.358 0.592 0.265 2.493-0.582 3.842-0.145 0.202-0.227 0.448-0.227 0.706 0 0.341 0.144 0.656 0.382 0.878 0.24 0.274 0.753 0.792 1.395 1.045 0.029 0.011 0.067 0.026 0.114 0.042 0.649 0.233 1.313 0.62 1.313 1.716v7.95zM26.8 26.8h-10.933v-7.95c0-0.749-0.177-1.91-1.097-2.858 0.466-0.285 1.306-0.613 1.719-0.773 1.088-0.425 1.807-0.706 2.040-1.452 0.133-0.426 0.018-0.89-0.297-1.205-1.020-1.020-1.668-4.666-1.019-5.738 0.543-0.898 1.519-1.434 2.612-1.434 1.098 0 2.078 0.537 2.621 1.434 0.704 1.165 0.565 3.888-0.761 5.933-0.331 0.51-0.228 1.187 0.239 1.575 0.85 0.707 2.33 1.927 2.701 2.151 1.329 0.806 1.933 1.466 2.175 2.395l-0 7.923z"></path>
</svg>
