<?xml version="1.0" encoding="utf-8"?>
<!-- Generated by IcoMoon.io -->
<!DOCTYPE svg PUBLIC "-//W3C//DTD SVG 1.1//EN" "http://www.w3.org/Graphics/SVG/1.1/DTD/svg11.dtd">
<svg version="1.1" xmlns="http://www.w3.org/2000/svg" xmlns:xlink="http://www.w3.org/1999/xlink" width="32" height="32" viewBox="0 0 32 32">
<path d="M16 6.933c-9.987 0-12.983 8.642-13.012 8.729-0.073 0.219-0.073 0.456 0 0.674 0.029 0.087 3.025 8.73 13.012 8.73s12.983-8.642 13.012-8.729c0.073-0.219 0.073-0.456 0-0.675-0.029-0.087-3.025-8.73-13.012-8.73zM16 22.4c-3.529 0-6.4-2.871-6.4-6.4s2.871-6.4 6.4-6.4c3.529 0 6.4 2.871 6.4 6.4s-2.871 6.4-6.4 6.4z"></path>
<path d="M16 13.6c-1.323 0-2.4 1.077-2.4 2.4s1.077 2.4 2.4 2.4c1.323 0 2.4-1.077 2.4-2.4s-1.077-2.4-2.4-2.4z"></path>
</svg>
