<?xml version="1.0" encoding="utf-8"?>
<!-- Generated by IcoMoon.io -->
<!DOCTYPE svg PUBLIC "-//W3C//DTD SVG 1.1//EN" "http://www.w3.org/Graphics/SVG/1.1/DTD/svg11.dtd">
<svg version="1.1" xmlns="http://www.w3.org/2000/svg" xmlns:xlink="http://www.w3.org/1999/xlink" width="32" height="32" viewBox="0 0 32 32">
<path d="M16 4.246c-6.543 0-11.867 5.323-11.867 11.867 0 2.811 0.985 5.396 2.625 7.432l-2.231 2.231c-0.469 0.469-0.469 1.229 0 1.697 0.234 0.234 0.541 0.351 0.849 0.351s0.614-0.117 0.849-0.351l2.218-2.219c2.054 1.701 4.689 2.725 7.558 2.725s5.503-1.024 7.558-2.725l2.261 2.261c0.234 0.234 0.541 0.351 0.849 0.351s0.614-0.117 0.849-0.351c0.469-0.469 0.469-1.229 0-1.697l-2.273-2.274c1.64-2.035 2.625-4.62 2.625-7.432-0.001-6.543-5.324-11.867-11.867-11.867zM16 25.579c-5.22 0-9.467-4.247-9.467-9.467s4.247-9.467 9.467-9.467 9.467 4.247 9.467 9.467-4.247 9.467-9.467 9.467z"></path>
<path d="M27.51 4.603c-0.736-0.736-1.546-1.404-2.408-1.987-0.549-0.371-1.295-0.227-1.666 0.322s-0.227 1.295 0.322 1.666c0.736 0.497 1.427 1.067 2.055 1.695 0.629 0.629 1.199 1.32 1.695 2.055 0.232 0.343 0.61 0.528 0.995 0.528 0.231 0 0.465-0.067 0.671-0.206 0.549-0.371 0.694-1.117 0.322-1.666-0.582-0.861-1.25-1.671-1.987-2.408z"></path>
<path d="M3.497 8.883c0.385 0 0.763-0.185 0.995-0.528 0.496-0.735 1.067-1.426 1.695-2.055 0.628-0.628 1.319-1.198 2.054-1.695 0.549-0.371 0.694-1.117 0.322-1.666s-1.117-0.694-1.666-0.322c-0.862 0.582-1.672 1.251-2.408 1.987s-1.405 1.547-1.987 2.408c-0.371 0.549-0.227 1.295 0.322 1.666 0.206 0.139 0.44 0.206 0.671 0.206z"></path>
<path d="M16 8.133c-0.663 0-1.2 0.537-1.2 1.2v3.77l-0.618-0.618c-0.468-0.469-1.229-0.469-1.697 0s-0.469 1.229 0 1.697l2.667 2.667c0.229 0.23 0.537 0.351 0.849 0.351 0.155 0 0.31-0.030 0.459-0.091 0.448-0.186 0.741-0.623 0.741-1.109v-6.667c0-0.663-0.537-1.2-1.2-1.2z"></path>
</svg>
