<?xml version="1.0" encoding="utf-8"?>
<!-- Generated by IcoMoon.io -->
<!DOCTYPE svg PUBLIC "-//W3C//DTD SVG 1.1//EN" "http://www.w3.org/Graphics/SVG/1.1/DTD/svg11.dtd">
<svg version="1.1" xmlns="http://www.w3.org/2000/svg" xmlns:xlink="http://www.w3.org/1999/xlink" width="32" height="32" viewBox="0 0 32 32">
<path d="M18.667 6.8c-1.812 0-3.516 0.748-4.739 2.039-0.994-0.452-2.097-0.706-3.26-0.706-4.338 0-7.867 3.529-7.867 7.867s3.529 7.867 7.867 7.867h9.333c2.867 0 5.2-2.333 5.2-5.2 0-0.908-0.235-1.762-0.646-2.506 0.423-0.878 0.646-1.841 0.646-2.828 0-3.602-2.931-6.533-6.533-6.533zM20 21.467h-9.333c-3.014 0-5.467-2.452-5.467-5.467s2.452-5.467 5.467-5.467c1.063 0 2.054 0.305 2.894 0.828 0.002 0.001 0.003 0.002 0.005 0.003 0.006 0.005 0.014 0.007 0.020 0.011 1.463 0.923 2.459 2.521 2.542 4.375 0.021 0.464 0.307 0.874 0.735 1.054s0.922 0.095 1.267-0.216c0.517-0.466 1.181-0.723 1.871-0.723 1.544 0 2.8 1.256 2.8 2.8s-1.256 2.8-2.8 2.8zM22.701 14.232c-0.789-0.482-1.711-0.765-2.701-0.765-0.613 0-1.216 0.109-1.782 0.316-0.408-1.402-1.195-2.634-2.239-3.588 0.74-0.634 1.688-0.995 2.687-0.995 2.279 0 4.133 1.854 4.133 4.133 0 0.305-0.034 0.606-0.099 0.899z"></path>
<path d="M18.667 5.2c0.663 0 1.2-0.537 1.2-1.2v-2.667c0-0.663-0.537-1.2-1.2-1.2s-1.2 0.537-1.2 1.2v2.667c0 0.663 0.537 1.2 1.2 1.2z"></path>
<path d="M30.667 12.16h-2.667c-0.663 0-1.2 0.537-1.2 1.2s0.537 1.2 1.2 1.2h2.667c0.663 0 1.2-0.537 1.2-1.2s-0.537-1.2-1.2-1.2z"></path>
<path d="M28.068 3.932c-0.468-0.469-1.229-0.469-1.697 0l-1.886 1.886c-0.469 0.469-0.469 1.229 0 1.697 0.234 0.234 0.541 0.351 0.848 0.351s0.614-0.117 0.849-0.351l1.886-1.886c0.469-0.469 0.469-1.229 0-1.697z"></path>
</svg>
