<?xml version="1.0" encoding="utf-8"?>
<!-- Generated by IcoMoon.io -->
<!DOCTYPE svg PUBLIC "-//W3C//DTD SVG 1.1//EN" "http://www.w3.org/Graphics/SVG/1.1/DTD/svg11.dtd">
<svg version="1.1" xmlns="http://www.w3.org/2000/svg" xmlns:xlink="http://www.w3.org/1999/xlink" width="32" height="32" viewBox="0 0 32 32">
<path fill="#737373" d="M16 2.8c-7.278 0-13.2 5.922-13.2 13.2s5.922 13.2 13.2 13.2 13.2-5.922 13.2-13.2-5.922-13.2-13.2-13.2zM16 26.8c-5.955 0-10.8-4.845-10.8-10.8s4.845-10.8 10.8-10.8 10.8 4.845 10.8 10.8-4.845 10.8-10.8 10.8z"></path>
<path fill="#737373" d="M16 10.533c1.46 0 2.833 0.569 3.866 1.601 0.469 0.469 1.228 0.469 1.697 0s0.469-1.228 0-1.697c-1.486-1.486-3.461-2.304-5.563-2.304s-4.077 0.818-5.563 2.304c-0.693 0.693-1.239 1.493-1.626 2.362h-0.811c-0.663 0-1.2 0.537-1.2 1.2s0.537 1.2 1.2 1.2h0.174c-0.026 0.264-0.040 0.531-0.040 0.8s0.014 0.536 0.040 0.8h-0.174c-0.663 0-1.2 0.537-1.2 1.2s0.537 1.2 1.2 1.2h0.811c0.387 0.869 0.933 1.67 1.626 2.362 1.486 1.486 3.461 2.304 5.563 2.304s4.077-0.818 5.563-2.304c0.469-0.469 0.469-1.228 0-1.697s-1.228-0.469-1.697 0c-1.033 1.032-2.405 1.601-3.866 1.601s-2.833-0.569-3.866-1.601c-0.208-0.208-0.391-0.433-0.561-0.666h4.426c0.663 0 1.2-0.537 1.2-1.2s-0.537-1.2-1.2-1.2h-5.402c-0.038-0.263-0.065-0.529-0.065-0.8s0.026-0.537 0.065-0.8h5.402c0.663 0 1.2-0.537 1.2-1.2s-0.537-1.2-1.2-1.2h-4.426c0.169-0.233 0.353-0.458 0.561-0.666 1.032-1.032 2.405-1.601 3.865-1.601z"></path>
</svg>
