<?xml version="1.0" encoding="utf-8"?>
<!-- Generated by IcoMoon.io -->
<!DOCTYPE svg PUBLIC "-//W3C//DTD SVG 1.1//EN" "http://www.w3.org/Graphics/SVG/1.1/DTD/svg11.dtd">
<svg version="1.1" xmlns="http://www.w3.org/2000/svg" xmlns:xlink="http://www.w3.org/1999/xlink" width="32" height="32" viewBox="0 0 32 32">
<path d="M23.41 19.017c-0.588-0.432-1.41-0.606-2.062 0.001-0.003 0.004-1.889 1.721-1.889 1.721-0.208-0.035-1.767-0.304-4.865-3.413-3.1-3.108-3.307-4.609-3.342-4.818 0 0 1.744-1.859 1.748-1.862 0.604-0.655 0.447-1.462 0.017-2.052 0 0-4.007-4.027-4.115-4.127-0.73-0.678-1.803-0.604-2.477 0.128-0.005 0.004-1.256 1.255-1.256 1.255-2.695 3.21-0.748 8.070 6.038 14.875s11.69 8.817 14.89 6.114c0 0 1.308-1.196 1.311-1.198 0.731-0.677 0.8-1.757 0.125-2.489-0.099-0.109-4.123-4.135-4.123-4.135z"></path>
</svg>
