<?xml version="1.0" encoding="utf-8"?>
<!-- Generated by IcoMoon.io -->
<!DOCTYPE svg PUBLIC "-//W3C//DTD SVG 1.1//EN" "http://www.w3.org/Graphics/SVG/1.1/DTD/svg11.dtd">
<svg version="1.1" xmlns="http://www.w3.org/2000/svg" xmlns:xlink="http://www.w3.org/1999/xlink" width="32" height="32" viewBox="0 0 32 32">
<path d="M16 2.8c-7.28 0-13.2 5.92-13.2 13.2s5.92 13.2 13.2 13.2 13.2-5.92 13.2-13.2-5.92-13.2-13.2-13.2zM26.773 15.147c-2.853-1.733-6.507-2.773-10.693-3.013-0.027 0-0.027 0-0.053 0h-0.32c-0.053-0.107-0.107-0.24-0.16-0.347l0.213-0.267c1.92-2.053 4.107-3.573 6.373-4.427 2.587 1.813 4.373 4.72 4.64 8.053zM19.36 5.733c-1.92 1.013-3.733 2.427-5.36 4.187-0.027 0.027-0.027 0.027-0.027 0.053l-0.24 0.293c-0.213-0.080-0.453-0.133-0.667-0.133l-0.107-0.267c-0.213-1.467-0.24-2.88-0.053-4.213 0.987-0.293 2.027-0.453 3.093-0.453 1.173 0 2.293 0.187 3.36 0.533zM10.427 6.747c-0.053 1.147 0.027 2.347 0.213 3.547 0 0.053 0.027 0.107 0.027 0.16l0.080 0.293c-0.507 0.4-0.907 0.96-1.093 1.6l-0.267 0.027c-0.027 0-0.080 0-0.107 0.027-1.28 0.24-2.507 0.533-3.707 0.907 0.693-2.773 2.48-5.12 4.853-6.56zM5.2 16c0-0.027 0-0.053 0-0.080 0.373-0.133 0.72-0.24 1.040-0.347 1.093-0.347 2.24-0.613 3.387-0.827l0.213-0.027c0.107 0.187 0.213 0.373 0.347 0.533l-0.16 0.293c0 0.027-0.027 0.027-0.027 0.053-1.147 2.16-2.027 4.48-2.64 6.907-1.36-1.84-2.16-4.080-2.16-6.507zM9.36 24.507c0.027-0.213 0.080-0.4 0.133-0.587 0.56-2.56 1.44-4.987 2.613-7.2l0.16-0.267c0.107 0.027 0.213 0.027 0.32 0.027l0.133 0.373c0.027 0.053 0.027 0.080 0.053 0.133 1.627 3.333 4.053 6.48 7.040 9.12-1.2 0.453-2.48 0.693-3.813 0.693-2.507 0-4.8-0.853-6.64-2.293zM22.107 24.907c-0.080-0.080-0.16-0.133-0.24-0.213-2.96-2.48-5.333-5.493-6.933-8.72l-0.107-0.293c0.373-0.32 0.667-0.72 0.853-1.173h0.293c4.373 0.267 8.053 1.44 10.667 3.44-0.533 2.88-2.213 5.36-4.533 6.96z"></path>
</svg>
