<?xml version="1.0" encoding="utf-8"?>
<!-- Generated by IcoMoon.io -->
<!DOCTYPE svg PUBLIC "-//W3C//DTD SVG 1.1//EN" "http://www.w3.org/Graphics/SVG/1.1/DTD/svg11.dtd">
<svg version="1.1" xmlns="http://www.w3.org/2000/svg" xmlns:xlink="http://www.w3.org/1999/xlink" width="32" height="32" viewBox="0 0 32 32">
<path d="M26.667 17.467h-0.133v-6.8c0-1.397-1.137-2.533-2.533-2.533h-16c-1.397 0-2.533 1.137-2.533 2.533v6.8h-0.133c-1.397 0-2.533 1.137-2.533 2.533v4c0 0.122 0.023 0.237 0.057 0.347v3.653c0 0.663 0.537 1.2 1.2 1.2s1.2-0.537 1.2-1.2v-2.8h21.543v2.8c0 0.663 0.537 1.2 1.2 1.2s1.2-0.537 1.2-1.2v-8c0-1.397-1.137-2.533-2.533-2.533zM7.867 10.667c0-0.073 0.060-0.133 0.133-0.133h16c0.074 0 0.133 0.060 0.133 0.133v6.8h-1.6v-0.133c0-2.132-1.735-3.867-3.867-3.867h-5.333c-2.132 0-3.867 1.735-3.867 3.867v0.133h-1.6v-6.8zM11.867 17.467v-0.133c0-0.809 0.658-1.467 1.467-1.467h5.333c0.809 0 1.467 0.658 1.467 1.467v0.133h-8.267zM5.2 22.8v-2.8c0-0.073 0.060-0.133 0.133-0.133h21.333c0.074 0 0.133 0.060 0.133 0.133v2.8h-21.6z"></path>
</svg>
