<?xml version="1.0" encoding="utf-8"?>
<!-- Generated by IcoMoon.io -->
<!DOCTYPE svg PUBLIC "-//W3C//DTD SVG 1.1//EN" "http://www.w3.org/Graphics/SVG/1.1/DTD/svg11.dtd">
<svg version="1.1" xmlns="http://www.w3.org/2000/svg" xmlns:xlink="http://www.w3.org/1999/xlink" width="32" height="32" viewBox="0 0 32 32">
<path d="M29.109 16.874c-0.133-0.321-0.399-0.569-0.729-0.679l-4.515-1.505c0-0.008 0.002-0.015 0.002-0.023v-5.333c0-0.663-0.537-1.2-1.2-1.2h-2.8v-4.133c0-0.663-0.537-1.2-1.2-1.2h-5.333c-0.663 0-1.2 0.537-1.2 1.2v4.133h-2.8c-0.663 0-1.2 0.537-1.2 1.2v5.333c0 0.008 0.002 0.015 0.002 0.023l-4.515 1.505c-0.33 0.11-0.596 0.358-0.729 0.679s-0.12 0.685 0.035 0.996l5.333 10.667c0.203 0.407 0.619 0.663 1.073 0.663h13.333c0.454 0 0.87-0.257 1.073-0.663l5.333-10.667c0.155-0.311 0.168-0.674 0.035-0.995zM14.534 5.2h2.933v2.933h-2.933v-2.933zM14.8 26.8h-4.725l-4.383-8.766 9.108-3.036v11.802zM15.638 12.189c-0.007 0.002-0.014 0.005-0.020 0.007l-5.085 1.695v-3.357h10.933v3.357l-5.075-1.691c-0.236-0.082-0.498-0.090-0.754-0.010zM21.925 26.8h-4.725v-11.802l9.107 3.036-4.383 8.766z"></path>
</svg>
