<?xml version="1.0" encoding="utf-8"?>
<!-- Generated by IcoMoon.io -->
<!DOCTYPE svg PUBLIC "-//W3C//DTD SVG 1.1//EN" "http://www.w3.org/Graphics/SVG/1.1/DTD/svg11.dtd">
<svg version="1.1" xmlns="http://www.w3.org/2000/svg" xmlns:xlink="http://www.w3.org/1999/xlink" width="32" height="32" viewBox="0 0 32 32">
<path d="M16 0.133c-4.238 0-8.223 1.65-11.219 4.647s-4.647 6.981-4.647 11.219 1.65 8.223 4.647 11.219c2.997 2.997 6.981 4.647 11.219 4.647s8.223-1.65 11.219-4.647c2.997-2.997 4.647-6.981 4.647-11.219s-1.65-8.223-4.647-11.219c-2.997-2.997-6.981-4.647-11.219-4.647zM25.522 25.522c-2.543 2.544-5.925 3.945-9.522 3.945s-6.979-1.401-9.522-3.945c-2.543-2.543-3.944-5.925-3.944-9.522s1.401-6.979 3.944-9.522 5.925-3.945 9.522-3.945 6.979 1.401 9.522 3.945c2.543 2.543 3.944 5.925 3.944 9.522s-1.401 6.979-3.944 9.522z"></path>
<path d="M24 12.133h-16c-0.663 0-1.2 0.537-1.2 1.2s0.537 1.2 1.2 1.2h16c0.663 0 1.2-0.537 1.2-1.2s-0.537-1.2-1.2-1.2z"></path>
<path d="M24 17.467h-16c-0.663 0-1.2 0.537-1.2 1.2s0.537 1.2 1.2 1.2h16c0.663 0 1.2-0.537 1.2-1.2s-0.537-1.2-1.2-1.2z"></path>
</svg>
