<?xml version="1.0" encoding="utf-8"?>
<!-- Generated by IcoMoon.io -->
<!DOCTYPE svg PUBLIC "-//W3C//DTD SVG 1.1//EN" "http://www.w3.org/Graphics/SVG/1.1/DTD/svg11.dtd">
<svg version="1.1" xmlns="http://www.w3.org/2000/svg" xmlns:xlink="http://www.w3.org/1999/xlink" width="32" height="32" viewBox="0 0 32 32">
<path d="M12.754 3.246c-0.2-0.2-0.471-0.313-0.754-0.313h-8c-0.589 0-1.067 0.478-1.067 1.067v8c0 0.283 0.113 0.554 0.313 0.754l16 16c0.208 0.208 0.481 0.313 0.754 0.313s0.546-0.104 0.754-0.313l8-8c0.417-0.417 0.417-1.092 0-1.508l-16-16zM10.4 8.667c0 0.956-0.778 1.733-1.733 1.733s-1.733-0.778-1.733-1.733 0.778-1.733 1.733-1.733 1.733 0.778 1.733 1.733z"></path>
</svg>
