<?xml version="1.0" encoding="utf-8"?>
<!-- Generated by IcoMoon.io -->
<!DOCTYPE svg PUBLIC "-//W3C//DTD SVG 1.1//EN" "http://www.w3.org/Graphics/SVG/1.1/DTD/svg11.dtd">
<svg version="1.1" xmlns="http://www.w3.org/2000/svg" xmlns:xlink="http://www.w3.org/1999/xlink" width="32" height="32" viewBox="0 0 32 32">
<path d="M22.667 17.467h-8.81l-0.914-1.6h8.391c0.663 0 1.2-0.537 1.2-1.2s-0.537-1.2-1.2-1.2h-9.762l-1.705-2.983v-4.483c0-1.767-1.433-3.2-3.2-3.2s-3.2 1.433-3.2 3.2v5.333c0 0.557 0.145 1.104 0.422 1.588l5.333 9.333c0.57 0.997 1.63 1.612 2.778 1.612h2.8v2.933h-2.8c-0.663 0-1.2 0.537-1.2 1.2s0.537 1.2 1.2 1.2h8c0.663 0 1.2-0.537 1.2-1.2s-0.537-1.2-1.2-1.2h-2.8v-2.933h5.467c1.767 0 3.2-1.433 3.2-3.2s-1.433-3.2-3.2-3.2zM5.972 11.73c-0.069-0.121-0.106-0.258-0.106-0.397v-5.333c0-0.442 0.358-0.8 0.8-0.8s0.8 0.358 0.8 0.8v5.121l1.34 2.346h-1.843l-0.992-1.737zM22.667 21.467h-10.667c-0.287 0-0.552-0.154-0.694-0.403l-2.97-5.197h1.843l2.286 4h10.202c0.442 0 0.8 0.358 0.8 0.8s-0.358 0.8-0.8 0.8z"></path>
</svg>
