<?xml version="1.0" encoding="utf-8"?>
<!-- Generated by IcoMoon.io -->
<!DOCTYPE svg PUBLIC "-//W3C//DTD SVG 1.1//EN" "http://www.w3.org/Graphics/SVG/1.1/DTD/svg11.dtd">
<svg version="1.1" xmlns="http://www.w3.org/2000/svg" xmlns:xlink="http://www.w3.org/1999/xlink" width="32" height="32" viewBox="0 0 32 32">
<path d="M5.311 26.667h5.333l2.667 1.333h10.667c1.105 0 2-0.895 2-2s-0.895-2-2-2h1.333c1.105 0 2-0.895 2-2s-0.895-2-2-2h0.667c1.105 0 2-0.895 2-2s-0.895-2-2-2h-0.667c1.105 0 2-0.895 2-2s-0.895-2-2-2h-8c0 0 5.333-8-1.333-8-2.833 7.834-6.667 9.333-8 9.333l-2.667 0.001c0-0.001-1.333 1.333-1.289 6.666s1.289 6.667 1.289 6.667z"></path>
</svg>
