<?xml version="1.0" encoding="utf-8"?>
<!-- Generated by IcoMoon.io -->
<!DOCTYPE svg PUBLIC "-//W3C//DTD SVG 1.1//EN" "http://www.w3.org/Graphics/SVG/1.1/DTD/svg11.dtd">
<svg version="1.1" xmlns="http://www.w3.org/2000/svg" xmlns:xlink="http://www.w3.org/1999/xlink" width="32" height="32" viewBox="0 0 32 32">
<path d="M21.333 5.467h-4.16c0-0.053 0.027-1.6 0.027-1.6h1.467c0.667 0 1.2-0.533 1.2-1.2s-0.533-1.2-1.2-1.2h-5.333c-0.667 0-1.2 0.533-1.2 1.2s0.533 1.2 1.2 1.2h1.467c0 0 0 1.547 0.027 1.6h-4.16c-2.133 0-3.867 1.733-3.867 3.867v13.333c0 1.733 1.093 3.2 2.667 3.68-0.027 0.107 0 1.653 0 1.653 0 0.667 0.533 1.2 1.2 1.2s1.173-0.533 1.173-1.2c0 0 0-1.413 0-1.467h8.293c0 0.053 0 1.467 0 1.467 0 0.667 0.533 1.2 1.173 1.2s1.147-0.533 1.147-1.2c0 0 0.027-1.547 0-1.653 1.6-0.48 2.747-1.947 2.747-3.68v-13.333c0-2.133-1.733-3.867-3.867-3.867zM10.667 7.867h10.667c0.8 0 1.467 0.667 1.467 1.467v4.133h-13.6v-4.133c0-0.8 0.667-1.467 1.467-1.467zM21.333 24.133h-10.667c-0.8 0-1.467-0.667-1.467-1.467v-2.8h2.8c0.667 0 1.2-0.533 1.2-1.2s-0.533-1.2-1.2-1.2h-2.8v-1.6h13.6v1.6h-2.8c-0.667 0-1.2 0.533-1.2 1.2s0.533 1.2 1.2 1.2h2.8v2.8c0 0.8-0.667 1.467-1.467 1.467z"></path>
</svg>
