<?xml version="1.0" encoding="utf-8"?>
<!-- Generated by IcoMoon.io -->
<!DOCTYPE svg PUBLIC "-//W3C//DTD SVG 1.1//EN" "http://www.w3.org/Graphics/SVG/1.1/DTD/svg11.dtd">
<svg version="1.1" xmlns="http://www.w3.org/2000/svg" xmlns:xlink="http://www.w3.org/1999/xlink" width="32" height="32" viewBox="0 0 32 32">
<path d="M24.951 14.827c-0.828-0.206-1.076 0.089-1.831 1.705-4.571 9.768-12.963 6.813-14.399-2.257l1.95-0.139c1.082-0.077 1.165-0.747 0.965-1.709-0.181-0.864-0.641-1.057-1.25-1.057h-6.211c-0.798 0-1.242 0.428-1.242 1.625 0 0.606 0.051 1.693 1.34 1.6l1.585-0.114c2.605 16.082 15.884 14.875 19.835 2.831 0.535-1.63 0.381-2.207-0.742-2.486z"></path>
<path d="M29.066 7.853c0 1.273-1.032 2.306-2.306 2.306s-2.306-1.032-2.306-2.306c0-1.273 1.032-2.306 2.306-2.306s2.306 1.032 2.306 2.306z"></path>
</svg>
