<?xml version="1.0" encoding="utf-8"?>
<!-- Generated by IcoMoon.io -->
<!DOCTYPE svg PUBLIC "-//W3C//DTD SVG 1.1//EN" "http://www.w3.org/Graphics/SVG/1.1/DTD/svg11.dtd">
<svg version="1.1" xmlns="http://www.w3.org/2000/svg" xmlns:xlink="http://www.w3.org/1999/xlink" width="32" height="32" viewBox="0 0 32 32">
<path d="M28 2.933h-24c-0.589 0-1.067 0.478-1.067 1.067v24c0 0.589 0.478 1.067 1.067 1.067h24c0.589 0 1.067-0.478 1.067-1.067v-24c0-0.589-0.478-1.067-1.067-1.067zM23.219 12.297c0.007 0.16 0.011 0.32 0.011 0.482 0 4.923-3.746 10.599-10.598 10.599-2.103 0-4.062-0.617-5.71-1.673 0.291 0.034 0.587 0.052 0.889 0.052 1.745 0 3.351-0.595 4.627-1.595-1.63-0.030-3.006-1.107-3.481-2.587 0.228 0.043 0.461 0.066 0.702 0.066 0.339 0 0.668-0.045 0.981-0.131-1.704-0.342-2.987-1.847-2.987-3.652 0-0.016 0-0.031 0-0.047 0.502 0.279 1.077 0.447 1.687 0.466-1-0.668-1.657-1.809-1.657-3.101 0-0.683 0.184-1.322 0.504-1.873 1.837 2.253 4.582 3.736 7.678 3.891-0.063-0.272-0.096-0.557-0.096-0.849 0-2.057 1.668-3.725 3.725-3.725 1.071 0 2.039 0.452 2.719 1.177 0.849-0.168 1.646-0.478 2.366-0.904-0.278 0.87-0.868 1.6-1.638 2.061 0.753-0.091 1.471-0.291 2.139-0.587-0.5 0.749-1.13 1.405-1.859 1.93z"></path>
</svg>
