<?xml version="1.0" encoding="utf-8"?>
<!-- Generated by IcoMoon.io -->
<!DOCTYPE svg PUBLIC "-//W3C//DTD SVG 1.1//EN" "http://www.w3.org/Graphics/SVG/1.1/DTD/svg11.dtd">
<svg version="1.1" xmlns="http://www.w3.org/2000/svg" xmlns:xlink="http://www.w3.org/1999/xlink" width="32" height="32" viewBox="0 0 32 32">
<path d="M27.811 10.117c-2.166-4.33-6.642-7.313-11.804-7.316-0.002 0-0.005-0.001-0.007-0.001s-0.005 0.001-0.006 0.001c-5.162 0.002-9.638 2.985-11.805 7.315-0.015 0.026-0.028 0.053-0.041 0.080-0.862 1.753-1.348 3.722-1.348 5.803s0.486 4.050 1.347 5.803c0.014 0.028 0.027 0.057 0.043 0.083 2.167 4.332 6.646 7.314 11.81 7.314 5.17 0 9.652-2.989 11.817-7.328 0.017-0.031 0.034-0.063 0.049-0.096 0.853-1.746 1.334-3.706 1.334-5.776 0-2.082-0.486-4.051-1.348-5.804-0.013-0.027-0.026-0.053-0.040-0.079zM17.2 26.403v-5.187c1 0.023 1.982 0.074 2.931 0.153-0.672 2.495-1.772 4.283-2.931 5.035zM11.868 21.368c0.95-0.078 1.932-0.129 2.932-0.152v5.188c-1.16-0.751-2.26-2.539-2.932-5.036zM5.2 16c0-1.36 0.255-2.66 0.716-3.859 0.953 0.234 1.993 0.432 3.099 0.591-0.14 1.042-0.215 2.136-0.215 3.269s0.075 2.227 0.215 3.269c-1.106 0.159-2.146 0.357-3.099 0.591-0.461-1.2-0.716-2.5-0.716-3.86zM11.2 16c0-1.055 0.071-2.057 0.197-2.994 1.094 0.096 2.235 0.156 3.403 0.181v5.629c-1.168 0.025-2.308 0.085-3.403 0.181-0.126-0.938-0.197-1.94-0.197-2.995zM14.8 5.597v5.188c-1-0.023-1.983-0.074-2.932-0.152 0.672-2.497 1.772-4.285 2.932-5.036zM20.132 10.632c-0.95 0.078-1.932 0.13-2.932 0.153v-5.187c1.16 0.752 2.26 2.539 2.932 5.035zM17.2 18.815v-5.629c1.168-0.025 2.308-0.085 3.402-0.181 0.126 0.938 0.197 1.939 0.197 2.995s-0.071 2.057-0.197 2.995c-1.095-0.096-2.234-0.156-3.402-0.181zM22.985 12.731c1.106-0.159 2.146-0.357 3.099-0.591 0.461 1.199 0.716 2.5 0.716 3.859s-0.255 2.661-0.716 3.86c-0.953-0.234-1.993-0.432-3.099-0.591 0.14-1.042 0.215-2.137 0.215-3.27s-0.075-2.226-0.215-3.269zM24.936 9.942c-0.747 0.164-1.552 0.306-2.402 0.425-0.374-1.489-0.894-2.818-1.529-3.933 1.58 0.83 2.932 2.039 3.931 3.507zM10.994 6.435c-0.634 1.115-1.154 2.444-1.529 3.933-0.85-0.119-1.655-0.261-2.402-0.425 0.999-1.469 2.35-2.678 3.931-3.508zM7.064 22.058c0.747-0.164 1.552-0.306 2.402-0.425 0.374 1.489 0.894 2.818 1.529 3.933-1.581-0.83-2.932-2.039-3.931-3.508zM21.005 25.565c0.634-1.114 1.155-2.444 1.529-3.933 0.85 0.119 1.655 0.261 2.402 0.425-0.999 1.469-2.35 2.677-3.931 3.507z"></path>
</svg>
