<?xml version="1.0" encoding="utf-8"?>
<!-- Generated by IcoMoon.io -->
<!DOCTYPE svg PUBLIC "-//W3C//DTD SVG 1.1//EN" "http://www.w3.org/Graphics/SVG/1.1/DTD/svg11.dtd">
<svg version="1.1" xmlns="http://www.w3.org/2000/svg" xmlns:xlink="http://www.w3.org/1999/xlink" width="32" height="32" viewBox="0 0 32 32">
<path fill="#737373" d="M28.061 26.8h-24.061c-0.663 0-1.2 0.537-1.2 1.2s0.537 1.2 1.2 1.2h24.061c0.663 0 1.2-0.537 1.2-1.2s-0.537-1.2-1.2-1.2z"></path>
<path fill="#737373" d="M5.155 12.707c-0.39-0.435-1.037-0.527-1.531-0.216s-0.694 0.933-0.472 1.473l1.827 4.442c0.153 0.372 0.482 0.642 0.876 0.72l18.985 3.777c0.008 0.002 0.016 0.003 0.024 0.005 0.118 0.023 0.238 0.035 0.358 0.035 0 0 0 0 0 0 0.886 0 1.656-0.631 1.83-1.503 0.097-0.489-0.002-0.986-0.279-1.401s-0.699-0.696-1.188-0.794c-0.006-0.001-0.011-0.002-0.017-0.003l-5.49-1.092-6.504-12.973c-0.233-0.465-0.767-0.694-1.264-0.543s-0.813 0.638-0.748 1.154l1.38 10.942-5.090-1.013-2.697-3.010z"></path>
</svg>
