<?xml version="1.0" encoding="utf-8"?>
<!-- Generated by IcoMoon.io -->
<!DOCTYPE svg PUBLIC "-//W3C//DTD SVG 1.1//EN" "http://www.w3.org/Graphics/SVG/1.1/DTD/svg11.dtd">
<svg version="1.1" xmlns="http://www.w3.org/2000/svg" xmlns:xlink="http://www.w3.org/1999/xlink" width="32" height="32" viewBox="0 0 32 32">
<path d="M9.333 2.8c-2.132 0-3.866 1.735-3.866 3.867v18.667c0 2.132 1.735 3.867 3.867 3.867h13.334c2.132 0 3.866-1.735 3.866-3.867v-18.667c0-2.132-1.735-3.867-3.867-3.867h-13.334zM24.133 6.667v18.667c0 0.809-0.658 1.467-1.466 1.467h-13.334c-0.809 0-1.467-0.658-1.467-1.467v-18.667c0-0.809 0.658-1.467 1.466-1.467h13.334c0.809 0 1.467 0.658 1.467 1.467z"></path>
<path d="M16 22.133c-1.029 0-1.867 0.837-1.867 1.867s0.837 1.867 1.867 1.867 1.867-0.837 1.867-1.867-0.837-1.867-1.867-1.867z"></path>
<path d="M17.334 6.8h-2.667c-0.663 0-1.2 0.537-1.2 1.2s0.537 1.2 1.2 1.2h2.667c0.663 0 1.2-0.537 1.2-1.2s-0.537-1.2-1.2-1.2z"></path>
</svg>
