<?xml version="1.0" encoding="utf-8"?>
<!-- Generated by IcoMoon.io -->
<!DOCTYPE svg PUBLIC "-//W3C//DTD SVG 1.1//EN" "http://www.w3.org/Graphics/SVG/1.1/DTD/svg11.dtd">
<svg version="1.1" xmlns="http://www.w3.org/2000/svg" xmlns:xlink="http://www.w3.org/1999/xlink" width="32" height="32" viewBox="0 0 32 32">
<path d="M8 25.2h16c0.667 0 1.2-0.533 1.2-1.2v-2.667c0-0.667-0.533-1.2-1.2-1.2s-1.2 0.533-1.2 1.2v1.467h-13.6v-1.467c0-0.667-0.533-1.2-1.2-1.2s-1.2 0.533-1.2 1.2v2.667c0 0.667 0.533 1.2 1.2 1.2z"></path>
<path d="M16.853 20.853l4-4c0.48-0.48 0.48-1.227 0-1.707s-1.227-0.48-1.707 0l-1.947 1.947v-9.093c0-0.667-0.533-1.2-1.2-1.2s-1.2 0.533-1.2 1.2v9.093l-1.947-1.947c-0.48-0.48-1.227-0.48-1.707 0s-0.48 1.227 0 1.707l4 4c0 0 0.8 0.8 1.707 0z"></path>
</svg>
