<?xml version="1.0" encoding="utf-8"?>
<!-- Generated by IcoMoon.io -->
<!DOCTYPE svg PUBLIC "-//W3C//DTD SVG 1.1//EN" "http://www.w3.org/Graphics/SVG/1.1/DTD/svg11.dtd">
<svg version="1.1" xmlns="http://www.w3.org/2000/svg" xmlns:xlink="http://www.w3.org/1999/xlink" width="32" height="32" viewBox="0 0 32 32">
<path d="M28.397 17.558c-0.172-0.64-0.829-1.020-1.47-0.849l-4.984 1.335-3.543-2.045 3.543-2.046 4.984 1.336c0.104 0.028 0.209 0.041 0.311 0.041 0.53 0 1.015-0.354 1.158-0.89 0.172-0.64-0.208-1.298-0.849-1.47l-2.666-0.714 2.11-1.218c0.574-0.331 0.771-1.065 0.439-1.639s-1.065-0.77-1.639-0.439l-2.11 1.218 0.714-2.666c0.172-0.64-0.208-1.298-0.849-1.47s-1.298 0.208-1.47 0.849l-1.335 4.984-3.543 2.046v-4.091l3.649-3.649c0.469-0.469 0.469-1.229 0-1.697s-1.229-0.469-1.697 0l-1.952 1.951v-2.436c0-0.663-0.537-1.2-1.2-1.2s-1.2 0.537-1.2 1.2v2.436l-1.951-1.951c-0.468-0.469-1.229-0.469-1.697 0s-0.469 1.229 0 1.697l3.648 3.649v4.091l-3.543-2.046-1.335-4.984c-0.172-0.64-0.828-1.020-1.47-0.849-0.64 0.171-1.020 0.83-0.849 1.47l0.714 2.666-2.11-1.218c-0.574-0.331-1.308-0.135-1.639 0.439s-0.135 1.308 0.439 1.639l2.11 1.218-2.666 0.714c-0.64 0.171-1.020 0.83-0.849 1.47 0.144 0.536 0.628 0.89 1.158 0.89 0.103 0 0.207-0.013 0.311-0.041l4.984-1.335 3.544 2.046-3.543 2.046-4.984-1.335c-0.64-0.171-1.298 0.208-1.47 0.849s0.208 1.298 0.849 1.47l2.666 0.714-2.11 1.218c-0.574 0.331-0.771 1.065-0.439 1.639 0.222 0.385 0.626 0.6 1.040 0.6 0.204 0 0.41-0.052 0.599-0.161l2.11-1.218-0.714 2.666c-0.172 0.64 0.208 1.298 0.849 1.47 0.104 0.028 0.209 0.041 0.311 0.041 0.53 0 1.015-0.354 1.158-0.89l1.335-4.984 3.543-2.046v4.091l-3.649 3.649c-0.469 0.469-0.469 1.229 0 1.697s1.229 0.469 1.697 0l1.951-1.951v2.436c0 0.663 0.537 1.2 1.2 1.2s1.2-0.537 1.2-1.2v-2.436l1.951 1.951c0.234 0.234 0.541 0.351 0.849 0.351s0.614-0.117 0.849-0.351c0.469-0.469 0.469-1.229 0-1.697l-3.648-3.649v-4.091l3.543 2.046 1.336 4.984c0.144 0.536 0.628 0.89 1.158 0.89 0.103 0 0.207-0.013 0.311-0.041 0.64-0.172 1.020-0.83 0.849-1.47l-0.714-2.666 2.11 1.218c0.189 0.109 0.395 0.161 0.599 0.161 0.415 0 0.818-0.215 1.040-0.6 0.331-0.574 0.135-1.308-0.439-1.639l-2.11-1.218 2.666-0.714c0.64-0.171 1.020-0.829 0.848-1.47z"></path>
</svg>
