<?xml version="1.0" encoding="utf-8"?>
<!-- Generated by IcoMoon.io -->
<!DOCTYPE svg PUBLIC "-//W3C//DTD SVG 1.1//EN" "http://www.w3.org/Graphics/SVG/1.1/DTD/svg11.dtd">
<svg version="1.1" xmlns="http://www.w3.org/2000/svg" xmlns:xlink="http://www.w3.org/1999/xlink" width="32" height="32" viewBox="0 0 32 32">
<path d="M28 16.133h-1.48c0.005-0.045 0.014-0.088 0.014-0.133 0-5.808-4.725-10.533-10.533-10.533s-10.533 4.725-10.533 10.533c0 0.046 0.009 0.089 0.014 0.133h-1.48c-0.663 0-1.2 0.537-1.2 1.2s0.537 1.2 1.2 1.2h24c0.663 0 1.2-0.537 1.2-1.2s-0.537-1.2-1.2-1.2zM7.867 16c0-4.485 3.649-8.133 8.133-8.133s8.133 3.649 8.133 8.133c0 0.046 0.009 0.089 0.014 0.133h-16.294c0.005-0.045 0.014-0.088 0.014-0.133z"></path>
<path d="M23.658 20.133h-15.315c-0.663 0-1.2 0.537-1.2 1.2s0.537 1.2 1.2 1.2h15.315c0.663 0 1.2-0.537 1.2-1.2s-0.537-1.2-1.2-1.2z"></path>
<path d="M17.156 24.133h-2.4c-0.663 0-1.2 0.537-1.2 1.2s0.537 1.2 1.2 1.2h2.4c0.663 0 1.2-0.537 1.2-1.2s-0.537-1.2-1.2-1.2z"></path>
</svg>
