<?xml version="1.0" encoding="utf-8"?>
<!-- Generated by IcoMoon.io -->
<!DOCTYPE svg PUBLIC "-//W3C//DTD SVG 1.1//EN" "http://www.w3.org/Graphics/SVG/1.1/DTD/svg11.dtd">
<svg version="1.1" xmlns="http://www.w3.org/2000/svg" xmlns:xlink="http://www.w3.org/1999/xlink" width="32" height="32" viewBox="0 0 32 32">
<path d="M8.537 22.407c2.33-1.165 4.596-1.165 6.926 0 1.505 0.753 3.021 1.129 4.537 1.129s3.032-0.377 4.537-1.129c0.593-0.296 0.833-1.017 0.537-1.61s-1.017-0.833-1.61-0.537c-2.331 1.165-4.597 1.165-6.927 0-3.010-1.505-6.062-1.505-9.073 0-0.593 0.296-0.833 1.017-0.537 1.61s1.017 0.832 1.61 0.537z"></path>
<path d="M8.537 17.073c2.33-1.165 4.596-1.165 6.926 0 1.505 0.753 3.021 1.129 4.537 1.129s3.032-0.377 4.537-1.129c0.593-0.296 0.833-1.017 0.537-1.61s-1.017-0.833-1.61-0.537c-2.331 1.165-4.597 1.165-6.927 0-3.010-1.505-6.062-1.505-9.073 0-0.593 0.296-0.833 1.017-0.537 1.61s1.017 0.832 1.61 0.537z"></path>
<path d="M8.537 11.709c2.33-1.165 4.596-1.165 6.926 0 1.505 0.753 3.021 1.129 4.537 1.129s3.032-0.377 4.537-1.129c0.593-0.297 0.833-1.017 0.537-1.61s-1.017-0.833-1.61-0.537c-2.331 1.166-4.597 1.166-6.927 0-3.010-1.505-6.062-1.505-9.073 0-0.593 0.296-0.833 1.017-0.537 1.61s1.017 0.833 1.61 0.537z"></path>
</svg>
