<?xml version="1.0" encoding="utf-8"?>
<!-- Generated by IcoMoon.io -->
<!DOCTYPE svg PUBLIC "-//W3C//DTD SVG 1.1//EN" "http://www.w3.org/Graphics/SVG/1.1/DTD/svg11.dtd">
<svg version="1.1" xmlns="http://www.w3.org/2000/svg" xmlns:xlink="http://www.w3.org/1999/xlink" width="32" height="32" viewBox="0 0 32 32">
<path d="M27.999 5.467h-2.799v-1.467c0-0.663-0.537-1.2-1.2-1.2s-1.2 0.537-1.2 1.2v1.467h-13.6v-1.467c0-0.663-0.537-1.2-1.2-1.2s-1.2 0.537-1.2 1.2v1.467h-2.8c-0.318 0-0.623 0.126-0.849 0.351s-0.351 0.53-0.351 0.849l0.001 21.333c0 0.663 0.537 1.2 1.2 1.2h23.999c0.318 0 0.623-0.126 0.849-0.351s0.351-0.53 0.351-0.849l-0.001-21.333c0-0.663-0.537-1.2-1.2-1.2zM5.201 26.8l-0.001-18.933h1.6v1.467c0 0.663 0.537 1.2 1.2 1.2s1.2-0.537 1.2-1.2v-1.467h13.6v1.467c0 0.663 0.537 1.2 1.2 1.2s1.2-0.537 1.2-1.2v-1.467h1.599l0.001 18.933h-21.599z"></path>
<path d="M10.667 12.133c-1.029 0-1.867 0.837-1.867 1.867s0.837 1.867 1.867 1.867 1.867-0.837 1.867-1.867-0.837-1.867-1.867-1.867z"></path>
<path d="M16 12.133c-1.029 0-1.867 0.837-1.867 1.867s0.837 1.867 1.867 1.867 1.867-0.837 1.867-1.867-0.837-1.867-1.867-1.867z"></path>
<path d="M21.333 12.133c-1.029 0-1.867 0.837-1.867 1.867s0.837 1.867 1.867 1.867 1.867-0.837 1.867-1.867-0.837-1.867-1.867-1.867z"></path>
<path d="M10.667 18.8c-1.029 0-1.867 0.837-1.867 1.867s0.837 1.867 1.867 1.867 1.867-0.837 1.867-1.867-0.837-1.867-1.867-1.867z"></path>
<path d="M16 18.8c-1.029 0-1.867 0.837-1.867 1.867s0.837 1.867 1.867 1.867 1.867-0.837 1.867-1.867-0.837-1.867-1.867-1.867z"></path>
<path d="M21.333 18.8c-1.029 0-1.867 0.837-1.867 1.867s0.837 1.867 1.867 1.867 1.867-0.837 1.867-1.867-0.837-1.867-1.867-1.867z"></path>
</svg>
