<?xml version="1.0" encoding="utf-8"?>
<!-- Generated by IcoMoon.io -->
<!DOCTYPE svg PUBLIC "-//W3C//DTD SVG 1.1//EN" "http://www.w3.org/Graphics/SVG/1.1/DTD/svg11.dtd">
<svg version="1.1" xmlns="http://www.w3.org/2000/svg" xmlns:xlink="http://www.w3.org/1999/xlink" width="32" height="32" viewBox="0 0 32 32">
<path fill="#737373" d="M21.73 4.917c-1.944 2.43-2.93 6.607-2.93 12.416 0 0.663 0.537 1.2 1.2 1.2h4.133v9.467c0 0.663 0.537 1.2 1.2 1.2s1.2-0.537 1.2-1.2v-24c0-0.663-0.537-1.2-1.2-1.2-0.195 0-1.958 0.059-3.604 2.117zM24.133 16.133h-2.918c0.171-6.618 1.755-9.236 2.918-10.267v10.267z"></path>
<path fill="#737373" d="M9.467 15.763v12.237c0 0.663 0.537 1.2 1.2 1.2s1.2-0.537 1.2-1.2v-12.237c2.318-0.393 4-1.904 4-3.763v-8c0-0.663-0.537-1.2-1.2-1.2s-1.2 0.537-1.2 1.2v8c0 0.492-0.645 1.040-1.6 1.305v-9.305c0-0.663-0.537-1.2-1.2-1.2s-1.2 0.537-1.2 1.2v9.305c-0.955-0.265-1.6-0.813-1.6-1.305v-8c0-0.663-0.537-1.2-1.2-1.2s-1.2 0.537-1.2 1.2v8c0 1.86 1.682 3.37 4 3.763z"></path>
</svg>
