<?xml version="1.0" encoding="utf-8"?>
<!-- Generated by IcoMoon.io -->
<!DOCTYPE svg PUBLIC "-//W3C//DTD SVG 1.1//EN" "http://www.w3.org/Graphics/SVG/1.1/DTD/svg11.dtd">
<svg version="1.1" xmlns="http://www.w3.org/2000/svg" xmlns:xlink="http://www.w3.org/1999/xlink" width="32" height="32" viewBox="0 0 32 32">
<path d="M11.333 10.8c-1.029 0-1.867 0.837-1.867 1.867s0.838 1.867 1.867 1.867 1.867-0.837 1.867-1.867-0.838-1.867-1.867-1.867z"></path>
<path d="M20.667 10.8c-1.029 0-1.867 0.837-1.867 1.867s0.838 1.867 1.867 1.867 1.867-0.837 1.867-1.867-0.838-1.867-1.867-1.867z"></path>
<path d="M25.334 6.666c-2.493-2.493-5.808-3.866-9.334-3.866s-6.841 1.373-9.334 3.866c-2.493 2.493-3.866 5.808-3.866 9.334v9.6c0 1.985 1.615 3.6 3.6 3.6s3.6-1.615 3.6-3.6c0-0.662 0.538-1.2 1.2-1.2s1.2 0.538 1.2 1.2c0 1.985 1.615 3.6 3.6 3.6s3.6-1.615 3.6-3.6c0-0.662 0.538-1.2 1.2-1.2s1.2 0.538 1.2 1.2c0 1.985 1.615 3.6 3.6 3.6s3.6-1.615 3.6-3.6v-9.6c0-3.526-1.373-6.841-3.866-9.334zM26.8 25.6c0 0.662-0.538 1.2-1.2 1.2s-1.2-0.538-1.2-1.2c0-1.985-1.615-3.6-3.6-3.6s-3.6 1.615-3.6 3.6c0 0.662-0.538 1.2-1.2 1.2s-1.2-0.538-1.2-1.2c0-1.985-1.615-3.6-3.6-3.6s-3.6 1.615-3.6 3.6c0 0.662-0.538 1.2-1.2 1.2s-1.2-0.538-1.2-1.2v-9.6c0-2.885 1.123-5.597 3.163-7.637s4.752-3.163 7.637-3.163c2.885 0 5.597 1.123 7.637 3.163s3.163 4.752 3.163 7.637v9.6z"></path>
</svg>
