<?xml version="1.0" encoding="utf-8"?>
<!-- Generated by IcoMoon.io -->
<!DOCTYPE svg PUBLIC "-//W3C//DTD SVG 1.1//EN" "http://www.w3.org/Graphics/SVG/1.1/DTD/svg11.dtd">
<svg version="1.1" xmlns="http://www.w3.org/2000/svg" xmlns:xlink="http://www.w3.org/1999/xlink" width="32" height="32" viewBox="0 0 32 32">
<path d="M25.2 11.503v-4.836c0-0.663-0.537-1.2-1.2-1.2s-1.2 0.537-1.2 1.2v2.436l-5.951-5.951c-0.468-0.469-1.229-0.469-1.697 0l-12 12c-0.469 0.469-0.469 1.229 0 1.697s1.229 0.469 1.697 0l1.951-1.951v13.103c0 0.663 0.537 1.2 1.2 1.2h16c0.663 0 1.2-0.537 1.2-1.2v-13.103l1.951 1.951c0.234 0.234 0.541 0.351 0.849 0.351s0.614-0.117 0.849-0.351c0.469-0.469 0.469-1.229 0-1.697l-3.648-3.649zM17.467 26.8h-2.933v-4.267h2.933v4.267zM22.8 26.8h-2.933v-5.467c0-0.663-0.537-1.2-1.2-1.2h-5.333c-0.663 0-1.2 0.537-1.2 1.2v5.467h-2.933v-14.303l6.8-6.8 6.8 6.8v14.303z"></path>
</svg>
