<?xml version="1.0" encoding="utf-8"?>
<!-- Generated by IcoMoon.io -->
<!DOCTYPE svg PUBLIC "-//W3C//DTD SVG 1.1//EN" "http://www.w3.org/Graphics/SVG/1.1/DTD/svg11.dtd">
<svg version="1.1" xmlns="http://www.w3.org/2000/svg" xmlns:xlink="http://www.w3.org/1999/xlink" width="32" height="32" viewBox="0 0 32 32">
<path d="M28 2.933h-24c-0.589 0-1.067 0.478-1.067 1.067v24c0 0.589 0.478 1.067 1.067 1.067h24c0.589 0 1.067-0.478 1.067-1.067v-24c0-0.589-0.478-1.067-1.067-1.067zM10.684 25.202h-3.876v-12.471h3.876v12.471zM8.747 11.026c-1.242 0-2.248-1.007-2.248-2.248 0-1.239 1.006-2.247 2.248-2.247 1.239 0 2.246 1.007 2.246 2.247 0 1.241-1.007 2.248-2.246 2.248zM25.202 25.202h-3.873v-6.065c0-1.447-0.027-3.307-2.014-3.307-2.017 0-2.326 1.576-2.326 3.202v6.17h-3.873v-12.471h3.718v1.704h0.051c0.517-0.981 1.782-2.014 3.667-2.014 3.925 0 4.65 2.583 4.65 5.941v6.841z"></path>
</svg>
