<?xml version="1.0" encoding="utf-8"?>
<!-- Generated by IcoMoon.io -->
<!DOCTYPE svg PUBLIC "-//W3C//DTD SVG 1.1//EN" "http://www.w3.org/Graphics/SVG/1.1/DTD/svg11.dtd">
<svg version="1.1" xmlns="http://www.w3.org/2000/svg" xmlns:xlink="http://www.w3.org/1999/xlink" width="32" height="32" viewBox="0 0 32 32">
<path d="M21.333 9.467h-10.666c-0.663 0-1.2 0.537-1.2 1.2v10.666c0 0.663 0.537 1.2 1.2 1.2h10.666c0.663 0 1.2-0.537 1.2-1.2v-10.666c0-0.663-0.537-1.2-1.2-1.2zM20.133 20.133h-8.266v-8.266h8.266v8.266z"></path>
<path d="M16 0.133c-8.749 0-15.867 7.118-15.867 15.867s7.118 15.867 15.867 15.867 15.867-7.118 15.867-15.867-7.118-15.867-15.867-15.867zM16 29.467c-7.426 0-13.467-6.041-13.467-13.467s6.041-13.467 13.467-13.467 13.467 6.041 13.467 13.467-6.041 13.467-13.467 13.467z"></path>
</svg>
