<?xml version="1.0" encoding="utf-8"?>
<!-- Generated by IcoMoon.io -->
<!DOCTYPE svg PUBLIC "-//W3C//DTD SVG 1.1//EN" "http://www.w3.org/Graphics/SVG/1.1/DTD/svg11.dtd">
<svg version="1.1" xmlns="http://www.w3.org/2000/svg" xmlns:xlink="http://www.w3.org/1999/xlink" width="32" height="32" viewBox="0 0 32 32">
<path d="M27.892 18.175c-0.027 0.023-0.065 0.046-0.106 0.066-0.068 0.035-0.142 0.072-0.209 0.072-0.046 0-0.079-0.013-0.105-0.035-0.011-0.010-0.020-0.022-0.027-0.031-0.006-0.007-0.011-0.016-0.016-0.024-0.018-0.022-0.036-0.058-0.053-0.101-0.107 0.111-0.298 0.205-0.574 0.205-0.235 0-0.421-0.062-0.552-0.196-0.128-0.128-0.203-0.314-0.203-0.571v-1.462c0-0.061 0.010-0.103 0.054-0.137s0.127-0.047 0.233-0.047c0.102 0 0.186 0.013 0.229 0.047 0.042 0.034 0.053 0.075 0.053 0.136v1.395c0 0.208 0.081 0.31 0.314 0.31s0.372-0.146 0.372-0.347v-1.358c0-0.061 0.012-0.103 0.054-0.137 0.044-0.034 0.123-0.047 0.23-0.047 0.103 0 0.187 0.013 0.23 0.047 0.041 0.033 0.053 0.075 0.053 0.136v1.624c0 0.053 0.006 0.101 0.017 0.14 0.009 0.037 0.020 0.066 0.027 0.082 0.019 0.040 0.035 0.079 0.035 0.131-0.002 0.043-0.030 0.077-0.056 0.099v0z"></path>
<path d="M25.353 16.483v1.622c0 0.061-0.011 0.103-0.054 0.137-0.043 0.034-0.126 0.047-0.229 0.047-0.106 0-0.191-0.012-0.233-0.047-0.042-0.033-0.054-0.074-0.054-0.136v-1.578l-0.262 0.020c-0.235 0.018-0.244-0.193-0.244-0.309 0-0.231 0.081-0.314 0.226-0.314h1.132c0.111 0 0.194 0.037 0.227 0.204 0.036 0.186 0.020 0.316-0.176 0.331l-0.333 0.024z"></path>
<path d="M28.914 18.247c-0.043 0.035-0.127 0.048-0.23 0.048-0.106 0-0.19-0.012-0.233-0.048-0.042-0.033-0.054-0.074-0.054-0.137v-2.010c0-0.062 0.012-0.104 0.054-0.138 0.043-0.035 0.127-0.047 0.233-0.047 0.103 0 0.187 0.013 0.23 0.047 0.042 0.034 0.053 0.076 0.053 0.138v2.010c0 0.061-0.012 0.104-0.053 0.137v0z"></path>
<path d="M5.79 16.129l-0.599 2.045c-0.015 0.051-0.035 0.074-0.050 0.085-0.033 0.027-0.095 0.044-0.204 0.044-0.113 0-0.179-0.017-0.211-0.044-0.014-0.011-0.035-0.035-0.050-0.085l-0.278-0.975-0.234 0.975c-0.013 0.050-0.034 0.074-0.049 0.085-0.033 0.027-0.095 0.044-0.205 0.044-0.113 0-0.178-0.017-0.21-0.044-0.015-0.011-0.037-0.034-0.050-0.085l-0.593-2.045c-0.013-0.042-0.024-0.081-0.024-0.111 0-0.035 0.020-0.055 0.034-0.067 0.033-0.027 0.108-0.044 0.218-0.044 0.113 0 0.189 0.018 0.221 0.044 0.022 0.020 0.046 0.071 0.059 0.117l0.362 1.348 0.242-1.010-0.082-0.276c-0.014-0.043-0.024-0.082-0.024-0.113 0-0.035 0.019-0.055 0.034-0.066 0.033-0.027 0.118-0.045 0.228-0.045 0.112 0 0.198 0.018 0.231 0.045 0.022 0.019 0.046 0.071 0.056 0.116l0.326 1.346 0.342-1.346c0.013-0.046 0.037-0.097 0.059-0.116 0.033-0.027 0.109-0.045 0.221-0.045 0.109 0 0.189 0.018 0.222 0.045 0.013 0.010 0.033 0.031 0.033 0.066-0.001 0.031-0.011 0.070-0.025 0.112v0z"></path>
<path d="M6.544 18.314c-0.452 0-0.775-0.325-0.775-0.805 0-0.477 0.322-0.805 0.775-0.805 0.449 0 0.771 0.329 0.771 0.805 0 0.48-0.322 0.805-0.771 0.805v0zM6.544 17.123c-0.178 0-0.278 0.146-0.278 0.385 0 0.235 0.1 0.385 0.278 0.385s0.276-0.147 0.276-0.385c0-0.235-0.098-0.385-0.276-0.385v0z"></path>
<path d="M8.696 16.977c-0.010 0.029-0.023 0.059-0.037 0.088-0.026 0.059-0.071 0.128-0.13 0.128-0.039 0-0.067-0.011-0.098-0.026-0.033-0.014-0.061-0.023-0.095-0.023-0.073 0-0.11 0.020-0.153 0.066-0.044 0.050-0.077 0.118-0.077 0.238v0.696c0 0.057-0.010 0.085-0.040 0.108-0.030 0.028-0.1 0.041-0.205 0.041-0.108 0-0.175-0.014-0.205-0.041-0.029-0.023-0.039-0.051-0.039-0.108v-1.19c0-0.071 0.006-0.113 0.039-0.146 0.028-0.031 0.098-0.053 0.157-0.067 0.050-0.009 0.127-0.024 0.167-0.024 0.030 0 0.067 0.007 0.085 0.023 0.014 0.014 0.023 0.027 0.027 0.046 0.001 0.009 0.002 0.021 0.003 0.034s0 0.029 0 0.047v0.021c0.048-0.071 0.153-0.17 0.299-0.17 0.091 0 0.142 0.015 0.209 0.047 0.071 0.033 0.109 0.080 0.109 0.124 0 0.028-0.007 0.058-0.017 0.087v0z"></path>
<path d="M9.359 18.251c-0.030 0.028-0.1 0.041-0.205 0.041-0.108 0-0.175-0.013-0.205-0.041-0.029-0.023-0.039-0.051-0.039-0.108v-2c0-0.070 0.007-0.112 0.039-0.146 0.029-0.030 0.105-0.051 0.163-0.065 0.049-0.010 0.13-0.025 0.171-0.025 0.031 0 0.066 0.007 0.085 0.023 0.014 0.014 0.023 0.026 0.026 0.046 0.002 0.009 0.003 0.021 0.004 0.034s0 0.028 0 0.046v2.087c0.001 0.057-0.010 0.085-0.039 0.108v0z"></path>
<path d="M11.164 18.251c-0.029 0.028-0.086 0.041-0.194 0.041-0.106 0-0.162-0.013-0.192-0.041-0.029-0.023-0.039-0.051-0.039-0.108v-0.017c-0.065 0.093-0.207 0.185-0.408 0.185-0.155 0-0.32-0.067-0.431-0.187-0.131-0.142-0.198-0.355-0.198-0.617 0-0.499 0.261-0.805 0.629-0.805 0.198 0 0.322 0.085 0.385 0.161v-0.72c0-0.070 0.006-0.112 0.039-0.146 0.029-0.030 0.105-0.052 0.163-0.066 0.049-0.010 0.13-0.025 0.171-0.025 0.030 0 0.067 0.007 0.085 0.023 0.015 0.014 0.023 0.026 0.026 0.046 0.002 0.009 0.003 0.021 0.004 0.034s0 0.028 0 0.046v2.087c0.001 0.057-0.009 0.085-0.039 0.108v0zM10.47 17.152c-0.172 0-0.266 0.143-0.266 0.346 0 0.225 0.107 0.368 0.266 0.368 0.155 0 0.263-0.129 0.263-0.368 0-0.206-0.107-0.346-0.263-0.346v0z"></path>
<path d="M13.143 18.314c-0.453 0-0.774-0.325-0.774-0.805 0-0.477 0.322-0.805 0.774-0.805 0.448 0 0.771 0.329 0.771 0.805 0 0.48-0.323 0.805-0.771 0.805v0zM13.143 17.123c-0.178 0-0.279 0.146-0.279 0.385 0 0.235 0.101 0.385 0.279 0.385s0.276-0.147 0.276-0.385c-0-0.235-0.098-0.385-0.276-0.385v0z"></path>
<path d="M15.393 16.198c-0.008 0.025-0.020 0.047-0.030 0.068-0.008 0.018-0.016 0.034-0.024 0.050s-0.016 0.031-0.025 0.045c-0.019 0.026-0.045 0.043-0.081 0.043-0.038 0-0.066-0.011-0.089-0.021-0.026-0.007-0.047-0.018-0.075-0.026-0.027-0.006-0.061-0.013-0.114-0.013-0.1 0-0.166 0.055-0.166 0.215v0.179h0.302c0.053 0 0.078 0.003 0.097 0.016 0.028 0.017 0.034 0.043 0.034 0.096 0 0.076-0.013 0.186-0.044 0.246-0.026 0.043-0.075 0.053-0.141 0.053h-0.25v0.995c0 0.058-0.010 0.086-0.039 0.11-0.030 0.027-0.101 0.040-0.206 0.040-0.109 0-0.175-0.014-0.205-0.040-0.029-0.023-0.039-0.051-0.039-0.11v-0.996h-0.131c-0.053 0-0.078-0.003-0.097-0.015-0.028-0.017-0.035-0.043-0.035-0.095 0-0.077 0.013-0.188 0.045-0.246 0.026-0.044 0.075-0.054 0.141-0.054h0.077v-0.194c0-0.35 0.191-0.638 0.619-0.638 0.139 0 0.287 0.028 0.382 0.081 0.080 0.046 0.107 0.080 0.107 0.128 0.001 0.032-0.005 0.059-0.014 0.083v0z"></path>
<path d="M17.109 14.819h1.504c0.148 0 0.259 0.049 0.303 0.27 0.048 0.245 0.029 0.416-0.234 0.436l-0.472 0.036c0.347 2.314 2.38 3.068 3.485 0.576 0.183-0.412 0.243-0.487 0.443-0.435 0.272 0.071 0.309 0.218 0.181 0.634-0.957 3.073-4.172 3.38-4.802-0.722l-0.384 0.029c-0.313 0.023-0.325-0.255-0.325-0.409-0.001-0.305 0.107-0.415 0.3-0.415v0z"></path>
<path d="M22.577 13.333c0.309 0 0.558 0.263 0.558 0.588s-0.25 0.588-0.558 0.588c-0.308 0-0.559-0.264-0.559-0.588s0.251-0.588 0.559-0.588v0z"></path>
</svg>
