<?xml version="1.0" encoding="utf-8"?>
<!-- Generated by IcoMoon.io -->
<!DOCTYPE svg PUBLIC "-//W3C//DTD SVG 1.1//EN" "http://www.w3.org/Graphics/SVG/1.1/DTD/svg11.dtd">
<svg version="1.1" xmlns="http://www.w3.org/2000/svg" xmlns:xlink="http://www.w3.org/1999/xlink" width="32" height="32" viewBox="0 0 32 32">
<path d="M16 0.133c-4.238 0-8.222 1.65-11.219 4.647s-4.647 6.981-4.647 11.219c0 4.238 1.65 8.223 4.647 11.219s6.981 4.647 11.219 4.647 8.223-1.65 11.219-4.647c2.997-2.997 4.647-6.981 4.647-11.219s-1.65-8.223-4.647-11.219c-2.997-2.997-6.981-4.647-11.219-4.647zM25.522 25.522c-2.543 2.543-5.925 3.944-9.522 3.944s-6.979-1.401-9.522-3.944c-2.544-2.543-3.945-5.925-3.945-9.522s1.401-6.979 3.945-9.522 5.925-3.944 9.522-3.944c3.597 0 6.979 1.401 9.522 3.944s3.944 5.925 3.944 9.522-1.401 6.979-3.944 9.522z"></path>
<path d="M19.515 7.151c-0.468-0.469-1.229-0.469-1.697 0l-8 8c-0.469 0.469-0.469 1.228 0 1.697l8 8c0.234 0.235 0.541 0.352 0.848 0.352s0.614-0.117 0.849-0.351c0.469-0.469 0.469-1.228 0-1.697l-7.151-7.152 7.151-7.151c0.469-0.469 0.469-1.229 0-1.697z"></path>
</svg>
