<?xml version="1.0" encoding="utf-8"?>
<!-- Generated by IcoMoon.io -->
<!DOCTYPE svg PUBLIC "-//W3C//DTD SVG 1.1//EN" "http://www.w3.org/Graphics/SVG/1.1/DTD/svg11.dtd">
<svg version="1.1" xmlns="http://www.w3.org/2000/svg" xmlns:xlink="http://www.w3.org/1999/xlink" width="32" height="32" viewBox="0 0 32 32">
<path d="M26.644 17.376l-2.986-2.035c0.319-0.467 0.272-1.109-0.142-1.523-0.468-0.469-1.229-0.469-1.697 0l-0.161 0.161-0.502-0.342c0.104-0.399 0.005-0.839-0.307-1.152-0.424-0.424-1.085-0.46-1.554-0.117l-3.859-2.63-1.253-1.254c-0.468-0.469-1.229-0.469-1.697 0s-0.469 1.229 0 1.697l0.982 0.982v2.827c-0.821 0.435-1.955 0.809-2.838 0.809-2.368 0-5.11-1.216-5.137-1.227-0.587-0.265-1.278-0.018-1.566 0.558-1.505 3.010-1.505 6.063 0 9.073 0.203 0.407 0.619 0.663 1.073 0.663h21c1.765 0 3.2-1.435 3.2-3.2 0-1.631-1.909-2.906-2.556-3.291zM26 21.467h-20.228c-0.718-1.765-0.761-3.498-0.13-5.259 1.187 0.423 3.13 0.992 4.987 0.992 1.71 0 3.646-0.802 4.721-1.547 0.323-0.224 0.517-0.592 0.517-0.986v-1.73l1.685 1.148-1.067 1.067c-0.469 0.469-0.469 1.229 0 1.697 0.234 0.234 0.542 0.351 0.849 0.351s0.614-0.117 0.849-0.351l1.388-1.388 0.361 0.246-0.779 0.779c-0.469 0.469-0.469 1.229 0 1.697 0.234 0.234 0.541 0.351 0.848 0.351s0.614-0.117 0.849-0.351l1.101-1.101 3.375 2.3c0.022 0.015 0.046 0.030 0.069 0.044 0.617 0.362 1.315 0.993 1.406 1.269-0.015 0.428-0.368 0.772-0.799 0.772z"></path>
</svg>
