<?xml version="1.0" encoding="utf-8"?>
<!-- Generated by IcoMoon.io -->
<!DOCTYPE svg PUBLIC "-//W3C//DTD SVG 1.1//EN" "http://www.w3.org/Graphics/SVG/1.1/DTD/svg11.dtd">
<svg version="1.1" xmlns="http://www.w3.org/2000/svg" xmlns:xlink="http://www.w3.org/1999/xlink" width="32" height="32" viewBox="0 0 32 32">
<path d="M16 29.2c7.278 0 13.2-5.922 13.2-13.2s-5.922-13.2-13.2-13.2-13.2 5.922-13.2 13.2 5.922 13.2 13.2 13.2zM16 5.2c5.955 0 10.8 4.845 10.8 10.8s-4.845 10.8-10.8 10.8-10.8-4.845-10.8-10.8 4.845-10.8 10.8-10.8z"></path>
<path d="M16 17.867c1.029 0 1.867-0.837 1.867-1.867s-0.838-1.867-1.867-1.867-1.867 0.837-1.867 1.867 0.838 1.867 1.867 1.867z"></path>
<path d="M16 23.867c4.338 0 7.867-3.529 7.867-7.867s-3.529-7.867-7.867-7.867-7.867 3.529-7.867 7.867 3.529 7.867 7.867 7.867zM16 10.533c3.014 0 5.467 2.452 5.467 5.467s-2.452 5.467-5.467 5.467-5.467-2.452-5.467-5.467 2.452-5.467 5.467-5.467z"></path>
</svg>
