<?xml version="1.0" encoding="utf-8"?>
<!-- Generated by IcoMoon.io -->
<!DOCTYPE svg PUBLIC "-//W3C//DTD SVG 1.1//EN" "http://www.w3.org/Graphics/SVG/1.1/DTD/svg11.dtd">
<svg version="1.1" xmlns="http://www.w3.org/2000/svg" xmlns:xlink="http://www.w3.org/1999/xlink" width="32" height="32" viewBox="0 0 32 32">
<path d="M28 6.8h-1.467v-0.133c0-2.133-1.733-3.867-3.867-3.867h-10.667c-2.133 0-3.867 1.733-3.867 3.867v0.133h-4.133c-0.667 0-1.2 0.533-1.2 1.2s0.533 1.2 1.2 1.2h4.133v18.8c0 0.427 0.24 0.827 0.613 1.040s0.827 0.213 1.2-0.027c0.533-0.32 2.213-1.173 3.387-1.173 3.627 0 6.107 1.2 6.133 1.2 0.16 0.080 0.347 0.133 0.533 0.133 1.36 0 1.573-1.627 1.76-3.2 0.027-0.24 0.053-0.507 0.080-0.8h3.493c0.667 0 1.2-0.533 1.2-1.2v-14.773h1.467c0.667 0 1.2-0.533 1.2-1.2s-0.533-1.2-1.2-1.2zM20.133 7.973c-0.16 10.053-0.507 16.187-0.853 18.453-1.253-0.427-3.333-0.96-5.947-0.96-0.96 0-1.973 0.293-2.8 0.613v-19.413c0-0.8 0.667-1.467 1.467-1.467h10.667c0.8 0 1.467 0.667 1.467 1.467v0.133h-2.8c0 0-1.093 0-1.2 1.173zM24.133 22.8h-2.107c0.053-0.64 0.080-1.333 0.133-2.080 0.213-4.080 0.32-8.827 0.373-11.52h1.627v13.6z"></path>
</svg>
