<?xml version="1.0" encoding="utf-8"?>
<!-- Generated by IcoMoon.io -->
<!DOCTYPE svg PUBLIC "-//W3C//DTD SVG 1.1//EN" "http://www.w3.org/Graphics/SVG/1.1/DTD/svg11.dtd">
<svg version="1.1" xmlns="http://www.w3.org/2000/svg" xmlns:xlink="http://www.w3.org/1999/xlink" width="32" height="32" viewBox="0 0 32 32">
<path d="M13.333 12.133h-1.333c-0.663 0-1.2 0.537-1.2 1.2v1.333c0 0.663 0.537 1.2 1.2 1.2h1.333c0.663 0 1.2-0.537 1.2-1.2v-1.333c0-0.663-0.537-1.2-1.2-1.2z"></path>
<path d="M18.667 12.133h-1.333c-0.663 0-1.2 0.537-1.2 1.2v1.333c0 0.663 0.537 1.2 1.2 1.2h1.333c0.663 0 1.2-0.537 1.2-1.2v-1.333c0-0.663-0.537-1.2-1.2-1.2z"></path>
<path d="M13.333 6.8h-1.333c-0.663 0-1.2 0.537-1.2 1.2v1.333c0 0.663 0.537 1.2 1.2 1.2h1.333c0.663 0 1.2-0.537 1.2-1.2v-1.333c0-0.663-0.537-1.2-1.2-1.2z"></path>
<path d="M18.667 6.8h-1.333c-0.663 0-1.2 0.537-1.2 1.2v1.333c0 0.663 0.537 1.2 1.2 1.2h1.333c0.663 0 1.2-0.537 1.2-1.2v-1.333c0-0.663-0.537-1.2-1.2-1.2z"></path>
<path d="M26.667 26.8h-1.467v-22.8c0-0.663-0.537-1.2-1.2-1.2h-17.333c-0.663 0-1.2 0.537-1.2 1.2v22.8h-1.467c-0.663 0-1.2 0.537-1.2 1.2s0.537 1.2 1.2 1.2h22.667c0.663 0 1.2-0.537 1.2-1.2s-0.537-1.2-1.2-1.2zM13.2 26.8v-5.6h4.267v5.6h-4.267zM19.867 26.8v-6.8c0-0.663-0.537-1.2-1.2-1.2h-6.667c-0.663 0-1.2 0.537-1.2 1.2v6.8h-2.933v-21.6h14.933v21.6h-2.933z"></path>
</svg>
