<?xml version="1.0" encoding="utf-8"?>
<!-- Generated by IcoMoon.io -->
<!DOCTYPE svg PUBLIC "-//W3C//DTD SVG 1.1//EN" "http://www.w3.org/Graphics/SVG/1.1/DTD/svg11.dtd">
<svg version="1.1" xmlns="http://www.w3.org/2000/svg" xmlns:xlink="http://www.w3.org/1999/xlink" width="32" height="32" viewBox="0 0 32 32">
<path d="M26.179 4.486c-0.225-0.225-0.53-0.351-0.848-0.351l-8.131-0.001v-0.134c0-0.663-0.537-1.2-1.2-1.2s-1.2 0.537-1.2 1.2v0.134l-2.8-0c0 0 0 0 0 0-0.318 0-0.623 0.126-0.849 0.351s-0.352 0.53-0.352 0.849v5.333c0 0.318 0.126 0.623 0.351 0.849s0.53 0.351 0.849 0.351h2.8v1.6h-8.099c-0.316 0-0.618 0.124-0.843 0.346l-2.701 2.667c-0.229 0.226-0.357 0.533-0.357 0.854s0.129 0.629 0.357 0.854l2.701 2.667c0.225 0.222 0.527 0.346 0.843 0.346h8.099v6.8c0 0.663 0.537 1.2 1.2 1.2s1.2-0.537 1.2-1.2v-6.8h2.8c0.002 0 0.003-0 0.005 0 0.663 0 1.2-0.537 1.2-1.2 0-0.038-0.002-0.077-0.005-0.114v-5.219c0-0.663-0.537-1.2-1.2-1.2h-2.8v-1.6h8.133c0.318 0 0.623-0.126 0.849-0.351l2.667-2.667c0.225-0.225 0.351-0.531 0.351-0.849s-0.127-0.624-0.352-0.849l-2.669-2.665zM18.8 15.867v2.933h-11.606l-1.486-1.467 1.486-1.467h11.606zM24.836 9.467h-11.636v-2.933l11.635 0.002 1.467 1.465-1.466 1.466z"></path>
</svg>
