<?xml version="1.0" encoding="utf-8"?>
<!-- Generated by IcoMoon.io -->
<!DOCTYPE svg PUBLIC "-//W3C//DTD SVG 1.1//EN" "http://www.w3.org/Graphics/SVG/1.1/DTD/svg11.dtd">
<svg version="1.1" xmlns="http://www.w3.org/2000/svg" xmlns:xlink="http://www.w3.org/1999/xlink" width="32" height="32" viewBox="0 0 32 32">
<path d="M28 5.466h-24c-0.663 0-1.2 0.537-1.2 1.2v18.667c0 0.663 0.537 1.2 1.2 1.2h24c0.663 0 1.2-0.537 1.2-1.2v-18.667c0-0.663-0.537-1.2-1.2-1.2zM26.8 24.133h-21.6v-16.267h21.6v16.267z"></path>
<path d="M21.333 20.133h-10.667c-0.663 0-1.2 0.537-1.2 1.2s0.537 1.2 1.2 1.2h10.667c0.663 0 1.2-0.537 1.2-1.2s-0.537-1.2-1.2-1.2z"></path>
<path d="M8 18.533h16c0.663 0 1.2-0.537 1.2-1.2s-0.537-1.2-1.2-1.2h-1.48c0.005-0.044 0.013-0.087 0.013-0.133 0-1.745-0.68-3.386-1.914-4.619s-2.874-1.914-4.619-1.914-3.386 0.68-4.619 1.914c-1.234 1.234-1.914 2.875-1.914 4.62 0 0.046 0.009 0.089 0.013 0.133h-1.48c-0.663 0-1.2 0.537-1.2 1.2s0.537 1.2 1.2 1.2zM11.867 16c0-1.104 0.43-2.142 1.211-2.923s1.818-1.21 2.922-1.21 2.142 0.43 2.922 1.211c0.781 0.781 1.211 1.818 1.211 2.923 0 0.046 0.009 0.089 0.013 0.133h-8.293c0.005-0.044 0.013-0.087 0.013-0.133z"></path>
</svg>
