<?xml version="1.0" encoding="utf-8"?>
<!-- Generated by IcoMoon.io -->
<!DOCTYPE svg PUBLIC "-//W3C//DTD SVG 1.1//EN" "http://www.w3.org/Graphics/SVG/1.1/DTD/svg11.dtd">
<svg version="1.1" xmlns="http://www.w3.org/2000/svg" xmlns:xlink="http://www.w3.org/1999/xlink" width="32" height="32" viewBox="0 0 32 32">
<path fill="#737373" d="M11.573 25.2h0.427c0.48 0 0.933-0.293 1.12-0.747s0.080-0.96-0.267-1.307l-1.333-1.333c-0.48-0.48-1.227-0.48-1.707 0l-1.333 1.333c-0.4 0.4-0.48 1.040-0.16 1.52l2.667 4c0.24 0.347 0.613 0.533 0.987 0.533 0.24 0 0.453-0.053 0.667-0.213 0.56-0.373 0.693-1.12 0.32-1.653l-1.387-2.133z"></path>
<path fill="#737373" d="M22.187 21.813c-0.48-0.48-1.227-0.48-1.707 0l-1.333 1.333c-0.347 0.347-0.453 0.853-0.267 1.307s0.613 0.747 1.12 0.747h0.427l-1.413 2.133c-0.373 0.56-0.213 1.307 0.32 1.653 0.213 0.133 0.427 0.213 0.667 0.213 0.4 0 0.773-0.187 0.987-0.533l2.667-4c0.32-0.48 0.267-1.12-0.16-1.52l-1.307-1.333z"></path>
<path fill="#737373" d="M24.853 17.813l-5.333-5.333c-0.213-0.213-0.533-0.347-0.853-0.347h-5.333c-0.32 0-0.613 0.133-0.853 0.347l-5.333 5.333c-0.48 0.48-0.48 1.227 0 1.707s1.227 0.48 1.707 0l3.28-3.28v3.76c0 0.667 0.533 1.2 1.2 1.2h5.333c0.667 0 1.2-0.533 1.2-1.2v-3.76l3.28 3.28c0.24 0.24 0.533 0.347 0.853 0.347s0.613-0.107 0.853-0.347c0.453-0.48 0.453-1.227 0-1.707zM14.533 18.8v-4.267h2.933v4.267h-2.933z"></path>
<path fill="#737373" d="M16 10.533c2.133 0 3.867-1.733 3.867-3.867s-1.733-3.867-3.867-3.867-3.867 1.733-3.867 3.867 1.733 3.867 3.867 3.867zM16 5.2c0.8 0 1.467 0.667 1.467 1.467s-0.667 1.467-1.467 1.467-1.467-0.667-1.467-1.467 0.667-1.467 1.467-1.467z"></path>
</svg>
