<?xml version="1.0" encoding="utf-8"?>
<!-- Generated by IcoMoon.io -->
<!DOCTYPE svg PUBLIC "-//W3C//DTD SVG 1.1//EN" "http://www.w3.org/Graphics/SVG/1.1/DTD/svg11.dtd">
<svg version="1.1" xmlns="http://www.w3.org/2000/svg" xmlns:xlink="http://www.w3.org/1999/xlink" width="32" height="32" viewBox="0 0 32 32">
<path d="M12 6.8c-2.867 0-5.2 2.333-5.2 5.2 0 0.663 0.537 1.2 1.2 1.2s1.2-0.537 1.2-1.2c0-1.544 1.256-2.8 2.8-2.8 0.663 0 1.2-0.537 1.2-1.2s-0.537-1.2-1.2-1.2z"></path>
<path d="M27.518 25.894c0.769-1.444 0.662-3.327-0.381-4.631l-5.876-7.346c-0.065-0.081-0.14-0.148-0.22-0.207 0.104-0.558 0.159-1.129 0.159-1.71 0-5.073-4.127-9.2-9.2-9.2s-9.2 4.127-9.2 9.2c0 5.073 4.127 9.2 9.201 9.2 0.58 0 1.151-0.055 1.709-0.159 0.060 0.079 0.126 0.155 0.207 0.22l7.346 5.877c0.74 0.592 1.667 0.883 2.594 0.883 0.671 0 1.341-0.154 1.941-0.454 0.538 0.572 1.001 1.996 1.001 3.101 0 0.663 0.537 1.2 1.2 1.2s1.2-0.537 1.2-1.2c0-1.52-0.578-3.621-1.682-4.773zM12 18.8c-3.75 0-6.8-3.050-6.8-6.8s3.050-6.8 6.8-6.8c3.75 0 6.8 3.051 6.8 6.8 0 1.816-0.707 3.524-1.992 4.808s-2.992 1.991-4.808 1.991v0zM22.762 25.263l-6.428-5.143c0.789-0.422 1.521-0.964 2.172-1.615s1.193-1.382 1.615-2.172l5.143 6.428c0.53 0.663 0.469 1.77-0.131 2.37s-1.708 0.662-2.37 0.132z"></path>
</svg>
