<?xml version="1.0" encoding="utf-8"?>
<!-- Generated by IcoMoon.io -->
<!DOCTYPE svg PUBLIC "-//W3C//DTD SVG 1.1//EN" "http://www.w3.org/Graphics/SVG/1.1/DTD/svg11.dtd">
<svg version="1.1" xmlns="http://www.w3.org/2000/svg" xmlns:xlink="http://www.w3.org/1999/xlink" width="32" height="32" viewBox="0 0 32 32">
<path d="M28.853 8.48l-5.333-5.333c-0.48-0.48-1.227-0.48-1.707 0l-18.667 18.667c-0.213 0.213-0.347 0.533-0.347 0.853v5.333c0 0.667 0.533 1.2 1.2 1.2h5.333c0.32 0 0.613-0.133 0.853-0.347l18.667-18.667c0.453-0.48 0.453-1.227 0-1.707zM8.827 26.8h-3.627v-3.627l13.413-13.413 0.987 0.96-11.12 11.093c-0.48 0.48-0.48 1.227 0 1.707 0.24 0.24 0.533 0.347 0.853 0.347s0.613-0.107 0.853-0.347l11.147-11.147 0.987 0.96-13.493 13.467zM24 11.653l-3.68-3.6 2.347-2.347 3.627 3.627-2.293 2.32z"></path>
</svg>
