<?xml version="1.0" encoding="utf-8"?>
<!-- Generated by IcoMoon.io -->
<!DOCTYPE svg PUBLIC "-//W3C//DTD SVG 1.1//EN" "http://www.w3.org/Graphics/SVG/1.1/DTD/svg11.dtd">
<svg version="1.1" xmlns="http://www.w3.org/2000/svg" xmlns:xlink="http://www.w3.org/1999/xlink" width="32" height="32" viewBox="0 0 32 32">
<path d="M28 2.933h-24c-0.589 0-1.067 0.478-1.067 1.067v24c0 0.589 0.478 1.067 1.067 1.067h24c0.589 0 1.067-0.478 1.067-1.067v-24c0-0.589-0.478-1.067-1.067-1.067zM26.667 16.806c0 1.726-0.213 3.453-0.213 3.453s-0.209 1.47-0.848 2.118c-0.811 0.85-1.721 0.854-2.138 0.904-2.985 0.215-7.468 0.222-7.468 0.222s-5.547-0.051-7.253-0.214c-0.475-0.089-1.541-0.062-2.352-0.912-0.639-0.647-0.848-2.117-0.848-2.117s-0.213-1.726-0.213-3.453v-1.618c0-1.726 0.213-3.453 0.213-3.453s0.208-1.47 0.848-2.118c0.811-0.85 1.721-0.854 2.138-0.904 2.985-0.216 7.463-0.216 7.463-0.216h0.009c0 0 4.478 0 7.463 0.216 0.417 0.050 1.326 0.054 2.138 0.904 0.64 0.647 0.848 2.118 0.848 2.118s0.213 1.726 0.213 3.453v1.618z"></path>
<path d="M13.798 18.767l5.763-2.987-5.765-3.007z"></path>
</svg>
